<svg width="279" height="53" viewBox="0 0 279 53" fill="none" xmlns="http://www.w3.org/2000/svg">
<path d="M27.0831 11.8731C19.2465 11.6274 12.7885 18.0234 12.0764 25.6032C11.2827 34.0577 18.5634 40.737 26.6095 40.9879C26.6279 40.9886 26.6476 40.9879 26.6668 40.986C26.6977 40.984 26.734 40.98 26.7471 40.982C26.7544 40.9833 26.7617 40.984 26.7715 40.984C34.566 40.7403 40.8804 35.0892 41.6155 27.2552C42.4092 18.8014 35.1285 12.1234 27.0831 11.8731ZM16.0036 18.2138C16.8283 17.1341 17.8111 16.1725 18.9144 15.3648C19.2076 15.1501 19.2432 15.1956 18.9829 15.4499C18.0344 16.3786 17.0773 17.3159 16.0866 18.2856C15.8277 18.5399 15.7829 18.5029 16.0036 18.2138ZM16.026 18.3778C17.1406 17.2962 17.8118 16.6546 17.1649 17.3199C16.9713 17.5063 16.5503 17.9128 15.9562 18.4878C15.6947 18.7408 15.4991 18.9213 15.5181 18.8909C15.5372 18.86 15.7652 18.6301 16.026 18.3778ZM13.5084 28.4264C13.4814 28.2966 13.4558 28.1655 13.4353 28.0325C13.4301 27.9982 13.4255 27.964 13.4215 27.9297C13.4149 27.8717 13.5737 27.6564 13.7772 27.4469C13.9807 27.2374 14.1639 27.304 14.1988 27.5951C14.233 27.8863 14.1171 28.2775 13.9307 28.4705C13.7436 28.6615 13.5532 28.6431 13.5084 28.4264ZM13.8444 29.859C13.7904 29.6727 13.8958 29.3789 14.0736 29.2023C14.2521 29.0265 14.4273 29.0489 14.4701 29.253C14.5124 29.4572 14.4162 29.7517 14.2495 29.9111C14.0835 30.0699 13.8984 30.0455 13.8444 29.859ZM14.181 30.9058C14.0584 30.5678 14.1059 30.1568 14.2706 29.9928C14.4353 29.8294 14.6355 29.9829 14.7324 30.3346C14.7349 30.3465 14.7382 30.3577 14.7415 30.3689C14.8391 30.7193 14.8167 31.1145 14.6737 31.2568C14.5321 31.3972 14.3035 31.2423 14.181 30.9058ZM16.1723 33.9714C16.0234 34.1097 15.7329 33.9819 15.5392 33.6736C15.3607 33.3898 15.1914 33.098 15.0314 32.7989C14.8601 32.4781 14.7475 32.1975 14.7653 32.1816C14.7758 32.1711 14.7857 32.1625 14.7962 32.152C14.864 32.0829 14.9313 32.013 14.9985 31.9445C15.1097 31.8292 15.3074 32.0124 15.4681 32.3391C15.6308 32.6685 15.808 32.9701 16.0017 33.231C16.2203 33.5214 16.3212 33.8324 16.1723 33.9714ZM16.5273 26.4483C19.1648 26.3587 21.7792 25.9918 24.36 25.4602C24.7164 25.3864 25.2973 25.3555 25.6583 25.4016C27.7727 25.6723 28.3636 25.9542 27.4289 26.2487C26.62 26.5365 25.8539 26.8541 25.0806 27.2255C23.8726 27.8065 22.7725 28.5996 21.7272 29.4296C20.5032 30.4025 19.4315 31.5512 18.4685 32.7791C18.2445 33.0663 17.7531 33.3746 17.5147 33.0999C16.7407 32.2067 15.7764 29.2946 15.6611 28.8374C15.5405 28.2795 15.4602 27.7169 15.4194 27.1485C15.3106 26.1374 15.6782 26.4766 16.5273 26.4483ZM39.9858 23.519C40.0419 23.741 39.9272 24.0783 39.7368 24.2699C39.5464 24.4616 39.3917 24.4122 39.3627 24.1612C39.3344 23.9109 39.4259 23.5776 39.5867 23.4142C39.7481 23.2509 39.9299 23.2964 39.9858 23.519ZM39.0709 21.7168C39.2 21.5772 39.4075 21.7089 39.5208 22.0158C39.6334 22.3228 39.5945 22.7042 39.4463 22.8629C39.2982 23.0217 39.115 22.8814 39.0208 22.556C38.926 22.2299 38.9405 21.8564 39.0709 21.7168ZM38.866 21.2089C38.7396 21.3348 38.5274 21.1615 38.3621 20.8374C37.6441 19.4317 36.5316 18.4483 34.9296 19.5595C34.8822 19.5925 34.844 19.6241 34.8117 19.655C33.5055 20.925 32.0188 21.9078 30.3951 22.7285C29.6013 23.1297 29.0829 23.7107 29.2298 24.6118C29.3576 25.393 29.7976 26.1598 30.6256 26.2105C32.4167 26.3218 34.2017 26.1676 35.9993 26.3343C36.8978 26.418 37.6619 26.4463 38.237 26.2988C38.5894 26.2085 38.9069 26.0399 38.9951 26.0518C39.0834 26.0636 39.362 25.8627 39.6169 25.6032C39.6809 25.5373 39.7441 25.4728 39.8093 25.4075C40.0642 25.148 40.3152 25.229 40.3495 25.5913C40.5049 27.2031 40.3462 28.763 39.9292 30.2266C39.8297 30.5764 39.6275 30.9565 39.4964 31.0823C39.4174 31.1587 39.339 31.2351 39.2606 31.3115C38.8904 31.6718 38.5716 31.9814 38.3002 32.2449C38.0394 32.4978 37.8338 32.6922 37.8424 32.679C37.8509 32.6652 38.069 32.4485 38.3298 32.1955C38.4708 32.0585 38.6236 31.9096 38.7897 31.7489C39.0505 31.4959 39.0505 31.4953 38.787 31.7476C38.6421 31.8872 38.4965 32.0288 38.3476 32.1718C38.0861 32.4241 38.0334 32.3813 38.2146 32.0651C38.6434 31.3128 39.0122 30.4875 39.1117 29.7451C39.1598 29.3848 39.2856 28.9237 39.4853 28.7188C39.6862 28.5153 39.783 28.29 39.6907 28.2262C39.5998 28.1635 39.4029 28.2426 39.2639 28.3862C39.1249 28.5298 38.9069 28.3618 38.6454 28.1174C38.3845 27.8737 38.0651 27.7268 38.0031 27.7018C37.9708 27.6887 37.9327 27.6774 37.8872 27.6682C36.5915 27.4126 35.2945 27.2769 33.9751 27.2578C33.1781 27.2466 31.775 27.1617 31.2737 27.9804C31.1552 28.1728 31.086 28.3724 31.0504 28.5759C30.9899 28.9243 31.0248 29.174 31.0064 29.1239C30.9873 29.0739 30.8113 29.1944 30.6124 29.3933C30.4135 29.5923 30.1467 29.4783 30.0024 29.1443C29.8727 28.8407 29.7337 28.5423 29.5829 28.2538C29.4498 27.9988 29.102 27.9752 28.8491 28.0601C26.3631 28.9026 24.1097 30.2036 22.1131 31.9037C20.8866 32.9484 18.7366 34.773 19.4829 36.5423C19.8222 37.3472 21.3523 37.8399 22.0677 38.0942C23.5768 38.6324 25.1557 38.9861 26.7676 38.9387C28.4763 38.8879 31.3284 38.8142 31.8653 36.9243C31.9648 36.5752 32.136 36.0891 32.3606 35.8619C32.5859 35.6333 32.7868 35.5101 32.8105 35.5859C32.8237 35.6306 32.8382 35.6774 32.854 35.7216C33.2084 36.6681 33.9903 36.5133 34.7774 36.0101C35.0844 35.8144 35.3465 35.6735 35.3999 35.7275C35.4539 35.7815 35.7154 35.6049 35.973 35.3481C36.9064 34.416 37.8411 33.4786 38.7758 32.5426C39.0327 32.2844 39.119 32.345 38.951 32.6671C36.7055 36.9658 32.1163 39.9814 27.0383 40.1837C25.7071 40.1395 24.4364 39.9162 23.2375 39.5493C22.8898 39.4426 22.6276 39.3267 22.6467 39.3062C22.6652 39.2865 22.4115 39.1482 22.0895 38.9796C22.0433 38.9552 21.9972 38.9307 21.9511 38.9071C21.6303 38.7345 21.3378 38.6206 21.2884 38.6693C21.2391 38.7173 20.9327 38.6284 20.6139 38.4539C20.4084 38.3412 20.2075 38.2233 20.0093 38.1008C19.6996 37.9098 19.5211 37.6773 19.6002 37.5982C19.6792 37.5192 19.6081 37.3472 19.4486 37.2063C19.2886 37.066 19.0811 37.0225 18.9829 37.1121C18.8842 37.203 18.5693 37.0976 18.2913 36.8618C18.0542 36.6615 17.8236 36.4541 17.6003 36.238C17.3388 35.985 17.24 35.6662 17.3652 35.5384C17.4897 35.412 17.5582 35.267 17.5193 35.2137C17.4805 35.1603 17.3402 35.2183 17.2064 35.3415C17.0727 35.4647 16.8257 35.412 16.6584 35.2196C16.4917 35.0273 16.4825 34.7552 16.6294 34.6222C16.7763 34.4878 16.8106 34.254 16.7137 34.0952C16.6169 33.9365 16.7664 34.0109 17.1096 34.1314C17.6826 34.3317 18.3447 34.1986 19.1042 33.5703C19.1377 33.5419 19.1648 33.5156 19.1865 33.4905C19.2273 33.4431 19.421 33.1559 19.647 32.872C21.5039 30.5369 23.8462 28.5799 26.5844 27.3942C26.9177 27.2493 27.0238 27.3118 26.8143 27.518C26.6048 27.7235 26.5061 27.8474 26.5956 27.7979C26.6852 27.7479 26.9138 27.5615 27.1048 27.3803C27.2965 27.1992 27.5784 27.0042 27.7359 26.9436C27.8307 26.9067 27.9255 26.8718 28.0231 26.8408C28.2101 26.7816 28.5428 26.6492 28.5652 26.4094C28.5717 26.3363 28.575 26.2665 28.5757 26.1993C28.577 26.0827 28.749 25.8205 28.9663 25.6143C29.1844 25.4075 29.3484 25.2205 29.3325 25.1974C29.3167 25.1743 29.2871 25.171 29.2687 25.1895C29.2864 25.171 29.295 25.148 29.2845 25.1387C29.2746 25.1296 29.108 25.2771 28.913 25.4681C28.718 25.6591 28.5461 25.5063 28.3781 25.1842C27.6542 23.8082 25.1122 24.5275 23.8119 24.8094C21.6672 25.2744 19.4612 25.4925 17.2736 25.6249C16.5833 25.6671 15.8093 25.5946 15.1104 25.7434C14.7547 25.8199 14.4768 25.7889 14.4814 25.5834C14.4859 25.3779 14.2923 25.4194 14.0335 25.6749C13.9406 25.7658 13.8483 25.8575 13.7561 25.949C13.4972 26.2046 13.2772 26.117 13.2871 25.7533C13.295 25.4431 13.3148 25.1354 13.3457 24.8305C13.382 24.4682 13.6428 23.9741 13.907 23.7239C14.0163 23.6198 14.1257 23.5164 14.235 23.4123C14.4985 23.1613 14.677 23.2687 14.8285 23.5994C14.9925 23.9577 15.3403 24.2198 15.9424 24.3266C15.9614 24.3298 15.9826 24.3319 16.0036 24.3319C16.0379 24.3319 16.1057 24.3364 16.1565 24.3417C16.1841 24.3444 16.2137 24.3457 16.248 24.3444C19.2029 24.2231 22.9075 24.1744 25.6187 22.9104C25.9758 22.7437 26.1695 22.4888 26.2419 22.1733C26.3236 21.8182 26.4105 21.3677 26.6141 21.1826C26.817 20.9968 26.9751 20.8361 26.9671 20.8229C26.9599 20.8104 26.7952 20.9612 26.5996 21.1588C26.4039 21.3572 26.2136 21.3149 26.1385 21.0732C26.0628 20.8315 26.099 20.5199 26.2485 20.3671C26.398 20.2136 26.4777 20.0213 26.4257 19.937C26.3737 19.8526 26.2189 19.9034 26.0772 20.0476C25.9356 20.1919 25.6873 20.0417 25.5048 19.7275C25.3968 19.5417 25.2815 19.3553 25.1616 19.1709C24.964 18.8659 24.8817 18.5385 24.9904 18.4311C25.0563 18.3659 25.1221 18.3014 25.1873 18.2368C25.2018 18.221 25.2163 18.2046 25.2308 18.1881C25.2545 18.1611 25.155 17.9589 25.0068 17.7362C24.8579 17.5135 24.6228 17.4497 24.4825 17.5939C24.3422 17.7376 24.1387 17.7349 24.026 17.5887C23.9141 17.4418 23.9417 17.2007 24.0893 17.0492C24.2368 16.8977 24.3501 16.7659 24.3422 16.7547C24.3343 16.7435 24.2098 16.8595 24.0622 17.013C23.9154 17.1658 23.7902 17.2837 23.7836 17.2751C23.777 17.2665 23.8436 17.1902 23.9325 17.1045C23.9918 17.0465 24.0464 16.9945 24.0939 16.9497C24.1347 16.9082 24.1729 16.8707 24.2072 16.8358C24.2697 16.7732 24.2974 16.6908 24.2697 16.65C24.2526 16.6243 24.2355 16.5999 24.219 16.5769C24.1597 16.4919 24.0906 16.4149 24.0141 16.3464C23.887 16.2331 23.6545 16.266 23.5181 16.3912C23.3824 16.5163 23.2218 16.5518 23.1605 16.4695C23.1184 16.4135 23.0814 16.3622 23.0511 16.318C21.4511 13.9948 18.3276 17.1612 17.242 18.3363C16.6907 18.9331 15.5181 20.4343 14.9853 21.7925C14.8522 22.1311 14.5788 22.6298 14.3226 22.888C14.2054 23.0065 14.0881 23.1251 13.9708 23.243C13.7146 23.5018 13.5618 23.4208 13.6494 23.0678C13.7706 22.5804 13.9201 22.1021 14.0967 21.6351C14.2251 21.2945 14.5512 20.815 14.8061 20.5555C15.393 19.9574 15.9793 19.3593 16.5628 18.7677C16.8184 18.5082 17.1939 18.057 17.4172 17.7698C18.1214 16.8635 18.9335 16.0453 19.834 15.3339C20.1193 15.108 20.5671 14.7286 20.824 14.471C20.853 14.442 20.882 14.413 20.9117 14.3834C21.1686 14.1258 21.6435 13.7925 21.9807 13.6555C22.486 13.4507 23.0043 13.2748 23.534 13.1299C23.8851 13.0337 24.1664 12.9771 24.1591 12.985C24.1512 12.9922 24.2177 12.9751 24.3086 12.9494C24.3633 12.9342 24.4179 12.9191 24.4726 12.9033C24.9337 12.8111 25.402 12.7412 25.8757 12.6964C31.5235 12.1655 36.3952 15.627 38.8094 20.3875C38.976 20.7122 38.9931 21.0831 38.866 21.2089ZM37.878 25.7072C36.1811 25.7191 34.4737 25.3614 32.7558 25.3917C31.8377 25.4075 31.1137 25.6519 30.702 24.7086C30.1704 23.4933 31.9246 22.8287 32.771 22.3274C33.6715 21.7932 34.514 21.1483 35.2939 20.4455C35.5639 20.2017 36.0968 19.8382 36.388 20.0562C37.5486 20.9296 38.4879 25.7033 37.878 25.7072ZM31.3634 31.7232C31.5544 31.5309 31.7197 31.4044 31.7322 31.4406C31.7408 31.4624 31.7474 31.4848 31.754 31.5078C31.7849 31.6132 31.8132 31.7192 31.8402 31.8267C31.885 32.0031 31.7639 32.3035 31.5702 32.4985C31.3765 32.6928 31.1763 32.677 31.1209 32.461C31.0663 32.2456 31.1723 31.9155 31.3634 31.7232ZM30.8008 31.3326C30.7066 31.0263 30.7666 30.6298 30.9404 30.442C31.1157 30.2556 31.3383 30.3459 31.4477 30.6383C31.557 30.9321 31.4918 31.332 31.3047 31.5296C31.1164 31.7272 30.8944 31.6382 30.8008 31.3326ZM31.8304 33.5794C32.0227 33.3812 32.2421 33.5103 32.3271 33.8633C32.3791 34.0801 32.4338 34.2955 32.4917 34.5089C32.5859 34.86 32.5043 35.3164 32.2954 35.5305C32.0866 35.7446 31.8554 35.63 31.7783 35.2743C31.7283 35.0444 31.6782 34.8126 31.6262 34.5793C31.5478 34.2256 31.638 33.7777 31.8304 33.5794ZM32.5181 29.5086C31.9279 27.6564 34.8539 28.0068 36.4328 28.2893C36.7911 28.3533 37.378 28.5199 37.5961 28.8117C38.4174 29.9131 36.9064 32.1849 36.2905 33.142C35.8788 33.7823 35.3689 34.3475 34.8413 34.8916C34.0213 35.7381 33.8974 34.5629 33.7571 33.9503C33.4133 32.4517 32.9844 30.9742 32.5181 29.5086ZM30.5314 37.0495C29.6995 38.7608 25.543 38.0811 24.2335 37.7893C23.3199 37.5851 22.4636 37.1898 21.6316 36.7735C19.6601 35.7868 20.8234 34.6736 21.492 33.8647C23.1677 31.8358 25.4501 30.2543 27.89 29.2346C28.2266 29.0943 28.6311 29.2577 28.7753 29.5916C29.6046 31.5276 30.0973 33.7191 30.538 35.7683C30.6151 36.124 30.6902 36.7222 30.5314 37.0495ZM18.6944 18.1637C19.28 17.5301 20.8214 15.8161 21.878 16.8411C22.3535 17.3021 22.7099 18.0656 23.0729 18.6156C23.5827 19.3883 24.0695 20.176 24.553 20.9659C25.7433 22.913 22.1461 22.9782 21.3016 23.1066C19.9697 23.3095 18.6247 23.4347 17.2789 23.5098C16.9153 23.5302 16.2671 23.4874 16.1136 23.1574C15.5557 21.9533 18.2696 18.6248 18.6944 18.1637Z" fill="white"/>
<path d="M35.5869 16.5809C35.5203 16.5342 35.4539 16.49 35.3853 16.4466C35.2734 16.3741 35.0797 16.4103 34.9545 16.5276C34.8287 16.6442 34.635 16.5618 34.4789 16.3734C34.3241 16.185 34.2221 16.0091 34.2853 15.9512C34.3492 15.8932 34.2978 15.7891 34.1707 15.7213C34.0455 15.6528 33.9039 15.6337 33.8591 15.6739C33.8143 15.714 33.5785 15.6067 33.3176 15.4605C33.0568 15.3142 32.8486 15.2009 32.8664 15.1831C32.8835 15.1653 32.8354 15.1272 32.7571 15.0982C32.6787 15.0692 32.6036 15.0587 32.5891 15.0725C32.5746 15.0863 32.3783 15.0184 32.1458 14.9302C31.9133 14.842 31.6972 14.7655 31.6656 14.755C31.6465 14.7484 31.6274 14.7431 31.6077 14.7378C30.6031 14.4144 29.6071 14.2122 28.9925 14.1068C27.8056 13.9026 23.0372 13.4283 24.1431 15.932C24.1464 15.94 24.1524 15.9453 24.1577 15.9505C24.1675 15.9597 24.1781 15.9795 24.1813 15.9953C24.1827 16.0045 24.1853 16.0131 24.1919 16.023C25.1569 17.4109 26.0699 18.8297 26.938 20.2795C27.4828 21.1885 28.0829 21.896 29.2508 21.7722C29.507 21.7452 29.7652 21.6813 30.0228 21.5923C30.366 21.4731 30.7039 21.3552 30.7968 21.3678C30.8909 21.3802 31.1149 21.2406 31.2987 21.0693C31.4812 20.8988 31.8783 20.6003 32.1787 20.3948C32.3803 20.2571 32.5739 20.1221 32.7571 19.997C33.3822 19.5708 34.6765 18.7783 34.8735 17.9833C34.8854 17.9365 34.8907 17.8917 34.8959 17.8469C34.9031 17.7712 34.9163 17.7007 34.9282 17.6902C34.9354 17.6836 34.942 17.6764 34.9493 17.6711C34.9493 17.6711 35.1495 17.4853 35.3959 17.2561C35.6429 17.0269 35.7944 16.7739 35.7252 16.7014C35.6837 16.6573 35.6383 16.6171 35.5869 16.5809ZM32.9304 18.7698C32.5107 19.1492 32.051 19.4786 31.5793 19.7888C31.2756 19.989 30.8113 20.3566 30.4859 20.5193C30.0432 20.7407 29.5709 20.7756 29.0683 20.6227C28.7212 20.5174 28.3193 20.1037 28.1343 19.7908C28.0117 19.5839 27.8886 19.3778 27.7647 19.1729C27.1389 18.1282 26.471 17.1079 25.7833 16.1027C25.5778 15.8023 25.263 15.1786 25.5725 14.9875C26.421 14.4631 29.5446 15.1331 29.9207 15.2358C31.3435 15.6244 34.9413 16.9524 32.9304 18.7698Z" fill="white"/>
<path d="M26.9383 22.1628C26.844 22.2491 26.7439 22.3426 26.6089 22.471C26.3447 22.7214 26.2532 22.9019 26.3994 22.8715C26.487 22.8531 26.5746 22.8347 26.6636 22.8143C26.7057 22.8043 26.7465 22.7925 26.7854 22.7793C26.8513 22.7569 27.0015 22.6404 27.1227 22.5264C27.2445 22.4131 27.4145 22.195 27.4349 22.0244C27.456 21.8525 27.2057 21.9158 26.9383 22.1628Z" fill="white"/>
<path d="M20.183 32.5914C19.9419 32.8153 19.7008 33.0386 19.4591 33.2619C19.1923 33.509 19.0013 33.7303 19.0342 33.7521C19.0671 33.7738 19.303 33.5795 19.5579 33.3213C19.9531 32.9214 20.3483 32.5202 20.7449 32.1185C21.0005 31.8596 20.9906 31.8497 20.7225 32.0961C20.5473 32.2574 20.3674 32.4228 20.183 32.5914Z" fill="white"/>
<path d="M97.1139 30.8036C97.1139 26.1662 97.1139 21.5295 97.1139 16.8914C97.1139 13.3381 94.7971 12.3204 91.6745 12.3204C85.4409 12.3204 79.2053 12.3204 72.9711 12.3204C72.9548 12.3204 72.9379 12.3211 72.9203 12.3237C72.8936 12.3263 72.8577 12.3315 72.8421 12.3309C72.8336 12.3309 72.8252 12.3309 72.8135 12.3322C68.7682 12.8012 68.5897 15.8451 68.5897 19.1332C68.5897 24.0143 68.5897 28.8953 68.5897 33.7765C68.5897 36.7877 68.6933 40.2505 72.7059 40.2505C76.9629 40.2505 81.2192 40.2505 85.4761 40.2505C87.8997 40.2505 92.6524 41.1593 94.9047 39.7234C97.9459 37.7845 97.1139 33.9452 97.1139 30.8036ZM95.8767 17.7976C95.8663 18.1163 95.8552 18.4172 95.8552 18.6837C95.8552 18.7612 95.8552 18.8381 95.8552 18.915C95.8552 19.0426 95.6454 19.3489 95.3862 19.5984C94.9451 20.0238 94.504 20.4493 94.0649 20.874C93.8069 21.1242 93.6414 21.3412 93.6987 21.3522C93.7554 21.3639 94.0114 21.1653 94.2701 20.9144C94.6167 20.5776 94.9913 20.2121 95.39 19.8251C95.648 19.5736 95.8559 19.6238 95.8559 19.9365C95.8559 20.2486 95.6526 20.6988 95.4005 20.9424C95.1497 21.1855 95.0336 21.3835 95.1412 21.3835C95.2486 21.3835 95.4532 21.2805 95.5965 21.1536C95.7406 21.0272 95.8559 21.2161 95.8559 21.5757C95.8559 22.8788 95.8559 24.1824 95.8559 25.4854C95.8559 26.4092 95.8761 27.3435 95.9009 28.283C95.9106 28.6426 95.8604 29.1586 95.7705 29.4303C95.6806 29.7019 95.6676 29.8368 95.7627 29.7397C95.8578 29.642 95.9431 29.8544 95.9523 30.214C95.9614 30.5658 95.9673 30.917 95.9738 31.2688C95.9796 31.6284 95.779 32.1294 95.5268 32.3868C95.1881 32.734 94.85 33.0813 94.5105 33.4292C94.2591 33.6872 94.0486 33.6696 94.0401 33.3894C94.0349 33.2148 94.031 33.0462 94.031 32.8826C94.031 30.9007 95.2298 24.6325 92.7065 23.8912C92.6908 23.8866 92.6713 23.8833 92.6518 23.8814C92.6211 23.8788 92.5664 23.8697 92.5286 23.8645C92.4915 23.8593 92.455 23.8481 92.4472 23.8358C92.4393 23.8234 92.4244 23.8221 92.4126 23.8332C92.4023 23.8443 92.3325 23.8534 92.2582 23.8658C92.2172 23.8723 92.1723 23.882 92.1253 23.8951C90.1936 24.4345 90.7793 25.6079 90.6829 27.4497C90.6354 28.3605 90.4151 29.1918 90.0692 29.9397C89.9181 30.2661 89.5617 30.7222 89.3063 30.9769C89.1909 31.0916 89.0756 31.2076 88.961 31.3216C88.7062 31.5757 88.5896 31.7698 88.6965 31.7503C88.8033 31.7314 88.6926 31.9294 88.4261 32.1711C87.1987 33.2832 85.5901 33.983 83.8982 34.1908C83.5411 34.2338 83.3138 34.1804 83.3939 34.1003C83.474 34.0202 83.4284 33.8957 83.2942 33.8162C83.1607 33.7387 82.9157 33.7986 82.743 33.9575C82.5704 34.1166 82.1391 34.2338 81.7814 34.1902C81.2068 34.1211 80.6367 33.9934 80.0829 33.7973C80.0028 33.7693 79.9253 33.738 79.8484 33.7048C79.7193 33.6514 79.8171 33.4018 80.0647 33.1497C80.3122 32.8989 80.2986 32.8924 80.0334 33.136V33.1386C79.7682 33.3816 79.3584 33.4943 79.1278 33.3712C78.8972 33.2487 78.933 32.9386 79.1981 32.6956C79.4972 32.422 79.7969 32.1464 80.0953 31.8721C80.3604 31.6284 80.8484 31.5346 81.1957 31.6297C81.6661 31.7581 82.1469 31.8382 82.6264 31.8637C84.2246 31.9471 85.7295 31.3515 86.8794 30.3483C87.1505 30.1118 87.1609 30.1222 86.897 30.3665C86.7289 30.5216 86.5511 30.6668 86.3647 30.8017C86.0722 31.0115 85.7536 31.2037 85.6793 31.2714C85.6051 31.3392 85.6324 31.4297 85.7419 31.4701C85.8514 31.5105 86.1451 31.3327 86.3973 31.0766C87.5479 29.9039 88.6984 28.7292 89.847 27.5527C90.0992 27.2947 90.0855 27.281 89.8183 27.522C89.3141 27.9774 88.8131 28.4295 88.3206 28.8745C88.0541 29.1163 88.0131 29.0784 88.1967 28.769C88.5648 28.1416 88.8268 27.449 88.9492 26.7181C88.9714 26.5877 88.9871 26.4601 88.9961 26.3337C89.0131 26.1206 89.2242 25.746 89.4848 25.4978C90.1728 24.843 90.8392 24.2065 91.4797 23.5948C91.7397 23.3465 91.9279 23.1178 91.8973 23.0866C91.8667 23.0553 91.6341 23.2332 91.3754 23.484C90.7376 24.1068 90.1044 24.7264 89.4744 25.3447C89.217 25.5962 89.2157 25.5968 89.4718 25.344C90.1057 24.7199 90.767 24.0684 91.3689 23.4762C91.625 23.224 91.8276 23.0136 91.8211 23.0071C91.8139 23.0005 91.6016 23.1986 91.3449 23.4501C90.7155 24.0645 90.092 24.6737 89.4718 25.2802C89.2144 25.5316 89.0014 25.4431 88.9389 25.0886C88.9108 24.9244 88.8724 24.7636 88.8268 24.6065C88.7264 24.2612 88.8131 23.7974 89.0763 23.5524C89.4516 23.2032 89.8255 22.8546 90.2008 22.506C90.464 22.2605 90.5096 21.9555 90.2933 21.8422C90.0757 21.7295 89.6776 21.8532 89.4131 22.0976C89.1604 22.3321 88.9089 22.5667 88.6554 22.8006C88.3922 23.0455 88.0639 23.0787 87.9049 22.8905C87.7459 22.7022 87.8208 22.3647 88.0853 22.1211C88.1759 22.0383 88.2697 21.9516 88.3681 21.8624C88.6326 21.6187 89.1369 21.4656 89.4952 21.4819C90.4106 21.5217 91.3748 21.4083 91.9123 21.4083C93.3228 21.4083 93.8258 20.5965 93.9887 19.5704C94.046 19.2153 94.0636 18.9104 94.0792 18.896C94.0883 18.8876 94.0968 18.8791 94.1066 18.8707L95.1203 17.9286C95.25 17.7976 95.3783 17.668 95.5073 17.5384C95.7191 17.3227 95.8878 17.438 95.8767 17.7976ZM95.3946 19.7554C95.0154 20.1313 94.6519 20.4838 94.2949 20.8245C94.0349 21.0727 94.031 21.0702 94.2896 20.8193C94.6969 20.4258 95.0603 20.072 95.3894 19.7508C95.6467 19.4994 95.65 19.5026 95.3946 19.7554ZM92.5417 36.4496C91.7188 36.4496 90.8973 36.4496 90.0744 36.4496C86.682 36.4496 83.289 36.4496 79.8966 36.4496C78.9428 36.4496 72.8792 37.2509 72.8792 35.4802C72.8792 32.6246 72.8792 29.7677 72.8792 26.9129C72.8792 26.4476 72.8792 25.9831 72.8792 25.518C72.8792 24.2339 73.8122 27.4418 73.8161 27.5324C73.9314 29.7462 75.2996 31.6897 76.8997 33.0982C79.5194 35.4045 83.3078 35.4235 86.4175 34.3211C88.0795 33.7322 89.432 32.4813 90.4875 31.1137C90.995 30.4551 91.309 29.6465 91.5983 28.8798C91.7116 28.5814 91.8934 26.6157 92.0641 25.4137C92.1149 25.0573 92.3859 24.9772 92.5436 25.3003C93.5046 27.2568 92.7717 31.9555 92.7717 33.2213C92.7723 33.3934 92.939 36.4496 92.5417 36.4496ZM79.3493 30.8434C79.5637 30.9776 79.533 31.2701 79.2692 31.5144C79.019 31.747 78.7688 31.979 78.5186 32.2116C78.2548 32.4558 77.8867 32.532 77.7056 32.3692C77.5251 32.2063 77.6007 31.8656 77.8639 31.62C78.073 31.4252 78.2828 31.2291 78.4933 31.033C78.7558 30.7873 79.135 30.7092 79.3493 30.8434ZM81.9782 21.3229C82.3333 21.2643 82.9182 21.2643 83.2733 21.3242C88.7089 22.2422 89.4274 30.8707 83.1287 31.1997C77.2397 31.5073 76.2514 22.2702 81.9782 21.3229ZM92.7312 20.2141C92.6355 21.0435 91.3136 20.7425 90.7637 20.7425C90.0692 20.7425 89.2431 20.9079 88.7102 20.375C88.3166 19.9815 88.4828 18.9189 88.4828 18.429C88.4828 18.1163 88.3558 17.0777 88.5506 16.4647C88.6587 16.1219 89.2568 15.995 89.6157 15.9688C90.6367 15.8933 91.9416 15.7871 92.5339 16.3806C92.9273 16.7754 92.7619 17.8367 92.7619 18.3273C92.7619 18.9534 92.8029 19.5932 92.7312 20.2141ZM70.253 15.0959C70.6185 14.1733 71.158 13.4749 71.9397 13.1531C72.2727 13.0162 72.601 12.9856 72.6427 12.9856C72.6844 12.9856 72.5144 13.1934 72.2623 13.4501C71.685 14.0385 71.0948 14.6398 70.4993 15.247C70.2472 15.5043 70.1201 15.4307 70.253 15.0959ZM69.6412 22.2227C69.636 22.1295 69.6302 22.0363 69.625 21.9425C69.6041 21.5835 69.7976 21.089 70.0569 20.8402C71.2883 19.657 72.4675 18.5247 73.6089 17.4308C73.8689 17.182 74.0799 16.9676 74.0799 16.954C74.0799 16.9396 73.8695 17.1298 73.6096 17.3793C72.489 18.455 71.3019 19.5952 70.0549 20.79C69.795 21.0389 69.5774 21.1144 69.5676 20.9581C69.5618 20.8642 69.5559 20.7705 69.5507 20.676C69.5396 19.8597 69.5566 19.0323 69.6197 18.2367C69.6478 17.8778 69.8868 17.3793 70.1377 17.1214C71.1397 16.0966 72.1209 15.0932 73.046 14.1479C73.2975 13.8905 73.3001 13.8919 73.05 14.1505C72.8258 14.3824 72.5991 14.6177 72.3697 14.8554C72.1202 15.1147 72.1222 15.1154 72.3737 14.8587C72.8349 14.3877 73.2942 13.9199 73.7542 13.4508C74.0063 13.1941 74.5021 12.9856 74.8618 12.9856C75.2566 12.9856 75.652 12.9856 76.0475 12.9856C76.4071 12.9856 76.6658 13.0182 76.6254 13.0592C76.585 13.1003 76.6371 13.1048 76.7427 13.0736C76.8482 13.0423 76.9446 13.0169 76.9564 13.0058C76.9681 12.9947 77.2697 12.9856 77.6294 12.9856C79.3943 12.9856 81.1586 12.9856 82.9235 12.9856C85.2565 12.9856 87.5896 12.9856 89.9219 12.9856C91.6152 12.9856 93.2387 12.7661 94.6317 13.7818C94.9216 13.9935 95.3392 14.4131 95.4995 14.7349C95.6129 14.961 95.693 15.2105 95.7516 15.4757C95.8278 15.8269 95.6344 16.3187 95.3712 16.5637C95.0877 16.8269 94.805 17.0908 94.5222 17.354C94.2577 17.5989 94.0362 17.5794 94.0271 17.3103C94.0219 17.1416 94.0179 16.978 94.0179 16.823C94.0179 16.793 94.0154 16.7657 94.0114 16.739C94.0049 16.6927 94.1613 16.5057 94.3613 16.3207C94.5607 16.1363 94.5685 15.9865 94.3802 15.9865C94.1912 15.9865 93.9984 16.0223 93.9502 16.0666C93.9007 16.1109 93.7196 15.8737 93.416 15.6789C92.384 15.015 90.2907 15.3467 89.3304 15.3467C89.3148 15.3467 89.2971 15.348 89.2803 15.3499C89.2522 15.3525 89.2164 15.3577 89.2014 15.3571C89.1923 15.3571 89.1844 15.3571 89.1721 15.3577C86.6794 15.6477 87.2227 18.1416 87.2227 19.9932C87.2227 20.4603 87.4098 20.7855 87.7114 21.0102C88 21.2252 88.1531 21.4285 87.9785 21.592C87.8756 21.6878 87.7714 21.7862 87.6632 21.8878C87.5954 21.9536 87.5342 22.0148 87.4749 22.0728C87.3706 22.1751 87.1328 22.1217 86.9328 21.9679C86.7315 21.8148 86.6651 21.6083 86.7941 21.4903C86.9237 21.3718 86.9882 21.2812 86.9387 21.2884C86.8892 21.2955 86.7706 21.3829 86.6729 21.4819C86.5759 21.5809 86.2514 21.5021 85.9302 21.3399C85.3347 21.0395 84.6911 20.8239 84.0363 20.7021C83.6825 20.6356 83.3333 20.592 83.2603 20.5867C83.1874 20.5815 83.0975 20.5848 83.0596 20.5887C83.0219 20.5926 82.7 20.6154 82.3436 20.6669C79.5819 21.0656 77.2991 22.8006 76.8065 25.733C76.643 26.7056 76.7778 27.5924 77.1199 28.3748C77.2639 28.7052 77.3512 29.0217 77.2651 29.1071C77.1792 29.1938 77.1095 29.4648 77.1095 29.7143C77.1095 29.9652 77.1752 30.1 77.2561 30.0159C77.3049 29.9658 77.3538 29.9157 77.4027 29.8655C77.4664 29.7996 77.5296 29.7339 77.5928 29.6687C77.6977 29.5599 77.9623 29.7045 78.2176 29.9573C78.273 30.0134 78.3304 30.0681 78.389 30.1202C78.6542 30.3632 78.6861 30.7411 78.432 30.9958C78.2391 31.1894 78.0405 31.388 77.8372 31.5913C77.5831 31.8467 77.1727 31.8454 76.9466 31.5646C75.5576 29.842 74.9478 27.5129 75.1165 25.2515C75.1517 24.7785 74.9699 24.3785 74.6631 24.125C74.3855 23.8957 74.078 23.8111 74.078 23.755C74.078 23.6983 74.0357 23.6957 73.9828 23.7485C73.9301 23.8019 73.7822 23.8384 73.6532 23.8508C73.5777 23.8579 73.5014 23.8716 73.4226 23.8938C72.444 24.1694 71.9437 24.7857 71.7 25.563C71.5925 25.9062 71.3528 26.4054 71.0993 26.6607C70.8491 26.9141 70.5983 27.1656 70.3481 27.4191C70.0947 27.6751 69.8986 27.7702 69.9064 27.6314C69.9129 27.5155 69.9162 27.4288 69.9162 27.3793C69.9162 27.2979 69.9071 27.079 69.8914 26.7558C69.8751 26.4125 70.0641 25.9245 70.3149 25.6665C71.4232 24.5283 72.5248 23.4019 73.6206 22.2852C73.8728 22.0285 74.0774 21.6089 74.0774 21.3484C74.0774 21.0877 73.8669 21.078 73.6089 21.3288C72.6486 22.2585 71.5104 23.3615 70.2667 24.5681C70.0087 24.8183 69.7839 24.7414 69.7644 24.3955C69.7448 24.0495 69.9377 23.5661 70.1957 23.3152C71.3026 22.2383 72.4408 21.1301 73.6109 19.9913C73.8689 19.7404 74.0774 19.3053 74.0774 19.0192C74.0774 18.7339 73.8702 18.7078 73.6148 18.9612C72.4525 20.1157 71.2915 21.2669 70.1383 22.4116C69.8849 22.6683 69.6614 22.5816 69.6412 22.2227ZM71.0837 31.8532C70.8231 32.1223 70.5618 32.3907 70.3012 32.6598C70.0511 32.9178 69.8478 32.8669 69.8478 32.5451C69.8478 32.2233 70.0504 31.7523 70.2999 31.4942C70.5905 31.1939 70.8791 30.8955 71.1664 30.599C71.4166 30.3411 71.6147 30.4121 71.5886 30.7587C71.5632 31.1047 71.3338 31.5952 71.0837 31.8532ZM71.4427 32.706C71.429 32.966 71.2172 33.3836 70.9638 33.639C70.7221 33.8826 70.4804 34.1256 70.238 34.3693C69.9846 34.6247 69.7917 34.6149 69.8087 34.3478C69.8256 34.0814 70.0432 33.6573 70.2973 33.4031C70.6133 33.0872 70.9293 32.7712 71.2459 32.4565C71.2837 32.4194 71.3208 32.3829 71.3586 32.3457C71.4212 32.2845 71.4557 32.4461 71.4427 32.706ZM69.8484 29.6661C69.8484 29.2772 69.8484 28.8882 69.8484 28.4999C69.8536 28.4289 69.8595 28.3586 69.8641 28.2908C69.8725 28.1755 70.0934 27.8843 70.3566 27.638C70.5859 27.423 70.8153 27.2073 71.0439 26.991C71.3058 26.7441 71.4915 26.836 71.4896 27.195C71.4876 27.4562 71.4961 27.722 71.5091 27.9872C71.5267 28.3468 71.341 28.8419 71.085 29.0954C70.827 29.3501 70.5696 29.6042 70.311 29.8603C70.0549 30.113 69.8484 30.0264 69.8484 29.6661ZM69.7702 36.1075C69.7579 35.9303 69.7533 35.7479 69.754 35.5636C69.7552 35.2039 69.982 34.7062 70.2367 34.452C70.4772 34.213 70.7175 33.9745 70.9586 33.7348C71.214 33.4813 71.4114 33.568 71.4185 33.9276C71.4218 34.0722 71.427 34.2155 71.4355 34.3569C71.457 34.7166 71.2986 35.2195 71.0537 35.4827C70.8055 35.7479 70.5573 36.0137 70.3084 36.2789C70.0614 36.5401 69.7957 36.4665 69.7702 36.1075ZM70.9058 38.4373C70.6615 38.2275 70.4497 37.9891 70.2745 37.7168C70.0797 37.4144 70.1911 36.9382 70.4524 36.6913C70.6804 36.4763 70.9097 36.2613 71.1397 36.045C71.4016 35.7981 71.6759 35.8873 71.8335 36.2105C72.102 36.761 72.5281 37.116 73.1959 37.116C73.2063 37.116 73.2167 37.116 73.2271 37.116C73.2441 37.116 73.0453 37.3155 72.7821 37.561C72.4909 37.832 72.1997 38.1031 71.9092 38.3754C71.6459 38.6191 71.1782 38.6725 70.9058 38.4373ZM95.9725 34.0207C95.964 34.3804 95.7425 34.8743 95.4838 35.1238C94.9751 35.6143 94.4539 36.1167 93.9157 36.6372C93.6577 36.8867 93.6577 37.0887 93.9163 37.0887C94.175 37.0887 94.592 36.8828 94.8473 36.6281C95.0473 36.4274 95.248 36.2274 95.4493 36.0268C95.7041 35.772 95.8956 35.8215 95.8702 36.1362C95.8448 36.4509 95.7327 36.7916 95.6265 36.8972C95.5197 37.0027 95.5125 37.0887 95.609 37.0887C95.7054 37.0887 95.7796 37.1362 95.7744 37.1956C95.7718 37.2314 95.7686 37.2673 95.7646 37.303C95.323 41.1098 84.8884 39.5834 82.7808 39.5834C80.8126 39.5834 77.2436 40.1032 74.3327 39.7188C73.9763 39.6719 73.8943 39.4081 74.1464 39.1521C74.164 39.1351 74.1816 39.1162 74.1992 39.0986C74.452 38.8426 74.6077 38.5611 74.5569 38.464C74.506 38.3676 74.2526 38.4855 73.9861 38.7273C73.8649 38.838 73.7431 38.9481 73.6206 39.0582C73.3535 39.2986 72.8988 39.438 72.6115 39.3455C72.3248 39.2523 72.317 38.9611 72.5841 38.7208C72.9418 38.3989 73.2995 38.077 73.6564 37.7552C73.9236 37.5141 74.1321 37.2731 74.1269 37.2164C74.1223 37.1604 74.4096 37.1141 74.7692 37.1141C80.4973 37.1141 86.2253 37.1141 91.9527 37.1141C93.5215 37.1141 93.943 36.1564 94.0369 35.013C94.0662 34.654 94.1105 34.3126 94.1717 34.2527L94.2838 34.1439C94.6988 33.7263 95.1125 33.3093 95.5268 32.8917C95.7803 32.6363 95.9875 32.721 95.9848 33.0813C95.9842 33.3953 95.9796 33.708 95.9725 34.0207Z" fill="white"/>
<path d="M127.184 19.4208C129.116 19.5007 131.069 18.9413 131.971 17.1245C133.102 14.8469 131.041 12.7195 128.837 12.6187C128.826 12.618 128.813 12.6187 128.8 12.6194C128.78 12.6215 128.748 12.6229 128.727 12.6229C128.716 12.6229 128.704 12.6229 128.691 12.6229C126.863 12.6826 124.943 13.2936 124.151 15.0568C123.216 17.1398 125.062 19.3325 127.184 19.4208ZM125.566 14.8747C125.84 14.1734 126.388 13.5848 127.21 13.3179C127.581 13.1983 127.672 13.3943 127.39 13.6598C126.908 14.113 126.412 14.5814 125.9 15.0651C125.619 15.3307 125.426 15.2326 125.566 14.8747ZM125.892 15.1277C126.422 14.628 126.944 14.1352 127.456 13.6522C127.738 13.3867 128.286 13.181 128.659 13.2922C131.605 14.177 131.684 19.3576 127.771 18.8356C127.707 18.8273 127.647 18.8141 127.589 18.7995C127.489 18.7744 127.542 18.6188 127.706 18.4547C127.869 18.2914 127.935 18.11 127.852 18.0475C127.803 18.0099 127.754 17.971 127.709 17.9265C127.677 17.8939 127.648 17.8591 127.62 17.8237C127.574 17.7646 127.354 17.8897 127.131 18.1024C126.907 18.315 126.719 18.4839 126.71 18.4805C126.701 18.477 126.877 18.2977 127.103 18.0822C127.33 17.8661 127.317 17.8542 127.086 18.0676C126.856 18.2817 126.48 18.3484 126.276 18.1657C126.073 17.9829 126.17 17.5846 126.449 17.317C126.46 17.3059 126.472 17.2948 126.484 17.2836C126.763 17.0154 126.911 16.5921 126.861 16.3266C126.812 16.0618 126.583 16.0611 126.306 16.3314C126.221 16.4142 126.137 16.4976 126.052 16.5803C125.775 16.8506 125.435 16.7763 125.386 16.3954C125.382 16.3649 125.378 16.3336 125.375 16.3023C125.337 15.9207 125.611 15.3932 125.892 15.1277Z" fill="white"/>
<path d="M128.298 21.3849C128.203 21.3849 128.108 21.3918 127.983 21.412C127.815 21.4391 127.656 21.4718 127.504 21.51C127.243 21.5761 126.739 21.7087 126.412 21.8777C126.214 21.9805 126.029 22.1063 125.861 22.2516C123.554 24.0406 124.36 27.9625 124.36 30.9532C124.36 34.4512 123.106 40.6188 128.52 40.1566C133.357 39.7437 132.312 34.7493 132.312 31.2722C132.312 27.492 133.747 21.3849 128.298 21.3849ZM130.815 38.1147C130.685 38.9083 130.337 39.3698 129.881 39.586C129.53 39.7514 129.307 39.716 129.439 39.6784C129.571 39.6402 129.69 39.5853 129.709 39.5658C129.728 39.5471 129.508 39.5151 129.231 39.4372C128.954 39.3587 128.659 39.3274 128.552 39.424C128.445 39.5213 128.054 39.5033 127.713 39.3163C127.44 39.1662 127.177 38.9827 126.935 38.7721C126.643 38.5177 126.633 38.0847 126.864 37.854C127.095 37.6225 127.261 37.3494 127.246 37.2423C127.23 37.1346 126.999 37.2521 126.721 37.5037C126.444 37.756 126.082 37.7671 125.959 37.5037C125.835 37.241 126.018 36.8003 126.307 36.5432C126.43 36.4341 126.552 36.325 126.675 36.2158C126.964 35.958 127.198 35.4923 127.198 35.1775C127.198 34.862 126.966 34.8175 126.682 35.0788C126.535 35.2143 126.387 35.3499 126.24 35.4861C125.955 35.7481 125.725 35.6487 125.725 35.2658C125.725 34.6298 125.725 33.9932 125.725 33.3572C125.725 32.9729 125.944 32.4391 126.216 32.1625C126.379 31.9971 126.543 31.8303 126.707 31.6642C126.979 31.3889 127.198 30.9386 127.198 30.6578C127.198 30.3777 126.975 30.3701 126.698 30.6411C126.537 30.7989 126.376 30.9567 126.216 31.113C125.94 31.3848 125.702 31.2923 125.676 30.9087C125.67 30.8239 125.664 30.7363 125.658 30.646C125.631 30.263 125.777 29.7883 125.983 29.5861C126.108 29.4638 126.233 29.3415 126.358 29.2205C126.441 29.1315 126.523 29.0419 126.606 28.9529C126.743 28.8049 126.627 28.9015 126.346 29.1684C126.267 29.2434 126.189 29.3178 126.112 29.3915C125.832 29.6577 125.59 29.673 125.575 29.4262C125.56 29.1781 125.774 28.759 126.051 28.4901C126.266 28.2809 126.48 28.0724 126.695 27.8652C126.973 27.5956 127.198 27.1438 127.198 26.856C127.198 26.5683 126.978 26.5579 126.707 26.8338C126.472 27.0736 126.236 27.312 126.001 27.5504C125.73 27.8263 125.502 27.7728 125.499 27.4308C125.497 27.0889 125.724 26.5885 125.995 26.3132C126.235 26.0707 126.472 25.8309 126.705 25.5939C126.977 25.3187 127.197 24.8718 127.197 24.5959V24.0955C127.197 24.0058 127.202 23.9176 127.211 23.83C127.227 23.684 127.026 23.7862 126.748 24.0551C126.539 24.256 126.331 24.4596 126.122 24.6626C125.844 24.9323 125.656 24.8412 125.735 24.4652C125.942 23.4762 126.311 22.6603 126.935 22.2224C127.252 22 127.889 21.9361 128.274 21.9951C131.66 22.5136 130.949 26.1881 130.949 28.9446C130.949 31.9373 131.3 35.1531 130.815 38.1147Z" fill="white"/>
<path d="M134.649 31.4084C134.649 33.2328 133.781 37.5752 135.197 38.9819C136.533 40.3094 139.829 40.83 141.38 39.3024C143.301 37.4105 142.598 34.1043 142.598 31.6405C142.598 31.0289 142.598 30.4166 142.598 29.8042C142.598 28.1091 143.148 24.5346 147.006 26.881C148.598 27.8492 148.19 30.9212 148.19 32.5253C148.19 35.4054 147.285 39.5366 151.125 40.1475C153.239 40.4832 155.289 39.5908 155.961 37.6719C156.088 37.3091 156.127 36.9845 156.132 36.9671C156.135 36.9546 156.14 36.9469 156.14 36.9379C156.14 32.3807 157.095 26.7448 153.935 23.0126C151.517 20.1567 146.292 20.3243 143.138 22.4663C142.817 22.6838 142.592 22.7165 142.537 22.5191C142.502 22.3919 142.44 22.2856 142.338 22.2154C141.767 21.8269 141.386 21.5537 140.641 21.4849C139.147 21.3466 137.729 21.3702 136.243 21.5961C133.416 22.0257 134.651 25.6668 134.651 27.7609C134.649 28.9772 134.649 30.1928 134.649 31.4084ZM137.918 21.9263C138.842 21.9263 140.101 21.856 140.838 22.5559C141.119 22.8222 141.172 23.3733 141.185 23.7562C141.2 24.1134 141.232 24.4881 141.266 24.5089C141.562 24.6925 142.408 24.4513 142.581 24.1621C142.928 23.579 143.328 23.1009 143.763 22.7144C144.052 22.4572 144.258 22.3405 144.186 22.4107C144.114 22.4809 144.056 22.5469 144.059 22.558C144.063 22.5698 144.158 22.4879 144.275 22.3746C144.392 22.2606 144.5 22.1611 144.515 22.1536C144.529 22.1452 144.435 22.2404 144.304 22.3655C144.172 22.4913 144.069 22.6421 144.07 22.7026C144.071 22.7631 144.299 22.5977 144.58 22.3328C144.86 22.068 145.376 21.7198 145.749 21.6101C145.873 21.5739 145.998 21.5419 146.122 21.5148C146.503 21.4321 146.757 21.4703 146.68 21.544C146.603 21.617 146.666 21.6135 146.825 21.5433C146.985 21.4731 147.125 21.4161 147.135 21.4071C147.145 21.3988 147.47 21.3786 147.857 21.4112C150.214 21.6093 152.57 23.0883 153.768 25.0149C154.653 26.4383 154.775 28.2884 154.775 29.9078C154.775 32.1319 154.775 34.3573 154.775 36.5828C154.775 36.9671 154.731 37.5891 154.599 37.9498C154.409 38.4697 154.124 38.8561 153.785 39.1217C153.478 39.3601 152.947 39.4094 152.69 39.3037C152.432 39.1981 152.147 39.1661 152.027 39.2863C151.907 39.4073 151.599 39.4552 151.357 39.3482C151.115 39.2419 151.086 38.9701 151.27 38.7853C151.455 38.6011 151.51 38.3363 151.413 38.1778C151.316 38.0208 151.073 38.0666 150.844 38.2918C150.615 38.517 150.249 38.5191 150.076 38.2592C149.904 37.9992 150.028 37.5426 150.301 37.2694C150.377 37.1937 150.453 37.1165 150.529 37.0415C150.803 36.7676 151.025 36.4118 151.025 36.2449C151.025 36.0795 150.802 36.1651 150.526 36.4354C150.397 36.5612 150.27 36.687 150.142 36.8128C149.866 37.0838 149.618 37.2229 149.592 37.1221C149.577 37.0623 149.563 37.0004 149.552 36.9372C149.544 36.8851 149.538 36.8323 149.534 36.7781C149.528 36.6898 149.746 36.3979 150.021 36.1261C150.193 35.9565 150.361 35.7904 150.528 35.6257C150.803 35.3532 151.025 35.012 151.025 34.8619C151.025 34.711 150.802 34.8097 150.526 35.0801C150.353 35.2504 150.179 35.42 150.006 35.5896C149.731 35.8606 149.512 35.8203 149.525 35.5006C149.539 35.1816 149.769 34.702 150.045 34.4303C150.205 34.2711 150.366 34.112 150.528 33.9521C150.803 33.6804 151.027 33.2786 151.027 33.0542C151.027 32.8297 150.799 32.8651 150.52 33.132C150.35 33.294 150.2 33.4364 150.067 33.5629C149.788 33.8298 149.781 33.8242 150.059 33.5553C150.193 33.4246 150.347 33.278 150.52 33.1104C150.799 32.8428 150.797 32.8415 150.517 33.1077C150.368 33.2481 150.219 33.3899 150.066 33.5337C149.787 33.7999 149.564 33.7047 149.573 33.3196C149.58 32.9805 149.587 32.6392 149.59 32.2966C149.595 31.9129 149.817 31.3806 150.092 31.1081C150.238 30.9628 150.384 30.8176 150.529 30.6738C150.803 30.4006 151.025 30.0948 151.025 29.9905V29.8022C151.025 29.7688 151.023 29.7375 151.021 29.7063C151.017 29.6534 150.795 29.8342 150.522 30.1093C150.375 30.2574 150.229 30.4054 150.082 30.5535C149.81 30.8287 149.585 30.7397 149.566 30.3561C149.551 30.0267 149.525 29.6986 149.489 29.3727C149.446 28.9911 149.615 28.4615 149.886 28.187C149.961 28.1126 150.035 28.0369 150.109 27.9611C150.382 27.6865 150.538 27.3106 150.442 27.1299C150.383 27.0194 150.319 26.913 150.251 26.8122C150.23 26.783 150.206 26.7573 150.181 26.733C150.14 26.692 149.894 26.8713 149.628 27.1347C149.362 27.3988 149.096 27.4398 149.007 27.2383C148.918 27.0367 148.984 26.724 149.184 26.5252C149.384 26.3257 149.467 26.1116 149.367 26.0505C149.266 25.99 149.047 26.0894 148.886 26.2583C148.725 26.4272 148.439 26.3633 148.193 26.1735C147.946 25.9831 147.749 25.8406 147.796 25.7919C147.843 25.7426 147.833 25.6988 147.776 25.6926C147.742 25.6884 147.709 25.6849 147.673 25.6849C147.598 25.6849 147.524 25.6877 147.452 25.6926C147.332 25.7002 146.929 25.6265 146.539 25.6085C144.193 25.4986 141.234 27.5559 141.234 29.9523C141.234 32.0541 141.234 34.1557 141.234 36.2568C141.234 37.8032 140.999 39.6165 138.802 39.6165C138.77 39.6165 138.741 39.6137 138.712 39.6103C138.662 39.6033 138.701 39.5192 138.799 39.4191C138.898 39.3183 138.752 39.1286 138.515 38.9396C138.277 38.7512 137.957 38.722 137.754 38.9229C137.551 39.1244 137.098 39.1432 136.828 38.8659C136.741 38.7763 136.661 38.6782 136.588 38.5754C136.365 38.2598 136.477 37.7344 136.743 37.4536C136.823 37.3695 136.902 37.2861 136.981 37.2027C137.247 36.9233 137.465 36.384 137.468 36.001C137.468 35.8634 137.469 35.7258 137.47 35.5903C137.472 35.2066 137.424 34.9453 137.362 35.0065C137.326 35.0433 137.288 35.0794 137.251 35.1163C136.98 35.3866 136.706 35.6542 136.431 35.9225C136.154 36.1936 135.901 36.1011 135.892 35.7175C135.878 35.1649 135.9 34.6041 135.928 34.0716C135.948 33.6887 136.19 33.1591 136.466 32.886C136.639 32.7164 136.811 32.5461 136.985 32.3744C137.26 32.102 137.484 31.7447 137.484 31.5752C137.484 31.4049 137.251 31.4772 136.963 31.7357C136.814 31.8685 136.668 32.0012 136.524 32.1305C136.236 32.389 136.005 32.5343 136.007 32.453C136.008 32.4036 136.01 32.3536 136.01 32.307C136.011 31.8872 136.011 31.4668 136.011 31.0476C136.011 30.6633 136.24 30.1385 136.523 29.8745C136.673 29.7355 136.823 29.5958 136.972 29.456C137.254 29.192 137.484 28.9508 137.484 28.9181C137.484 28.8855 137.259 29.0766 136.98 29.3435C136.825 29.4936 136.67 29.643 136.514 29.7924C136.236 30.0608 136.01 29.9676 136.011 29.5832C136.011 29.2045 136.011 28.8257 136.011 28.4469C136.011 28.0626 136.241 27.5406 136.527 27.2799C136.674 27.1458 136.82 27.0124 136.966 26.8782C137.252 26.6176 137.484 26.1318 137.484 25.794C137.484 25.457 137.252 25.3944 136.967 25.6557C136.821 25.7898 136.674 25.924 136.527 26.0588C136.242 26.3202 136.011 26.4571 136.011 26.3653C136.011 26.3097 136.011 26.2548 136.011 26.1992C136.011 26.0491 136.004 25.8927 135.994 25.7322C135.977 25.4743 136.188 25.0517 136.473 24.7897C136.637 24.6389 136.801 24.4881 136.964 24.3372C137.248 24.0752 137.478 23.7396 137.477 23.5894C137.475 23.4393 137.247 23.5352 136.969 23.8049C136.806 23.9627 136.626 24.1385 136.423 24.3359C136.145 24.6062 135.891 24.5145 135.884 24.1308C135.868 22.9445 136.165 21.9263 137.918 21.9263Z" fill="white"/>
<path d="M137.253 38.3806C137.003 38.631 137.009 38.6365 137.26 38.3868C137.511 38.1377 137.503 38.1294 137.253 38.3806Z" fill="white"/>
<path d="M212.632 25.098C211.991 25.0419 212 24.7998 212.549 24.3208C213.117 23.8273 213.631 23.2645 213.719 23.1167C213.732 23.0923 213.736 23.0718 213.731 23.0514C213.72 23.0151 213.657 22.9649 213.616 22.9207C213.593 22.8936 213.569 22.8673 213.544 22.8403C213.378 22.6542 212.76 22.8772 212.583 22.9352C209.307 24.0133 209.686 22.1046 208.535 20.2031C207.722 18.8611 206.023 17.529 204.484 17.1661C204.243 17.1094 204.058 17.0665 203.906 17.0322C203.586 16.9616 203.331 16.9049 203.342 16.8758C203.353 16.8475 203.371 16.8224 203.384 16.8191C203.391 16.8172 203.398 16.8158 203.408 16.8138C203.677 16.7525 203.952 16.6819 204.219 16.5948C204.492 16.503 204.726 16.3982 204.915 16.2734C205.003 16.216 205.061 16.1527 205.089 16.0841C205.142 15.9509 205.092 15.7859 205.115 15.7279C205.129 15.6935 205.142 15.6586 205.155 15.6209C205.189 15.5207 205.117 15.4989 205.034 15.4725C204.742 15.3815 204.448 15.3399 204.155 15.3346C203.662 15.3253 203.303 15.3346 203.32 15.2264C203.33 15.167 203.334 15.1024 203.332 15.0298C203.33 14.9374 203.114 14.9381 203.072 14.9341C202.698 14.9011 202.342 14.9315 201.999 15.0067C201.416 15.1353 200.728 15.2673 200.417 15.3372C200.197 15.3874 199.983 15.4738 199.872 15.5266C197.562 16.6218 196.68 18.8842 195.519 20.9493C195.162 21.5847 194.579 21.9158 194.287 21.6955C194.097 21.551 193.918 21.4085 193.76 21.2944C192.497 20.3799 190.76 19.8237 189.344 19.2029C187.718 18.4903 185.798 17.4881 184.01 17.3086C183.72 17.2796 182.666 17.372 182.644 17.793C182.601 18.5978 182.908 19.0986 183.231 19.8099C183.335 20.0401 183.699 20.3575 184.082 20.6768C184.601 21.109 184.384 21.5207 184.022 22.0347C183.847 22.2827 183.778 22.6304 183.864 23.1305C184.028 24.0846 186.486 25.2313 186.477 25.2339C186.258 25.3117 185.117 25.7386 185.198 26.2084C185.355 27.1195 186.33 27.8097 187.199 28.0393C188.9 28.4899 188.862 27.6612 188.101 29.0705C187.67 29.8695 188.367 30.7806 189.134 30.9258C189.358 30.968 189.549 31.0168 189.735 31.0525C190.068 31.1178 189.86 31.4444 189.22 31.7947C186.742 33.1526 184.325 33.4382 181.968 32.6551C181.277 32.4248 180.445 31.9544 180.055 31.7419C179.82 31.6133 179.58 31.4926 179.336 31.3791C179.114 31.2702 177.713 31.5869 177.881 31.831C182.173 38.0712 192.001 39.0674 198.677 36.8757C201.852 35.8332 205.052 34.2768 207.245 31.6621C208.466 30.2073 209.27 27.4567 211.216 26.9354C212.138 26.688 213.013 26.2717 213.703 25.6093C213.767 25.548 213.81 25.4886 213.732 25.4206C213.516 25.2266 213.09 25.1382 212.632 25.098ZM202.623 16.862C202.76 16.8666 202.76 16.8712 202.623 16.8646C202.485 16.8587 202.485 16.8574 202.623 16.862ZM210.02 26.7751C208.028 27.6474 207.702 29.3298 206.487 31.0822C202.931 36.2007 195.151 38.3351 188.509 37.0003C187.795 36.8566 187.63 36.3136 188.128 35.8438C188.626 35.3733 189.02 34.9861 189.008 34.9781C188.997 34.9709 188.592 35.3516 188.103 35.8286C187.615 36.3069 186.893 36.6051 186.497 36.4745C186.101 36.3445 186.018 35.9896 186.305 35.6986C186.592 35.4077 186.576 35.401 186.268 35.6841C185.96 35.9672 185.155 35.9929 184.497 35.6788C183.54 35.2216 182.643 34.6714 181.827 34.0248C181.257 33.5715 180.873 33.1645 180.917 33.1783C180.961 33.1922 181.039 33.2291 181.093 33.2634C181.147 33.297 181.203 33.3162 181.216 33.3043C181.229 33.2911 181.801 33.4706 182.518 33.6038C182.829 33.6619 183.143 33.7041 183.462 33.7292C184.189 33.7859 184.586 33.9086 184.346 34.1317C184.106 34.3547 184.167 34.6067 184.486 34.6714C184.806 34.738 185.391 34.4787 185.789 34.1132C186.187 33.7483 187.089 33.3392 187.793 33.1486C189.447 32.7 191.241 31.953 191.678 30.6711C191.747 30.4686 191.363 30.5134 191.268 30.5174C191.023 30.5128 190.811 30.4896 190.628 30.4508C190.281 30.3762 190.227 30.0279 190.455 29.8167C190.684 29.6049 190.804 29.4242 190.723 29.4142C190.672 29.4076 190.623 29.4004 190.575 29.3912C190.44 29.3661 190.314 29.3351 190.192 29.2981C189.983 29.2348 189.9 28.9056 190.058 28.6106C190.217 28.3157 190.434 28.063 190.494 28.0076C190.535 27.9713 190.564 27.9271 190.553 27.8803C190.547 27.8565 190.541 27.8334 190.535 27.809C190.513 27.7186 190.335 27.7113 190.275 27.7133C189.577 27.7384 188.999 27.6804 188.549 27.5576C187.847 27.3649 187.68 26.6425 187.919 26.3977C188.157 26.153 188.213 25.8891 188.054 25.796C187.894 25.7024 187.741 25.6462 187.703 25.6858C187.664 25.7241 187.75 25.5624 187.933 25.3572C188.035 25.2424 188.153 25.1244 188.288 25.0063C188.329 24.97 188.417 24.8598 188.318 24.8176C188.183 24.7608 187.833 24.5537 187.415 24.2732C186.93 23.9493 186.568 23.5185 186.662 23.3819C186.724 23.2921 186.806 23.2321 186.902 23.215C186.946 23.2077 186.99 23.1992 187.034 23.1912C187.106 23.1773 187.283 23.0507 187.428 22.9082C187.572 22.7657 187.62 22.6007 187.535 22.54C187.487 22.5057 187.436 22.4701 187.382 22.4312C187.296 22.3705 187.215 22.3091 187.136 22.2471C187.003 22.1415 186.672 22.2854 186.39 22.5763C186.108 22.8666 185.746 22.9848 185.596 22.8237C185.446 22.6628 185.506 22.3507 185.705 22.1481C185.904 21.9449 186.235 21.7503 186.419 21.6546C186.549 21.5866 186.643 21.4982 186.652 21.3814C186.689 20.9335 186.203 20.4637 185.649 19.9273C185.126 19.42 184.853 18.8591 184.987 18.7245C185.121 18.5893 185.627 18.6183 186.108 18.8116C186.589 19.0049 186.926 19.224 186.868 19.28C186.811 19.3362 187.002 19.4674 187.294 19.5743C187.587 19.6806 187.854 19.7392 187.891 19.701C187.928 19.6634 187.981 19.6443 188.008 19.6588C188.036 19.6726 188.031 19.7123 187.996 19.7478C187.961 19.7835 187.942 19.8152 187.954 19.8191C187.965 19.8244 188.001 19.7993 188.035 19.7637C188.069 19.7294 188.262 19.7802 188.466 19.8792C188.669 19.9768 188.817 20.0731 188.798 20.0916C188.78 20.1108 188.947 20.1971 189.171 20.2849C189.396 20.374 189.552 20.4703 189.52 20.5007C189.488 20.5304 189.34 20.7764 189.195 21.0522C189.107 21.2172 189.021 21.3841 188.936 21.5536C188.902 21.6223 188.87 21.6922 188.838 21.7608C188.786 21.8763 189.055 21.683 189.439 21.33C189.823 20.9777 190.227 20.7369 190.343 20.7929C190.414 20.8279 190.486 20.8615 190.554 20.8932C190.659 20.9414 190.765 20.9975 190.871 21.0581C191.043 21.1551 190.895 21.5088 190.545 21.8373C190.195 22.1659 189.79 22.6535 189.645 22.9293C189.557 23.0943 189.471 23.2612 189.387 23.4301C189.352 23.4987 189.321 23.5686 189.289 23.6373C189.237 23.7533 189.63 23.4452 190.166 22.9518C190.339 22.794 190.517 22.6291 190.704 22.4562C191.24 21.9627 192.152 21.9113 192.771 22.294C192.875 22.3586 192.978 22.4193 193.083 22.478C193.718 22.8343 194.01 23.2255 193.641 23.5666C193.273 23.9084 193.123 24.3122 193.306 24.4692C193.403 24.5524 193.515 24.648 193.636 24.7535C193.655 24.7687 193.673 24.7826 193.692 24.7945C193.725 24.815 194.048 24.5537 194.413 24.2132C194.778 23.8734 195.133 23.469 195.205 23.31C195.249 23.2144 195.293 23.1199 195.34 23.0243C195.364 22.9762 195.389 22.9293 195.414 22.8825C195.455 22.8046 195.509 22.7314 195.534 22.7195C195.55 22.7122 195.565 22.705 195.579 22.6964C197.396 21.5946 197.689 19.0749 198.949 17.2592C199.365 16.6614 200.092 16.2748 200.406 16.1949C200.668 16.127 200.911 16.0419 200.962 16.0116C201.732 15.5616 200.997 16.0987 200.845 16.1692C200.246 16.4456 200.712 16.5987 201.131 16.5196C203.479 16.0735 201.931 16.4761 200.966 17.211C200.766 17.3621 201.02 17.4459 201.154 17.4439C201.331 17.4406 201.503 17.4439 201.674 17.4531C201.961 17.4697 201.93 17.7494 201.606 18.0535C201.282 18.3577 200.898 18.8249 200.753 19.1006C200.665 19.2656 200.579 19.4325 200.494 19.602C200.459 19.6707 200.428 19.74 200.398 19.8085C200.345 19.924 200.738 19.6172 201.274 19.1237C201.479 18.9356 201.694 18.7378 201.919 18.5312C202.455 18.0371 203.076 17.6814 203.301 17.754C203.527 17.8266 203.692 17.911 203.678 17.9249C203.663 17.9381 203.53 18.1697 203.385 18.4455C203.298 18.6104 203.211 18.778 203.126 18.9475C203.092 19.0162 203.06 19.0861 203.029 19.1547C202.977 19.2702 203.228 19.0934 203.592 18.7595C203.954 18.4263 204.42 18.2442 204.623 18.3689C204.827 18.493 204.968 18.621 204.95 18.6388C204.932 18.6559 204.954 18.6771 205 18.6856C205.046 18.6962 205.569 19.0445 206.08 19.5645C206.691 20.1846 207.216 20.9031 207.684 21.677C208.348 22.7716 207.856 23.1747 208.88 23.7388C209.397 24.0252 210.789 23.8121 211.201 23.7369C214.611 23.1101 210.965 24.456 209.579 25.032C209.504 25.0624 209.129 25.2457 209.301 25.3705C209.398 25.4424 209.498 25.5143 209.596 25.5856C209.615 25.6001 209.648 25.6027 209.675 25.6113C209.7 25.6185 209.722 25.6245 209.74 25.6278C209.776 25.6357 210.251 25.7221 210.806 25.7716C211.066 25.7947 211.344 25.8072 211.813 25.827C212.34 25.8514 210.319 26.6439 210.02 26.7751Z" fill="white"/>
<path d="M267.265 15.4815C261.683 15.4815 256.103 15.4815 250.521 15.4815C247.267 15.4815 244.012 15.4815 240.758 15.4815C239.541 15.4815 237.964 15.2323 236.832 15.7983C236.532 15.9479 236.263 16.1673 236.201 16.2306C236.139 16.2926 236.063 16.416 236.047 16.4994C236.031 16.5832 236.07 16.9206 236.07 17.2569C236.07 20.2153 236.07 23.1737 236.07 26.1327C236.07 28.2734 236.07 30.4159 236.07 32.5572C236.07 33.4759 235.808 35.1259 236.08 35.9771C236.73 38.0205 240.23 37.3055 241.877 37.3055C246.529 37.3055 251.182 37.3055 255.835 37.3055C259.447 37.3055 263.061 37.3055 266.674 37.3055C269.207 37.3055 269.096 35.5096 269.096 33.4801C269.096 32.4794 269.096 31.4781 269.096 30.4773C269.096 30.1417 269.102 29.7277 269.102 29.5526C269.104 29.3939 269.104 29.2358 269.104 29.2358C269.098 28.5184 269.096 27.7961 269.096 27.0733C269.096 26.7377 269.101 26.1929 269.102 25.8573C269.104 25.4749 269.104 25.0535 269.104 25.0535C269.099 24.8651 269.098 24.6754 269.097 24.4839C269.095 24.1689 269.102 23.7512 269.102 23.5488C269.104 23.364 269.104 23.1804 269.104 23.1804C269.098 22.7992 269.097 22.4155 269.096 22.0295C269.096 21.6933 269.102 21.2811 269.102 21.1053C269.104 20.9309 269.098 20.7558 269.097 20.715C269.096 20.6901 269.096 20.6652 269.096 20.6396C269.096 18.7458 269.969 15.4815 267.265 15.4815ZM267.076 36.4033C263.749 36.4033 260.424 36.4033 257.097 36.4033C252.354 36.4033 247.61 36.4033 242.868 36.4033C241.475 36.4033 240.082 36.4033 238.689 36.4033C238.58 36.4033 238.482 36.3923 238.392 36.3747C238.229 36.3419 238.304 36.0993 238.549 35.8689C239.033 35.4141 239.519 34.9569 240.008 34.4954C240.253 34.2656 240.452 34.034 240.452 33.978V33.8783C240.452 33.8783 240.452 33.7008 240.452 33.4825C240.452 33.2637 240.266 33.2849 240.036 33.5306C239.402 34.2103 238.766 34.8882 238.128 35.5655C237.897 35.8099 237.527 35.7959 237.424 35.4767C237.279 35.025 237.264 34.4644 237.264 33.9227C237.264 28.3481 237.264 22.773 237.264 17.1979C237.264 16.8623 237.496 16.4337 237.826 16.3722C238.076 16.3267 238.36 16.3139 238.643 16.3176C238.98 16.3218 239.055 16.5333 238.812 16.7662C238.449 17.114 238.083 17.466 237.711 17.8223C237.469 18.0545 237.272 18.257 237.272 18.2734C237.272 18.2904 237.468 18.1153 237.71 17.8831C238.102 17.5067 238.487 17.1371 238.87 16.7687C239.112 16.5364 239.454 16.3583 239.634 16.3698C239.758 16.3783 239.869 16.3832 239.958 16.3832C241.912 16.3832 243.866 16.3832 245.819 16.3832C250.653 16.3832 255.487 16.3832 260.321 16.3832C261.392 16.3832 267.904 15.5873 267.904 17.2921C267.904 18.567 267.904 19.8413 267.904 21.1175C267.904 21.4531 267.711 21.9164 267.472 22.1535C267.303 22.3201 267.133 22.4879 266.964 22.6551C266.724 22.8916 266.52 22.8107 266.483 22.4769C266.323 21.0786 265.816 20.0718 264.436 21.05C263.153 21.959 261.871 22.8678 260.588 23.7762C259.606 24.4717 258.143 25.0998 258.415 26.5084C258.536 27.1298 259.519 27.8728 260.289 28.4339C260.56 28.6309 260.587 28.9848 260.349 29.2225C260.301 29.2705 260.253 29.3179 260.205 29.366C259.967 29.6036 259.558 29.6316 259.292 29.4274C258.871 29.1045 258.47 28.789 258.115 28.4777C257.417 27.866 256.827 27.4338 255.821 27.5C255.143 27.5438 254.521 28.0722 254.003 28.4394C253.245 28.9744 252.665 29.0188 252.146 28.8345C251.829 28.7227 251.804 28.3768 252.05 28.1482C252.103 28.0995 252.155 28.0503 252.208 28.0016C252.454 27.773 252.489 27.6198 252.305 27.7098C252.194 27.7639 252.091 27.8314 251.999 27.9129C251.999 27.9129 251.868 28.029 251.706 28.1731C251.543 28.3172 251.23 28.3032 251.01 28.136C250.879 28.0369 250.746 27.9354 250.609 27.8368C250.569 27.8029 250.52 27.7712 250.452 27.7444C248.549 26.9991 247.514 28.2436 246.182 29.4261C244.685 30.7539 242.463 32.0896 241.548 33.9105C241.443 34.1179 241.584 34.3234 241.778 34.4C242.851 34.828 243.977 34.676 245.126 34.676C247.622 34.676 250.118 34.676 252.615 34.676C255.11 34.676 257.607 34.676 260.103 34.676C261.303 34.676 262.359 34.8 263.474 34.358C263.737 34.2541 263.873 33.9768 263.744 33.7263C263.645 33.5349 263.53 33.3458 263.404 33.1603C263.214 32.8837 263.228 32.48 263.463 32.2399C263.518 32.1821 263.574 32.1256 263.628 32.069C263.863 31.8283 264.123 31.6951 264.211 31.7717C264.299 31.8477 264.39 31.9377 264.423 31.9656C264.455 31.9936 264.514 32.038 264.558 32.0605C264.602 32.0836 264.877 32.2484 265.21 32.2933C266.218 32.4314 266.515 31.1121 266.566 29.6553C266.579 29.3191 266.764 28.8534 266.999 28.6132C267.16 28.4485 267.319 28.2856 267.48 28.1202C267.716 27.8801 267.905 27.7402 267.905 27.8077C267.905 27.8478 267.905 27.8892 267.905 27.9299C267.905 28.1372 267.948 28.8394 267.984 29.7557C267.997 30.0912 267.967 30.4019 267.921 30.4518C267.873 30.5004 267.875 30.5758 267.925 30.619C267.976 30.6627 268.024 30.971 268.029 31.3066C268.06 33.6795 267.93 36.4033 267.076 36.4033ZM267.489 24.9125C267.282 25.1332 267.076 25.3545 266.869 25.5758C266.64 25.8208 266.469 25.7466 266.488 25.4117C266.5 25.2177 266.511 25.0025 266.522 24.7763C266.536 24.4407 266.727 23.9695 266.956 23.7245C267.134 23.533 267.312 23.3421 267.489 23.1518C267.718 22.9062 267.904 22.9791 267.904 23.3147C267.904 23.4972 267.904 23.679 267.904 23.8601C267.903 24.1951 267.718 24.6663 267.489 24.9125ZM267.903 25.6944C267.903 26.0099 267.711 26.4586 267.475 26.6963C267.299 26.8732 267.124 27.0501 266.95 27.2253C266.713 27.4636 266.508 27.4167 266.488 27.1225C266.468 26.8276 266.646 26.3953 266.882 26.157C267.083 25.954 267.28 25.7534 267.476 25.557C267.711 25.3186 267.903 25.38 267.903 25.6944ZM266.452 26.2969C266.452 26.4404 266.449 26.4993 266.446 26.4276C266.444 26.3795 266.443 26.3364 266.443 26.2981C266.443 26.2604 266.444 26.216 266.446 26.1667C266.45 26.0944 266.452 26.1528 266.452 26.2969ZM265.196 30.7527C265.214 31.0877 265.177 31.1321 264.924 30.9108C263.488 29.6547 262.049 28.3975 260.613 27.1401C259.848 26.4714 259.267 25.8445 260.323 25.0967C261.424 24.3167 262.524 23.5372 263.625 22.7566C264.078 22.4362 265.251 21.1953 265.251 22.066C265.251 23.105 265.251 24.1447 265.251 25.1837C265.251 26.5948 265.251 28.0071 265.251 29.4176C265.251 29.6779 265.169 30.2894 265.196 30.7527ZM261.856 33.2412C262.179 33.5245 262.908 33.7743 262.299 33.7743C260.64 33.7743 258.98 33.7743 257.321 33.7743C252.818 33.7743 248.314 33.7743 243.811 33.7743C241.976 33.7743 243.493 33.0831 244.43 32.252C245.357 31.4294 247.505 28.7172 249.133 28.5045C249.467 28.4619 249.954 28.719 250.222 28.9209C251.112 29.5897 252.158 30.3254 253.27 29.8803C254.374 29.4371 255.832 27.9688 256.96 28.9568C257.818 29.7076 258.676 30.4591 259.535 31.2099C260.309 31.8872 261.082 32.5645 261.856 33.2412ZM261.074 30.0341C261.108 29.9976 261.141 29.9618 261.174 29.9253C261.404 29.6803 261.786 29.6535 262.029 29.8651C262.271 30.0773 262.281 30.4469 262.05 30.6907C262.026 30.7163 262.002 30.7418 261.978 30.7667C261.747 31.0105 261.362 31.0391 261.113 30.8379C260.864 30.6378 260.845 30.2791 261.074 30.0341ZM262.026 31.6221C261.863 31.475 261.92 31.165 262.157 30.9266C262.183 30.9011 262.208 30.8755 262.233 30.85C262.47 30.6105 262.795 30.5357 262.961 30.6804C263.125 30.8251 263.069 31.1358 262.832 31.3747C262.803 31.4045 262.772 31.4343 262.744 31.4635C262.507 31.7024 262.188 31.7699 262.026 31.6221Z" fill="white"/>
<path d="M246.863 26.2748C246.969 25.7143 246.769 25.279 246.434 24.9148C246.207 24.6674 246.176 24.319 246.415 24.0831C246.493 24.0071 246.57 23.9305 246.648 23.8539C246.887 23.6174 247.303 23.5839 247.577 23.7779C247.83 23.9572 248.083 24.1366 248.336 24.316C248.61 24.5099 248.639 24.8601 248.401 25.0972C246.712 26.7783 245.089 28.393 243.535 29.9385C243.296 30.1757 243.104 30.5185 243.104 30.7046V31.042C243.104 31.1137 243.109 31.18 243.118 31.239C243.134 31.3466 243.358 31.2341 243.591 30.994C244.331 30.2291 245.071 29.4655 245.807 28.714C246.86 27.6258 247.904 26.5502 248.941 25.4833C249.175 25.2425 249.586 25.2048 249.86 25.3987C250.308 25.7155 250.756 26.0335 251.203 26.3496C251.229 26.3685 251.261 26.3861 251.295 26.402C253.587 27.3382 255.384 25.3489 257.113 24.1226C259.232 22.6221 262.503 21.1241 264.007 18.9615C264.162 18.7377 264.126 18.463 263.846 18.3614C262.778 17.9759 261.658 18.1158 260.531 18.1158C258.024 18.1158 255.516 18.1158 253.009 18.1158C250.441 18.1158 247.873 18.1158 245.305 18.1158C244.105 18.1158 242.835 17.9364 241.696 18.348C241.434 18.4429 241.05 18.7146 241.274 19.0375C241.947 20.0072 243.047 20.749 244.13 21.4342C244.414 21.6135 244.451 21.9497 244.212 22.1844C244.136 22.2592 244.059 22.3345 243.983 22.4093C243.745 22.6452 243.328 22.6781 243.054 22.4848C242.29 21.9424 241.526 21.4007 240.761 20.8584C240.731 20.8377 240.699 20.8207 240.665 20.8079C240.626 20.7897 240.591 20.7739 240.559 20.7617C240.5 20.7374 240.451 20.51 240.451 20.2492C240.451 19.9889 240.255 19.9677 240.014 20.2024C239.986 20.2291 239.959 20.2559 239.931 20.2826C239.69 20.5161 239.481 20.7119 239.464 20.7198C239.449 20.7277 239.63 20.5453 239.871 20.3112C239.919 20.265 239.966 20.2182 240.014 20.1714C240.255 19.9373 240.247 19.9294 240.002 20.1592C239.922 20.2352 239.841 20.3118 239.761 20.389C239.519 20.6213 239.281 20.8444 239.233 20.89C239.187 20.9362 238.958 21.1672 238.717 21.4007C238.369 21.7376 238.016 22.0798 237.655 22.4282C237.172 22.9231 237.691 22.4276 238.639 21.5077C238.88 21.2736 239.063 21.1009 239.049 21.1223C239.033 21.1429 238.827 21.3509 238.586 21.5849C238.298 21.8634 238.005 22.1479 237.707 22.4379C237.466 22.672 237.27 23.1328 237.27 23.4691V23.5973C237.27 23.9329 237.46 24.0101 237.695 23.7688C237.857 23.6034 238.018 23.4374 238.18 23.272C238.415 23.0313 238.583 23.1079 238.575 23.4441C238.568 23.7317 238.57 24.0229 238.579 24.3092C238.589 24.6449 238.413 25.1094 238.177 25.3483C238.017 25.5094 237.858 25.6705 237.697 25.8323C237.461 26.0712 237.27 26.3156 237.27 26.377C237.27 26.4396 237.47 26.304 237.715 26.0748C237.87 25.9295 238.025 25.7836 238.18 25.6371C238.425 25.4067 238.64 25.4918 238.664 25.8267C238.695 26.2463 238.721 26.5898 238.721 26.8002C238.721 26.8889 238.714 27.0336 238.705 27.2184C238.693 27.4489 238.49 27.827 238.251 28.0635C238.068 28.2435 237.885 28.424 237.703 28.6053C237.464 28.8417 237.271 29.3044 237.271 29.6406V30.3173C237.271 30.6529 237.461 30.7289 237.694 30.4876C237.869 30.3058 238.044 30.1252 238.218 29.9446C238.452 29.7039 238.644 29.7811 238.664 30.116C238.665 30.1337 238.666 30.1513 238.667 30.1689C238.689 30.504 238.534 30.9697 238.3 31.211C238.098 31.4196 237.895 31.6287 237.693 31.8366C237.46 32.0774 237.271 32.4628 237.271 32.6957C237.271 32.9285 237.464 32.9255 237.701 32.6872C238.028 32.3613 238.355 32.0342 238.683 31.7083C238.713 31.6786 238.743 31.6476 238.773 31.6184C238.824 31.5685 238.906 31.7017 238.991 31.9004C239.077 32.0999 238.995 32.4331 238.758 32.672C238.405 33.027 238.051 33.3821 237.699 33.7378C237.462 33.9761 237.27 34.1901 237.27 34.2157C237.27 34.2411 237.463 34.0697 237.701 33.8326C238.068 33.4654 238.439 33.0988 238.808 32.7316C239.047 32.495 239.452 32.5479 239.785 32.5152C240.036 32.4902 240.339 32.3346 240.705 32.0093C241.941 30.9119 243.177 29.8157 244.414 28.7183C245.007 28.1937 246.695 27.1643 246.863 26.2748ZM245.925 23.3444C245.848 23.4253 245.769 23.5055 245.691 23.5858C245.457 23.8266 245.14 23.9421 244.983 23.8399C244.886 23.7767 244.792 23.7135 244.703 23.6509C244.665 23.6247 244.629 23.5985 244.591 23.5724C244.53 23.5293 244.671 23.2988 244.905 23.058C244.989 22.9723 245.072 22.8878 245.154 22.8027C245.389 22.5619 245.613 22.3893 245.653 22.4166C245.677 22.4331 245.702 22.4495 245.725 22.4659C245.829 22.5394 245.933 22.613 246.037 22.6866C246.211 22.8082 246.16 23.1024 245.925 23.3444ZM243.16 19.4114C242.915 19.1822 243.002 18.9263 243.335 18.8903C245.097 18.6989 247.177 19.0156 248.768 19.0156C252.517 19.0156 256.266 19.0156 260.016 19.0156C260.741 19.0156 261.468 19.0156 262.194 19.0156C262.53 19.0156 262.538 19.0862 262.257 19.2692C261.703 19.6297 260.943 20.2747 260.591 20.5246C259.018 21.639 257.444 22.7541 255.87 23.8685C254.977 24.5008 253.844 25.7192 252.648 25.7192C252.312 25.7192 251.83 25.4547 251.556 25.2601C250.24 24.3275 248.923 23.3948 247.606 22.461C246.304 21.5375 244.437 20.6006 243.16 19.4114ZM239.916 31.1472C239.916 31.0372 239.916 30.9289 239.916 30.8201C239.916 30.6395 239.922 30.2784 239.923 30.0151C239.924 29.7762 239.924 29.5372 239.924 29.5372C239.92 29.294 239.918 29.0478 239.917 28.801C239.916 28.4654 239.922 28.0794 239.923 27.9395C239.924 27.813 239.924 27.686 239.924 27.686C239.962 26.712 240.136 23.5876 240.079 22.2489C240.064 21.9133 240.217 21.8081 240.491 22.0032C242.018 23.0854 243.546 24.1688 245.074 25.2522C246.257 26.0906 245.137 26.805 244.454 27.4112C243.382 28.3621 242.31 29.3135 241.238 30.265C240.834 30.6225 239.916 31.8153 239.916 31.1472Z" fill="white"/>
<path d="M264.186 20.8784L264.295 20.8013C264.569 20.6079 264.995 20.2693 265.247 20.0474C265.748 19.6048 266.25 19.1622 266.75 18.7219C267.001 18.5001 267.124 18.2684 267.01 18.2453C266.894 18.2216 266.603 18.4113 266.362 18.6448C265.618 19.367 264.873 20.0875 264.128 20.8074C263.886 21.0414 263.911 21.0724 264.186 20.8784Z" fill="white"/>
<path d="M237.708 20.9053C238.465 20.1684 239.236 19.4163 240.019 18.6448C240.258 18.4089 240.451 17.9602 240.451 17.6435C240.451 17.3255 240.258 17.2593 240.02 17.4964C239.246 18.2648 238.473 19.0303 237.704 19.7957C237.465 20.0322 237.272 20.4712 237.272 20.777C237.272 21.0816 237.468 21.14 237.708 20.9053Z" fill="white"/>
<path d="M257.962 25.2871C258.198 25.1204 258.586 24.797 258.83 24.5654C260.948 22.5499 262.892 20.6944 264.631 19.0243C264.763 18.8966 264.901 18.761 265.046 18.6212C265.275 18.3987 265.444 18.2175 265.422 18.2175C265.401 18.2175 265.253 18.3415 265.092 18.4941C264.931 18.6461 264.928 18.6461 265.085 18.4935C265.242 18.3415 265.326 18.2175 265.273 18.2175C265.219 18.2175 264.98 18.4072 264.738 18.6407C262.809 20.5101 260.898 22.3706 259.026 24.2091C258.786 24.4444 258.786 24.4438 259.025 24.2085C261.495 21.7785 264.9 18.4425 264.313 18.9647C262.153 21.0768 260.042 23.1403 257.968 25.166C257.729 25.4001 257.725 25.4549 257.962 25.2871Z" fill="white"/>
<path d="M265.551 32.8806C265.367 33.0684 265.185 33.2563 265.001 33.4442C264.766 33.6849 264.696 33.8788 264.845 33.8788C264.993 33.8788 265.163 33.8302 265.224 33.77L265.336 33.6606C265.507 33.4879 265.68 33.3153 265.853 33.1414C266.089 32.903 266.213 32.6507 266.129 32.5772C266.044 32.5042 265.785 32.6404 265.551 32.8806Z" fill="white"/>
</svg>
