<svg width="42" height="31" viewBox="0 0 42 31" fill="none" xmlns="http://www.w3.org/2000/svg">
<path d="M41.0332 28.0577C40.9747 27.8837 40.8007 27.8722 40.6993 27.9683C38.7469 24.9839 36.7375 22.0397 34.8028 19.0388C34.7771 18.999 34.7436 18.9781 34.709 18.9714C35.0461 13.1494 34.9388 7.2589 34.6223 1.43816C34.611 1.22875 34.3652 1.18734 34.2626 1.30612C34.2282 1.24401 34.1699 1.19534 34.0812 1.19025C25.292 0.686255 16.3844 0.572742 7.59872 1.2184C7.38738 1.23402 7.38242 1.5662 7.59872 1.55948C16.4515 1.28705 25.2299 1.19388 34.0812 1.65302C34.141 1.65611 34.1851 1.63595 34.2202 1.60689C34.4933 7.37459 34.278 13.135 34.4314 18.9017C25.648 18.653 16.4254 18.2571 7.67957 19.3541C7.70829 19.2435 7.55883 19.1394 7.46947 19.2335C7.45334 19.2504 7.4388 19.2689 7.42267 19.2858C7.4294 19.2696 7.44341 19.2604 7.44536 19.2402C7.45954 19.0856 7.46805 18.93 7.48135 18.7752C7.4833 18.7751 7.48454 18.7767 7.48649 18.7763C8.41694 18.5904 9.34632 18.5517 10.2901 18.628C10.3888 18.6359 10.4135 18.4629 10.3137 18.4489C9.36175 18.3152 8.42439 18.378 7.49394 18.6131C7.52816 18.203 7.55245 17.7912 7.58028 17.38C7.82956 17.3751 8.07635 17.3488 8.31854 17.2669C8.40453 17.2378 8.36925 17.1011 8.28078 17.1269C8.05029 17.1941 7.82158 17.2277 7.58986 17.2429C7.61751 16.8248 7.63702 16.4056 7.65865 15.9868C7.90562 16.0115 8.1494 15.9983 8.3868 15.9293C8.3868 16.5916 8.37989 17.2542 8.3829 17.9167C8.38361 18.0851 8.56605 18.1274 8.66657 18.0497C8.68749 18.086 8.71976 18.1149 8.77667 18.1147C16.941 18.0958 25.0925 17.4373 33.2644 17.4937C33.4405 17.495 33.4408 17.2115 33.2644 17.2135C25.1299 17.3045 16.8841 17.0629 8.77667 17.8277C8.7577 17.8295 8.74866 17.843 8.73359 17.8501C8.82809 12.8533 9.00893 7.78124 8.7366 2.79087C8.73377 2.73983 8.71249 2.70206 8.68306 2.67572C8.70576 2.69679 8.73182 2.71586 8.77065 2.71786C16.8653 3.13903 25.0421 2.92581 33.1481 2.95015C33.1689 2.95015 33.1779 2.93526 33.1946 2.92962C33.5743 7.69679 32.766 12.4679 33.3566 17.2182C33.3862 17.4565 33.7561 17.4592 33.7257 17.2182C33.1265 12.4258 34.155 7.60325 33.4367 2.82756C33.4259 2.75491 33.3589 2.72912 33.2974 2.73929C33.2829 2.66846 33.2389 2.60471 33.1479 2.6058C25.0202 2.7075 16.891 2.35353 8.77047 2.42091C8.62987 2.42218 8.59583 2.58273 8.66551 2.66737C8.57119 2.60289 8.41623 2.63958 8.41659 2.79123C8.42013 3.84317 8.41463 4.89512 8.41091 5.94706C8.21801 5.93453 8.02352 5.95269 7.83062 5.96213C7.74375 5.96649 7.74357 6.09635 7.83062 6.10053C8.0237 6.11016 8.21766 6.12832 8.41056 6.11579C8.40914 6.50245 8.41003 6.88912 8.40843 7.27579C8.18681 7.25 7.95899 7.25745 7.73187 7.26907C7.7168 6.3261 7.69694 5.38386 7.67106 4.44343C7.83576 4.42708 8.00065 4.42981 8.18167 4.4407C8.27493 4.44633 8.29797 4.28832 8.20401 4.27162C8.02334 4.23929 7.84268 4.24655 7.66521 4.27815C7.65457 3.90511 7.63897 3.53387 7.62656 3.16155C7.85864 3.14575 8.09089 3.13013 8.32031 3.09381C8.41871 3.07819 8.39655 2.90656 8.29673 2.91473C8.0705 2.93326 7.84587 2.97212 7.62141 3.01117C7.609 2.64793 7.59748 2.28451 7.58365 1.92182C8.68164 1.94434 9.77964 1.97103 10.878 1.95396C11.0349 1.9516 11.0352 1.70641 10.878 1.70405C9.77751 1.68698 8.67739 1.71386 7.57727 1.73638C7.57691 1.72694 7.57674 1.71749 7.57638 1.70823C7.56539 1.4487 7.17161 1.4467 7.18083 1.70823C7.18154 1.73057 7.18137 1.75291 7.18207 1.77525C7.15814 1.80776 7.15796 1.85698 7.1842 1.88767C7.21044 2.72694 7.21931 3.56457 7.23207 4.40274C7.2303 4.40347 7.22835 4.40402 7.22658 4.40456C7.16133 4.4309 7.17782 4.52225 7.23438 4.52952C7.30494 9.43743 7.16133 14.3266 7.13172 19.2407C7.13084 19.378 7.25406 19.4131 7.34678 19.3708C7.33987 19.378 7.33349 19.386 7.32657 19.3933C7.29572 19.3973 7.26416 19.3995 7.23331 19.4035C7.15034 19.4144 7.13208 19.5115 7.18278 19.554C4.64497 22.2774 2.41051 25.341 0.150345 28.3018C0.054783 28.4271 0.0927243 28.5786 0.178713 28.6674C0.179599 28.7206 0.204066 28.7682 0.266652 28.7878C0.272502 29.0528 0.28314 29.3176 0.293246 29.5824C0.282785 29.6013 0.283317 29.6085 0.29431 29.627C0.305479 29.9827 0.284736 30.3601 0.40246 30.6953C0.455294 30.8461 0.665035 30.8791 0.742159 30.742C14.0019 31.0341 27.3998 30.29 40.6442 29.6592C40.7176 29.7162 40.8349 29.7129 40.8693 29.5936C41.0036 29.1269 41.1941 28.5373 41.0332 28.0577ZM8.40169 11.0008C8.4001 11.0014 8.39903 10.9997 8.39744 11.0005C8.24514 11.0593 8.0955 11.1125 7.93789 11.155C7.90916 11.1628 7.92122 11.2079 7.95012 11.2006C8.10029 11.1628 8.24904 11.1381 8.40152 11.116C8.40045 11.3931 8.40098 11.6703 8.4001 11.9474C8.18273 11.892 7.97051 11.9142 7.76467 11.9848C7.77318 11.3612 7.77247 10.7373 7.77229 10.1132C7.90917 10.1192 8.04604 10.1243 8.18238 10.1145C8.33485 10.1034 8.33521 9.8824 8.18238 9.87132C8.04639 9.86152 7.90987 9.86642 7.77336 9.87241C7.77282 9.53696 7.76201 9.20224 7.75935 8.86678C7.98363 8.88458 8.20507 8.85552 8.40595 8.74346C8.40293 9.49573 8.40471 10.2482 8.40169 11.0008ZM8.40825 7.42745C8.40666 7.82792 8.40754 8.22839 8.40613 8.62886C8.17972 8.6937 7.98115 8.73275 7.7574 8.72476C7.7535 8.29414 7.74144 7.8646 7.73488 7.43416C7.96111 7.44597 8.1877 7.45305 8.40825 7.42745ZM7.76006 12.1883C7.9698 12.1345 8.17635 12.1216 8.39921 12.1267C8.39779 12.5045 8.3962 12.8822 8.39513 13.2602C8.1978 13.2934 8.00171 13.333 7.80562 13.3742C7.70155 13.396 7.74871 13.5475 7.84853 13.5337C8.03061 13.5086 8.21305 13.4817 8.39442 13.4509C8.39354 13.7611 8.39176 14.0711 8.39106 14.3813C8.16022 14.4185 7.93381 14.4837 7.70829 14.55C7.73701 13.7638 7.74818 12.9759 7.76006 12.1883ZM7.7035 14.7059C7.9347 14.6637 8.16607 14.6192 8.3907 14.5517C8.38999 14.9389 8.38698 15.3263 8.38698 15.7135C8.14798 15.7618 7.91271 15.7856 7.67017 15.7722C7.68755 15.4175 7.6902 15.0611 7.7035 14.7059ZM0.640391 28.469C0.790383 28.2725 0.945695 28.0796 1.09711 27.884C2.13163 27.8602 3.16615 27.8292 4.19854 27.7574C4.30953 27.7498 4.31201 27.5756 4.19854 27.5786C3.20072 27.6047 2.20432 27.6692 1.2088 27.7409C1.40861 27.4836 1.6125 27.2289 1.81391 26.9727C2.72521 26.9451 3.63935 26.9327 4.54817 26.8635C4.64639 26.8561 4.64905 26.703 4.54817 26.7048C3.66931 26.7209 2.79028 26.79 1.91249 26.8473C2.18747 26.4983 2.46477 26.1505 2.74135 25.8025C3.26596 25.8108 3.78987 25.8226 4.31449 25.8107C4.4269 25.8081 4.42708 25.6343 4.31449 25.6318C3.83313 25.6207 3.35231 25.6312 2.87095 25.6392C3.11739 25.3294 3.36365 25.0193 3.6101 24.7093C3.61063 24.7093 3.61081 24.7099 3.61134 24.7099C4.07727 24.7215 4.55278 24.7616 5.01782 24.7217C5.11942 24.7129 5.11959 24.5684 5.01782 24.5597C4.58966 24.523 4.15315 24.5533 3.72286 24.5675C3.98862 24.2329 4.2496 23.8947 4.51413 23.5591C4.99354 23.5112 5.46887 23.509 5.9543 23.5371C6.06493 23.5435 6.0582 23.3789 5.9543 23.365C5.52188 23.3067 5.08573 23.3228 4.65437 23.3806C4.85684 23.1232 5.0563 22.8635 5.25664 22.6047C5.80041 22.5978 6.34169 22.5916 6.88457 22.5564C6.17202 23.5262 5.52081 24.5687 5.03839 25.5924C4.93574 25.8103 5.18803 25.9603 5.33979 25.8094C5.36462 25.867 5.40663 25.9162 5.48606 25.9205C15.8678 26.4906 26.4091 26.0466 36.766 25.2119C37.1096 25.1843 37.1147 24.6379 36.7736 24.6556C35.8318 23.2104 35.2076 21.6072 34.3424 20.1198C34.2943 20.0371 34.1768 20.0571 34.1397 20.1265C34.1303 20.0377 34.0759 19.9552 33.963 19.9589C25.4175 20.236 16.8406 20.333 8.30453 20.8045C8.20224 20.8101 8.15454 20.8944 8.15756 20.9752C7.7441 21.4307 7.34324 21.9378 6.95425 22.461C6.94663 22.4349 6.92907 22.412 6.89326 22.4107C6.39577 22.3955 5.90005 22.4055 5.40291 22.4164C5.50964 22.2782 5.61762 22.1407 5.72435 22.0023C6.11298 21.9456 6.49576 21.9322 6.89326 21.9351C6.96489 21.9356 6.96134 21.8312 6.89326 21.8237C6.53282 21.7834 6.16706 21.8192 5.81051 21.8915C6.07114 21.5524 6.32024 21.2051 6.57696 20.8633C6.95567 20.869 7.33508 20.8811 7.71378 20.8715C7.80491 20.8691 7.80509 20.7286 7.71378 20.7264C7.36717 20.7175 7.0202 20.7278 6.67359 20.7338C6.82128 20.5364 6.96737 20.3377 7.11577 20.1407C8.25312 20.1574 9.38941 20.1764 10.5269 20.1596C10.6287 20.1581 10.6289 19.999 10.5269 19.9975C9.42061 19.9812 8.31553 19.9988 7.20938 20.0152C7.31717 19.8708 7.42781 19.7284 7.53241 19.5818C16.4653 19.8619 25.4827 19.1993 34.4344 19.3277C34.5069 19.3288 34.555 19.2961 34.5876 19.2513C36.1123 22.3637 38.0814 25.5114 40.3151 28.1546C33.8229 28.2433 27.3303 28.3579 20.839 28.5035C14.2564 28.6512 7.1858 29.4812 0.648192 28.5341C0.645178 28.5121 0.643051 28.4905 0.640391 28.469ZM36.4848 24.6743C26.1483 25.4696 15.883 25.5611 5.52436 25.5522C6.00855 24.853 6.43194 24.1027 6.89769 23.3909C7.39447 22.6318 7.93824 21.8998 8.40417 21.1201C16.9186 21.0509 25.4506 20.6111 33.9626 20.3506C34.0706 20.3473 34.1229 20.2671 34.136 20.1817C34.1365 20.1915 34.1307 20.199 34.1342 20.2095C34.6736 21.8054 35.6407 23.2284 36.4848 24.6743ZM0.80634 30.4075C0.816623 30.1663 0.786483 29.9214 0.760598 29.6801C1.82721 29.7278 2.89471 29.7794 3.9615 29.8121C4.09482 29.8161 4.09021 29.6151 3.9615 29.6027C2.89825 29.5008 1.81604 29.4921 0.745705 29.5351C0.744641 29.5244 0.743223 29.5133 0.742336 29.5026C0.724075 29.2905 0.706877 29.0786 0.686665 28.8668C6.68033 29.969 13.3775 29.0279 19.4407 28.9656C26.4316 28.8935 33.4227 28.7851 40.4126 28.6457C40.5202 28.6436 40.5784 28.5771 40.6103 28.4988C40.6151 28.7199 40.6344 28.94 40.627 29.1628C27.3614 29.7378 14.0635 29.7747 0.80634 30.4075Z" fill="#343434"/>
<path d="M25.0232 27.7711C24.8218 27.3951 24.6093 27.0611 24.3655 26.722C24.371 26.6652 24.3408 26.6183 24.2821 26.6011C24.2797 26.5978 24.2779 26.5947 24.2754 26.5914C24.1832 26.4676 24.0173 26.5023 23.9517 26.5974C21.8745 26.6915 19.8063 26.75 17.7266 26.7598C17.713 26.6666 17.5972 26.6134 17.5321 26.714C17.5146 26.7411 17.5011 26.7676 17.4841 26.7945C17.4497 26.819 17.4275 26.8522 17.4247 26.8938C17.2061 27.2473 17.015 27.5958 16.8379 27.983C16.7703 28.1307 16.851 28.2954 17.0171 28.3032C19.6359 28.4258 22.2422 28.3272 24.8514 28.078C25.0007 28.0636 25.1005 27.9154 25.0232 27.7711ZM23.649 27.7738C22.8748 27.9102 22.0236 27.8735 21.2394 27.8942C20.4355 27.9156 19.6304 27.9234 18.8264 27.9174C17.7789 27.9098 17.2405 28.1192 17.6357 27.0593C19.757 27.1946 21.9119 27.1359 24.0238 26.8793C24.5038 27.5722 24.5805 27.6098 23.649 27.7738Z" fill="#343434"/>
</svg>
