<svg width="618" height="160" viewBox="0 0 618 160" fill="none" xmlns="http://www.w3.org/2000/svg">
<path d="M7.05879 147.959C6.51558 151.363 6.4192 154.818 6.68711 158.175C6.7533 159.321 8.44927 159.223 8.53496 158.145C8.64458 154.919 9.27476 151.74 10.2869 148.769C10.9965 146.965 7.4514 145.79 7.05879 147.959Z" fill="#343434"/>
<path d="M14.265 130.525C12.5846 133.458 11.1343 136.532 9.98339 139.664C9.54659 141.069 11.4476 141.956 12.0407 140.695C13.4306 137.856 15.1242 135.151 17.0523 132.664C18.2871 130.983 15.4172 128.696 14.265 130.525Z" fill="#343434"/>
<path d="M28.0302 116.469C25.7289 118.901 23.6578 121.474 21.4391 124.055C20.7457 124.862 21.7883 126.258 22.6423 125.672C25.417 123.749 28.2521 121.592 30.4664 118.934C31.6451 117.563 29.3608 115.166 28.0302 116.469Z" fill="#343434"/>
<path d="M41.8503 105.936C39.5919 107.829 37.3291 109.646 34.9881 111.391C33.6399 112.389 35.1647 114.447 36.5261 113.679C38.9585 112.235 41.3865 110.715 43.81 109.119C45.6656 107.938 43.5452 104.535 41.8503 105.936Z" fill="#343434"/>
<path d="M56.3576 97.049C54.0122 98.7176 51.6624 100.31 49.2344 101.83C48.0942 102.585 49.1676 104.516 50.3123 103.837C52.7446 102.394 55.264 101.175 57.8659 100.105C59.8174 99.3021 58.0613 95.8008 56.3576 97.049Z" fill="#343434"/>
<path d="M69.6874 90.8366C68.5384 91.4396 67.32 92.1232 66.2535 92.8747C65.1132 93.6304 63.9686 94.3098 62.9021 95.0612C61.9787 95.7278 62.7439 97.4467 63.7455 96.8522C65.961 95.4978 68.2075 94.6782 70.684 93.9985C72.8699 93.4123 71.6256 89.8048 69.6874 90.8366Z" fill="#343434"/>
<path d="M134.101 67.1861C132.787 67.4919 131.551 67.8699 130.241 68.2522C128.931 68.6345 127.7 69.0889 126.468 69.5433C125.379 69.9128 125.711 71.81 126.878 71.5126C129.35 70.7566 131.705 70.5439 134.295 70.5476C136.586 70.492 136.222 66.7569 134.101 67.1861Z" fill="#343434"/>
<path d="M86.426 83.4309C84.9864 84.1273 83.6205 84.8194 82.2546 85.5115C80.8931 86.28 79.4535 86.9764 78.0876 87.6686C76.7911 88.28 77.6609 90.5294 79.0356 89.9901C80.4841 89.4465 81.9325 88.9029 83.381 88.3593C84.8339 87.8921 86.2867 87.4249 87.8089 86.8771C89.8385 86.1466 88.4468 82.5476 86.426 83.4309Z" fill="#343434"/>
<path d="M103.707 76.4537C100.45 77.715 97.0506 79.0611 93.9721 80.8487C93.0399 81.3625 93.7402 83.2384 94.7638 83.0259C98.2034 82.3673 101.617 81.2503 104.96 80.214C107.146 79.6278 105.88 75.6383 103.707 76.4537Z" fill="#343434"/>
<path d="M119.727 70.6992C116.73 71.3322 113.5 73.0519 110.855 74.6611C109.784 75.3362 110.701 77.1229 111.864 76.7491C114.839 75.7341 117.918 75.2496 120.902 74.3874C123.088 73.8012 121.922 70.2658 119.727 70.6992Z" fill="#343434"/>
<path d="M149.051 63.4097C146.007 64.5053 142.889 65.6053 139.84 66.6246C138.751 66.9941 139.291 68.6493 140.315 68.4369C143.533 67.7911 146.682 67.2259 149.909 66.7329C151.887 66.3887 150.938 62.7641 149.051 63.4097Z" fill="#343434"/>
<path d="M166.204 58.0496C163.16 59.1453 160.115 60.241 157.145 61.3324C155.839 61.7911 156.331 63.909 157.719 63.5989L167.066 61.4493C169.114 61.0244 168.16 57.3234 166.204 58.0496Z" fill="#343434"/>
<path d="M184.837 53.9839C181.715 55.0074 178.753 56.2516 175.552 57.2031C174.607 57.4876 174.634 59.2491 175.745 59.2616C179.216 59.1378 182.742 58.7041 185.995 57.3664C187.725 56.5766 186.581 53.4232 184.837 53.9839Z" fill="#343434"/>
<path d="M299.979 31.0826C296.752 31.5756 293.616 32.37 290.385 32.7866C289.357 32.9226 289.237 34.6926 290.282 34.8622C293.71 35.2774 297.341 35.3743 300.698 34.5671C302.446 34.0829 301.81 30.7469 299.979 31.0826Z" fill="#343434"/>
<path d="M201.475 49.9567C198.721 50.959 195.954 51.732 193.183 52.4287C191.578 52.828 192.166 55.3236 193.784 55.1535C196.651 54.8346 199.432 54.2907 202.281 53.6662C204.472 53.1564 203.505 49.2262 201.475 49.9567Z" fill="#343434"/>
<path d="M217.901 46.0951C215.216 47.0167 212.527 47.8619 209.756 48.5586C208.441 48.8644 208.864 51.063 210.183 50.8335C212.959 50.2132 215.744 49.7458 218.542 49.5075C220.598 49.2354 219.787 45.4496 217.901 46.0951Z" fill="#343434"/>
<path d="M232.258 43.5795C229.703 44.1869 227.166 45.1 224.698 45.9324C223.61 46.3019 223.941 48.1991 225.108 47.9018C227.585 47.2222 229.936 46.9331 232.521 46.8604C234.742 46.8854 234.301 43.0782 232.258 43.5795Z" fill="#343434"/>
<path d="M250.106 40.0189C247.118 40.8048 244.138 41.7434 241.072 42.4571C239.684 42.7672 240.116 45.1186 241.508 44.8848C244.583 44.3239 247.681 44.145 250.761 43.6605C252.886 43.3078 252.149 39.5177 250.106 40.0189Z" fill="#343434"/>
<path d="M268.167 36.2928C264.732 37.0278 261.223 37.7671 257.884 38.8798C256.869 39.2451 257.205 41.2187 258.311 41.1548C261.786 41.1074 265.386 40.6694 268.913 40.2358C271.117 39.9552 270.436 35.8552 268.167 36.2928Z" fill="#343434"/>
<path d="M284.854 33.1069C281.756 33.2858 278.421 34.4749 275.533 35.7149C274.375 36.165 275.006 38.1216 276.182 37.9771C279.262 37.4926 282.368 37.4664 285.452 37.0583C287.72 36.6207 287.066 32.9791 284.854 33.1069Z" fill="#343434"/>
<path d="M314.776 29.7677C311.636 30.4857 308.417 31.1315 305.199 31.7773C304.101 31.994 304.35 33.7427 305.457 33.6788C308.702 33.4913 311.946 33.3039 315.196 33.1929C317.265 33.15 316.749 29.3471 314.776 29.7677Z" fill="#343434"/>
<path d="M332.503 26.675L323.078 28.7524C321.764 29.0583 321.961 31.1932 323.363 31.1123L332.854 30.1808C334.988 29.9809 334.551 26.2501 332.503 26.675Z" fill="#343434"/>
<path d="M351.512 25.2702C349.899 25.5167 348.29 25.8396 346.68 26.1625C345.071 26.4854 343.466 26.8847 341.848 27.0548C340.82 27.1908 340.701 28.9608 341.82 29.1261C343.534 29.3337 345.313 29.3843 347.013 29.3627C348.788 29.3369 350.479 29.1625 352.153 28.6826C353.979 28.2705 353.343 24.9345 351.512 25.2702Z" fill="#343434"/>
<path d="M368.595 23.8216C365.741 24.3697 362.874 24.6886 359.998 24.8547C358.375 24.9485 358.599 27.5418 360.156 27.6051C363.05 27.7446 365.857 27.6591 368.733 27.493C371.024 27.4373 370.721 23.4688 368.595 23.8216Z" fill="#343434"/>
<path d="M385.418 23.0049C384.022 23.1623 382.629 23.396 381.159 23.5576C379.762 23.7149 378.365 23.8722 376.89 23.9574C375.563 24.0341 375.621 26.3303 376.949 26.2537C378.35 26.1727 379.756 26.1682 381.166 26.2401C381.834 26.2781 382.571 26.2355 383.239 26.2736C383.907 26.3117 384.654 26.4219 385.322 26.4599C387.552 26.6377 387.396 22.6607 385.418 23.0049Z" fill="#343434"/>
<path d="M400.021 23.4645C397.362 23.5414 394.712 23.7712 392.07 24.1537C390.968 24.294 390.862 26.2931 392.037 26.1486C394.614 25.9231 396.927 26.2495 399.469 26.7158C401.791 27.195 402.164 23.4173 400.021 23.4645Z" fill="#343434"/>
<path d="M418.269 24.2502C416.711 24.1869 415.163 24.2763 413.61 24.2894C412.057 24.3024 410.508 24.3919 408.95 24.3285C407.471 24.3373 407.387 26.7185 408.87 26.7861C410.432 26.9258 411.92 27.0698 413.487 27.286C415.053 27.5021 416.541 27.6461 418.108 27.8623C420.125 28.2056 420.421 24.3559 418.269 24.2502Z" fill="#343434"/>
<path d="M436.708 25.7914C433.211 25.4568 429.562 25.0543 426.096 25.2545C425.064 25.3142 424.884 27.3176 425.86 27.5678C429.245 28.5221 432.759 29.1623 436.196 29.7303C438.517 30.2095 439.095 26.1135 436.708 25.7914Z" fill="#343434"/>
<path d="M468.206 31.7908C464.925 31.367 461.567 30.8711 458.24 30.91C457.207 30.9696 457.014 32.7439 457.921 33.0747C461.015 34.1225 464.313 34.8519 467.533 35.5091C469.702 35.9204 470.371 32.1257 468.206 31.7908Z" fill="#343434"/>
<path d="M453.656 28.4152C450.718 27.5117 447.083 27.3385 443.99 27.5938C442.736 27.6662 442.781 29.7332 443.901 29.8985C446.964 30.4115 449.915 31.5441 452.914 32.2141C455.166 32.7739 455.765 29.0599 453.656 28.4152Z" fill="#343434"/>
<path d="M482.597 37.5518L477.867 36.3686C476.292 35.9996 474.712 35.5543 473.137 35.1854C472.013 34.9437 471.594 36.6542 472.653 37.053C474.163 37.579 475.683 38.2578 477.197 38.8602L481.676 40.8245C483.425 41.6433 484.624 38.048 482.597 37.5518Z" fill="#343434"/>
<path d="M499.864 43.1467L495.195 41.73L492.86 41.0217L490.53 40.3897C489.181 40.0844 488.484 42.1176 489.769 42.58L491.965 43.4497L494.165 44.3957L498.566 46.2878C500.545 47.2467 501.822 43.7235 499.864 43.1467Z" fill="#343434"/>
<path d="M517.148 51.5769C515.633 50.9745 514.049 50.4527 512.539 49.9267C511.029 49.4007 509.44 48.8026 507.926 48.2002C507.014 47.7929 505.992 49.3084 506.917 49.9448C508.306 50.9378 509.769 51.9264 511.301 52.8344C512.829 53.666 514.426 54.417 516.084 54.9344C517.815 55.4477 518.888 52.2429 517.148 51.5769Z" fill="#343434"/>
<path d="M532.557 59.5787C531.194 59.0442 529.9 58.429 528.607 57.8139C527.314 57.1987 526.016 56.5071 524.722 55.8919C523.199 55.1367 522.151 57.4968 523.458 58.3412C524.686 59.1135 525.915 59.8857 527.07 60.6622C528.298 61.4344 529.522 62.1303 530.751 62.9025C532.734 63.9377 534.527 60.3848 532.557 59.5787Z" fill="#343434"/>
<path d="M547.259 68.158C545.965 67.5428 544.672 66.9276 543.448 66.2318C542.15 65.5402 540.93 64.9208 539.632 64.2292C538.482 63.5291 537.339 65.5115 538.489 66.2116C539.718 66.9838 540.942 67.6797 542.101 68.5326C543.26 69.3855 544.419 70.2384 545.505 71.0955C547.133 72.3812 549.086 69.049 547.259 68.158Z" fill="#343434"/>
<path d="M559.366 76.6571C557.14 75.2527 554.631 74.0945 552.265 72.8513C551.271 72.2955 550.184 73.968 551.252 74.5196C553.548 75.8434 555.337 77.3498 557.291 79.1533C558.941 80.821 561.211 77.8537 559.366 76.6571Z" fill="#343434"/>
<path d="M574.418 87.4392C571.8 85.674 569.048 84.1466 566.431 82.3815C565.202 81.6092 563.833 83.528 565.07 84.453C567.549 86.3795 569.89 88.4673 572.373 90.4702C574.001 91.7559 576.263 88.6358 574.418 87.4392Z" fill="#343434"/>
<path d="M589.487 98.5268C586.626 96.3925 583.687 94.1859 580.553 92.4506C579.633 91.8905 578.472 93.5673 579.179 94.293C581.624 96.9113 584.425 99.2791 587.078 101.655C588.876 103.315 591.419 99.9483 589.487 98.5268Z" fill="#343434"/>
<path d="M603.05 109.165C600.848 106.916 597.714 105.18 594.893 103.734C593.752 103.186 592.821 105.003 593.75 105.716C596.159 107.723 598.292 110.053 600.637 112.217C602.43 113.8 604.627 110.837 603.05 109.165Z" fill="#343434"/>
<path d="M617.42 119.68C616.649 116.581 615.735 113.568 614.817 110.478C614.455 109.349 612.963 109.129 612.205 110.093L612.07 110.33C608.803 113.968 605.692 117.751 602.581 121.533C601.961 122.336 602.335 123.694 603.299 123.715L611.385 124.091C612.943 124.154 615.573 124.846 616.903 123.542C618.099 122.477 617.716 120.966 617.42 119.68Z" fill="#343434"/>
<path d="M108.067 53.9665C108.468 54.2388 108.923 54.5841 109.434 55.0023L109.825 55.3139L110.38 54.1025C110.413 54.0328 110.46 53.9224 110.522 53.7713C110.595 53.6173 110.675 53.4925 110.763 53.3968C110.88 53.2693 111.023 53.1476 111.192 53.0319C111.371 52.9016 111.486 52.8177 111.538 52.7801C111.57 52.8588 111.606 52.955 111.646 53.0687C111.684 53.1707 111.72 53.2916 111.754 53.4314C111.774 53.513 111.787 53.6149 111.792 53.7372C111.77 54.1009 111.707 54.5489 111.603 55.0811L111.545 55.4475L112.279 55.2672C112.582 55.1927 112.811 55.1427 112.965 55.1172C113.035 55.1 113.124 55.1091 113.231 55.1445C113.336 55.1682 113.415 55.186 113.467 55.1978C113.455 55.2501 113.437 55.3287 113.414 55.4333C113.39 55.538 113.353 55.615 113.303 55.6643C113.154 55.8121 112.792 56.1482 112.217 56.6727L111.537 57.3029L111.073 57.7507C111.265 57.8271 111.561 57.9273 111.962 58.0512C112.482 58.2076 112.905 58.3694 113.231 58.5366C113.565 58.6893 113.856 58.9204 114.105 59.2299C114.035 59.3955 113.93 59.4955 113.79 59.5299C113.696 59.5528 113.576 59.5392 113.428 59.4891C113.291 59.4362 113.189 59.3994 113.122 59.3787L111.116 58.9078L111.205 59.5717C111.412 60.9667 111.584 62.2218 111.722 63.337C111.722 63.3865 111.659 63.4576 111.534 63.5502C111.423 63.6516 111.326 63.7371 111.245 63.8066L109.624 60.9055C109.565 61.0683 109.515 61.2165 109.473 61.3502C109.441 61.4694 109.41 61.5697 109.38 61.6511L109.115 62.4576C109.012 62.7424 108.78 62.9292 108.419 63.0179C108.162 63.0809 107.906 63.0697 107.651 62.9842C107.392 62.8871 107.237 62.7337 107.185 62.5239C107.145 62.3608 107.165 62.1644 107.244 61.9348C107.306 61.7837 107.355 61.6049 107.391 61.3984C107.438 61.1891 107.472 61.051 107.493 60.9841L107.608 60.4738C107.317 60.5949 107.159 60.6582 107.136 60.664L106.769 60.7541C106.361 60.8543 106.057 60.8982 105.856 60.8858C105.705 60.8735 105.577 60.8308 105.472 60.7576C105.368 60.6844 105.304 60.6012 105.281 60.508C105.238 60.3332 105.297 60.1457 105.458 59.9455C105.915 59.3886 106.419 58.8755 106.971 58.4062C107.091 58.2903 107.174 58.2019 107.221 58.141C107.276 58.0655 107.295 57.9928 107.278 57.9229C107.253 57.818 107.122 57.7142 106.887 57.6113C106.088 57.2268 105.344 56.8163 104.656 56.3798C104.584 56.3359 104.517 56.2658 104.457 56.1695C104.393 56.0615 104.348 55.9551 104.322 55.8502C104.308 55.792 104.307 55.7367 104.319 55.6843C104.389 55.5682 104.494 55.4682 104.634 55.3844C104.783 55.286 104.919 55.2342 105.041 55.2289C105.434 55.2188 105.799 55.296 106.136 55.4604C106.473 55.6247 106.828 55.8648 107.202 56.1807L107.699 56.5407L107.874 56.4235C107.626 55.7182 107.45 55.1747 107.343 54.793C107.26 54.455 107.27 54.2426 107.372 54.1557C107.475 54.0688 107.607 54.0053 107.77 53.9652C107.91 53.9309 108.009 53.9313 108.067 53.9665ZM120.536 60.486C120.309 60.616 120.09 60.7068 119.88 60.7584C119.321 60.8958 118.725 60.7827 118.092 60.4193C118.099 60.1457 118.169 59.9306 118.304 59.774C118.435 59.6057 118.574 59.4666 118.72 59.3566C118.866 59.2466 118.965 59.1728 119.018 59.1352C119.581 58.7125 120.183 58.3177 120.821 57.9507C121.09 57.7859 121.225 57.5551 121.226 57.2582C121.261 56.4958 121.252 55.7565 121.2 55.0403C121.145 54.3125 121.054 53.34 120.928 52.123L120.865 51.5639C120.868 51.5261 120.861 51.4722 120.844 51.4023C120.784 51.1576 120.62 51.0186 120.352 50.9855C120.262 50.9706 120.155 50.9352 120.03 50.8794C119.902 50.812 119.803 50.7621 119.733 50.7298L119.365 51.0426C119.065 51.2771 118.726 51.5581 118.349 51.8854C118.218 52.0042 118.07 52.0836 117.907 52.1237C117.732 52.1667 117.536 52.1717 117.318 52.1388C117.108 52.0914 116.985 52.0661 116.947 52.063C116.831 52.0422 116.726 51.9937 116.633 51.9177C116.552 51.8388 116.499 51.7469 116.473 51.642C116.438 51.5022 116.452 51.3567 116.514 51.2056C116.596 50.9877 116.747 50.7467 116.967 50.4827C117.824 49.4443 118.835 48.7819 120 48.4957C120.536 48.364 121.085 48.3095 121.647 48.3321C122.173 48.3634 122.63 48.3871 123.017 48.4032C123.413 48.4048 123.742 48.4105 124.004 48.4203L125.182 48.4644C125.206 48.4587 125.254 48.4531 125.326 48.4476C125.411 48.4392 125.475 48.4482 125.518 48.4745C125.603 48.5156 125.693 48.58 125.788 48.6677C125.893 48.7409 125.975 48.8009 126.036 48.8477C125.99 48.9087 125.925 48.9986 125.843 49.1176C125.773 49.2338 125.697 49.3018 125.615 49.3219C125.525 49.3564 125.381 49.398 125.183 49.4467C125.031 49.4839 124.801 49.5281 124.492 49.5792L124.103 49.6562L122.828 49.8213L122.895 50.472C123.013 51.6047 123.092 52.5058 123.133 53.1754C123.177 53.7576 123.21 54.5465 123.232 55.542L123.276 56.6248C124.043 56.3253 124.562 56.1237 124.833 56.02C125.445 55.7955 125.908 55.6446 126.223 55.5673C126.607 55.4728 126.941 55.4465 127.223 55.4884C127.505 55.5303 127.739 55.7015 127.924 56.0021C127.844 56.1822 127.738 56.3258 127.603 56.433C127.481 56.5372 127.348 56.6255 127.205 56.6976C127.074 56.767 126.992 56.8117 126.96 56.832L126.653 57.0184C126.006 57.4 125.558 57.6397 125.31 57.7377C124.783 57.9538 124.275 58.202 123.788 58.4823C123.312 58.7598 122.722 59.1212 122.015 59.5665C121.56 59.8761 121.067 60.1826 120.536 60.486ZM130.589 44.634C130.833 44.7223 131.055 44.8717 131.255 45.082C131.466 45.2895 131.604 45.5215 131.667 45.7779C131.695 45.8944 131.708 46.0211 131.704 46.1578C131.588 47.6446 131.434 48.9056 131.244 49.941C131.193 50.2377 131.09 50.4977 130.935 50.7212C130.789 50.9301 130.568 51.0646 130.274 51.1245C130.254 51.0924 130.195 51.0019 130.096 50.8531C129.998 50.7043 129.936 50.5774 129.91 50.4725C129.884 50.3676 129.888 50.1566 129.921 49.8395C130.064 48.5071 129.981 47.2917 129.674 46.1932C129.588 45.8931 129.591 45.5278 129.683 45.0974C129.704 44.9811 129.76 44.8809 129.85 44.7969C129.938 44.7012 130.04 44.6391 130.157 44.6104C130.285 44.5789 130.429 44.5868 130.589 44.634ZM145.316 49.9686C145.184 49.5315 144.917 49.251 144.516 49.1272C144.253 49.2658 144.048 49.409 143.899 49.5568C143.749 49.7047 143.647 49.841 143.591 49.966C143.533 50.0792 143.433 50.3015 143.292 50.6327C143.245 50.7431 143.2 50.8899 143.159 51.0731C143.129 51.2534 143.113 51.3625 143.11 51.4003C143.095 51.4905 143.099 51.5822 143.121 51.6754C143.139 51.7453 143.178 51.8531 143.238 51.9989C143.307 52.1302 143.346 52.238 143.355 52.3225C143.386 52.5001 143.459 52.7725 143.574 53.1397L143.725 53.6773C143.765 53.8405 143.789 53.9643 143.797 54.0487C143.82 54.2409 143.802 54.4184 143.743 54.5811C143.684 54.7438 143.573 54.8453 143.41 54.8853C143.351 54.8996 143.271 54.9008 143.169 54.8887C143.082 54.8855 142.938 54.8776 142.737 54.8651C142.537 54.8527 142.369 54.801 142.236 54.7103C142.1 54.6079 142.003 54.4401 141.946 54.207C141.797 53.6011 141.515 52.7064 141.101 51.5231C141.046 51.4006 140.97 51.1907 140.872 50.8935C140.829 50.7681 140.746 50.6834 140.624 50.6392C140.502 50.5951 140.365 50.5916 140.214 50.6288C139.969 50.689 139.798 50.7989 139.702 50.9585C139.24 51.3932 138.934 51.8329 138.784 52.2776C138.634 52.7223 138.633 53.2476 138.782 53.8536L138.945 54.4436C139.04 54.8282 139.028 55.208 138.91 55.5829C138.878 55.7021 138.778 55.8254 138.612 55.9528C138.454 56.0657 138.308 56.1262 138.174 56.1344C138.055 56.1513 137.914 56.1056 137.752 55.9973C137.598 55.8744 137.507 55.7547 137.478 55.6382C137.203 54.6679 136.946 53.6991 136.708 52.7319C136.494 51.8579 136.345 51.2024 136.262 50.7655C136.22 50.5412 136.252 50.3478 136.361 50.1853C136.469 50.0227 136.622 49.9171 136.82 49.8684C137.077 49.8055 137.327 49.8429 137.571 49.9807C137.724 50.153 137.848 50.2772 137.94 50.3532C138.03 50.4176 138.116 50.4398 138.198 50.4198C138.268 50.4026 138.341 50.3476 138.417 50.2548C138.49 50.1503 138.587 49.9906 138.707 49.7757C138.988 49.2617 139.339 48.9532 139.758 48.8501C140.213 48.7385 140.816 48.8312 141.569 49.1282C141.624 49.1517 141.701 49.1884 141.8 49.2383C141.896 49.2765 141.973 49.2885 142.031 49.2742C142.113 49.2541 142.218 49.1294 142.347 48.9C142.851 48.1337 143.597 47.5983 144.584 47.2939C144.896 47.2049 145.241 47.25 145.619 47.429C146.005 47.5936 146.282 47.8407 146.449 48.1702C146.735 48.7302 147.006 49.4051 147.262 50.1949C147.629 51.3897 147.882 52.2915 148.019 52.9003C148.076 53.1829 148.055 53.4229 147.955 53.6204C147.852 53.8062 147.69 53.9264 147.469 53.9808C147.294 54.0237 147.095 54.0171 146.871 53.9609C146.781 53.9459 146.689 53.9004 146.597 53.8244C146.504 53.7483 146.449 53.6754 146.432 53.6054L145.871 51.7783C145.811 51.583 145.738 51.3354 145.652 51.0352C145.563 50.7235 145.451 50.3679 145.316 49.9686ZM160.024 48.7277C160.222 48.1231 160.407 47.6204 160.581 47.2195C160.751 46.8069 161.04 46.5505 161.448 46.4503C161.507 46.436 161.632 46.4176 161.824 46.3951C162.226 46.3705 162.537 46.4547 162.757 46.6477C162.986 46.8262 163.231 47.1182 163.491 47.5239C163.729 47.8857 163.922 48.147 164.073 48.3077L164.142 46.4002C164.174 45.6261 164.068 44.639 163.822 43.4389C163.835 43.2382 163.895 43.0565 164.004 42.894C164.124 42.7286 164.306 42.6158 164.551 42.5557C164.656 42.5299 164.753 42.5245 164.843 42.5394C165.076 42.5811 165.258 42.6415 165.388 42.7206C165.528 42.7852 165.622 42.9166 165.67 43.1147C165.693 43.2079 165.706 43.2851 165.709 43.3462C165.727 43.7741 165.755 44.5892 165.79 45.7913L165.859 48.2582C165.87 48.4038 165.875 48.5261 165.875 48.625C165.912 48.9249 165.918 49.1767 165.894 49.3803C165.878 49.5695 165.798 49.7438 165.651 49.9032C165.508 50.0744 165.353 50.1742 165.187 50.2026C164.748 50.2735 164.307 50.2397 163.865 50.1011C163.432 49.948 163.059 49.6875 162.746 49.3195C162.59 49.1355 162.448 48.985 162.32 48.8681C162.201 48.7366 162.048 48.6137 161.859 48.4995C161.844 48.5896 161.83 48.7846 161.817 49.0843C161.766 49.6283 161.719 49.992 161.678 50.1751C161.642 50.3322 161.57 50.4919 161.462 50.6545C161.362 50.8025 161.25 50.8981 161.124 50.9412C160.92 51.0161 160.772 51.0649 160.678 51.0879C160.271 51.1881 159.926 51.1677 159.644 51.0269C159.371 50.8715 159.08 50.5662 158.77 50.1109L158.172 49.1829C157.799 48.5702 157.479 48.1236 157.212 47.8431C156.946 47.5626 156.582 47.1886 156.121 46.721C156.06 46.6742 155.998 46.5968 155.934 46.4889C155.868 46.3693 155.843 46.295 155.861 46.2659C155.899 46.2195 155.965 46.1354 156.058 46.0135C156.161 45.8772 156.259 45.7728 156.352 45.7004C156.454 45.6135 156.552 45.5586 156.645 45.5357C157.065 45.4326 157.527 45.6775 158.031 46.2704C158.532 46.8517 158.94 47.3074 159.256 47.6375L160.024 48.7277ZM173.905 46.541C173.598 46.8512 173.212 47.0635 172.746 47.178C172.233 47.304 171.706 47.2975 171.166 47.1585C170.634 47.005 170.168 46.7178 169.768 46.2971C169.368 45.8764 169.114 45.3456 169.006 44.7049L168.99 44.2639C168.957 43.8272 168.939 43.504 168.937 43.2945C168.936 42.8375 169.072 42.483 169.343 42.2309C169.615 41.9788 170 41.7359 170.499 41.5022C170.82 41.3493 171.143 41.2327 171.469 41.1525C172.495 40.9006 173.442 41.0325 174.31 41.5483C174.774 41.8296 175.073 42.2383 175.204 42.7744C175.333 43.2988 175.28 43.9112 175.044 44.6117C174.77 45.408 174.39 46.0511 173.905 46.541ZM171.269 42.1471C171.194 42.6474 171.135 43.2613 171.091 43.9887L171.045 44.556L171.18 44.5784C171.2 44.66 171.232 44.7882 171.275 44.963C171.327 45.1233 171.384 45.2574 171.448 45.3653C171.665 45.6951 171.865 45.8807 172.048 45.9222C172.127 45.94 172.221 45.8982 172.332 45.7968C172.455 45.6925 172.557 45.5809 172.639 45.4619C172.768 45.282 172.959 44.9262 173.211 44.3946C173.405 44.0258 173.45 43.6316 173.347 43.2121C173.258 42.8508 173.073 42.5503 172.792 42.3105C172.522 42.0678 172.194 41.9384 171.807 41.9223C171.769 41.9192 171.704 41.9291 171.61 41.952C171.389 42.0064 171.275 42.0714 171.269 42.1471ZM179.539 38.5399C179.603 38.6479 179.653 38.8271 179.69 39.0775L179.987 41.1917C180.033 41.1308 180.081 40.9462 180.129 40.6379C180.174 40.3179 180.227 40.0576 180.289 39.8571C180.348 39.6448 180.4 39.5024 180.443 39.4299C180.862 38.7709 181.403 38.3045 182.065 38.0307C182.726 37.757 183.472 37.5243 184.303 37.3326C184.384 37.3126 184.48 37.3261 184.591 37.3731C184.71 37.4056 184.775 37.4452 184.787 37.4918C184.795 37.5267 184.776 37.5994 184.729 37.7098C184.679 37.8086 184.628 37.8768 184.575 37.9144C183.933 38.3192 183.382 38.739 182.92 39.1737C182.47 39.6055 182.113 40.1134 181.848 40.6973C181.223 42.0743 180.99 43.3918 181.151 44.6497C181.196 44.9846 181.152 45.2304 181.017 45.387C180.88 45.532 180.666 45.6402 180.374 45.7118C180.048 45.792 179.722 45.7237 179.397 45.507C179.072 45.2903 178.868 45.013 178.785 44.675C178.493 43.4369 178.044 41.5825 177.437 39.112C177.354 38.774 177.372 38.5224 177.492 38.357C177.609 38.1799 177.866 38.0427 178.262 37.9454C178.554 37.8738 178.818 37.8952 179.057 38.0097C179.306 38.1213 179.467 38.2981 179.539 38.5399ZM194.676 40.2707C194.728 40.2825 194.955 40.3504 195.356 40.4743C195.055 40.8077 194.718 41.0203 194.345 41.1119C194.136 41.1634 193.924 41.1844 193.712 41.1748C193.497 41.1535 193.28 41.1264 193.062 41.0935C192.844 41.0606 192.676 41.0338 192.56 41.0129C192.188 40.9561 191.592 40.7936 190.772 40.5254C190.551 40.4313 190.336 40.3606 190.127 40.3132L189.577 40.1887C189.571 40.2644 189.549 40.3749 189.511 40.5202C189.484 40.6627 189.482 40.7806 189.505 40.8738L189.767 41.9401C189.999 42.8841 190.191 43.5906 190.343 44.0598C190.424 44.2872 190.474 44.4416 190.494 44.5232C190.528 44.663 190.526 44.7809 190.488 44.8768C190.464 44.9815 190.388 45.0743 190.26 45.1553C190.143 45.2334 189.98 45.2487 189.771 45.2013C189.561 45.1539 189.361 45.0672 189.169 44.9413C188.989 44.8125 188.882 44.6782 188.848 44.5383C188.503 43.3873 188.217 42.3456 187.988 41.4133C187.218 38.1796 186.461 34.9488 185.718 31.721C185.649 31.4413 185.691 31.1839 185.843 30.9488C186.004 30.6991 186.23 30.5385 186.522 30.467C186.825 30.3925 187.116 30.4446 187.394 30.6233C187.67 30.7903 187.832 31.0224 187.88 31.3195C187.985 32.0475 188.052 32.8219 188.08 33.6428C188.077 33.7301 188.093 33.8437 188.127 33.9835C188.179 34.1933 188.292 34.2767 188.467 34.2338C188.537 34.2166 188.652 34.1574 188.812 34.0562C189.037 33.9145 189.242 33.8207 189.429 33.7749C189.959 33.6199 190.399 33.6232 190.747 33.7847C191.108 33.9433 191.339 34.2324 191.442 34.6519C191.534 35.0248 191.515 35.4497 191.385 35.9265C191.219 36.5603 190.94 37.2838 190.546 38.0971C190.423 38.3498 190.381 38.5578 190.422 38.7209C190.462 38.8841 190.633 39.0521 190.935 39.2251C191.472 39.5009 192.031 39.7156 192.613 39.8693C193.206 40.0202 193.894 40.154 194.676 40.2707ZM197.88 32.8851C197.209 33.1239 196.575 32.9831 195.978 32.4626C196.273 32.1058 196.596 31.8845 196.946 31.7986C197.353 31.6984 197.737 31.8018 198.097 32.1089C198.187 32.1733 198.246 32.2638 198.275 32.3803C198.3 32.4852 198.275 32.584 198.199 32.6769C198.123 32.7697 198.017 32.8391 197.88 32.8851ZM199.545 36.5722C199.603 36.8547 199.676 37.2814 199.767 37.8522L199.972 39.1366C200.009 39.2881 200.066 39.4469 200.144 39.6131C200.222 39.7794 200.274 39.8902 200.3 39.9456C200.369 40.1263 200.368 40.2995 200.298 40.4651C200.225 40.619 200.106 40.716 199.943 40.7561C199.873 40.7733 199.819 40.7804 199.781 40.7773C199.357 40.7581 198.986 40.6576 198.669 40.4759C198.35 40.2825 198.145 39.9746 198.053 39.5522C198.019 39.3629 197.956 39.0818 197.865 38.7089C197.762 38.2893 197.678 37.9761 197.615 37.7692C197.575 37.6061 197.521 37.4094 197.452 37.1792C197.395 36.9461 197.333 36.6708 197.267 36.3533C197.242 36.199 197.237 36.0272 197.252 35.8381C197.267 35.649 197.309 35.54 197.376 35.5112C197.554 35.4304 197.759 35.3614 197.992 35.3042C198.295 35.2297 198.529 35.2278 198.695 35.2983C198.82 35.3541 198.935 35.4433 199.039 35.566C199.143 35.6887 199.265 35.8565 199.403 36.0696C199.519 36.2388 199.612 36.3644 199.681 36.4461L199.545 36.5722ZM205.166 33.1154C205.184 33.1853 205.195 33.2814 205.2 33.4037C205.203 33.5143 205.214 33.5856 205.234 33.6177C205.995 33.2454 206.656 32.9905 207.215 32.8531C208.089 32.6384 208.85 32.8962 209.499 33.6264C210.035 34.2485 210.409 34.9908 210.621 35.8531C210.675 36.0745 210.731 36.4007 210.787 36.8317C210.821 37.12 210.766 37.3744 210.623 37.595C210.476 37.804 210.275 37.94 210.018 38.0029C209.75 38.0688 209.547 38.0694 209.407 38.0048C209.277 37.9257 209.184 37.8249 209.129 37.7024C209.086 37.5771 209.03 37.3746 208.961 37.0949L208.854 36.7321C208.659 36.0387 208.463 35.4441 208.267 34.9485C208.181 34.7474 208.063 34.6217 207.915 34.5717C207.776 34.5071 207.607 34.4991 207.409 34.5478C207.222 34.5936 207.008 34.6771 206.766 34.7983C206.396 35.0006 206.148 35.148 206.022 35.2406C205.908 35.3304 205.746 35.5 205.535 35.7494C205.468 35.8277 205.438 35.9586 205.446 36.142C205.454 36.3253 205.461 36.4287 205.467 36.452C205.499 37.235 205.555 38.1666 205.635 39.2467C205.634 39.2962 205.638 39.4126 205.646 39.596C205.654 39.7794 205.614 39.919 205.527 40.0146C205.454 40.1191 205.321 40.1826 205.129 40.2051C204.372 40.2922 203.923 40.075 203.782 39.5535C203.605 38.8804 203.461 38.0693 203.351 37.12C203.27 36.4357 203.214 35.8811 203.183 35.456C203.161 35.2638 203.134 35.0294 203.103 34.7528C203.084 34.4733 203.049 34.1545 202.998 33.7963C202.967 33.5197 202.954 33.313 202.957 33.1762C202.961 33.0394 203.016 32.9145 203.124 32.8015C203.23 32.6767 203.416 32.5815 203.684 32.5156C204.022 32.4326 204.321 32.4396 204.579 32.5367C204.838 32.6338 205.031 32.8151 205.158 33.0804L205.166 33.1154ZM222.245 43.1363C222.081 43.4237 221.838 43.6687 221.517 43.8711C221.211 44.0823 220.865 44.2352 220.481 44.3296C220.003 44.447 219.537 44.4626 219.084 44.3763C218.633 44.3017 218.273 44.1183 218.003 43.8262L219.419 43.4784C219.769 43.3925 220.074 43.2002 220.334 42.9015C220.609 42.6115 220.747 42.2934 220.748 41.9471C220.793 40.9722 220.693 39.9896 220.45 38.999C220.23 38.1017 219.901 37.2432 219.465 36.4236C219.451 36.4148 219.387 36.3811 219.274 36.3224C218.9 36.6614 218.456 36.8939 217.944 37.0199C217.547 37.1172 217.044 37.1544 216.433 37.1316C215.758 37.0997 215.176 36.8965 214.689 36.522C214.201 36.1474 213.888 35.6747 213.747 35.1036C213.584 34.4394 213.687 33.753 214.057 33.0443C214.667 31.9059 215.584 31.1864 216.807 30.8858C217.635 30.6825 218.502 30.6919 219.409 30.9139C219.581 30.9583 219.745 31.0972 219.901 31.3306C220.069 31.5613 220.194 31.7961 220.278 32.0351C220.376 32.3323 220.476 32.7897 220.578 33.4071C220.604 33.512 220.638 33.7013 220.68 33.9751C220.732 34.2343 220.789 34.4674 220.852 34.6743C221.093 35.5047 221.349 36.3193 221.619 37.1178C221.723 37.4384 221.845 37.8347 221.985 38.3068C222.138 38.776 222.304 39.3282 222.485 39.9634C222.815 41.2046 222.735 42.2622 222.245 43.1363ZM217.876 35.461C218.117 34.8828 218.283 34.4033 218.375 34.0224C218.467 33.6415 218.46 33.2355 218.354 32.8043C218.282 32.513 218.155 32.2971 217.972 32.1566C217.798 32.0016 217.606 31.9499 217.397 32.0015C217.257 32.0358 217.117 32.1196 216.976 32.253C216.427 32.7833 215.965 33.4406 215.589 34.2249C215.501 34.4196 215.491 34.6567 215.56 34.9364C215.617 35.1695 215.721 35.3911 215.871 35.6013C216.019 35.7998 216.174 35.9285 216.337 35.9874C216.502 36.0579 216.737 36.0559 217.04 35.9815C217.226 35.9357 217.395 35.8694 217.547 35.7828C217.707 35.6815 217.817 35.5743 217.876 35.461ZM233.984 31.7818C233.677 32.092 233.291 32.3043 232.825 32.4188C232.312 32.5448 231.785 32.5383 231.244 32.3993C230.712 32.2458 230.246 31.9586 229.846 31.5379C229.447 31.1171 229.193 30.5864 229.085 29.9457L229.069 29.5047C229.036 29.068 229.018 28.7448 229.016 28.5353C229.015 28.0783 229.15 27.7238 229.422 27.4717C229.694 27.2196 230.079 26.9767 230.578 26.743C230.898 26.59 231.222 26.4735 231.548 26.3933C232.574 26.1414 233.521 26.2733 234.389 26.7891C234.853 27.0704 235.151 27.4791 235.283 28.0152C235.412 28.5396 235.358 29.152 235.123 29.8525C234.849 30.6488 234.469 31.2919 233.984 31.7818ZM231.348 27.3879C231.273 27.8882 231.214 28.502 231.17 29.2295L231.124 29.7968L231.259 29.8192C231.279 29.9008 231.311 30.029 231.354 30.2038C231.405 30.3641 231.463 30.4982 231.527 30.6061C231.744 30.9359 231.944 31.1215 232.127 31.163C232.205 31.1808 232.3 31.139 232.411 31.0376C232.534 30.9333 232.636 30.8217 232.718 30.7027C232.847 30.5228 233.038 30.167 233.29 29.6354C233.484 29.2666 233.529 28.8724 233.426 28.4529C233.337 28.0916 233.152 27.7911 232.871 27.5513C232.601 27.3086 232.273 27.1792 231.886 27.1631C231.848 27.16 231.782 27.1699 231.689 27.1928C231.468 27.2472 231.354 27.3122 231.348 27.3879ZM240.309 24.4821C240.326 24.552 240.338 24.6481 240.343 24.7703C240.345 24.8809 240.357 24.9523 240.377 24.9844C241.138 24.6121 241.798 24.3572 242.358 24.2198C243.232 24.005 243.993 24.2628 244.642 24.9931C245.178 25.6152 245.552 26.3574 245.764 27.2198C245.818 27.4412 245.874 27.7674 245.93 28.1984C245.964 28.4867 245.909 28.7411 245.765 28.9617C245.619 29.1707 245.418 29.3066 245.161 29.3696C244.893 29.4355 244.69 29.4361 244.55 29.3715C244.419 29.2924 244.327 29.1916 244.272 29.0691C244.229 28.9438 244.173 28.7413 244.104 28.4616L243.996 28.0988C243.801 27.4053 243.606 26.8108 243.41 26.3152C243.324 26.114 243.206 25.9884 243.058 25.9383C242.919 25.8737 242.75 25.8658 242.552 25.9144C242.365 25.9602 242.151 26.0438 241.909 26.165C241.538 26.3672 241.29 26.5147 241.165 26.6073C241.051 26.697 240.889 26.8666 240.678 27.1161C240.611 27.1944 240.581 27.3252 240.589 27.5086C240.597 27.692 240.604 27.7954 240.61 27.8187C240.642 28.6017 240.697 29.5333 240.777 30.6134C240.777 30.6629 240.781 30.7793 240.789 30.9627C240.797 31.1461 240.757 31.2856 240.67 31.3813C240.596 31.4858 240.464 31.5493 240.271 31.5718C239.514 31.6589 239.066 31.4417 238.925 30.9202C238.747 30.2471 238.604 29.436 238.494 28.4867C238.413 27.8024 238.357 27.2478 238.326 26.8227C238.304 26.6305 238.277 26.3961 238.246 26.1195C238.227 25.84 238.192 25.5212 238.141 25.163C238.11 24.8864 238.096 24.6797 238.1 24.5429C238.103 24.4061 238.159 24.2812 238.267 24.1681C238.373 24.0434 238.559 23.9481 238.827 23.8823C239.165 23.7993 239.464 23.8063 239.722 23.9034C239.981 24.0005 240.174 24.1817 240.301 24.4471L240.309 24.4821ZM257.145 18.0477C257.198 18.0101 257.322 17.9611 257.517 17.9008C257.721 17.826 257.904 17.7685 258.068 17.7284C258.394 17.6483 258.741 17.7792 259.109 18.1212L258.925 18.3519C258.706 18.6158 258.358 18.8618 257.883 19.0898C257.495 19.42 257.208 19.688 257.024 19.8939C256.851 20.0969 256.736 20.3046 256.677 20.5168C256.629 20.7261 256.641 20.9765 256.713 21.2678C256.747 21.4077 256.871 21.7603 257.084 22.3258L257.352 23.0385C257.665 23.913 257.909 24.5513 258.082 24.9537C258.142 25.0995 258.233 25.2686 258.355 25.4612C258.485 25.6393 258.595 25.7358 258.685 25.7507C258.775 25.7656 258.924 25.6673 259.132 25.4557C259.46 24.7818 259.668 24.317 259.753 24.0612C259.774 23.9943 259.808 23.881 259.855 23.7211C259.902 23.5612 259.958 23.4363 260.022 23.3463C260.084 23.2447 260.173 23.1796 260.289 23.1509C260.313 23.1452 260.374 23.1426 260.473 23.143C260.674 23.1554 260.841 23.207 260.974 23.2978C261.119 23.3857 261.219 23.5404 261.273 23.7618C261.299 23.8667 261.312 23.9439 261.312 23.9933C261.356 24.4767 261.296 24.9363 261.132 25.3722C260.967 25.808 260.719 26.2582 260.388 26.7225C260.262 26.9141 260.013 27.0556 259.64 27.1473C259.232 27.2475 258.807 27.253 258.365 27.1639C257.926 27.0864 257.601 26.9192 257.389 26.6622C256.836 25.9702 256.253 25.0568 255.641 23.9221C255.477 23.6042 255.281 23.0839 255.054 22.3612L254.842 21.7273C254.753 21.465 254.703 21.2611 254.692 21.1155C254.678 20.9583 254.428 20.9209 253.942 21.0033C253.764 21.0346 253.648 20.9395 253.594 20.7181C253.619 20.3166 253.745 20.0508 253.972 19.9207C254.188 19.7936 254.298 19.6121 254.302 19.3764C254.303 19.129 254.291 18.8786 254.266 18.6253C254.185 17.8421 254 16.9915 253.713 16.0735C253.581 15.6364 253.652 15.3471 253.926 15.2056L254.088 15.1844C254.149 15.1818 254.289 15.1722 254.507 15.1556C254.722 15.1274 254.922 15.134 255.105 15.1755C255.567 15.2967 255.867 15.637 256.004 16.1964C256.062 16.4294 256.09 16.7439 256.088 17.1397C256.091 17.2008 256.086 17.2576 256.074 17.3099C256.062 17.3623 256.058 17.419 256.06 17.4801C256.068 17.6635 256.087 17.8135 256.115 17.93C256.096 18.3054 256.221 18.4601 256.489 18.3943C256.582 18.3714 256.801 18.2559 257.145 18.0477ZM264.688 15.583C264.978 16.7105 265.236 17.6356 265.463 18.3583C265.698 19.0665 266.016 19.8042 266.414 20.5713C266.861 20.2762 267.288 20.0786 267.696 19.9784C268.383 19.8095 269.028 19.8674 269.629 20.1522C270.23 20.437 270.693 20.8609 271.016 21.4239C271.265 21.8324 271.481 22.4095 271.664 23.1554L271.982 24.5231C272.002 24.6047 271.978 24.7094 271.911 24.8372C271.843 24.9649 271.766 25.0519 271.678 25.0981C271.646 25.1184 271.595 25.1371 271.525 25.1543C271.257 25.2201 270.944 25.1548 270.587 24.9584C270.233 24.7735 270.018 24.5544 269.944 24.3009L269.686 23.4005C269.634 23.1907 269.548 22.8906 269.427 22.5001C269.304 22.098 269.186 21.8181 269.073 21.6604C268.954 21.4795 268.83 21.3495 268.699 21.2704C268.568 21.1913 268.439 21.1674 268.311 21.1989C268.217 21.2218 268.123 21.2884 268.026 21.3986C267.941 21.5059 267.875 21.6395 267.828 21.7994C267.678 22.2441 267.543 23.0803 267.425 24.308C267.397 24.7474 267.22 25.0072 266.893 25.0873C266.858 25.0959 266.78 25.1029 266.658 25.1082C266.582 25.1021 266.439 25.1 266.23 25.1021C266.017 25.0925 265.839 25.0437 265.693 24.9558C265.56 24.8651 265.466 24.709 265.412 24.4875C264.87 22.285 264.288 20.4942 263.665 19.115C263.36 18.424 263.091 17.6065 262.859 16.6626L262.571 15.4914L262.421 14.8796C262.381 14.7164 262.434 14.5551 262.58 14.3956C262.726 14.2362 262.91 14.1292 263.131 14.0748C263.318 14.029 263.485 14.0312 263.634 14.0812C263.901 14.1638 264.107 14.2985 264.252 14.4854C264.408 14.6694 264.525 14.9187 264.602 15.2334L264.688 15.583ZM274.582 14.4129C274.576 14.4885 274.507 14.5857 274.375 14.7045C274.256 14.8205 274.158 14.9248 274.082 15.0177L273.528 14.8757C272.987 14.7367 272.611 14.6129 272.399 14.5044C272.288 14.4573 272.22 14.3814 272.194 14.2765C272.177 14.2066 272.186 14.1426 272.221 14.0845C272.265 14.0119 272.34 13.9628 272.445 13.937C272.899 13.8254 273.481 13.8059 274.191 13.8787C274.264 13.8731 274.348 13.939 274.444 14.0761C274.536 14.2017 274.582 14.3139 274.582 14.4129ZM273.807 18.0507C273.805 17.8906 273.801 17.7742 273.796 17.7014C273.79 17.6286 273.777 17.5514 273.757 17.4698C273.717 17.3067 273.732 17.1671 273.803 17.0509C273.885 16.9319 274.066 16.8381 274.345 16.7694C274.671 16.6892 274.983 16.724 275.279 16.8736C275.584 17.0087 275.806 17.2323 275.944 17.5443C276.019 17.6988 276.087 17.8737 276.147 18.069C276.208 18.2642 276.245 18.391 276.259 18.4492L277.238 21.3782C277.351 21.6843 277.364 21.9405 277.279 22.1468C277.202 22.3385 276.995 22.4759 276.657 22.559C276.366 22.6305 276.095 22.6105 275.845 22.4989C275.607 22.3844 275.433 22.2047 275.324 21.9598L273.959 18.3656L273.807 18.0507ZM283.426 18.6904C283.427 19.2958 283.302 19.7959 283.053 20.1907C282.804 20.5855 282.458 20.8373 282.016 20.946C281.445 21.0863 280.813 20.9819 280.122 20.6327C280.508 20.2909 280.753 20.0823 280.858 20.0071C281.127 19.7928 281.318 19.5418 281.433 19.2542C281.559 18.9636 281.585 18.6669 281.511 18.3639C281.485 18.259 281.459 18.1788 281.433 18.1234C281.335 17.8757 281.21 17.6161 281.057 17.3448C280.901 17.0619 280.8 16.8766 280.753 16.7891C280.646 16.6053 280.498 16.3268 280.307 15.9535C280.166 15.6793 280.029 15.3979 279.896 15.1092C279.763 14.8205 279.668 14.5597 279.611 14.3266C279.516 13.942 279.512 13.5724 279.598 13.2177C279.693 12.8484 279.908 12.468 280.244 12.0765C280.388 11.9054 280.559 11.746 280.757 11.5984C280.967 11.4479 281.176 11.341 281.383 11.2779C281.529 11.2173 281.705 11.205 281.911 11.2407C282.129 11.2736 282.276 11.3426 282.351 11.4477C282.424 11.5411 282.443 11.6969 282.41 11.9151C282.375 12.1216 282.31 12.2857 282.216 12.4076C281.664 13.0747 281.486 13.7114 281.685 14.3176C281.794 14.6615 282.013 15.1513 282.342 15.7872C282.565 16.1897 282.738 16.5426 282.862 16.8458C282.896 16.9361 282.971 17.1154 283.087 17.3837C283.214 17.649 283.306 17.8983 283.363 18.1313C283.414 18.3411 283.436 18.5274 283.426 18.6904ZM289.821 19.01C289.808 19.2602 289.724 19.4971 289.569 19.7206C289.426 19.9412 289.255 20.0758 289.057 20.1245C288.786 20.1787 288.492 20.1149 288.176 19.9332C287.871 19.7486 287.683 19.5106 287.611 19.2193C287.577 19.0794 287.587 18.947 287.643 18.8221C287.711 18.6943 287.813 18.558 287.951 18.413C288.038 18.3173 288.082 18.2695 288.082 18.2695C288.1 18.2404 288.139 18.1751 288.201 18.0735C288.262 17.9719 288.324 17.895 288.385 17.8429C288.455 17.7762 288.525 17.7343 288.595 17.7171C288.7 17.6914 288.821 17.7049 288.957 17.7579C289.132 17.8139 289.301 17.9514 289.466 18.1703C289.64 18.3748 289.753 18.5819 289.804 18.7917C289.816 18.8383 289.821 18.911 289.821 19.01ZM295.129 17.7061C295.116 17.9564 295.032 18.1932 294.877 18.4167C294.733 18.6373 294.562 18.7719 294.364 18.8206C294.093 18.8748 293.8 18.811 293.483 18.6293C293.178 18.4447 292.99 18.2067 292.919 17.9154C292.884 17.7755 292.895 17.6432 292.951 17.5182C293.018 17.3904 293.121 17.2541 293.258 17.1091C293.346 17.0134 293.39 16.9656 293.39 16.9656C293.407 16.9366 293.447 16.8712 293.508 16.7696C293.57 16.668 293.631 16.5911 293.693 16.539C293.763 16.4723 293.833 16.4304 293.903 16.4132C294.008 16.3875 294.128 16.4011 294.265 16.454C294.439 16.51 294.609 16.6475 294.774 16.8665C294.948 17.0709 295.06 17.278 295.112 17.4878C295.123 17.5344 295.129 17.6072 295.129 17.7061ZM300.436 16.4022C300.423 16.6525 300.34 16.8893 300.184 17.1128C300.041 17.3334 299.87 17.4681 299.672 17.5167C299.401 17.5709 299.107 17.5071 298.791 17.3254C298.486 17.1408 298.298 16.9028 298.226 16.6115C298.192 16.4717 298.203 16.3393 298.258 16.2144C298.326 16.0866 298.428 15.9502 298.566 15.8052C298.653 15.7095 298.697 15.6617 298.697 15.6617C298.715 15.6327 298.754 15.5673 298.816 15.4657C298.877 15.3641 298.939 15.2872 299 15.2351C299.07 15.1684 299.14 15.1265 299.21 15.1094C299.315 15.0836 299.436 15.0972 299.572 15.1501C299.747 15.2061 299.917 15.3436 300.082 15.5626C300.255 15.767 300.368 15.9741 300.42 16.1839C300.431 16.2305 300.437 16.3033 300.436 16.4022Z" fill="#343434"/>
</svg>
