<svg width="28" height="37" viewBox="0 0 28 37" fill="none" xmlns="http://www.w3.org/2000/svg">
<path d="M11.0224 18.0654C9.91708 17.1883 5.02754 15.9818 6.0488 13.848C6.13684 13.6641 5.8912 13.5192 5.77538 13.6881C4.97483 14.8553 5.71693 15.9976 6.82712 16.6359C8.09527 17.3651 10.4941 17.4511 11.2688 18.9077C12.4299 21.0908 10.484 24.7593 8.03467 25.1893C7.8647 25.219 7.90181 25.5145 8.07591 25.4937C10.1821 25.2415 11.9444 22.7059 12.3058 20.727C12.5339 19.4779 11.9921 18.8347 11.0224 18.0654Z" fill="#343434"/>
<path d="M18.4777 1.85286C18.8257 1.4819 18.6577 0.82084 18.1681 0.623975C17.5176 0.362384 16.9672 0.838231 16.7368 1.40803C15.9498 1.26675 15.1249 1.1875 14.2535 1.19234C14.1198 1.19306 14.052 1.29472 14.0475 1.39889C13.7201 1.58302 13.7659 2.29715 13.953 2.55121C13.9894 2.60052 14.0407 2.61719 14.0925 2.62078C14.1148 2.63942 14.1413 2.65431 14.1746 2.66112C14.838 2.79469 15.4661 2.97399 16.0777 3.17354C15.7876 3.88929 15.4788 4.5862 15.0977 5.25927C14.7514 5.18254 14.3989 5.11494 14.0316 5.06886C8.41284 4.36442 2.4253 7.53829 0.930698 13.02C0.90739 13.0182 0.883902 13.017 0.860594 13.0152C0.784752 13.0093 0.787621 13.1231 0.860594 13.1319C0.872069 13.1332 0.883364 13.135 0.894839 13.1364C0.78798 13.5486 0.700842 13.9705 0.646695 14.4076C0.611912 14.6891 0.588066 14.9724 0.572647 15.2567C0.549338 15.2551 0.525134 15.2542 0.502005 15.2524C0.369148 15.2419 0.370403 15.448 0.502005 15.4592C0.523341 15.461 0.545215 15.4638 0.56673 15.4658C0.534995 16.2972 0.577846 17.1365 0.695105 17.9689C0.562786 18.0146 0.571571 18.2316 0.735446 18.2397C1.42681 22.5547 4.09076 26.6091 8.1871 28.0759C8.11359 28.2468 8.04994 28.4238 7.97464 28.586C7.81399 28.9324 7.6347 29.267 7.44124 29.596C6.90156 29.4513 6.36314 29.2876 5.82759 29.1038C5.73203 29.071 5.67447 29.1348 5.66371 29.2103C5.25923 29.3626 4.96393 29.8644 5.23717 30.2583C5.32395 30.3833 5.57622 30.3569 5.55703 30.1717C5.52799 29.8913 5.56205 29.5919 5.87636 29.4963C5.90666 29.4872 5.91813 29.4656 5.93642 29.4484C14.8422 33.0205 24.7575 30.0073 26.1951 19.7088C27.3318 11.5661 22.9764 3.35355 14.2451 2.23458C14.2324 2.10584 14.2365 1.97729 14.2932 1.85465C14.334 1.7659 14.3751 1.70171 14.3989 1.62641C24.6991 1.61458 28.7133 13.0371 26.4988 21.6758C24.1691 30.7648 15.2529 33.981 7.05378 30.9988C7.03173 30.9377 6.95714 30.9097 6.8969 30.9387C6.444 30.7695 5.9929 30.5857 5.54592 30.3784C5.39262 30.3074 5.26138 30.519 5.41127 30.6086C5.82562 30.8564 6.25556 31.0741 6.69304 31.2745C6.36852 31.8707 6.07932 32.4927 5.82562 33.1199C5.11884 33.0732 4.35468 33.2877 3.84316 33.7709C3.37305 34.215 3.01535 35.0369 3.41948 35.6296C3.49443 35.7397 3.68359 35.7107 3.69165 35.5679C4.44164 36.6462 6.08506 36.4119 7.3541 36.4655C10.9558 36.6175 14.5648 36.5609 18.1623 36.3387C18.2669 36.3323 18.3334 36.271 18.3669 36.1953C19.4321 35.7818 19.6679 34.3681 18.8171 33.5579C18.7454 33.4896 18.6642 33.4775 18.59 33.4949C18.5715 33.4885 18.5618 33.472 18.5394 33.4709C14.7335 33.2904 10.9536 33.7585 7.15777 33.2975C7.48015 32.819 7.76648 32.3127 8.05443 31.8121C11.6455 33.0214 15.7437 32.828 19.2758 31.5021C23.4483 29.9356 25.9141 25.9707 26.9831 21.8091C28.9829 14.0232 26.0857 4.41749 18.4777 1.85286ZM7.97392 27.3068C8.88474 27.3539 9.77279 27.5067 10.6689 27.668C10.7811 27.6883 10.8299 27.5269 10.7168 27.4945C9.82317 27.2388 8.89514 27.1461 7.96837 27.1162C7.87908 27.1133 7.8572 27.2114 7.8979 27.2677C7.34012 26.9785 6.8017 26.669 6.30129 26.3226C7.63595 26.5899 8.98712 26.7877 10.337 26.9559C10.4277 26.9672 10.4491 26.8119 10.3587 26.7954C8.94193 26.5363 7.51314 26.3031 6.07932 26.1587C6.07358 26.1582 6.07053 26.1625 6.06551 26.1634C5.38222 25.6687 4.76276 25.1154 4.20551 24.5125C4.93399 24.6719 5.66282 24.8318 6.39792 24.955C6.53042 24.9772 6.59031 24.7832 6.45458 24.7491C5.62033 24.5395 4.77388 24.3783 3.93012 24.2091C3.64253 23.8756 3.38112 23.5222 3.13351 23.1588C3.79152 23.2626 4.46262 23.3252 5.1244 23.3691C5.20562 23.3745 5.22624 23.2373 5.14394 23.2251C4.4463 23.1208 3.73504 23.0292 3.0288 22.9949C2.43695 22.0947 1.97473 21.1032 1.6416 20.0351C2.36021 20.1185 3.07345 20.2228 3.79009 20.3333C3.92025 20.3534 3.97942 20.1681 3.84585 20.1307C3.10375 19.9231 2.32686 19.8108 1.55482 19.7588C1.4191 19.2837 1.31887 18.7881 1.23729 18.2825C1.93421 18.3336 2.62467 18.4299 3.31137 18.5699C3.47829 18.604 3.5484 18.3618 3.38237 18.3128C2.66358 18.1003 1.93044 18.0012 1.18691 17.967C1.14764 17.6799 1.12505 17.3841 1.103 17.0882C1.1177 17.1124 1.14065 17.1327 1.1792 17.1393C1.6633 17.2223 2.14721 17.3197 2.63561 17.3733C2.77044 17.3882 2.79805 17.1675 2.66752 17.1375C2.19974 17.0307 1.72139 16.9667 1.24823 16.8885C1.1688 16.8754 1.11268 16.9283 1.0935 16.9887C1.06266 16.5321 1.04688 16.0675 1.06302 15.5875C1.06373 15.5637 1.06714 15.5409 1.06804 15.5171C1.43344 15.5576 1.80261 15.5936 2.15958 15.566C2.23973 15.5597 2.26626 15.44 2.17948 15.4186C1.82771 15.332 1.45478 15.3071 1.08453 15.2872C1.10981 14.8811 1.16432 14.4881 1.23442 14.1026C1.58243 14.1145 1.93026 14.1261 2.27845 14.1112C2.34067 14.1085 2.34067 14.0173 2.27845 14.0146C1.93493 13.9999 1.59158 14.0112 1.24823 14.0228C1.30148 13.7435 1.37678 13.4756 1.45191 13.2076C1.8451 13.2596 2.23865 13.3107 2.63238 13.3403C2.75197 13.3492 2.74659 13.171 2.63238 13.1568C2.25371 13.1104 1.87146 13.0835 1.4892 13.0582C1.56934 12.7889 1.66096 12.5261 1.76173 12.2686C2.25013 12.277 2.73548 12.295 3.22423 12.3215C3.37627 12.3298 3.41285 12.0825 3.26063 12.0531C2.81293 11.9663 2.35125 11.9489 1.89351 11.969C1.99302 11.7383 2.11171 11.5199 2.22682 11.2993C2.55905 11.3051 2.86923 11.3913 3.16973 11.5523C3.28932 11.6165 3.389 11.4446 3.27569 11.3711C2.98577 11.1826 2.66788 11.093 2.33439 11.0833C2.53234 10.7256 2.74713 10.3796 2.9899 10.0543C4.43088 12.257 2.38065 15.1108 3.54929 17.5175C4.89203 20.2824 6.50909 22.3753 7.07638 25.5319C7.12263 25.7897 7.50292 25.6768 7.46544 25.4247C7.2675 24.0994 6.96073 22.8472 6.44113 21.6072C5.8552 20.2085 4.63474 19.0386 4.10654 17.6652C3.13674 15.1441 4.9503 11.9547 3.16076 9.84384C4.86155 7.69123 7.42869 6.26117 10.2393 5.77977C10.2259 5.8332 10.2248 5.89147 10.2511 5.95243C11.189 8.1253 10.7905 10.5058 8.63749 11.7029C7.74389 12.1998 6.90049 12.4958 6.26327 13.33C6.20196 13.4104 6.33392 13.5084 6.40205 13.4371C7.6944 12.0816 9.69121 12.1973 10.7033 10.4642C11.5697 8.98089 11.4524 7.20516 10.6951 5.71146C11.7732 5.56766 12.8809 5.55906 13.9857 5.70679C15.5988 5.92266 16.9901 6.45499 18.1672 7.22452C17.4358 7.33461 16.7036 7.87805 16.2957 8.4041C16.2003 8.52728 16.3601 8.70227 16.4725 8.58089C16.794 8.23431 17.1771 7.96608 17.6243 7.80633C17.9863 7.67706 18.3545 7.6837 18.7212 7.61467C20.0363 8.61836 21.0477 9.94227 21.7583 11.4643C20.0322 11.6475 13.8092 11.9873 15.8475 9.09331C15.9436 8.95687 15.7331 8.80231 15.6198 8.9176C14.8389 9.71116 14.9906 11.0582 16.0178 11.5751C17.6492 12.3961 20.1469 12.0986 21.8987 11.7901C22.1602 12.3961 22.3811 13.0277 22.5513 13.684C20.1711 13.5764 17.4197 11.4249 15.1009 12.8931C13.7524 13.7471 14.0133 15.6076 15.341 16.3788C15.4543 16.4446 15.5719 16.292 15.4803 16.1982C14.2478 14.9351 14.8174 12.9901 16.7219 12.8377C17.5249 12.7733 18.3002 12.9844 19.0583 13.214C20.2581 13.5776 21.3629 13.982 22.6262 13.9956C22.8975 15.1493 23.039 16.3605 23.0345 17.598C23.0262 19.908 21.9266 22.1407 20.2574 23.9633C17.9522 23.7725 19.2252 20.0344 18.704 18.5871C18.2841 17.421 17.2818 17.2561 16.3167 16.6715C16.1688 16.5821 15.9837 16.8062 16.1268 16.9175C16.9338 17.5454 17.8846 17.6629 18.3214 18.7241C18.7655 19.8035 18.3223 20.9859 18.4081 22.1031C18.4867 23.1249 18.9525 24.1334 19.9936 24.243C17.448 26.8653 13.7207 28.5568 10.4647 28.2373C10.3924 28.2301 10.3392 28.2518 10.2972 28.285C9.72635 28.0994 9.18273 27.8812 8.65488 27.6454C8.63086 27.5865 8.56093 27.5553 8.50177 27.578C8.31996 27.4948 8.15053 27.3969 7.97392 27.3068ZM8.55735 29.8624C8.25129 29.7961 7.94524 29.7254 7.63936 29.6462C7.86473 29.3335 8.08222 29.0124 8.26922 28.6755C8.35439 28.5222 8.45049 28.3571 8.52776 28.1864C8.76174 28.2606 9.00038 28.3257 9.24136 28.3861C9.16659 28.5738 9.11065 28.7743 9.02979 28.953C8.9007 29.2379 8.74597 29.5078 8.57438 29.769C8.55233 29.8027 8.55322 29.8334 8.55735 29.8624ZM25.6789 19.5419C24.4253 28.7833 16.7047 31.5247 8.83059 29.9185C9.04198 29.6342 9.23132 29.3369 9.38999 29.0197C9.47605 28.8476 9.57126 28.6608 9.62792 28.4689C9.82424 28.5096 10.0195 28.5529 10.2225 28.5794C10.254 28.6791 10.3347 28.7651 10.465 28.7781C16.1431 29.3351 23.3172 24.0454 23.5767 18.1149C23.8146 12.6796 21.4291 7.46549 16.4415 5.65121C16.6353 5.34283 16.828 5.03408 17.0105 4.71852C17.1929 4.40314 17.4062 4.08113 17.5432 3.73904C23.6193 6.42325 26.6283 12.5438 25.6789 19.5419ZM17.2476 3.6225C17.0443 3.91188 16.8815 4.23819 16.7179 4.5473C16.5392 4.88527 16.3715 5.22826 16.2062 5.57268C15.9204 5.4764 15.6311 5.38478 15.3288 5.31091C15.7444 4.67191 16.0963 3.98754 16.3317 3.26193C16.6468 3.37059 16.9469 3.49699 17.2476 3.6225ZM18.1518 1.68235C18.1319 1.69669 18.1301 1.71713 18.1182 1.7347C17.7489 1.62318 17.3695 1.52762 16.9788 1.44963C17.1429 1.14734 17.3976 0.873015 17.7582 0.860643C18.1975 0.845762 18.5905 1.36769 18.1518 1.68235ZM18.4132 33.8655C18.4246 33.8849 18.4332 33.9046 18.4515 33.9229C19.0697 34.5382 18.9016 35.439 18.2095 35.8652C18.1935 35.8631 18.1803 35.8573 18.1622 35.8584C16.0022 35.9828 13.8424 36.0773 11.6787 36.0917C10.2748 36.1008 5.31194 36.5329 3.95056 35.3958C5.05142 35.4625 6.15462 35.4907 7.2571 35.5066C7.39731 35.5086 7.3957 35.2976 7.2571 35.2898C6.11267 35.2275 4.96626 35.1758 3.81985 35.1697C3.79618 35.1695 3.78256 35.1817 3.76696 35.1914C3.74939 35.167 3.72267 35.1464 3.70797 35.121C3.72787 34.9205 3.77736 34.7342 3.85732 34.5603C5.62194 34.6076 7.36092 34.7018 9.11173 34.9583C9.33782 34.9915 9.38282 34.6781 9.15386 34.6473C7.44608 34.4179 5.7132 34.2869 3.98857 34.3407C4.07875 34.213 4.18561 34.0914 4.33353 33.984C4.7936 33.6498 5.33381 33.5697 5.86327 33.4288C5.83727 33.6991 5.95901 33.9609 6.26059 34.0484C6.60537 34.1485 7.00215 33.9105 7.01972 33.5507C10.7783 34.2799 14.6119 33.7546 18.4132 33.8655ZM6.69788 33.2618C6.63567 33.3599 6.66884 33.4496 6.73607 33.5043C6.65754 33.6111 6.56449 33.697 6.41836 33.6857C6.25072 33.6726 6.13436 33.5163 6.13275 33.3434C6.1912 33.3038 6.20841 33.2188 6.16341 33.1695C6.44974 32.5922 6.71169 31.9939 6.93384 31.3868C7.22537 31.5135 7.52246 31.6269 7.82206 31.7334C7.43496 32.2327 7.03568 32.7295 6.69788 33.2618Z" fill="#343434"/>
<path d="M4.55486 21.6782C3.84038 21.5599 3.11943 21.4971 2.39921 21.4225C2.28285 21.4105 2.28697 21.5877 2.39921 21.6025C3.10886 21.6972 3.81653 21.8039 4.53084 21.855C4.63089 21.8622 4.65545 21.6949 4.55486 21.6782Z" fill="#343434"/>
</svg>
