<svg width="37" height="37" viewBox="0 0 37 37" fill="none" xmlns="http://www.w3.org/2000/svg">
<g clip-path="url(#clip0)">
<path d="M7.56738 4.38672C7.54762 4.3301 7.50498 4.30767 7.45942 4.29876C7.37141 4.19942 7.26253 4.11788 7.14578 4.04523C7.14578 4.04523 7.14597 4.04506 7.14597 4.04488C7.28467 3.26061 7.25905 2.29118 7.07094 1.5151C6.96298 1.07018 6.69234 0.576113 6.16461 0.551187C5.59113 0.524125 5.24931 1.07748 5.05388 1.52258C4.72012 2.28281 4.62917 3.14969 4.84638 3.95248C4.46998 4.12891 4.14444 4.39135 3.9115 4.73336C3.83575 4.71645 3.7459 4.74262 3.72248 4.8279C1.56873 12.6927 0.722053 22.8574 3.32521 31.0869C3.32137 31.0871 3.31735 31.0873 3.3135 31.0875C3.20481 31.093 3.20353 31.2568 3.3135 31.253C3.33381 31.2523 3.35394 31.2518 3.37425 31.2511C3.79073 32.5406 4.28553 33.7857 4.88206 34.9616C4.91152 35.0197 4.95343 35.0519 4.99917 35.0665C4.88755 35.4073 4.82351 35.7824 5.0032 36.11C5.15178 36.3806 5.44859 36.5795 5.77156 36.5469C6.46947 36.4766 6.47185 35.6453 6.38108 35.1402C6.37614 35.1126 6.35547 35.1048 6.34321 35.0855C6.38163 35.059 6.41567 35.0245 6.4358 34.9721C10.1528 25.3713 10.998 14.1941 7.56738 4.38672ZM5.24218 2.38162C5.32873 2.02768 5.63267 0.87896 6.21383 1.01018C6.9509 1.17647 6.71503 3.14043 6.71137 3.84654C6.30313 3.71497 5.84493 3.68755 5.47384 3.74808C5.3635 3.76607 5.26029 3.80114 5.15581 3.83319C5.1247 3.34002 5.12159 2.87497 5.24218 2.38162ZM3.96914 5.26214C3.9739 5.25805 3.98085 5.25929 3.98506 5.25449C4.41288 4.75775 4.92085 4.34826 5.59498 4.25514C5.59424 4.25586 5.59315 4.25621 5.5926 4.25692C5.5743 4.25906 5.556 4.26369 5.54118 4.28007C4.24856 5.70991 4.15451 8.40848 4.15451 10.4673C4.14554 10.4691 4.13658 10.4709 4.12779 10.4725C3.96713 10.5024 4.01763 10.7011 4.15451 10.7266C4.15542 11.0104 4.15707 11.2804 4.15689 11.5297C4.15469 13.0562 3.90345 15.5946 5.70367 16.2191C6.69527 17.0506 7.39867 14.3858 7.47058 13.7014C7.77892 10.7659 8.07078 6.63875 5.93039 4.25532C5.92453 4.24891 5.91776 4.24731 5.91172 4.24161C6.44568 4.26565 6.84825 4.52292 7.34048 4.7022C8.37216 9.26823 8.94051 13.7381 8.93502 18.1735C8.8772 18.1651 8.81773 18.1731 8.76722 18.2237C7.4349 19.5551 4.02752 19.0932 2.7435 17.9632C2.69776 17.923 2.64963 17.924 2.6059 17.9385C2.81468 13.6947 3.4361 9.43061 3.96914 5.26214ZM5.57485 15.6563C5.34447 15.4457 5.15691 15.1582 4.99844 14.8247C5.28372 14.8293 5.57082 14.8389 5.85427 14.8099C6.00066 14.7948 6.00084 14.6032 5.85427 14.5881C5.53532 14.5553 5.21125 14.5719 4.89084 14.5747C4.77611 14.286 4.68682 13.9592 4.61252 13.6138C4.95654 13.5845 5.30311 13.5626 5.64273 13.502C5.77796 13.478 5.74759 13.2603 5.61016 13.2679C5.26011 13.2875 4.91225 13.3482 4.5655 13.3993C4.41417 12.5889 4.36366 11.6602 4.38306 10.7113C4.80777 10.65 5.23925 10.5982 5.65188 10.4889C5.79919 10.4499 5.77558 10.2095 5.61474 10.2222C5.20338 10.2546 4.79551 10.3406 4.38946 10.421C4.42313 9.48135 4.52707 8.53417 4.67364 7.66498C5.07658 7.6356 5.50604 7.62759 5.88611 7.51542C6.01292 7.47804 5.99151 7.28735 5.85445 7.28789C5.4764 7.28896 5.08463 7.39222 4.70804 7.47715C4.76532 7.15632 4.82863 6.84813 4.89652 6.55632C5.29872 6.48457 5.68702 6.50024 6.09581 6.48991C6.2583 6.48582 6.30679 6.23816 6.1357 6.2038C5.7496 6.12617 5.34703 6.17976 4.96514 6.27662C5.14538 5.5625 5.35288 4.96731 5.56954 4.58025C5.57357 4.58559 5.57448 4.59129 5.57906 4.59645C6.97286 6.1511 6.99171 8.18201 7.04624 10.1405C7.0682 10.9322 7.09089 11.7266 7.0563 12.5182C7.0424 12.7813 7.02849 13.0445 7.01458 13.3076C7.25063 14.5188 6.76682 15.299 5.57485 15.6563ZM5.81657 36.1104C5.54045 36.2271 5.33623 35.9111 5.28975 35.6879C5.24803 35.4872 5.28463 35.2723 5.31391 35.0677C5.54868 35.088 5.78931 35.1114 6.02298 35.0955C5.99443 35.1359 5.97742 35.1861 5.98748 35.2456C6.02701 35.4772 6.09819 35.9912 5.81657 36.1104ZM5.97796 34.7822C5.7571 34.7727 5.52928 34.7989 5.3086 34.8188C5.30695 34.7904 5.30128 34.761 5.28738 34.7309C5.07475 34.2724 4.88206 33.811 4.69798 33.348C5.04291 33.3521 5.38783 33.3586 5.73313 33.3516C5.80761 33.3502 5.80779 33.2405 5.73313 33.2391C5.37411 33.2318 5.01546 33.2384 4.65662 33.2428C4.56678 33.014 4.49633 32.7821 4.41307 32.5522C4.78398 32.5641 5.15526 32.5355 5.51373 32.4352C5.60339 32.4101 5.56515 32.2853 5.47567 32.3012C5.10091 32.3676 4.73439 32.4025 4.36275 32.4103C4.22349 32.0192 4.1062 31.6246 3.98506 31.2308C4.76971 31.2055 5.55399 31.1799 6.33698 31.1254C6.44495 31.1179 6.44769 30.9582 6.33698 30.9598C5.53367 30.9719 4.73146 31.0143 3.92925 31.0563C3.79897 30.6224 3.68533 30.1862 3.57536 29.7493C4.13292 29.7691 4.70127 29.8002 5.24913 29.7397C5.37137 29.7262 5.37173 29.5679 5.24913 29.5544C4.68334 29.4917 4.09577 29.5269 3.52046 29.5463C3.42037 29.1365 3.33217 28.725 3.24891 28.3129C3.96713 28.3307 4.68133 28.3093 5.39461 28.2032C5.4958 28.1883 5.47311 28.0157 5.37027 28.0277C4.65278 28.1108 3.93511 28.153 3.21396 28.1539C3.10069 27.5785 3.00865 27 2.92594 26.4205C2.93472 26.4237 2.93966 26.431 2.95082 26.4312C3.47343 26.4397 4.00098 26.4675 4.52341 26.4493C4.6526 26.4449 4.65278 26.2585 4.52341 26.254C4.00098 26.2359 3.47362 26.2638 2.95082 26.2722C2.93161 26.2725 2.9199 26.282 2.90764 26.2907C2.84067 25.8086 2.79419 25.3238 2.74625 24.8391C2.7521 24.8776 2.77717 24.9127 2.82987 24.912C4.13475 24.8936 5.45133 24.8318 6.73352 24.5831C6.86874 24.5569 6.84038 24.3299 6.70058 24.3458C5.40924 24.4921 4.12999 24.6702 2.83005 24.7334C2.77479 24.736 2.74753 24.7766 2.74405 24.8181C2.69684 24.3388 2.66171 23.858 2.63115 23.3767C3.31204 23.3673 4.00592 23.3758 4.67675 23.2875C4.81509 23.2693 4.77611 23.0591 4.64455 23.0566C3.97353 23.0445 3.28953 23.134 2.61742 23.2017C2.59107 22.7591 2.58851 22.3142 2.57534 21.8703C2.58064 21.871 2.58247 21.8756 2.58815 21.8758C3.3856 21.8854 4.21416 21.9574 5.00759 21.8708C5.1516 21.8552 5.15197 21.6681 5.00759 21.6524C4.21416 21.5659 3.38578 21.638 2.58815 21.6474C2.57936 21.6474 2.57625 21.6542 2.56857 21.6558C2.55777 21.2229 2.55576 20.7894 2.55411 20.3557C3.33199 20.3295 4.10968 20.3046 4.88645 20.2519C5.06999 20.2395 5.07456 19.9669 4.88645 19.9706C4.10693 19.9863 3.32924 20.0297 2.551 20.0719C2.5521 19.4513 2.56253 18.8301 2.59053 18.2073C3.54571 19.2118 4.80813 19.4675 6.18657 19.4356C7.10937 19.4142 8.28579 19.3993 8.92697 18.6839C8.8664 24.0602 7.95842 29.3904 5.97796 34.7822Z" fill="#343434"/>
<path d="M19.1293 29.0466C19.1727 29.0516 19.2159 29.0416 19.2387 28.9911C19.4131 28.6056 19.4556 27.9499 19.122 27.613C19.4219 27.0987 19.0918 26.2318 18.4636 26.2364C18.2642 20.8678 17.9452 15.5054 17.7631 10.1351C17.8177 10.0796 17.8652 10.0178 17.8942 9.94124C17.9278 9.85222 17.864 9.77513 17.7831 9.74878C17.7964 9.7007 17.7999 9.64961 17.775 9.59406C16.5971 6.97241 15.3953 4.36002 14.1759 1.75671C14.0966 1.58757 13.7872 1.62531 13.7552 1.81012C13.6891 2.19362 13.6097 2.57285 13.5235 2.94958C13.4679 2.99516 13.454 3.06566 13.4813 3.1221C12.9526 5.35794 12.1175 7.49389 11.3672 9.67453C11.286 9.69981 11.2216 9.7664 11.2247 9.87607C11.3765 15.3987 11.4616 20.9644 11.9131 26.472C11.9138 26.4812 11.9215 26.4846 11.9237 26.4928C11.7637 26.5492 11.6089 26.6178 11.4671 26.7152C11.4671 26.7152 11.4669 26.7157 11.4666 26.7159C11.4307 26.6906 11.3839 26.6788 11.3425 26.7032C10.9216 26.9518 10.7941 27.6428 11.2 27.9397C10.9026 28.2257 10.8527 28.7986 11.0378 29.1007C11.0402 29.1248 11.0572 29.1447 11.0794 29.1645C11.1398 29.2357 11.2203 29.2766 11.3171 29.2877C11.3798 29.3154 11.4422 29.3361 11.505 29.3598C11.2331 29.5145 11.0501 29.7725 11.0076 30.0871C10.961 30.4325 11.0898 30.9093 11.4887 30.986C11.5786 31.0033 11.6496 30.9523 11.6748 30.882C11.7354 30.9077 11.7969 30.918 11.8576 30.9394C11.8576 30.9406 11.8565 30.9408 11.8565 30.942C11.8448 32.2597 11.7337 33.7196 12 35.0204C11.9061 35.0539 11.8649 35.1936 11.9718 35.2689C13.2159 36.1449 14.7325 36.5006 16.2542 36.2745C17.2524 36.126 19.1676 35.6332 19.0025 34.3545C18.9952 34.2979 18.9621 34.2522 18.9196 34.2165C18.8212 33.0922 18.7073 31.967 18.5502 30.8489C18.6345 30.8391 18.7198 30.8332 18.8038 30.8227C18.9593 30.8032 19.0071 30.647 18.9472 30.5489C19.2486 30.3541 19.3992 30.0041 19.3551 29.6527C19.3333 29.4791 19.2413 29.2636 19.1013 29.1134C19.1105 29.0906 19.1273 29.0708 19.1293 29.0466ZM18.1236 26.2747C17.605 26.2638 17.0861 26.2615 16.567 26.2619C16.5682 26.2521 16.577 26.2485 16.577 26.2377C16.5053 20.8941 16.2264 15.518 15.8597 10.185C15.8808 10.1442 15.9109 10.1075 15.9278 10.0655C16.1163 10.22 16.3444 10.3301 16.5968 10.3783C16.8004 10.4173 17.0658 10.4223 17.3068 10.3685C17.3353 15.667 17.5253 21.01 18.1236 26.2747ZM15.5316 24.1234C15.168 24.0939 14.8075 24.1021 14.4429 24.1069C14.4266 24.107 14.4192 24.1181 14.4063 24.1225C14.3967 23.8094 14.3845 23.4949 14.3746 23.1814C14.6677 23.1965 14.9607 23.1659 15.2246 23.0301C15.3422 22.9695 15.2577 22.807 15.138 22.8303C14.8736 22.8819 14.628 22.9254 14.3662 22.9304C14.3541 22.5513 14.338 22.1714 14.3248 21.792C14.6061 21.7998 14.8884 21.8107 15.1688 21.7906C15.3633 21.7765 15.3636 21.51 15.1688 21.4959C14.8848 21.4756 14.5988 21.4868 14.3138 21.4948C14.3018 21.156 14.2855 20.817 14.2723 20.478C14.2895 20.4846 14.2999 20.4989 14.3219 20.4992C14.6941 20.504 15.08 20.5423 15.4476 20.4795C15.5808 20.4567 15.5808 20.2405 15.4476 20.2177C15.0804 20.1551 14.6937 20.1934 14.3219 20.198C14.2952 20.1983 14.2815 20.214 14.2619 20.2236C14.2317 19.4691 14.1967 18.7145 14.1578 17.9605C14.4332 17.9297 14.7126 17.8952 14.9742 17.8188C15.1384 17.7709 15.1166 17.5026 14.9322 17.5165C14.667 17.5365 14.4026 17.5963 14.1422 17.6605C14.119 17.2261 14.0912 16.7922 14.0637 16.3584C14.4095 16.3966 14.77 16.3877 15.0923 16.2654C15.2615 16.2011 15.1995 15.9594 15.0163 15.9973C14.6857 16.0657 14.3783 16.1241 14.0494 16.1205C14.0251 15.7471 13.99 15.3756 13.9621 15.0028C14.2562 14.9862 14.5486 14.9702 14.8405 14.9255C14.9967 14.9016 14.9613 14.6438 14.803 14.6556C14.5135 14.6769 14.2297 14.7266 13.9446 14.7758C13.9202 14.4594 13.8895 14.1442 13.863 13.8282C14.1858 13.7791 14.5327 13.7549 14.8432 13.6555C14.9777 13.6126 14.9647 13.3893 14.8079 13.402C14.4815 13.428 14.1614 13.528 13.8439 13.6069C13.8185 13.3128 13.789 13.0194 13.7614 12.7254C14.1235 12.7019 14.4923 12.6959 14.8474 12.6224C15.0101 12.5887 14.9717 12.3412 14.8086 12.3428C14.4504 12.3464 14.0921 12.4188 13.7378 12.4728C13.7144 12.2303 13.6827 11.9894 13.6573 11.7471C13.6745 11.7599 13.6937 11.7711 13.7201 11.7692C14.052 11.7439 14.3997 11.746 14.7223 11.662C14.8654 11.6246 14.8355 11.4126 14.6875 11.4117C14.3539 11.4097 14.0178 11.4977 13.6902 11.5546C13.6663 11.5587 13.6527 11.5739 13.6397 11.5886C13.5989 11.2087 13.5629 10.8275 13.5133 10.4492C13.5404 10.4266 13.57 10.4066 13.5951 10.3822C13.7581 10.7818 14.2039 11.0732 14.6996 11.0328C15.0183 11.0068 15.3184 10.8327 15.5576 10.5948C15.6526 15.8034 15.8359 21.0439 16.2131 26.2378C16.2138 26.248 16.2226 26.2515 16.2248 26.261C15.6407 26.264 15.0568 26.2731 14.4732 26.2898C14.4529 25.6432 14.4333 24.9949 14.4134 24.346C14.4246 24.349 14.4299 24.3584 14.4429 24.3586C14.8075 24.3634 15.1678 24.3716 15.5316 24.3421C15.6758 24.3301 15.6762 24.135 15.5316 24.1234ZM13.4304 5.09515C13.8231 5.25396 14.3032 5.27835 14.6465 5.01948C14.7162 4.96696 14.6595 4.83432 14.5719 4.84429C14.1847 4.88844 13.8672 4.93865 13.4964 4.85034C13.5407 4.68441 13.5764 4.51634 13.6194 4.35005C13.8939 4.35646 14.1684 4.36287 14.443 4.36928C14.6357 4.37373 14.6361 4.07337 14.443 4.078C14.1892 4.08388 13.9356 4.08993 13.6818 4.09581C13.7577 3.79563 13.8295 3.49456 13.9034 3.19403C14.0619 3.20703 14.2183 3.23587 14.3755 3.29053C14.6538 3.90032 14.9338 4.50957 15.2108 5.12007C15.1852 5.14393 15.1629 5.17331 15.1486 5.21194C14.8562 5.99532 13.9071 6.20487 13.2716 5.68464C13.3286 5.48933 13.3766 5.29135 13.4304 5.09515ZM11.6432 9.76569C12.2928 8.57442 12.7733 7.32137 13.166 6.03947C13.9149 6.63128 14.9605 6.42262 15.4491 5.64191C16.065 6.99573 16.6738 8.35276 17.3024 9.70106C17.3026 9.76017 17.3035 9.81928 17.3037 9.87839C17.1168 9.95726 16.9338 10.0276 16.6784 9.99055C16.4182 9.95263 16.1927 9.84563 16.0131 9.68379C16.0255 9.51412 16.0094 9.34373 15.9355 9.18261C15.8615 9.02112 15.6264 9.08842 15.5779 9.22801C15.5693 9.25293 15.5636 9.27804 15.5561 9.30296C15.5055 9.33305 15.4679 9.38379 15.4906 9.44789C15.495 9.46053 15.5038 9.4705 15.5086 9.48296C15.4158 9.90029 15.3936 10.3039 14.8996 10.5281C14.4211 10.7451 13.8831 10.4479 13.8597 9.98966C13.9021 9.87768 13.9274 9.76053 13.9159 9.6375C13.9149 9.6286 13.9078 9.62308 13.906 9.61471C13.9027 9.60599 13.901 9.59833 13.8955 9.59067C13.8414 9.44183 13.6348 9.37453 13.5385 9.53815C13.4613 9.66919 13.392 9.79809 13.3149 9.91845C13.2818 9.93394 13.2538 9.95868 13.2538 9.99946C13.2538 10.0041 13.254 10.0087 13.254 10.0132C13.1404 10.165 12.9973 10.2881 12.7683 10.3449C12.3213 10.4558 11.89 10.2056 11.6677 9.83922C11.6613 9.81323 11.6565 9.78598 11.6432 9.76569ZM11.7067 10.4406C11.9756 10.6913 12.3354 10.8345 12.7367 10.7957C12.9111 10.7787 13.0933 10.7141 13.2631 10.6206C13.3179 15.8395 13.8053 21.0837 14.0822 26.2973C14.0789 26.2975 14.0756 26.2973 14.0725 26.2975C13.4699 26.3185 12.7907 26.2727 12.1852 26.4153C12.2364 21.0994 11.9466 15.7537 11.7067 10.4406ZM11.4794 26.9023C11.5076 26.9171 11.5405 26.9226 11.5787 26.901C12.2174 26.5391 13.2115 26.5713 14.1001 26.6194C14.1014 26.6464 14.1032 26.6737 14.1047 26.7007C14.1168 26.9377 14.4935 26.9404 14.4857 26.7007C14.4849 26.6803 14.4844 26.6596 14.4838 26.6391C14.7151 26.6514 14.9373 26.6617 15.1325 26.6603C16.1931 26.6534 17.253 26.6676 18.3136 26.6769C18.3352 26.6771 18.3441 26.6617 18.3622 26.6571C18.5319 26.7045 18.6647 26.7643 18.7652 26.939C18.8614 27.1061 18.8742 27.2847 18.7957 27.4487C18.7002 27.4606 18.6395 27.54 18.6446 27.6388C16.3022 27.7512 13.9609 27.7902 11.6166 27.8306C11.602 27.8049 11.5764 27.787 11.546 27.779C11.4022 27.485 11.2865 27.2062 11.4794 26.9023ZM18.5535 34.4145C18.2261 35.6122 16.1878 35.8757 15.2039 35.8707C14.1759 35.8654 13.2555 35.5951 12.3581 35.1481C12.3762 35.1221 12.3974 35.0975 12.4015 35.0638C12.4626 34.5639 12.4536 34.0433 12.4236 33.5197C13.0395 33.585 13.6308 33.5671 14.235 33.4257C14.344 33.4002 14.3239 33.2165 14.2079 33.2307C13.6119 33.3034 13.0112 33.3349 12.4117 33.2891C12.3561 32.5294 12.2518 31.7655 12.174 31.0391C12.7746 31.1818 13.394 31.1599 14.0774 31.1311C15.4416 31.0734 16.8251 31.0253 18.1873 30.887C18.2371 32.0053 18.3328 33.123 18.4418 34.2372C18.4499 34.32 18.4953 34.3777 18.5535 34.4145ZM18.7068 30.3182C18.6457 30.3591 18.6338 30.4154 18.6393 30.4699C17.5124 30.4633 16.3838 30.5535 15.259 30.6155C14.1052 30.6791 12.6688 30.9662 11.5422 30.5453C11.4704 30.4307 11.4064 30.316 11.3945 30.1659C11.3729 29.895 11.4777 29.6491 11.7173 29.5038C11.7401 29.4899 11.7513 29.4682 11.7594 29.4461C12.5177 29.6689 13.2827 29.6297 14.1336 29.5823C15.6242 29.4994 17.1154 29.3959 18.604 29.2813C18.7143 29.4086 18.8523 29.4792 18.9057 29.6758C18.9697 29.9117 18.9247 30.1722 18.7068 30.3182ZM19.0109 28.8388C18.9844 28.829 18.9536 28.8241 18.9181 28.826C17.7212 28.8947 16.5254 28.982 15.3296 29.0678C14.1276 29.154 12.7111 29.4317 11.5198 29.0655C11.4499 28.8924 11.296 28.7774 11.2816 28.5579C11.2695 28.3727 11.3264 28.2207 11.4307 28.09C13.8438 28.2433 16.2623 28.1959 18.6737 28.0284C18.7348 28.0241 18.7761 27.9969 18.8063 27.9618C18.8622 28.0407 18.9174 28.1201 18.956 28.2121C19.0429 28.4199 19.0537 28.623 19.0109 28.8388Z" fill="#343434"/>
<path d="M35.2148 10.3219C34.7423 8.63211 34.2472 6.93716 33.6821 5.27355C33.6825 5.27213 33.6828 5.27088 33.6832 5.26946C33.7105 5.17634 33.6698 5.07806 33.5986 5.01343C33.5976 5.01059 33.5968 5.00756 33.5957 5.00453C33.545 4.85765 33.373 4.8621 33.296 4.95201C31.1613 5.0688 29.0266 5.18578 26.8918 5.30275C26.7764 5.30916 26.6777 5.37628 26.6444 5.48613C24.653 12.0501 22.7401 18.6857 21.3688 25.406C21.3587 25.4057 21.3486 25.4064 21.3388 25.4059C21.1958 25.3996 21.1957 25.5964 21.3238 25.6236C21.2705 25.8871 21.2121 26.1497 21.1605 26.4134C21.1485 26.4392 21.1461 26.4618 21.145 26.4894C21.1313 26.5599 21.1155 26.6301 21.1018 26.7006C21.0756 26.8361 21.2687 26.8936 21.3172 26.7702C21.4105 26.9514 21.5056 27.1325 21.5991 27.3139C21.5525 27.3146 21.5056 27.3153 21.4588 27.3161C21.334 27.3177 21.3338 27.503 21.4588 27.5048C21.5391 27.5058 21.6195 27.5071 21.6998 27.5083C22.057 28.1991 22.4195 28.8882 22.8178 29.5551C22.9942 29.8503 23.1179 30.2012 23.4462 30.3516C24.0594 30.6326 25.3897 30.3207 26.0682 30.2952C27.2693 30.2502 28.4844 30.2509 29.678 30.1104C29.8183 30.0938 29.8787 29.9817 29.8676 29.8793C29.8796 29.8615 29.8827 29.8396 29.8895 29.8193C29.9569 29.8241 30.0286 29.8008 30.0584 29.7225C32.4275 23.4834 34.1105 17.0805 35.2856 10.5314C35.3019 10.4428 35.2677 10.3725 35.2148 10.3219ZM25.9539 9.55828C26.7052 7.00411 27.1564 5.78845 30.1603 5.63017C32.7245 5.49521 32.8731 6.11889 32.218 8.44374C31.7185 10.2167 31.2451 11.9965 30.7849 13.7796C30.7486 13.7533 30.7049 13.7364 30.6495 13.7428C28.6222 13.9771 26.6047 14.2399 24.5719 14.4296C25.0223 12.8031 25.4775 11.1777 25.9539 9.55828ZM21.4489 26.2939C21.5071 26.078 21.5604 25.8608 21.618 25.6446C22.5095 25.6934 23.3858 25.674 24.272 25.5332C24.3849 25.5152 24.3593 25.3302 24.2449 25.338C23.3913 25.3966 22.5353 25.4279 21.6798 25.4075C21.8037 24.9405 21.9219 24.472 22.0438 24.0045C22.7931 24.0508 23.5361 24.0376 24.2804 23.9217C24.4175 23.9003 24.3868 23.6723 24.2475 23.6844C23.535 23.7462 22.8242 23.7729 22.1106 23.7476C22.24 23.2501 22.3681 22.7523 22.4963 22.2547C23.0768 22.2693 23.6649 22.3023 24.2417 22.2529C24.4252 22.2373 24.4256 21.9907 24.2417 21.9748C23.6892 21.9277 23.1264 21.9556 22.5697 21.9711C22.7176 21.3976 22.8665 20.8245 23.0149 20.251C23.7145 20.3832 24.4283 20.4152 25.1269 20.2546C25.2673 20.2224 25.2411 19.9875 25.0922 20.0043C24.4107 20.0808 23.7503 20.1067 23.0768 20.0123C23.4131 18.7128 23.7556 17.4149 24.1053 16.1185C24.1115 16.1198 24.1139 16.1255 24.1207 16.126C25.2336 16.2022 26.4702 16.2234 27.5403 15.8732C27.6639 15.8328 27.6531 15.6277 27.5078 15.6391C26.3809 15.7274 25.3088 15.9086 24.1732 15.8613C24.2065 15.7388 24.2371 15.6156 24.2706 15.4931C24.3339 15.2613 24.4036 15.0311 24.4673 14.7993C24.4751 14.7998 24.4777 14.8066 24.4861 14.8062C26.5476 14.7384 28.6417 14.5682 30.6718 14.201C30.652 14.2785 30.6293 14.3551 30.6096 14.4325C29.5874 18.4382 28.6672 22.4676 27.8575 26.5191C27.8554 26.5296 27.8584 26.5382 27.8576 26.5482C25.668 26.5891 23.6341 26.6333 21.4489 26.2939ZM24.5644 29.859C23.9902 29.8838 23.8532 29.9601 23.4462 29.6099C23.3851 29.5574 23.3306 29.491 23.2777 29.4212C23.791 29.5517 24.3125 29.6324 24.8461 29.6119C24.9535 29.6078 24.9531 29.4552 24.8461 29.4497C24.2773 29.4205 23.7165 29.3685 23.1611 29.2474C23.0261 29.0277 22.9102 28.7826 22.7951 28.5908C22.7714 28.5513 22.7461 28.5128 22.7221 28.4733C23.3086 28.5161 23.8954 28.5607 24.483 28.568C24.6144 28.5696 24.6093 28.3848 24.483 28.3727C23.8566 28.3129 23.2266 28.2955 22.5975 28.2727C22.4427 28.0188 22.2837 27.7672 22.1269 27.5146C22.8317 27.526 23.5366 27.5365 24.2413 27.5197C24.3857 27.5164 24.386 27.3047 24.2413 27.3013C23.494 27.2835 22.7463 27.2961 21.9988 27.3082C21.8852 27.1261 21.7741 26.9425 21.6592 26.7613C23.677 27.2395 25.9352 27.4339 27.9629 27.0189C28.4238 27.9203 28.895 28.818 29.3821 29.7061C27.783 29.6621 26.1603 29.7903 24.5644 29.859ZM29.7962 29.5117C29.2897 28.5987 28.7654 27.6935 28.2315 26.7953C28.2824 26.7686 28.3239 26.7228 28.3396 26.6482C29.1993 22.5852 30.1446 18.5458 31.1686 14.5247C31.5485 16.099 31.9745 17.7604 32.5831 19.2376C32.6323 19.3567 32.7379 19.3936 32.8321 19.3774C31.9454 22.7847 30.9285 26.1591 29.7962 29.5117ZM32.9558 18.896C32.6404 17.2345 31.9827 15.484 31.3203 13.9415C31.3203 13.9415 31.3197 13.9411 31.3196 13.9407C32.0052 11.2725 32.7185 8.61039 33.4887 5.96025C33.8793 7.49069 34.3165 9.0149 34.7749 10.5245C34.7804 10.5425 34.791 10.5544 34.7992 10.5694C34.283 13.3724 33.6609 16.1447 32.9558 18.896Z" fill="#343434"/>
<path d="M5.73332 12.1098C5.37393 12.076 5.00522 12.1085 4.64455 12.1182C4.50018 12.1221 4.49981 12.3329 4.64455 12.3366C5.00522 12.3462 5.37375 12.3788 5.73332 12.3448C5.88831 12.3302 5.88867 12.1244 5.73332 12.1098Z" fill="#343434"/>
<path d="M5.73331 8.68821C5.37466 8.64976 5.00466 8.68786 4.64454 8.69979C4.49358 8.70477 4.49339 8.92305 4.64454 8.92821C5.00466 8.94032 5.37466 8.97824 5.73331 8.93979C5.89928 8.92216 5.89964 8.70602 5.73331 8.68821Z" fill="#343434"/>
<path d="M15.7716 25.4262C15.3618 25.434 14.9466 25.5168 14.5413 25.5706C14.4418 25.5837 14.4641 25.7538 14.5653 25.7429C14.973 25.6993 15.3946 25.6813 15.7946 25.5921C15.8901 25.5707 15.8691 25.4244 15.7716 25.4262Z" fill="#343434"/>
<path d="M15.1688 18.8319C14.9284 18.8084 14.6844 18.8288 14.4431 18.8368C14.3117 18.8411 14.3115 19.0311 14.4431 19.0355C14.6846 19.0436 14.9282 19.064 15.1688 19.0405C15.3064 19.027 15.3066 18.8454 15.1688 18.8319Z" fill="#343434"/>
<path d="M14.6718 34.2023C14.0321 34.2982 13.3955 34.3276 12.7507 34.2706C12.6544 34.2621 12.6557 34.407 12.7507 34.4163C13.41 34.4804 14.0601 34.4619 14.7108 34.3395C14.8043 34.3219 14.7631 34.1886 14.6718 34.2023Z" fill="#343434"/>
<path d="M13.9589 31.7822C13.435 31.8007 12.9076 31.8696 12.3876 31.933C12.2844 31.9456 12.2776 32.1003 12.3876 32.0952C12.9197 32.0702 13.458 32.0478 13.986 31.9773C14.1003 31.962 14.0725 31.7782 13.9589 31.7822Z" fill="#343434"/>
<path d="M25.8148 18.458C25.0737 18.5064 24.3403 18.6132 23.6054 18.7156C23.4698 18.7345 23.5006 18.961 23.638 18.9497C24.3783 18.8896 25.1172 18.8322 25.851 18.7181C26.0018 18.6946 25.9674 18.448 25.8148 18.458Z" fill="#343434"/>
<path d="M26.6635 17.4622C25.8091 17.4389 24.9363 17.4699 24.0887 17.5836C23.9613 17.6007 24.0021 17.785 24.1176 17.7918C24.961 17.8411 25.8241 17.8035 26.6635 17.7172C26.8278 17.7002 26.8355 17.467 26.6635 17.4622Z" fill="#343434"/>
</g>
<defs>
<clipPath id="clip0">
<rect width="37" height="36" fill="white" transform="translate(0 0.550293)"/>
</clipPath>
</defs>
</svg>
