<svg width="36" height="37" viewBox="0 0 36 37" fill="none" xmlns="http://www.w3.org/2000/svg">
<g clip-path="url(#clip0)">
<path d="M14.5064 3.31223C13.1741 4.18678 11.6726 4.41066 10.0922 4.40433C9.75438 4.40302 4.96133 4.15864 5.52146 2.89873C5.60066 2.72046 5.365 2.57274 5.25525 2.74315C4.25239 4.30112 7.60879 4.71898 8.4253 4.83266C10.4727 5.11764 13.1236 5.05152 14.7892 3.67881C14.9932 3.51036 14.7268 3.16756 14.5064 3.31223Z" fill="#343434"/>
<path d="M30.9964 3.34714C28.4022 4.0347 23.9627 5.27736 21.7658 3.07744C21.6198 2.93125 21.4121 3.14792 21.5421 3.30132C23.7336 5.88964 28.3795 4.67011 31.128 3.82457C31.4315 3.73118 31.3059 3.26532 30.9964 3.34714Z" fill="#343434"/>
<path d="M32.7961 33.3278C32.7573 32.4583 32.351 31.276 31.5052 30.8918C31.3241 30.8095 31.0795 30.9891 31.2083 31.1888C31.2246 31.2141 31.2403 31.2357 31.2567 31.2603C27.4307 31.2581 23.5973 31.1975 19.7635 31.1549C19.9241 25.4029 20.1788 19.6417 20.0961 13.8872C20.7153 13.8724 21.3357 13.8604 21.9484 13.8174C21.8589 17.7904 22.0298 21.8261 22.7872 25.3953C23.3257 27.9323 24.7946 30.3454 27.6769 29.3052C27.7923 29.2636 27.8482 29.1728 27.8582 29.0787C29.4227 28.552 30.3448 27.0235 30.7225 25.0917C31.8675 19.2356 30.9364 12.185 30.4134 6.27892C31.9977 5.69435 33.3427 3.83613 32.1633 2.23409C30.8465 0.445257 27.367 1.25304 25.5461 1.39248C25.5047 1.39553 25.4802 1.4191 25.4523 1.43852C24.3399 1.39946 23.1808 1.45663 22.1114 1.58559C21.3311 1.67963 20.5368 1.93471 20.1428 2.67027C19.2723 4.29501 20.8373 5.74781 22.3719 5.86433C22.3841 5.8652 22.3898 5.85604 22.4007 5.85451C22.2604 7.50194 22.1345 9.24211 22.0453 11.0192C22.0125 11.0041 21.9885 10.9792 21.9423 10.9814C19.4273 11.1025 16.9334 11.099 14.4189 11.0052C14.4311 9.34794 14.4315 7.69767 14.4378 6.06682C14.4381 5.9994 14.4158 5.9479 14.3857 5.90404C16.0554 5.19881 17.6125 3.39296 15.7767 1.8603C14.8865 1.1171 13.721 1.06997 12.6126 1.02851C10.988 0.967853 9.30243 0.83955 7.66547 0.965453C6.05077 0.514864 4.05465 0.962616 3.36316 2.62903C2.81285 3.95549 3.71992 5.56539 5.14326 5.52459C5.02281 7.23835 5.01059 8.96521 5.0335 10.6925C5.03285 10.6988 5.03372 10.7043 5.03394 10.7106C5.05642 12.3834 5.11118 14.0565 5.1341 15.719C5.17708 18.8465 4.8345 22.2996 5.36736 25.4003C5.84827 28.1992 7.39097 30.2913 10.388 29.78C10.5361 29.7547 10.5818 29.612 10.5543 29.4853C12.62 28.8341 13.3134 26.4797 13.644 24.1711C14.1319 20.7632 14.3063 17.258 14.3761 13.758C15.0556 13.803 15.7414 13.8386 16.4296 13.8665C16.5522 19.6351 16.7294 25.3586 16.4516 31.1266C12.639 31.1017 8.82784 31.1172 5.02543 31.2529C4.93313 31.1953 4.80046 31.1868 4.71384 31.2623C4.09065 31.8052 3.84997 32.5959 3.86066 33.4125C3.83012 33.4127 3.79957 33.4123 3.76902 33.4127C3.63831 33.414 3.63875 33.6113 3.76902 33.6156C3.80175 33.6167 3.83426 33.6169 3.86699 33.618C3.93682 34.6553 4.40901 35.7056 5.11489 36.3244C5.05118 36.334 4.98572 36.3388 4.922 36.3484C4.89996 36.3519 4.90826 36.3824 4.9268 36.3842C5.02238 36.3942 5.12035 36.3979 5.21614 36.4075C5.27353 36.4411 5.32786 36.4416 5.37717 36.4204C13.9259 37.2585 23.025 36.4651 31.6102 36.3576C31.8814 36.3543 31.9187 36.0294 31.7461 35.9026C32.4682 35.2284 32.8406 34.3241 32.7961 33.3278ZM26.5601 28.828C23.445 28.2288 22.7898 20.2068 22.7186 13.7175C25.1939 14.8017 28.0229 14.7795 30.4725 13.6256C30.8731 20.1503 30.6763 28.2987 26.5601 28.828ZM30.44 13.1224C27.8789 14.1187 25.362 14.206 22.7147 13.3077C22.7095 12.6016 22.7108 11.916 22.7162 11.2635C25.128 12.2108 28.0947 12.6201 30.2798 11.0222C30.3365 11.689 30.3913 12.3943 30.44 13.1224ZM20.6427 4.07899C20.2084 2.68227 21.534 2.22667 22.6279 2.14179C23.9054 2.04272 25.2077 2.0868 26.4715 1.85943C26.5361 1.84787 26.5686 1.81099 26.5865 1.76735C27.6629 1.73331 28.7496 1.66981 29.812 1.75229C30.8467 1.83281 31.7904 2.27227 32.0019 3.38467C32.2528 4.70502 30.989 5.48858 29.9641 5.86302C29.7568 5.93874 29.7395 6.1696 29.8449 6.29746C29.9058 7.16482 30.0706 8.65864 30.2322 10.4743C27.8453 12.0648 25.3663 11.5991 22.7191 10.9474C22.7459 8.41272 22.8299 6.4166 22.8184 5.70199C22.8151 5.49491 22.5871 5.46 22.4753 5.57521C22.4575 5.55797 22.4441 5.53703 22.4169 5.52917C21.603 5.29678 20.903 4.91667 20.6427 4.07899ZM19.1886 31.1486C18.458 31.141 17.7277 31.1351 16.9971 31.1296C17.3068 25.3946 17.4008 19.5906 16.7702 13.8757C17.7733 13.9112 18.7788 13.916 19.7816 13.899C19.3917 19.6369 19.3365 25.4 19.1886 31.1486ZM9.58937 29.2806C4.55629 28.8808 5.81293 19.7826 5.76885 16.5273C5.75663 15.6261 5.7551 14.7194 5.75227 13.8146C7.68794 15.9743 11.7659 15.7103 13.9497 14.1449C13.8908 20.5965 13.1891 28.3279 9.58937 29.2806ZM13.7549 13.6664C12.4727 14.407 11.1735 14.8473 9.67425 14.7773C8.15228 14.7059 7.07392 14.0415 5.75008 13.4414C5.7479 12.7537 5.74441 12.0683 5.73743 11.3803C7.98797 12.993 11.5586 12.5979 13.9436 11.5869C13.9512 12.1953 13.9541 12.8337 13.9523 13.4833C13.9484 13.5084 13.9486 13.5287 13.9526 13.5538C13.9526 13.5826 13.953 13.6088 13.953 13.6376C13.8954 13.6193 13.8271 13.6247 13.7549 13.6664ZM13.8699 5.6422C13.7269 5.72032 13.7533 5.90033 13.8533 5.98958C13.8467 6.01445 13.8373 6.03693 13.8371 6.06617C13.8286 7.08059 13.9017 8.89779 13.9364 11.0827C13.9006 11.0755 13.8629 11.0748 13.8221 11.089C11.3725 11.94 8.03336 12.4567 5.73219 10.9081C5.70732 9.09505 5.64491 7.28396 5.46729 5.48749C5.48933 5.48313 5.5105 5.48247 5.53275 5.47746C5.76405 5.42378 5.72019 5.03189 5.47558 5.05502C3.67977 5.22652 3.38367 3.08006 4.49193 2.06498C5.32808 1.29909 6.38964 1.30301 7.43527 1.36651C8.77438 1.5186 10.1445 1.46797 11.4875 1.47038C12.3963 1.47212 13.5068 1.35429 14.3822 1.61744C17.3033 2.49593 15.5537 4.72182 13.8699 5.6422ZM14.3837 13.2994C14.3946 12.6646 14.409 12.0297 14.4145 11.3962C16.9099 11.7218 19.4384 11.7519 21.9418 11.48C21.9794 11.4759 21.9986 11.4499 22.0274 11.4346C21.9984 12.0587 21.9752 12.6875 21.9576 13.3181C19.4456 13.2169 16.8972 13.2629 14.3837 13.2994ZM31.4673 35.787C31.4527 35.8035 31.4548 35.8208 31.4485 35.8382C22.9929 35.665 13.8895 35.0804 5.49413 36.2768C5.49719 36.2325 5.483 36.1843 5.4446 36.1387C5.17577 35.8199 4.9567 35.4509 4.79283 35.0597C6.37414 35.1007 7.95808 35.0979 9.53983 35.0841C9.68079 35.0828 9.68101 34.8664 9.53983 34.865C7.95372 34.8498 6.36542 34.8452 4.77973 34.8851C4.75879 34.8858 4.74569 34.896 4.7326 34.9061C4.58532 34.5098 4.49454 34.0935 4.48843 33.6765C4.48822 33.6614 4.49171 33.6486 4.49171 33.6335C8.14377 33.7492 11.8004 33.8166 15.4538 33.8C15.6447 33.7991 15.6441 33.5091 15.4538 33.5039C11.8081 33.4011 8.15686 33.3821 4.50916 33.4112C4.53557 33.0708 4.61696 32.764 4.72278 32.4626C6.18453 32.4888 7.6454 32.5043 9.10714 32.4796C9.30287 32.4764 9.3033 32.1787 9.10714 32.1755C7.67987 32.1515 6.25282 32.1663 4.82578 32.1914C4.89756 32.0096 4.97306 31.8266 5.0514 31.6365C9.78466 31.8333 14.5325 31.8458 19.2806 31.8235C19.3821 31.8981 19.5346 31.8979 19.6391 31.8218C23.536 31.8021 27.4329 31.7631 31.3215 31.7847C31.4239 31.7853 31.4913 31.7347 31.5314 31.6675C31.876 32.1705 32.1721 32.6317 32.2406 33.3282C32.3279 34.2174 32.0586 35.1155 31.4673 35.787Z" fill="#343434"/>
<path d="M12.5006 17.826C12.4829 17.8072 12.4672 17.7876 12.4419 17.7716C10.7661 16.7203 8.64169 16.6599 6.86355 17.4865C6.67219 17.5753 6.80748 17.8938 7.00735 17.8275C7.01019 17.8266 7.01281 17.826 7.01564 17.8251C7.01455 17.8513 7.00321 17.8805 7.00604 17.9056C6.92902 18.589 6.79962 19.9868 6.76755 21.5409C6.68201 21.5437 6.59538 21.5468 6.51007 21.5494C6.37696 21.5535 6.37674 21.7521 6.51007 21.7563C6.59386 21.7589 6.67917 21.7617 6.76318 21.7645C6.71256 25.3169 7.20155 29.5406 9.98757 27.977C10.0321 27.9519 10.0537 27.9142 10.0622 27.8731C11.0819 27.6246 11.6359 26.7038 11.87 25.5763C12.3773 23.1331 12.5259 20.5219 12.7592 18.0398C12.774 17.8851 12.6311 17.8142 12.5006 17.826ZM11.8659 18.1138C11.3014 19.1537 7.40972 18.5081 7.40513 17.7162C8.94674 17.2992 10.4091 17.4513 11.8659 18.1138ZM9.29957 27.6063C9.20334 27.6065 9.15774 27.6711 9.14683 27.742C8.72308 27.6946 8.39141 27.452 8.12433 27.0865C8.643 27.1009 9.16538 27.133 9.68383 27.114C9.8429 27.1081 9.84333 26.8725 9.68383 26.8666C9.15621 26.8474 8.62467 26.881 8.09706 26.8949C8.05756 26.896 8.03552 26.9176 8.02134 26.944C7.86532 26.6942 7.73768 26.3924 7.63076 26.0566C7.63447 26.0577 7.63512 26.0616 7.63927 26.0623C8.24936 26.1714 8.9858 26.2028 9.58411 26.0215C9.71372 25.9822 9.69496 25.7727 9.55116 25.7784C8.91553 25.8039 8.30566 25.8803 7.66545 25.867C7.62945 25.8663 7.6061 25.8875 7.58973 25.9137C7.36608 25.1463 7.25436 24.2051 7.20242 23.2348C7.88365 23.2533 8.57405 23.2928 9.25048 23.2374C9.43289 23.2226 9.43333 22.9684 9.25048 22.9535C8.56859 22.8977 7.87274 22.9383 7.18606 22.9566C7.16991 22.5634 7.16424 22.168 7.16446 21.7781C7.95631 21.8067 8.75341 21.8352 9.53872 21.7949C9.72136 21.7855 9.72158 21.5204 9.53872 21.511C8.75363 21.4706 7.95675 21.4992 7.16555 21.5278C7.16795 21.2088 7.17493 20.8965 7.18409 20.5937C7.19064 20.5956 7.1913 20.6022 7.19893 20.6035C7.89805 20.7228 8.73639 20.881 9.43551 20.7183C9.5588 20.6895 9.57145 20.475 9.43551 20.4562C8.72373 20.3576 7.9921 20.4361 7.27225 20.3375C7.24105 20.3331 7.21726 20.346 7.19304 20.3574C7.21988 19.5926 7.25981 18.8995 7.28818 18.3817C7.8219 18.8478 8.95743 19.0512 9.41762 19.1112C10.0899 19.1987 11.7293 19.2777 12.2285 18.5611C12.0107 21.1996 11.9843 27.6017 9.29957 27.6063Z" fill="#343434"/>
<path d="M29.6658 16.8956C29.6627 16.8275 29.623 16.7804 29.5717 16.7514C29.5593 16.6937 29.5257 16.6403 29.4554 16.6043C27.8145 15.7631 25.6111 15.8406 23.9292 16.599C23.8186 16.649 23.7032 16.6927 23.5975 16.7483C23.4638 16.8188 23.5578 17.0184 23.6977 16.9855C23.7346 16.9768 23.7715 16.9693 23.8081 16.9608C23.8221 17.0533 23.843 17.1417 23.8729 17.2246C23.6678 19.6936 23.6853 29.1108 27.5145 27.0034C27.6779 26.9135 27.6013 26.7058 27.4508 26.6702C28.4395 26.1461 28.9878 25.215 29.2473 24.0201C29.7282 21.8054 29.7707 19.1542 29.6658 16.8956ZM26.4929 16.587C27.3301 16.5908 28.0816 16.7832 28.8698 16.9665C28.3064 17.7741 27.4163 18.0132 26.4331 17.9541C25.6068 17.9043 24.4786 17.7457 24.1559 16.8834C24.926 16.714 25.6958 16.5833 26.4929 16.587ZM26.6489 26.6373C26.6301 26.6445 26.6251 26.661 26.6111 26.6722C24.1965 26.1758 24.1134 20.1043 24.1332 17.646C24.5954 18.1524 25.4396 18.3687 26.0984 18.447C27.2503 18.584 28.5695 18.3977 29.2239 17.4208C28.9505 20.3524 29.6466 25.4681 26.6489 26.6373Z" fill="#343434"/>
<path d="M9.51431 24.4541C8.89898 24.5517 8.28692 24.5936 7.66613 24.5309C7.48786 24.5131 7.49353 24.7849 7.66613 24.8068C8.31659 24.8895 8.94938 24.8746 9.58435 24.7083C9.75215 24.6645 9.67818 24.4282 9.51431 24.4541Z" fill="#343434"/>
<path d="M9.39536 19.4893C8.72656 19.4557 8.04512 19.4747 7.37589 19.4955C7.19849 19.5009 7.19805 19.7658 7.37589 19.7713C8.04512 19.792 8.72656 19.811 9.39536 19.7774C9.58061 19.7682 9.58105 19.4987 9.39536 19.4893Z" fill="#343434"/>
</g>
<defs>
<clipPath id="clip0">
<rect width="36" height="36" fill="white" transform="translate(0 0.800293)"/>
</clipPath>
</defs>
</svg>
