<svg width="222" height="211" viewBox="0 0 222 211" fill="none" xmlns="http://www.w3.org/2000/svg">
<path d="M12.592 201.987C8.88039 199.557 5.80053 194.929 4.22111 189.259C3.9842 188.333 3.35243 187.986 2.95758 188.217C2.48375 188.449 2.16787 189.143 2.40478 190.3C3.74729 196.896 6.82715 202.797 10.9336 206.616C11.5654 207.194 12.1972 207.31 12.671 207.078C13.1448 206.847 13.4607 206.268 13.6976 205.69C13.8556 204.996 13.8556 204.301 13.6976 203.723C13.4607 203.028 13.1448 202.334 12.592 201.987Z" fill="#5C5C5C"/>
<path d="M35.5722 203.723L22.8579 205.111C21.0415 205.342 21.0415 208.582 22.8579 208.698L35.5722 209.161C38.3361 209.161 38.2572 203.375 35.5722 203.723Z" fill="#5C5C5C"/>
<path d="M60.7635 204.417C56.4201 204.88 52.2347 205.69 47.8913 205.805C46.5488 205.921 46.1539 208.467 47.5754 208.814C52.0767 209.855 56.815 210.434 61.3953 209.624C63.6854 209.277 63.1326 204.185 60.7635 204.417Z" fill="#5C5C5C"/>
<path d="M83.3488 204.07C79.5582 204.648 75.7677 204.88 71.9771 204.88C69.7659 204.88 69.8448 208.814 71.9771 209.045C75.7677 209.508 79.5582 209.624 83.3488 209.624C86.3497 209.74 86.1918 203.723 83.3488 204.07Z" fill="#5C5C5C"/>
<path d="M105.62 203.607C101.908 204.185 98.1964 204.533 94.4058 204.764C92.6684 204.88 92.5895 208.235 94.4058 208.235C98.1174 208.235 101.908 208.467 105.62 208.93C108.384 209.161 108.305 203.144 105.62 203.607Z" fill="#5C5C5C"/>
<path d="M124.966 204.185C121.492 204.417 117.938 204.995 114.542 205.458C113.042 205.69 112.963 208.582 114.542 208.467C117.938 208.12 121.097 208.467 124.493 209.161C127.415 209.74 127.809 204.07 124.966 204.185Z" fill="#5C5C5C"/>
<path d="M148.973 203.954C144.867 204.185 140.76 204.88 136.654 204.995C134.759 205.111 134.68 208.698 136.654 208.814C140.76 208.93 144.867 209.392 148.973 209.624C151.895 209.74 151.895 203.838 148.973 203.954Z" fill="#5C5C5C"/>
<path d="M173.455 203.26C168.796 203.491 164.058 203.607 159.399 204.417C157.977 204.648 158.056 207.657 159.399 207.888C163.979 208.814 168.796 209.045 173.455 209.277C176.535 209.508 176.535 203.144 173.455 203.26Z" fill="#5C5C5C"/>
<path d="M195.882 202.797C191.855 202.334 187.196 203.26 183.168 204.301C181.589 204.764 181.983 207.773 183.563 207.773C187.669 207.773 191.776 208.583 195.882 208.698C198.962 208.814 198.804 203.144 195.882 202.797Z" fill="#5C5C5C"/>
<path d="M5.1686 177.109C5.48448 171.208 4.85271 164.381 4.14198 158.48C3.82609 156.166 1.77285 156.744 1.77285 159.058C1.77285 165.075 1.22006 171.092 1.14108 177.109C1.06211 181.622 4.93168 181.506 5.1686 177.109Z" fill="#5C5C5C"/>
<path d="M94.8004 5.85799C99.0648 5.51085 103.408 5.16372 107.673 4.9323C109.173 4.81659 109.173 2.15523 107.673 2.03952C103.408 1.69238 99.0648 1.11383 94.8004 0.65098C92.1944 0.303846 92.1154 6.08941 94.8004 5.85799Z" fill="#5C5C5C"/>
<path d="M71.0308 7.01514L83.7451 5.6266C85.5614 5.39518 85.5614 2.15526 83.7451 2.03955L71.0308 1.69242C68.2668 1.57671 68.3458 7.36227 71.0308 7.01514Z" fill="#5C5C5C"/>
<path d="M45.8386 6.20524C50.182 5.74239 54.3675 4.93242 58.7109 4.8167C60.0534 4.70099 60.4482 2.15534 59.0268 1.80821C54.5254 0.76681 49.7872 0.188254 45.2069 0.998232C42.8377 1.46108 43.3905 6.43666 45.8386 6.20524Z" fill="#5C5C5C"/>
<path d="M23.1746 6.66799C26.9652 6.08943 30.7558 5.85801 34.5464 5.85801C36.7576 5.85801 36.6786 1.92383 34.5464 1.6924C30.7558 1.22956 26.9652 1.11385 23.1746 1.11385C20.2527 0.998135 20.3317 7.01512 23.1746 6.66799Z" fill="#5C5C5C"/>
<path d="M6.35355 19.7429C6.90635 17.4286 7.77503 15.2301 8.88062 13.3787C9.98621 11.5274 11.4077 9.90741 12.9081 8.63459C13.6189 8.05603 13.7768 7.01463 13.5399 6.20465C13.303 5.39467 12.6712 4.93182 11.8025 5.51038C10.0652 6.89892 8.40679 8.51887 6.98532 10.486C5.56384 12.4531 4.22134 14.7673 3.19472 17.3129C2.40501 19.1643 3.11575 20.6686 3.98443 21.1314C4.85311 21.71 5.9587 21.3628 6.35355 19.7429Z" fill="#5C5C5C"/>
<path d="M4.22123 46.2413C4.06329 41.15 3.66844 36.0587 3.35255 30.9675C3.27358 29.8103 2.79976 29.3475 2.24696 29.2318C2.01005 29.2318 1.77314 29.3475 1.53622 29.5789C1.37828 29.9261 1.22034 30.3889 1.22034 30.8517C1.45725 35.8273 1.22034 40.4558 0.746515 45.4314C0.351661 49.9441 4.3002 50.5227 4.22123 46.2413Z" fill="#5C5C5C"/>
<path d="M4.30053 81.5333C4.14259 75.5163 3.66877 69.4993 3.5898 63.4823C3.51083 60.7053 1.06273 60.5896 0.98376 63.4823C0.98376 69.4993 0.588906 75.5163 0.509936 81.5333C0.430965 85.8146 4.45848 85.6989 4.30053 81.5333Z" fill="#5C5C5C"/>
<path d="M4.77426 117.403C4.61632 110.576 4.53735 103.633 3.98455 96.806C3.82661 94.7232 1.77337 94.8389 1.61543 96.806C0.983663 103.517 0.825722 110.576 0.66778 117.403C0.509838 121.915 4.85323 121.915 4.77426 117.403Z" fill="#5C5C5C"/>
<path d="M5.1686 146.793C5.48448 140.892 4.85271 134.065 4.14198 128.163C3.82609 125.849 1.77285 126.428 1.77285 128.742C1.77285 134.759 1.22006 140.776 1.14108 146.793C1.06211 151.306 4.93168 151.074 5.1686 146.793Z" fill="#5C5C5C"/>
<path d="M118.65 7.94089C122.677 8.40374 127.337 7.47805 131.364 6.43665C132.943 5.9738 132.549 2.96531 130.969 2.96531C126.863 2.96531 122.756 2.15533 118.65 2.03962C115.57 1.92391 115.649 7.59376 118.65 7.94089Z" fill="#5C5C5C"/>
<path d="M217.678 166.232L217.994 175.721L218.152 180.465V182.779C218.152 183.589 218.073 184.283 217.994 185.093C217.915 186.135 218.231 186.829 218.705 186.945C219.178 187.06 219.81 186.713 219.968 185.556C220.047 184.746 220.205 183.936 220.284 183.011L220.442 180.465L220.679 175.721C220.837 172.597 220.995 169.472 221.232 166.232C221.469 162.414 217.52 162.298 217.678 166.232Z" fill="#5C5C5C"/>
<path d="M216.888 131.288L217.836 149.917C217.994 152.579 220.205 152.579 220.284 149.917L220.6 131.288C220.6 127.354 216.73 127.354 216.888 131.288Z" fill="#5C5C5C"/>
<path d="M217.441 94.3761C217.757 100.74 218.31 106.873 218.389 113.237C218.468 115.204 220.205 115.783 220.442 113.7C221.153 107.104 221.548 100.162 220.995 93.4504C220.679 90.0948 217.283 90.9047 217.441 94.3761Z" fill="#5C5C5C"/>
<path d="M217.125 61.2829C217.52 66.837 217.678 72.3912 217.678 77.9453C217.678 81.1852 220.363 81.0695 220.521 77.9453C220.837 72.3912 220.916 66.837 220.916 61.2829C220.995 56.8859 216.888 57.1173 217.125 61.2829Z" fill="#5C5C5C"/>
<path d="M216.731 28.7682C216.81 29.3468 216.889 29.9253 216.968 30.6196L217.126 32.7024L217.363 36.7523C217.521 39.5294 217.6 42.1907 217.6 44.9678C217.678 47.5135 219.969 47.6292 219.969 44.9678C219.969 42.1907 219.969 39.5294 220.048 36.7523L220.206 32.7024L220.284 30.6196C220.284 29.9253 220.285 29.1154 220.363 28.4211C220.363 27.3797 220.048 26.5697 219.653 26.1069C219.258 25.644 218.784 25.5283 218.31 25.644C217.836 25.7597 217.363 26.1069 217.126 26.6854C216.81 27.264 216.652 27.9583 216.731 28.7682Z" fill="#5C5C5C"/>
<path d="M207.57 8.63468C210.492 10.3703 213.335 13.1474 215.388 16.9659C216.257 18.5858 218.152 17.4287 217.125 15.3459C216.02 13.1474 214.914 11.1803 213.651 9.32895C213.019 8.40326 212.387 7.59328 211.676 6.66759C210.966 5.85761 210.255 5.04763 209.465 4.35336C209.149 4.00623 208.754 3.7748 208.439 3.65909C208.123 3.54338 207.807 3.65909 207.57 3.65909C207.017 3.89052 206.701 4.35336 206.464 4.93192C206.148 6.43616 206.385 7.94041 207.57 8.63468Z" fill="#5C5C5C"/>
<path d="M184.353 6.7833C188.46 6.55188 192.566 5.85761 196.673 5.7419C198.568 5.62619 198.647 2.03914 196.673 1.92343C192.566 1.80772 188.46 1.34487 184.353 1.11345C181.51 0.997739 181.51 6.89901 184.353 6.7833Z" fill="#5C5C5C"/>
<path d="M159.951 7.36191C164.61 7.13049 169.348 7.01478 174.007 6.2048C175.429 5.97338 175.35 2.96488 174.007 2.73346C169.427 1.80777 164.61 1.57635 159.951 1.34493C156.871 1.22921 156.792 7.47762 159.951 7.36191Z" fill="#5C5C5C"/>
<path d="M137.523 7.94044C141.551 8.40328 146.21 7.47759 150.238 6.43619C151.817 5.97334 151.422 2.96485 149.843 2.96485C145.736 2.96485 141.63 2.15487 137.523 2.03916C134.443 1.92345 134.522 7.5933 137.523 7.94044Z" fill="#5C5C5C"/>
<path d="M211.677 196.433C210.334 198.053 208.834 199.673 207.175 201.061C205.517 202.45 203.701 203.607 201.963 204.186C200.542 204.764 200.779 207.773 202.516 207.657C204.648 207.425 206.859 206.847 208.913 205.69C210.966 204.533 212.94 202.913 214.52 200.598C215.151 199.789 215.388 198.863 215.388 198.053C215.388 197.243 215.072 196.664 214.678 196.201C213.888 195.391 212.624 195.16 211.677 196.433Z" fill="#5C5C5C"/>
</svg>
