<svg width="101" height="8" viewBox="0 0 101 8" fill="none" xmlns="http://www.w3.org/2000/svg">
<path d="M86.5554 1.67361L85.8753 2.03157C87.0121 2.04452 87.8399 1.95878 88.6086 1.87917C89.4068 1.79649 90.1486 1.7458 91.108 1.77712L90.9818 1.71179C91.1269 1.67061 91.2317 1.8166 91.71 1.81933C91.9492 1.82069 92.2771 1.81287 92.7152 1.71522C93.1533 1.61756 93.7339 1.45288 94.4811 1.16637L94.4784 1.14051C94.5967 1.12826 94.6047 1.20584 94.801 1.08096L94.2876 1.31711C94.6208 1.36101 94.9029 1.48862 95.3464 1.44269C95.4324 1.40765 95.4539 1.327 95.4486 1.27528L96.4887 1.21983L96.7925 0.979249C97.1284 1.04901 97.0261 1.50397 97.854 1.13069C97.5609 1.47471 98.3135 1.23993 98.2113 1.40735C98.2382 1.37842 98.3484 1.28859 98.4022 1.23074C98.9075 1.20455 99.8884 1.15522 100.141 1.2859C100.141 1.2859 99.6572 1.51898 99.1169 1.78405C98.5766 2.04912 97.9826 2.37204 97.7326 2.55477C98.4314 2.37783 97.9422 2.5592 97.8051 2.67795L97.7379 2.60649C97.3025 2.73001 97.3508 2.90798 97.1223 3.01006C97.1196 2.9842 97.1196 2.9842 97.117 2.95834L97.1492 2.98114C97.1761 2.95221 97.1439 2.92941 97.1116 2.90661C97.1063 2.85489 97.074 2.83209 96.9584 2.8702L96.9907 2.893C96.8106 2.88551 96.4881 2.94505 96.3725 2.98316L96.3886 3.13833C96.0339 2.88754 94.2786 3.82737 93.8352 3.8733C93.4105 4.10027 92.8515 3.89677 92.3005 4.05839C91.4458 4.17306 91.8812 4.33708 91.4484 4.48646C90.8947 4.62222 91.5479 4.29318 91.3383 4.28875L90.7093 4.56301C91.0963 4.54906 90.8974 4.64808 90.8168 4.73485C90.2577 4.81889 89.3654 5.14657 89.1854 4.85154C88.4301 5.06046 88.4435 5.18977 88.0887 5.22652C88.2016 5.16255 88.4032 5.08939 88.3979 5.03767C88.0861 5.20066 88.2447 5.00125 88.3603 4.96314C88.1157 4.91005 87.5083 5.10367 86.9546 5.23943C86.4009 5.37519 85.8768 5.5079 85.8285 5.32993L85.8338 5.38165C85.7184 5.13222 85.8716 4.8811 85.5599 4.75655L85.3341 4.88449L84.9955 4.78887C84.7671 4.89095 84.8934 4.95628 84.896 4.98215C84.3478 4.88209 83.6194 5.06209 82.969 5.12946L83.6412 4.40637C83.0928 4.59386 82.1144 4.95658 82.0016 4.73301L81.6683 4.97665C80.5824 5.45507 80.9051 4.82045 80.4724 4.96983L79.9321 5.2349L80.4696 5.2315C79.9159 5.36727 79.717 5.46629 79.2574 5.64459C79.2869 5.64152 79.3138 5.6126 79.3138 5.6126L79.2251 5.62179C79.1526 5.4986 78.8758 5.42272 78.4888 5.43666C77.9271 5.49484 77.5186 5.3019 76.6236 5.60371L76.4167 5.33761L75.7475 5.51148L75.7393 5.72144C76.3951 5.70579 77.5964 5.76434 78.4322 5.75619L78.443 5.85963C77.9646 5.8569 77.3895 5.78578 77.0643 5.81946C76.9191 5.86063 76.4944 6.08759 76.7766 6.2152L76.4864 6.01001C74.8416 5.99739 74.8416 5.99739 73.1349 6.25258L73.2747 6.15968C72.9388 6.08992 72.6056 6.04602 72.5034 6.21343C71.4606 6.24302 70.399 6.37912 69.7404 6.65644L69.5954 6.41007C69.3884 6.43151 69.0363 6.78165 68.9423 6.45158L68.4828 6.34234C68.1871 6.37296 68.0206 6.20724 67.6765 6.34743C67.6469 6.35049 67.6201 6.37942 67.6201 6.37942L67.6174 6.35355C66.9401 6.44984 67.6255 6.1436 66.8622 6.27494C66.6122 6.45766 66.5909 5.96323 66.2388 6.02584L65.857 6.37905C65.1609 6.58185 65.0643 6.22591 64.0779 6.22351C63.613 6.35009 63.3737 6.63626 63.6719 6.91904C63.2501 6.59679 63.4704 6.70466 62.9168 6.55289C62.812 6.69444 62.8738 6.71418 63.0054 6.83124C62.484 6.9898 62.6937 6.70669 62.3067 6.72064C62.2208 6.46815 62.0892 6.06355 61.9683 6.04993L62.1108 5.9829C61.7077 5.84168 61.2831 5.7811 60.8181 5.90768L60.8315 6.03699L60.3477 5.98253L60.3047 6.14383L59.6113 6.08495L59.6973 6.0499C59.5441 6.01349 58.9717 5.96822 58.6814 6.05056L58.6895 6.12815C57.7917 6.4041 57.0958 6.03182 56.0477 6.00969L56.1847 6.17847C55.8137 6.34759 56.0961 5.90012 55.6875 5.99471L55.6498 6.20773C55.2898 5.90521 55.1768 6.25672 54.9214 6.38773L55.0398 6.08794L54.5668 6.13693C54.04 6.24377 54.2468 6.50988 54.2925 6.66198L53.9405 6.43705L53.849 6.70791C53.6099 6.41901 53.5856 6.76133 53.1207 6.60037C53.0723 6.70994 53.1959 6.74942 53.0508 6.79059L52.2957 6.42444L52.7606 6.58539L52.7204 6.19747C52.2421 5.9072 52.0673 6.23898 51.7287 6.14335L51.9491 6.25123C51.4009 6.15117 51.3578 6.31247 51.038 6.39787C51.1509 6.3339 51.288 6.21515 51.0757 6.18486C50.9252 6.17431 50.9708 6.32641 50.8257 6.36758C50.7989 6.10897 50.3985 5.99361 50.0517 6.10794C50.0544 6.1338 50.0598 6.18552 50.092 6.20832C49.998 6.16578 49.9604 6.09126 49.7883 6.16136L49.8769 6.43971L49.5814 6.18279C49.3798 6.25595 49.0896 6.05075 49.111 6.25765L49.2373 6.32298L47.692 6.40463L47.6543 6.61764C47.5039 6.31955 46.8023 6.75817 46.8508 6.36106C46.5443 6.57577 45.7032 6.24466 45.867 6.67206C44.8565 6.72445 44.3057 6.311 43.0478 6.57197C42.6096 6.95717 41.4057 6.87276 40.6048 6.92957C39.0406 6.83018 38.0436 6.72434 36.423 6.65694C35.4634 7.2007 34.0231 6.56571 32.9802 6.88284L32.69 6.67764C32.01 7.03561 30.9566 6.67421 29.9755 7.01107C29.7283 6.93213 29.6074 6.91851 29.5455 6.89877C29.6047 6.89265 29.6584 6.8348 29.6773 6.7283C29.3897 6.8365 28.8415 6.73645 28.8978 6.992L28.9596 7.01174C29.016 7.26729 28.1131 6.91645 27.8093 7.15702L27.9895 6.87697L27.4573 6.93209L27.6105 6.9685C25.3424 6.41925 24.302 7.33732 22.1575 6.82754C22.4262 7.11338 21.7249 6.68938 21.6979 7.00584C21.1441 7.42914 20.7062 6.95172 20.2467 6.84248C20.244 6.81662 20.244 6.81662 20.2118 6.79382L19.4404 6.84758C19.9025 7.27021 18.8977 6.51171 19.3222 6.85982C17.2983 7.22628 14.6647 6.89786 12.3184 7.03632L12.4259 6.92063C11.8293 6.93015 11.0983 6.79674 10.636 6.94918C10.1737 7.10162 9.64979 6.65925 9.4993 6.6487C9.03173 6.46187 8.52904 6.80147 8.76823 6.80283C8.25226 6.72558 7.76325 6.33187 7.03219 6.486C6.90044 6.65648 6.41135 6.55031 5.92493 6.46999C5.4654 6.36075 5.03811 6.27432 4.99774 6.46147L4.99506 6.43561C4.03284 6.66596 3.20257 6.15076 2.1463 6.33858C2.1463 6.33858 2.14897 6.36445 2.18122 6.38725L0.278904 5.04208L1.01037 3.73779L2.88123 2.75985C3.66865 2.86126 4.4507 2.91096 5.20588 2.98957L6.38297 3.10291L7.5574 3.19038L9.45217 3.02027L11.3469 2.85015C14.4026 2.92574 17.4852 2.97241 20.5598 2.94149L21.2181 3.23925C23.0405 2.65842 25.3677 3.20154 27.3539 2.76057L27.4103 3.01612C27.9774 3.00966 27.9317 2.85756 28.0742 2.79052C33.2316 2.67457 38.5636 2.80192 43.2697 2.36677C43.7293 2.18847 45.0811 2.25757 45.4494 2.06259C46.2126 2.21879 46.9946 2.26849 47.774 2.29232C48.5534 2.31615 49.3301 2.31412 50.1041 2.28623L50.0423 2.26649L50.7626 2.29645C50.7894 2.26752 50.7868 2.24166 50.7841 2.2158C51.5849 2.44652 52.875 2.20835 53.8506 2.1073L53.7888 2.08756C59.5509 2.03967 64.8666 2.58693 70.567 2.23176C73.2117 1.80101 76.2592 2.37409 79.2613 1.93245C79.4038 1.86542 79.8768 1.81642 80.5299 1.77492C81.183 1.73341 82.0161 1.6994 82.852 1.69124C84.6392 1.63683 86.2813 1.62358 86.5554 1.67361Z" fill="#280206"/>
</svg>
