<svg width="1846" height="74" viewBox="0 0 1846 74" fill="none" xmlns="http://www.w3.org/2000/svg">
<path d="M1248.7 37.6484C1248.38 37.3229 1248.05 37.0234 1247.7 36.75C1247.35 36.4635 1247 36.1836 1246.65 35.9102C1246.31 35.6237 1245.98 35.3307 1245.65 35.0312C1245.32 34.7188 1245.03 34.3802 1244.75 34.0156C1244.47 33.638 1244.24 33.2279 1244.07 32.7852C1243.91 32.3294 1243.89 31.8607 1243.99 31.3789C1244.09 30.8581 1244.35 30.4023 1244.75 30.0117C1245.16 29.6211 1245.59 29.3151 1246.06 29.0938C1246.57 28.8724 1247.08 28.7227 1247.6 28.6445C1248.12 28.5534 1248.65 28.5013 1249.19 28.4883C1249.72 28.4622 1250.25 28.4622 1250.79 28.4883C1251.33 28.5013 1251.87 28.4948 1252.41 28.4688C1252.66 28.4557 1252.84 28.5273 1252.95 28.6836C1253.08 28.8398 1253.15 29.0156 1253.15 29.2109C1253.15 29.4062 1253.08 29.5885 1252.95 29.7578C1252.84 29.9141 1252.66 29.9987 1252.41 30.0117C1252.03 30.0378 1251.65 30.0508 1251.28 30.0508C1250.91 30.0378 1250.54 30.0247 1250.16 30.0117C1249.65 29.9987 1249.14 30.0052 1248.62 30.0312C1248.11 30.0573 1247.61 30.1615 1247.11 30.3438C1246.95 30.4089 1246.76 30.4935 1246.57 30.5977C1246.37 30.6888 1246.19 30.806 1246.02 30.9492C1245.86 31.0924 1245.73 31.2487 1245.63 31.418C1245.53 31.5872 1245.48 31.7695 1245.49 31.9648C1245.51 32.1471 1245.55 32.3294 1245.63 32.5117C1245.71 32.681 1245.81 32.8503 1245.92 33.0195C1246.05 33.1888 1246.19 33.3516 1246.33 33.5078C1246.48 33.6641 1246.61 33.8073 1246.74 33.9375C1247.04 34.237 1247.36 34.5104 1247.68 34.7578C1248.01 35.0052 1248.33 35.2591 1248.66 35.5195C1249 35.793 1249.33 36.099 1249.67 36.4375C1250.03 36.763 1250.32 37.1211 1250.57 37.5117C1250.83 37.8893 1251.02 38.293 1251.14 38.7227C1251.27 39.1523 1251.29 39.6081 1251.2 40.0898C1251.11 40.5456 1250.93 40.9362 1250.67 41.2617C1250.42 41.5742 1250.12 41.8607 1249.77 42.1211C1249.43 42.3685 1249.07 42.5964 1248.68 42.8047C1248.3 43 1247.94 43.2018 1247.58 43.4102C1247.36 43.5404 1247.15 43.5664 1246.96 43.4883C1246.78 43.4102 1246.63 43.2865 1246.53 43.1172C1246.44 42.9479 1246.4 42.7656 1246.41 42.5703C1246.44 42.362 1246.56 42.1927 1246.78 42.0625C1247.1 41.8802 1247.41 41.7109 1247.72 41.5547C1248.03 41.3984 1248.34 41.2227 1248.64 41.0273C1248.92 40.8451 1249.17 40.6302 1249.38 40.3828C1249.6 40.1224 1249.71 39.8229 1249.71 39.4844C1249.7 39.1458 1249.59 38.8203 1249.38 38.5078C1249.19 38.1953 1248.96 37.9089 1248.7 37.6484ZM1256.12 35.4219C1256.36 35.0833 1256.66 34.7839 1257 34.5234C1257.35 34.263 1257.72 34.0612 1258.11 33.918C1258.5 33.7617 1258.9 33.6836 1259.32 33.6836C1259.74 33.6706 1260.15 33.7487 1260.57 33.918C1260.97 34.0742 1261.34 34.2891 1261.66 34.5625C1261.99 34.8229 1262.24 35.1615 1262.43 35.5781C1262.57 35.8906 1262.65 36.2292 1262.68 36.5938C1262.7 36.9583 1262.61 37.2904 1262.39 37.5898C1262.19 37.8633 1261.95 38.0716 1261.66 38.2148C1261.39 38.3581 1261.09 38.4622 1260.76 38.5273C1260.45 38.5924 1260.13 38.625 1259.79 38.625C1259.46 38.625 1259.15 38.6185 1258.85 38.6055C1258.51 38.5924 1258.17 38.5664 1257.84 38.5273C1257.51 38.4883 1257.18 38.4492 1256.84 38.4102C1256.94 38.9961 1257.15 39.5169 1257.46 39.9727C1257.78 40.4284 1258.2 40.7734 1258.73 41.0078C1258.88 41.0599 1258.99 41.099 1259.07 41.125C1259.1 41.138 1259.14 41.151 1259.16 41.1641C1259.2 41.1641 1259.24 41.1641 1259.28 41.1641C1259.38 41.1771 1259.47 41.1901 1259.53 41.2031C1259.61 41.2031 1259.68 41.1966 1259.75 41.1836C1259.84 41.1706 1259.9 41.1641 1259.93 41.1641C1259.96 41.151 1260 41.138 1260.04 41.125C1260.19 41.0859 1260.31 41.0404 1260.41 40.9883C1260.53 40.9362 1260.67 40.8516 1260.82 40.7344C1260.9 40.6693 1261.01 40.5716 1261.14 40.4414C1261.27 40.3112 1261.38 40.194 1261.47 40.0898C1261.6 39.9076 1261.75 39.7839 1261.94 39.7188C1262.13 39.6536 1262.33 39.6797 1262.52 39.7969C1262.69 39.901 1262.81 40.0638 1262.87 40.2852C1262.95 40.4935 1262.93 40.6888 1262.8 40.8711C1262.42 41.3789 1261.97 41.8151 1261.45 42.1797C1260.94 42.5312 1260.35 42.7201 1259.69 42.7461C1259.16 42.7721 1258.64 42.681 1258.15 42.4727C1257.65 42.2513 1257.22 41.9583 1256.84 41.5938C1256.37 41.138 1256 40.6107 1255.73 40.0117C1255.45 39.4128 1255.3 38.8008 1255.28 38.1758C1255.16 38.0846 1255.07 37.974 1255 37.8438C1254.95 37.7005 1254.93 37.5573 1254.94 37.4141C1254.97 37.2708 1255.02 37.1406 1255.1 37.0234C1255.18 36.8932 1255.3 36.8086 1255.45 36.7695C1255.6 36.2878 1255.82 35.8385 1256.12 35.4219ZM1260.8 35.8906C1260.66 35.7083 1260.44 35.5456 1260.14 35.4023C1259.89 35.2982 1259.6 35.2461 1259.26 35.2461C1258.94 35.2461 1258.66 35.3047 1258.42 35.4219C1258.12 35.5651 1257.85 35.7669 1257.62 36.0273C1257.39 36.2747 1257.2 36.5547 1257.05 36.8672C1257.37 36.9062 1257.68 36.9453 1257.99 36.9844C1258.3 37.0234 1258.62 37.0495 1258.93 37.0625C1259.1 37.0625 1259.27 37.0625 1259.44 37.0625C1259.61 37.0625 1259.78 37.056 1259.94 37.043C1260 37.043 1260.04 37.043 1260.08 37.043C1260.13 37.0299 1260.19 37.0234 1260.24 37.0234C1260.35 36.9974 1260.44 36.9844 1260.49 36.9844C1260.56 36.9714 1260.62 36.9518 1260.69 36.9258C1260.74 36.9128 1260.8 36.8932 1260.88 36.8672C1260.95 36.8411 1260.99 36.8216 1261 36.8086C1261.01 36.7956 1261.03 36.7826 1261.06 36.7695L1261.12 36.5352C1261.09 36.4831 1261.07 36.4375 1261.06 36.3984C1261.06 36.3464 1261.04 36.3008 1261.02 36.2617C1261.01 36.2227 1260.97 36.1641 1260.92 36.0859C1260.88 36.0078 1260.84 35.9427 1260.8 35.8906ZM1272.31 41.4766C1272.36 41.6589 1272.33 41.8542 1272.23 42.0625C1272.12 42.2708 1271.97 42.3945 1271.76 42.4336C1271.06 42.5508 1270.36 42.5443 1269.67 42.4141C1268.98 42.2708 1268.34 41.9714 1267.75 41.5156C1267.18 41.0599 1266.77 40.4805 1266.52 39.7773C1266.29 39.0612 1266.25 38.3451 1266.41 37.6289C1266.55 36.9909 1266.85 36.4375 1267.31 35.9688C1267.76 35.5 1268.28 35.1354 1268.87 34.875C1269.39 34.6276 1269.94 34.4323 1270.51 34.2891C1271.08 34.1458 1271.65 34.1003 1272.23 34.1523C1272.45 34.1784 1272.63 34.263 1272.77 34.4062C1272.93 34.5365 1273.01 34.7122 1273.01 34.9336C1273.01 35.1289 1272.93 35.3112 1272.77 35.4805C1272.63 35.6497 1272.45 35.7279 1272.23 35.7148C1271.81 35.6758 1271.4 35.6953 1271 35.7734C1270.59 35.8516 1270.2 35.9753 1269.83 36.1445C1269.6 36.2487 1269.38 36.3594 1269.16 36.4766C1268.95 36.5938 1268.77 36.724 1268.61 36.8672C1268.44 37.0234 1268.3 37.1797 1268.18 37.3359C1268.08 37.4922 1268 37.6745 1267.95 37.8828C1267.9 38.0911 1267.88 38.3125 1267.89 38.5469C1267.9 38.7812 1267.94 39.0156 1268.01 39.25C1268.09 39.4714 1268.19 39.6797 1268.32 39.875C1268.45 40.0573 1268.61 40.2135 1268.79 40.3438C1269.17 40.6172 1269.58 40.806 1270.02 40.9102C1270.48 41.0013 1270.92 41.0078 1271.35 40.9297C1271.56 40.8906 1271.75 40.9167 1271.93 41.0078C1272.12 41.099 1272.24 41.2552 1272.31 41.4766ZM1276.76 35.0508C1276.77 34.8034 1276.86 34.6211 1277.03 34.5039C1277.2 34.3737 1277.38 34.3086 1277.58 34.3086C1277.77 34.3086 1277.94 34.3737 1278.08 34.5039C1278.24 34.6211 1278.31 34.8034 1278.3 35.0508C1278.3 35.1289 1278.29 35.2135 1278.28 35.3047C1278.28 35.3828 1278.28 35.4609 1278.28 35.5391C1278.7 35.3307 1279.13 35.1549 1279.59 35.0117C1280.06 34.8555 1280.52 34.7578 1280.98 34.7188C1281.44 34.6797 1281.89 34.7188 1282.32 34.8359C1282.77 34.9401 1283.17 35.1484 1283.53 35.4609C1283.72 35.6302 1283.79 35.8125 1283.77 36.0078C1283.75 36.2031 1283.68 36.3724 1283.53 36.5156C1283.4 36.6458 1283.23 36.7305 1283.03 36.7695C1282.82 36.7956 1282.62 36.7305 1282.42 36.5742C1282.28 36.457 1282.11 36.3724 1281.93 36.3203C1281.76 36.2682 1281.57 36.2487 1281.37 36.2617C1281.17 36.2617 1280.97 36.2812 1280.76 36.3203C1280.56 36.3594 1280.38 36.4049 1280.19 36.457C1279.5 36.6784 1278.86 36.9714 1278.26 37.3359C1278.29 37.974 1278.33 38.612 1278.38 39.25C1278.43 39.7839 1278.48 40.3372 1278.51 40.9102C1278.55 41.4701 1278.66 42.0039 1278.85 42.5117C1278.92 42.7461 1278.9 42.9414 1278.79 43.0977C1278.68 43.2669 1278.53 43.3776 1278.34 43.4297C1278.16 43.4818 1277.96 43.4688 1277.75 43.3906C1277.56 43.3125 1277.42 43.1562 1277.34 42.9219C1277.24 42.6224 1277.17 42.3164 1277.13 42.0039C1277.09 41.6914 1277.05 41.3789 1277.01 41.0664C1276.98 40.7669 1276.95 40.4674 1276.91 40.168C1276.89 39.8555 1276.86 39.5495 1276.83 39.25C1276.77 38.5469 1276.72 37.8503 1276.7 37.1602C1276.68 36.457 1276.7 35.7539 1276.76 35.0508ZM1287.65 35.4219C1287.9 35.0833 1288.19 34.7839 1288.53 34.5234C1288.88 34.263 1289.25 34.0612 1289.64 33.918C1290.04 33.7617 1290.44 33.6836 1290.86 33.6836C1291.27 33.6706 1291.69 33.7487 1292.11 33.918C1292.51 34.0742 1292.87 34.2891 1293.2 34.5625C1293.52 34.8229 1293.78 35.1615 1293.96 35.5781C1294.1 35.8906 1294.19 36.2292 1294.21 36.5938C1294.24 36.9583 1294.14 37.2904 1293.92 37.5898C1293.73 37.8633 1293.49 38.0716 1293.2 38.2148C1292.93 38.3581 1292.63 38.4622 1292.3 38.5273C1291.99 38.5924 1291.66 38.625 1291.32 38.625C1291 38.625 1290.69 38.6185 1290.39 38.6055C1290.05 38.5924 1289.71 38.5664 1289.37 38.5273C1289.05 38.4883 1288.71 38.4492 1288.38 38.4102C1288.48 38.9961 1288.69 39.5169 1289 39.9727C1289.31 40.4284 1289.74 40.7734 1290.27 41.0078C1290.41 41.0599 1290.52 41.099 1290.6 41.125C1290.64 41.138 1290.67 41.151 1290.7 41.1641C1290.74 41.1641 1290.78 41.1641 1290.82 41.1641C1290.92 41.1771 1291.01 41.1901 1291.07 41.2031C1291.15 41.2031 1291.22 41.1966 1291.29 41.1836C1291.38 41.1706 1291.43 41.1641 1291.46 41.1641C1291.5 41.151 1291.54 41.138 1291.58 41.125C1291.72 41.0859 1291.85 41.0404 1291.95 40.9883C1292.07 40.9362 1292.2 40.8516 1292.36 40.7344C1292.44 40.6693 1292.54 40.5716 1292.67 40.4414C1292.8 40.3112 1292.91 40.194 1293 40.0898C1293.13 39.9076 1293.29 39.7839 1293.47 39.7188C1293.67 39.6536 1293.86 39.6797 1294.06 39.7969C1294.23 39.901 1294.35 40.0638 1294.41 40.2852C1294.49 40.4935 1294.46 40.6888 1294.33 40.8711C1293.95 41.3789 1293.51 41.8151 1292.98 42.1797C1292.48 42.5312 1291.89 42.7201 1291.23 42.7461C1290.69 42.7721 1290.18 42.681 1289.68 42.4727C1289.19 42.2513 1288.75 41.9583 1288.38 41.5938C1287.91 41.138 1287.54 40.6107 1287.26 40.0117C1286.99 39.4128 1286.84 38.8008 1286.81 38.1758C1286.7 38.0846 1286.6 37.974 1286.54 37.8438C1286.49 37.7005 1286.47 37.5573 1286.48 37.4141C1286.51 37.2708 1286.56 37.1406 1286.64 37.0234C1286.71 36.8932 1286.83 36.8086 1286.99 36.7695C1287.13 36.2878 1287.35 35.8385 1287.65 35.4219ZM1292.34 35.8906C1292.2 35.7083 1291.98 35.5456 1291.68 35.4023C1291.43 35.2982 1291.14 35.2461 1290.8 35.2461C1290.47 35.2461 1290.19 35.3047 1289.96 35.4219C1289.66 35.5651 1289.39 35.7669 1289.16 36.0273C1288.92 36.2747 1288.73 36.5547 1288.59 36.8672C1288.9 36.9062 1289.21 36.9453 1289.53 36.9844C1289.84 37.0234 1290.15 37.0495 1290.46 37.0625C1290.63 37.0625 1290.8 37.0625 1290.97 37.0625C1291.14 37.0625 1291.31 37.056 1291.48 37.043C1291.53 37.043 1291.58 37.043 1291.62 37.043C1291.67 37.0299 1291.72 37.0234 1291.77 37.0234C1291.89 36.9974 1291.98 36.9844 1292.03 36.9844C1292.09 36.9714 1292.16 36.9518 1292.22 36.9258C1292.27 36.9128 1292.34 36.8932 1292.42 36.8672C1292.48 36.8411 1292.52 36.8216 1292.54 36.8086C1292.55 36.7956 1292.57 36.7826 1292.59 36.7695L1292.65 36.5352C1292.63 36.4831 1292.61 36.4375 1292.59 36.3984C1292.59 36.3464 1292.58 36.3008 1292.55 36.2617C1292.54 36.2227 1292.51 36.1641 1292.46 36.0859C1292.42 36.0078 1292.38 35.9427 1292.34 35.8906ZM1304.17 36.1836C1304.42 36.1836 1304.6 36.2617 1304.72 36.418C1304.85 36.5742 1304.92 36.75 1304.92 36.9453C1304.92 37.1406 1304.85 37.3229 1304.72 37.4922C1304.6 37.6484 1304.42 37.7266 1304.17 37.7266C1303.86 37.7396 1303.55 37.7396 1303.24 37.7266C1302.94 37.7005 1302.64 37.6745 1302.34 37.6484C1302.35 38.6771 1302.33 39.7057 1302.28 40.7344C1302.24 41.763 1302.14 42.7852 1301.97 43.8008C1301.94 44.0221 1301.82 44.1849 1301.61 44.2891C1301.41 44.3932 1301.2 44.4128 1301.01 44.3477C1300.79 44.2826 1300.63 44.1589 1300.54 43.9766C1300.46 43.8073 1300.44 43.612 1300.48 43.3906C1300.64 42.401 1300.72 41.4115 1300.74 40.4219C1300.76 39.4323 1300.76 38.4362 1300.74 37.4336C1300.24 37.3555 1299.74 37.2773 1299.23 37.1992C1298.72 37.1081 1298.22 37.0299 1297.73 36.9648C1297.51 36.9388 1297.35 36.8216 1297.26 36.6133C1297.16 36.3919 1297.13 36.1901 1297.18 36.0078C1297.25 35.7865 1297.37 35.6367 1297.55 35.5586C1297.73 35.4674 1297.93 35.4349 1298.14 35.4609C1298.57 35.526 1299 35.5977 1299.43 35.6758C1299.86 35.7409 1300.29 35.806 1300.74 35.8711C1300.72 35.806 1300.72 35.7083 1300.72 35.5781C1300.72 34.4062 1300.71 33.2474 1300.7 32.1016C1300.7 30.9557 1300.76 29.7969 1300.87 28.625C1300.9 28.4167 1300.98 28.2344 1301.11 28.0781C1301.25 27.9219 1301.43 27.8438 1301.65 27.8438C1301.85 27.8438 1302.03 27.9219 1302.2 28.0781C1302.38 28.2344 1302.46 28.4167 1302.44 28.625C1302.3 29.875 1302.24 31.1185 1302.24 32.3555C1302.25 33.5794 1302.27 34.8229 1302.3 36.0859C1302.61 36.112 1302.92 36.138 1303.24 36.1641C1303.55 36.1771 1303.86 36.1836 1304.17 36.1836ZM1320.79 37.6484C1320.48 37.3229 1320.15 37.0234 1319.79 36.75C1319.44 36.4635 1319.09 36.1836 1318.74 35.9102C1318.4 35.6237 1318.07 35.3307 1317.74 35.0312C1317.42 34.7188 1317.12 34.3802 1316.84 34.0156C1316.56 33.638 1316.33 33.2279 1316.16 32.7852C1316 32.3294 1315.98 31.8607 1316.08 31.3789C1316.19 30.8581 1316.44 30.4023 1316.84 30.0117C1317.25 29.6211 1317.68 29.3151 1318.15 29.0938C1318.66 28.8724 1319.18 28.7227 1319.7 28.6445C1320.22 28.5534 1320.74 28.5013 1321.28 28.4883C1321.81 28.4622 1322.35 28.4622 1322.88 28.4883C1323.43 28.5013 1323.97 28.4948 1324.5 28.4688C1324.75 28.4557 1324.93 28.5273 1325.05 28.6836C1325.18 28.8398 1325.24 29.0156 1325.24 29.2109C1325.24 29.4062 1325.18 29.5885 1325.05 29.7578C1324.93 29.9141 1324.75 29.9987 1324.5 30.0117C1324.12 30.0378 1323.75 30.0508 1323.37 30.0508C1323 30.0378 1322.63 30.0247 1322.25 30.0117C1321.75 29.9987 1321.23 30.0052 1320.71 30.0312C1320.2 30.0573 1319.7 30.1615 1319.21 30.3438C1319.04 30.4089 1318.86 30.4935 1318.66 30.5977C1318.47 30.6888 1318.28 30.806 1318.11 30.9492C1317.96 31.0924 1317.83 31.2487 1317.72 31.418C1317.62 31.5872 1317.57 31.7695 1317.59 31.9648C1317.6 32.1471 1317.65 32.3294 1317.72 32.5117C1317.8 32.681 1317.9 32.8503 1318.02 33.0195C1318.15 33.1888 1318.28 33.3516 1318.43 33.5078C1318.57 33.6641 1318.71 33.8073 1318.84 33.9375C1319.14 34.237 1319.45 34.5104 1319.77 34.7578C1320.1 35.0052 1320.43 35.2591 1320.75 35.5195C1321.09 35.793 1321.43 36.099 1321.77 36.4375C1322.12 36.763 1322.42 37.1211 1322.66 37.5117C1322.93 37.8893 1323.11 38.293 1323.23 38.7227C1323.36 39.1523 1323.38 39.6081 1323.29 40.0898C1323.2 40.5456 1323.02 40.9362 1322.76 41.2617C1322.52 41.5742 1322.22 41.8607 1321.86 42.1211C1321.53 42.3685 1321.16 42.5964 1320.77 42.8047C1320.39 43 1320.03 43.2018 1319.68 43.4102C1319.46 43.5404 1319.25 43.5664 1319.05 43.4883C1318.87 43.4102 1318.73 43.2865 1318.62 43.1172C1318.53 42.9479 1318.49 42.7656 1318.5 42.5703C1318.53 42.362 1318.65 42.1927 1318.88 42.0625C1319.19 41.8802 1319.5 41.7109 1319.81 41.5547C1320.13 41.3984 1320.43 41.2227 1320.73 41.0273C1321.02 40.8451 1321.27 40.6302 1321.47 40.3828C1321.69 40.1224 1321.81 39.8229 1321.81 39.4844C1321.79 39.1458 1321.68 38.8203 1321.47 38.5078C1321.28 38.1953 1321.05 37.9089 1320.79 37.6484ZM1328.21 35.4219C1328.46 35.0833 1328.75 34.7839 1329.09 34.5234C1329.44 34.263 1329.81 34.0612 1330.2 33.918C1330.59 33.7617 1331 33.6836 1331.41 33.6836C1331.83 33.6706 1332.25 33.7487 1332.66 33.918C1333.07 34.0742 1333.43 34.2891 1333.76 34.5625C1334.08 34.8229 1334.34 35.1615 1334.52 35.5781C1334.66 35.8906 1334.75 36.2292 1334.77 36.5938C1334.8 36.9583 1334.7 37.2904 1334.48 37.5898C1334.28 37.8633 1334.04 38.0716 1333.76 38.2148C1333.48 38.3581 1333.18 38.4622 1332.86 38.5273C1332.55 38.5924 1332.22 38.625 1331.88 38.625C1331.56 38.625 1331.24 38.6185 1330.94 38.6055C1330.61 38.5924 1330.27 38.5664 1329.93 38.5273C1329.6 38.4883 1329.27 38.4492 1328.93 38.4102C1329.04 38.9961 1329.24 39.5169 1329.56 39.9727C1329.87 40.4284 1330.29 40.7734 1330.83 41.0078C1330.97 41.0599 1331.08 41.099 1331.16 41.125C1331.2 41.138 1331.23 41.151 1331.26 41.1641C1331.3 41.1641 1331.33 41.1641 1331.37 41.1641C1331.48 41.1771 1331.56 41.1901 1331.63 41.2031C1331.71 41.2031 1331.78 41.1966 1331.84 41.1836C1331.93 41.1706 1331.99 41.1641 1332.02 41.1641C1332.06 41.151 1332.1 41.138 1332.14 41.125C1332.28 41.0859 1332.4 41.0404 1332.51 40.9883C1332.62 40.9362 1332.76 40.8516 1332.92 40.7344C1332.99 40.6693 1333.1 40.5716 1333.23 40.4414C1333.36 40.3112 1333.47 40.194 1333.56 40.0898C1333.69 39.9076 1333.85 39.7839 1334.03 39.7188C1334.22 39.6536 1334.42 39.6797 1334.62 39.7969C1334.78 39.901 1334.9 40.0638 1334.97 40.2852C1335.05 40.4935 1335.02 40.6888 1334.89 40.8711C1334.51 41.3789 1334.06 41.8151 1333.54 42.1797C1333.03 42.5312 1332.45 42.7201 1331.78 42.7461C1331.25 42.7721 1330.74 42.681 1330.24 42.4727C1329.75 42.2513 1329.31 41.9583 1328.93 41.5938C1328.46 41.138 1328.09 40.6107 1327.82 40.0117C1327.55 39.4128 1327.4 38.8008 1327.37 38.1758C1327.25 38.0846 1327.16 37.974 1327.1 37.8438C1327.04 37.7005 1327.02 37.5573 1327.04 37.4141C1327.06 37.2708 1327.12 37.1406 1327.19 37.0234C1327.27 36.8932 1327.39 36.8086 1327.55 36.7695C1327.69 36.2878 1327.91 35.8385 1328.21 35.4219ZM1332.9 35.8906C1332.75 35.7083 1332.53 35.5456 1332.23 35.4023C1331.99 35.2982 1331.69 35.2461 1331.35 35.2461C1331.03 35.2461 1330.75 35.3047 1330.51 35.4219C1330.21 35.5651 1329.95 35.7669 1329.71 36.0273C1329.48 36.2747 1329.29 36.5547 1329.15 36.8672C1329.46 36.9062 1329.77 36.9453 1330.08 36.9844C1330.4 37.0234 1330.71 37.0495 1331.02 37.0625C1331.19 37.0625 1331.36 37.0625 1331.53 37.0625C1331.7 37.0625 1331.87 37.056 1332.04 37.043C1332.09 37.043 1332.14 37.043 1332.17 37.043C1332.23 37.0299 1332.28 37.0234 1332.33 37.0234C1332.45 36.9974 1332.53 36.9844 1332.58 36.9844C1332.65 36.9714 1332.71 36.9518 1332.78 36.9258C1332.83 36.9128 1332.9 36.8932 1332.97 36.8672C1333.04 36.8411 1333.08 36.8216 1333.09 36.8086C1333.11 36.7956 1333.12 36.7826 1333.15 36.7695L1333.21 36.5352C1333.18 36.4831 1333.16 36.4375 1333.15 36.3984C1333.15 36.3464 1333.14 36.3008 1333.11 36.2617C1333.1 36.2227 1333.07 36.1641 1333.01 36.0859C1332.97 36.0078 1332.94 35.9427 1332.9 35.8906ZM1344.4 41.4766C1344.45 41.6589 1344.42 41.8542 1344.32 42.0625C1344.22 42.2708 1344.06 42.3945 1343.85 42.4336C1343.15 42.5508 1342.45 42.5443 1341.76 42.4141C1341.07 42.2708 1340.43 41.9714 1339.85 41.5156C1339.27 41.0599 1338.86 40.4805 1338.62 39.7773C1338.38 39.0612 1338.34 38.3451 1338.5 37.6289C1338.64 36.9909 1338.94 36.4375 1339.4 35.9688C1339.85 35.5 1340.38 35.1354 1340.96 34.875C1341.48 34.6276 1342.03 34.4323 1342.6 34.2891C1343.17 34.1458 1343.75 34.1003 1344.32 34.1523C1344.54 34.1784 1344.72 34.263 1344.87 34.4062C1345.02 34.5365 1345.1 34.7122 1345.1 34.9336C1345.1 35.1289 1345.02 35.3112 1344.87 35.4805C1344.72 35.6497 1344.54 35.7279 1344.32 35.7148C1343.9 35.6758 1343.49 35.6953 1343.09 35.7734C1342.69 35.8516 1342.3 35.9753 1341.92 36.1445C1341.7 36.2487 1341.48 36.3594 1341.25 36.4766C1341.05 36.5938 1340.86 36.724 1340.71 36.8672C1340.54 37.0234 1340.39 37.1797 1340.28 37.3359C1340.17 37.4922 1340.1 37.6745 1340.04 37.8828C1339.99 38.0911 1339.97 38.3125 1339.98 38.5469C1340 38.7812 1340.04 39.0156 1340.1 39.25C1340.18 39.4714 1340.28 39.6797 1340.41 39.875C1340.54 40.0573 1340.7 40.2135 1340.88 40.3438C1341.26 40.6172 1341.67 40.806 1342.11 40.9102C1342.57 41.0013 1343.01 41.0078 1343.44 40.9297C1343.65 40.8906 1343.85 40.9167 1344.03 41.0078C1344.21 41.099 1344.33 41.2552 1344.4 41.4766ZM1354.51 36.1836C1354.76 36.1836 1354.94 36.2617 1355.06 36.418C1355.19 36.5742 1355.26 36.75 1355.26 36.9453C1355.26 37.1406 1355.19 37.3229 1355.06 37.4922C1354.94 37.6484 1354.76 37.7266 1354.51 37.7266C1354.2 37.7396 1353.89 37.7396 1353.58 37.7266C1353.28 37.7005 1352.98 37.6745 1352.68 37.6484C1352.69 38.6771 1352.67 39.7057 1352.62 40.7344C1352.58 41.763 1352.48 42.7852 1352.31 43.8008C1352.28 44.0221 1352.16 44.1849 1351.95 44.2891C1351.75 44.3932 1351.54 44.4128 1351.35 44.3477C1351.13 44.2826 1350.97 44.1589 1350.88 43.9766C1350.8 43.8073 1350.78 43.612 1350.82 43.3906C1350.98 42.401 1351.06 41.4115 1351.08 40.4219C1351.1 39.4323 1351.1 38.4362 1351.08 37.4336C1350.58 37.3555 1350.08 37.2773 1349.57 37.1992C1349.06 37.1081 1348.56 37.0299 1348.07 36.9648C1347.85 36.9388 1347.69 36.8216 1347.6 36.6133C1347.5 36.3919 1347.47 36.1901 1347.52 36.0078C1347.59 35.7865 1347.71 35.6367 1347.89 35.5586C1348.07 35.4674 1348.27 35.4349 1348.48 35.4609C1348.91 35.526 1349.34 35.5977 1349.77 35.6758C1350.2 35.7409 1350.63 35.806 1351.08 35.8711C1351.06 35.806 1351.06 35.7083 1351.06 35.5781C1351.06 34.4062 1351.05 33.2474 1351.04 32.1016C1351.04 30.9557 1351.1 29.7969 1351.21 28.625C1351.24 28.4167 1351.32 28.2344 1351.45 28.0781C1351.59 27.9219 1351.77 27.8438 1351.99 27.8438C1352.19 27.8438 1352.37 27.9219 1352.54 28.0781C1352.72 28.2344 1352.8 28.4167 1352.78 28.625C1352.64 29.875 1352.58 31.1185 1352.58 32.3555C1352.59 33.5794 1352.61 34.8229 1352.64 36.0859C1352.95 36.112 1353.26 36.138 1353.58 36.1641C1353.89 36.1771 1354.2 36.1836 1354.51 36.1836ZM1358.79 42.8047C1358.89 42.1797 1359.01 41.5677 1359.14 40.9688C1359.28 40.3568 1359.39 39.7383 1359.45 39.1133C1359.5 38.5013 1359.51 37.9023 1359.47 37.3164C1359.45 36.7174 1359.48 36.112 1359.59 35.5C1359.62 35.2917 1359.73 35.1354 1359.94 35.0312C1360.16 34.9271 1360.36 34.901 1360.55 34.9531C1360.77 35.0182 1360.92 35.1419 1361 35.3242C1361.09 35.5065 1361.12 35.7018 1361.09 35.9102C1361.04 36.2096 1361.01 36.5156 1361.01 36.8281C1361.03 37.1406 1361.04 37.4531 1361.05 37.7656C1361.05 38.3646 1361.01 38.9635 1360.94 39.5625C1360.86 40.1875 1360.75 40.7995 1360.62 41.3984C1360.51 41.9974 1360.4 42.6029 1360.29 43.2148C1360.25 43.4232 1360.13 43.5794 1359.92 43.6836C1359.71 43.7878 1359.52 43.8138 1359.34 43.7617C1359.11 43.6966 1358.96 43.5729 1358.87 43.3906C1358.78 43.2083 1358.75 43.013 1358.79 42.8047ZM1359.73 33.8203C1359.63 33.7943 1359.54 33.7552 1359.45 33.7031C1359.36 33.638 1359.3 33.5599 1359.26 33.4688C1359.22 33.3646 1359.19 33.2734 1359.16 33.1953C1359.13 33.1172 1359.12 33.026 1359.12 32.9219C1359.12 32.8047 1359.14 32.6875 1359.18 32.5703C1359.23 32.3359 1359.34 32.1667 1359.49 32.0625C1359.54 31.9844 1359.62 31.9258 1359.71 31.8867C1359.85 31.7956 1360.01 31.75 1360.19 31.75C1360.38 31.737 1360.54 31.7826 1360.68 31.8867C1360.75 31.9388 1360.81 31.9974 1360.88 32.0625C1360.94 32.1146 1361 32.1862 1361.03 32.2773C1361.06 32.3424 1361.09 32.4141 1361.11 32.4922C1361.15 32.5703 1361.16 32.6484 1361.15 32.7266C1361.14 32.8177 1361.13 32.9023 1361.11 32.9805C1361.1 33.0586 1361.07 33.1302 1361.01 33.1953C1360.95 33.2865 1360.9 33.3516 1360.86 33.3906C1360.82 33.4297 1360.75 33.4818 1360.66 33.5469C1360.61 33.599 1360.53 33.638 1360.43 33.6641C1360.16 33.8203 1359.92 33.8724 1359.73 33.8203ZM1370.41 33.9961C1370.82 33.944 1371.26 33.931 1371.72 33.957C1372.17 33.9701 1372.61 34.0482 1373.02 34.1914C1373.44 34.3216 1373.82 34.5234 1374.16 34.7969C1374.5 35.0703 1374.76 35.4284 1374.94 35.8711C1375.07 36.1836 1375.13 36.5026 1375.13 36.8281C1375.15 37.1406 1375.1 37.4466 1375 37.7461C1374.91 38.0326 1374.76 38.3125 1374.57 38.5859C1374.38 38.8464 1374.17 39.0872 1373.92 39.3086C1373.39 39.7904 1372.8 40.2005 1372.16 40.5391C1371.53 40.8776 1370.86 41.138 1370.15 41.3203C1369.85 41.3984 1369.54 41.4701 1369.22 41.5352C1368.9 41.5872 1368.58 41.6133 1368.26 41.6133C1367.93 41.6133 1367.61 41.5807 1367.3 41.5156C1366.99 41.4375 1366.7 41.3138 1366.42 41.1445C1366.23 41.0273 1366.11 40.8711 1366.07 40.6758C1365.99 40.4544 1365.91 40.2461 1365.82 40.0508C1365.73 39.8555 1365.63 39.6536 1365.54 39.4453C1365.47 39.237 1365.4 39.0286 1365.35 38.8203C1365.3 38.612 1365.27 38.3971 1365.27 38.1758C1365.27 37.7331 1365.36 37.3164 1365.54 36.9258C1365.74 36.5221 1366 36.1706 1366.33 35.8711C1366.87 35.3503 1367.5 34.9336 1368.22 34.6211C1368.94 34.3086 1369.66 34.1003 1370.41 33.9961ZM1372.61 35.6758C1372.26 35.5456 1371.88 35.4805 1371.48 35.4805C1371.05 35.4674 1370.62 35.513 1370.19 35.6172C1369.76 35.7083 1369.35 35.8385 1368.96 36.0078C1368.6 36.151 1368.22 36.3529 1367.83 36.6133C1367.45 36.8607 1367.17 37.1667 1366.99 37.5312C1366.88 37.7266 1366.83 37.9284 1366.83 38.1367C1366.85 38.332 1366.88 38.5339 1366.93 38.7422C1367 38.9375 1367.07 39.1393 1367.16 39.3477C1367.27 39.543 1367.36 39.7383 1367.44 39.9336C1367.65 39.9857 1367.78 40.0117 1367.83 40.0117C1367.85 40.0247 1367.89 40.0312 1367.93 40.0312C1367.97 40.0312 1368 40.0312 1368.02 40.0312C1368.28 40.0573 1368.52 40.0508 1368.73 40.0117C1368.87 40.0117 1369.05 39.9857 1369.27 39.9336C1369.61 39.8685 1369.94 39.7839 1370.25 39.6797C1370.56 39.5625 1370.85 39.4388 1371.11 39.3086C1371.41 39.1654 1371.7 39.0091 1371.99 38.8398C1372.28 38.6706 1372.52 38.4948 1372.71 38.3125C1372.84 38.1953 1372.97 38.0716 1373.08 37.9414C1373.15 37.8763 1373.19 37.8242 1373.22 37.7852C1373.28 37.694 1373.34 37.6289 1373.38 37.5898C1373.41 37.5378 1373.45 37.4792 1373.47 37.4141C1373.53 37.3229 1373.55 37.2513 1373.55 37.1992C1373.56 37.1732 1373.57 37.1406 1373.57 37.1016C1373.58 37.0625 1373.6 37.0299 1373.61 37.0039V36.7891C1373.6 36.737 1373.59 36.6979 1373.59 36.6719C1373.59 36.6458 1373.58 36.6198 1373.57 36.5938C1373.53 36.5026 1373.49 36.4375 1373.45 36.3984C1373.43 36.3464 1373.4 36.2943 1373.36 36.2422C1373.37 36.2552 1373.35 36.2357 1373.3 36.1836C1373.26 36.1315 1373.23 36.099 1373.22 36.0859L1373.06 35.9297C1373 35.8906 1372.93 35.8451 1372.85 35.793C1372.77 35.7409 1372.69 35.7018 1372.61 35.6758ZM1378.86 41.125C1378.86 40.5651 1378.9 39.9987 1378.98 39.4258C1379.07 38.7357 1379.16 38.0521 1379.25 37.375C1379.34 36.6849 1379.38 35.9883 1379.37 35.2852C1379.37 35.0378 1379.45 34.849 1379.6 34.7188C1379.76 34.5885 1379.94 34.5234 1380.13 34.5234C1380.33 34.5234 1380.51 34.5885 1380.68 34.7188C1380.85 34.849 1380.93 35.0378 1380.93 35.2852C1381.44 35.2461 1381.92 35.2266 1382.38 35.2266C1382.9 35.2396 1383.34 35.3893 1383.71 35.6758C1384.07 35.9622 1384.34 36.3464 1384.53 36.8281C1384.68 37.2708 1384.77 37.7266 1384.8 38.1953C1384.83 38.6641 1384.84 39.1328 1384.86 39.6016C1384.87 40.2656 1384.89 40.9297 1384.92 41.5938C1384.94 42.2448 1384.96 42.9023 1384.96 43.5664C1384.96 43.8268 1384.87 44.0156 1384.7 44.1328C1384.55 44.263 1384.37 44.3281 1384.17 44.3281C1383.99 44.3281 1383.82 44.263 1383.65 44.1328C1383.49 44.0156 1383.41 43.8268 1383.41 43.5664C1383.41 42.9414 1383.4 42.3294 1383.37 41.7305C1383.36 41.1315 1383.34 40.5195 1383.31 39.8945C1383.29 39.556 1383.28 39.2109 1383.28 38.8594C1383.29 38.4948 1383.26 38.1628 1383.2 37.8633C1383.16 37.681 1383.12 37.5247 1383.08 37.3945C1383.04 37.2513 1382.97 37.1146 1382.87 36.9844C1382.84 36.9323 1382.78 36.8867 1382.69 36.8477C1382.61 36.8086 1382.54 36.7891 1382.48 36.7891C1382.28 36.7891 1382.1 36.8021 1381.93 36.8281C1381.76 36.8542 1381.58 36.8932 1381.4 36.9453C1381.32 36.9714 1381.24 36.9974 1381.17 37.0234C1381.09 37.0495 1381.02 37.082 1380.95 37.1211C1380.82 37.5898 1380.72 38.0391 1380.66 38.4688C1380.61 38.8854 1380.55 39.3086 1380.5 39.7383C1380.46 40.0508 1380.44 40.3698 1380.42 40.6953C1380.42 41.0078 1380.41 41.3203 1380.39 41.6328C1380.37 41.9453 1380.33 42.2578 1380.27 42.5703C1380.22 42.8828 1380.12 43.1823 1379.98 43.4688C1379.86 43.6901 1379.7 43.8138 1379.51 43.8398C1379.31 43.8789 1379.13 43.8464 1378.96 43.7422C1378.8 43.651 1378.68 43.5078 1378.59 43.3125C1378.51 43.1172 1378.52 42.9089 1378.63 42.6875C1378.74 42.4531 1378.81 42.1992 1378.82 41.9258C1378.84 41.6523 1378.85 41.3854 1378.86 41.125Z" fill="#E84141"/>
<path d="M1438.59 42.7461C1438.59 42.9935 1438.51 43.1758 1438.34 43.293C1438.18 43.4232 1438 43.4883 1437.81 43.4883C1437.61 43.4883 1437.44 43.4232 1437.28 43.293C1437.13 43.1758 1437.05 42.9935 1437.05 42.7461C1437.05 41.7305 1437.16 40.7539 1437.4 39.8164C1437.63 38.8789 1437.93 37.9479 1438.28 37.0234C1438.19 36.8542 1438.16 36.6654 1438.2 36.457C1438.28 36.1836 1438.45 36.0143 1438.71 35.9492C1438.97 35.3242 1439.23 34.7057 1439.51 34.0938C1439.79 33.4688 1440.07 32.8438 1440.33 32.2188C1440.59 31.5938 1440.83 30.9622 1441.05 30.3242C1441.27 29.6862 1441.45 29.0352 1441.6 28.3711C1441.64 28.1758 1441.72 28.0065 1441.83 27.8633C1441.96 27.7201 1442.14 27.6484 1442.36 27.6484C1442.57 27.6484 1442.76 27.7266 1442.93 27.8828C1443.1 28.026 1443.17 28.2083 1443.14 28.4297C1443.1 29.1849 1443.11 29.8815 1443.18 30.5195C1443.25 31.1445 1443.34 31.7695 1443.47 32.3945C1443.6 33.0065 1443.75 33.625 1443.9 34.25C1444.07 34.862 1444.23 35.474 1444.37 36.0859C1444.51 36.6719 1444.64 37.2578 1444.76 37.8438C1444.88 38.4297 1445.07 38.9961 1445.33 39.543C1445.46 39.8164 1445.6 40.0833 1445.74 40.3438C1445.88 40.5911 1446.04 40.8451 1446.21 41.1055C1446.36 41.3398 1446.51 41.5872 1446.64 41.8477C1446.77 42.0951 1446.86 42.3685 1446.91 42.668C1446.94 42.8763 1446.9 43.0716 1446.81 43.2539C1446.73 43.4362 1446.59 43.5599 1446.36 43.625C1446.18 43.6771 1445.99 43.651 1445.78 43.5469C1445.57 43.4427 1445.45 43.2865 1445.41 43.0781C1445.35 42.7786 1445.25 42.5117 1445.09 42.2773C1444.95 42.043 1444.8 41.8021 1444.64 41.5547C1444.46 41.2682 1444.29 40.9818 1444.14 40.6953C1443.99 40.3958 1443.86 40.0898 1443.75 39.7773C1443.62 39.4518 1443.51 39.1263 1443.41 38.8008C1443.32 38.4622 1443.24 38.1237 1443.16 37.7852C1442.57 37.7461 1442 37.7201 1441.42 37.707C1440.86 37.681 1440.3 37.6354 1439.72 37.5703C1439.41 38.4036 1439.14 39.25 1438.92 40.1094C1438.71 40.9688 1438.6 41.8477 1438.59 42.7461ZM1440.43 35.832C1440.4 35.8711 1440.38 35.9167 1440.37 35.9688C1440.37 36.0078 1440.35 36.0469 1440.33 36.0859C1440.75 36.125 1441.16 36.151 1441.56 36.1641C1441.96 36.1641 1442.37 36.1771 1442.79 36.2031C1442.65 35.5781 1442.49 34.9596 1442.32 34.3477C1442.16 33.7227 1442.02 33.0911 1441.89 32.4531C1441.66 33.026 1441.42 33.5924 1441.17 34.1523C1440.92 34.6992 1440.67 35.2591 1440.43 35.832ZM1450.52 28.4297C1450.51 28.1823 1450.58 27.9935 1450.74 27.8633C1450.89 27.7331 1451.07 27.668 1451.26 27.668C1451.46 27.668 1451.64 27.7331 1451.81 27.8633C1451.98 27.9935 1452.07 28.1823 1452.08 28.4297C1452.14 29.4844 1452.22 30.5326 1452.34 31.5742C1452.46 32.6159 1452.5 33.6641 1452.47 34.7188C1453.16 34.5104 1453.87 34.3672 1454.58 34.2891C1455.31 34.1979 1456.02 34.2435 1456.71 34.4258C1457.13 34.5299 1457.53 34.6992 1457.9 34.9336C1458.29 35.168 1458.59 35.4935 1458.78 35.9102C1458.95 36.2878 1459.06 36.6719 1459.12 37.0625C1459.18 37.4531 1459.2 37.8568 1459.17 38.2734C1459.13 38.7552 1459.04 39.2044 1458.88 39.6211C1458.74 40.0378 1458.52 40.4349 1458.22 40.8125C1457.94 41.1641 1457.63 41.5026 1457.28 41.8281C1456.94 42.1406 1456.56 42.3945 1456.15 42.5898C1455.9 42.694 1455.65 42.7526 1455.4 42.7656C1455.17 42.7656 1454.94 42.7331 1454.7 42.668C1454.47 42.5898 1454.24 42.4987 1454.02 42.3945C1453.8 42.2773 1453.58 42.1536 1453.37 42.0234C1453.16 41.8932 1452.96 41.7695 1452.77 41.6523C1452.57 41.5221 1452.38 41.3724 1452.2 41.2031L1452.08 41.5938C1452.08 41.8542 1452 42.0495 1451.83 42.1797C1451.67 42.2969 1451.5 42.3555 1451.3 42.3555C1451.11 42.3555 1450.93 42.2969 1450.76 42.1797C1450.6 42.0495 1450.52 41.8542 1450.52 41.5938C1450.51 40.7344 1450.54 39.888 1450.62 39.0547C1450.7 38.2214 1450.77 37.3815 1450.83 36.5352C1450.68 36.3008 1450.61 36.0859 1450.64 35.8906C1450.66 35.6953 1450.75 35.5391 1450.89 35.4219C1450.91 35.3047 1450.91 35.1875 1450.91 35.0703C1450.91 34.9531 1450.91 34.8359 1450.91 34.7188C1450.94 33.6641 1450.89 32.6159 1450.78 31.5742C1450.66 30.5326 1450.57 29.4844 1450.52 28.4297ZM1452.38 36.4375C1452.35 36.8932 1452.32 37.3424 1452.28 37.7852C1452.24 38.2279 1452.2 38.6771 1452.16 39.1328C1452.46 39.3542 1452.74 39.5951 1453 39.8555C1453.26 40.1029 1453.56 40.3177 1453.88 40.5C1453.96 40.5521 1454.06 40.6302 1454.19 40.7344C1454.34 40.8255 1454.48 40.9167 1454.62 41.0078C1454.78 41.099 1454.93 41.1706 1455.07 41.2227C1455.23 41.2617 1455.36 41.2487 1455.46 41.1836C1455.74 41.0404 1456 40.8711 1456.24 40.6758C1456.49 40.4674 1456.71 40.2396 1456.91 39.9922C1457.12 39.7318 1457.28 39.4583 1457.4 39.1719C1457.53 38.8854 1457.6 38.5859 1457.61 38.2734C1457.64 38 1457.64 37.7135 1457.61 37.4141C1457.6 37.1146 1457.53 36.8411 1457.4 36.5938C1457.25 36.3464 1457.04 36.1706 1456.77 36.0664C1456.51 35.9622 1456.24 35.8906 1455.95 35.8516C1455.35 35.7604 1454.75 35.7799 1454.13 35.9102C1453.54 36.0273 1452.95 36.2031 1452.38 36.4375ZM1467.73 33.9961C1468.14 33.944 1468.58 33.931 1469.03 33.957C1469.49 33.9701 1469.93 34.0482 1470.34 34.1914C1470.76 34.3216 1471.14 34.5234 1471.48 34.7969C1471.81 35.0703 1472.08 35.4284 1472.26 35.8711C1472.39 36.1836 1472.45 36.5026 1472.45 36.8281C1472.47 37.1406 1472.42 37.4466 1472.32 37.7461C1472.22 38.0326 1472.08 38.3125 1471.89 38.5859C1471.7 38.8464 1471.49 39.0872 1471.24 39.3086C1470.71 39.7904 1470.12 40.2005 1469.48 40.5391C1468.85 40.8776 1468.18 41.138 1467.47 41.3203C1467.17 41.3984 1466.86 41.4701 1466.53 41.5352C1466.22 41.5872 1465.9 41.6133 1465.58 41.6133C1465.25 41.6133 1464.93 41.5807 1464.62 41.5156C1464.31 41.4375 1464.02 41.3138 1463.74 41.1445C1463.55 41.0273 1463.43 40.8711 1463.39 40.6758C1463.31 40.4544 1463.23 40.2461 1463.14 40.0508C1463.05 39.8555 1462.95 39.6536 1462.86 39.4453C1462.78 39.237 1462.72 39.0286 1462.67 38.8203C1462.62 38.612 1462.59 38.3971 1462.59 38.1758C1462.59 37.7331 1462.68 37.3164 1462.86 36.9258C1463.06 36.5221 1463.32 36.1706 1463.64 35.8711C1464.19 35.3503 1464.82 34.9336 1465.54 34.6211C1466.25 34.3086 1466.98 34.1003 1467.73 33.9961ZM1469.93 35.6758C1469.58 35.5456 1469.2 35.4805 1468.8 35.4805C1468.37 35.4674 1467.94 35.513 1467.51 35.6172C1467.08 35.7083 1466.67 35.8385 1466.28 36.0078C1465.92 36.151 1465.54 36.3529 1465.15 36.6133C1464.77 36.8607 1464.49 37.1667 1464.31 37.5312C1464.2 37.7266 1464.15 37.9284 1464.15 38.1367C1464.16 38.332 1464.2 38.5339 1464.25 38.7422C1464.31 38.9375 1464.39 39.1393 1464.48 39.3477C1464.59 39.543 1464.68 39.7383 1464.76 39.9336C1464.97 39.9857 1465.1 40.0117 1465.15 40.0117C1465.17 40.0247 1465.21 40.0312 1465.25 40.0312C1465.28 40.0312 1465.32 40.0312 1465.34 40.0312C1465.6 40.0573 1465.84 40.0508 1466.05 40.0117C1466.19 40.0117 1466.37 39.9857 1466.59 39.9336C1466.93 39.8685 1467.26 39.7839 1467.57 39.6797C1467.88 39.5625 1468.17 39.4388 1468.43 39.3086C1468.73 39.1654 1469.02 39.0091 1469.31 38.8398C1469.59 38.6706 1469.84 38.4948 1470.03 38.3125C1470.16 38.1953 1470.28 38.0716 1470.4 37.9414C1470.47 37.8763 1470.51 37.8242 1470.54 37.7852C1470.6 37.694 1470.66 37.6289 1470.69 37.5898C1470.73 37.5378 1470.77 37.4792 1470.79 37.4141C1470.84 37.3229 1470.87 37.2513 1470.87 37.1992C1470.88 37.1732 1470.89 37.1406 1470.89 37.1016C1470.9 37.0625 1470.92 37.0299 1470.93 37.0039V36.7891C1470.92 36.737 1470.91 36.6979 1470.91 36.6719C1470.91 36.6458 1470.9 36.6198 1470.89 36.5938C1470.85 36.5026 1470.81 36.4375 1470.77 36.3984C1470.75 36.3464 1470.71 36.2943 1470.68 36.2422C1470.69 36.2552 1470.67 36.2357 1470.62 36.1836C1470.58 36.1315 1470.55 36.099 1470.54 36.0859L1470.38 35.9297C1470.32 35.8906 1470.25 35.8451 1470.17 35.793C1470.09 35.7409 1470.01 35.7018 1469.93 35.6758ZM1484.4 36.1055C1484.42 37.2253 1484.49 38.3451 1484.64 39.4648C1484.78 40.5846 1484.97 41.6914 1485.2 42.7852C1485.26 43.0326 1485.21 43.2344 1485.07 43.3906C1484.94 43.5599 1484.78 43.6706 1484.6 43.7227C1484.42 43.7747 1484.23 43.7617 1484.05 43.6836C1483.87 43.6055 1483.75 43.4427 1483.7 43.1953C1483.54 42.4531 1483.41 41.724 1483.29 41.0078C1483.24 41.0729 1483.19 41.138 1483.15 41.2031C1483.11 41.2552 1483.07 41.3138 1483.02 41.3789C1482.76 41.6914 1482.46 41.9648 1482.12 42.1992C1481.78 42.4206 1481.42 42.5964 1481.02 42.7266C1480.65 42.8438 1480.26 42.9089 1479.85 42.9219C1479.45 42.9349 1479.05 42.8893 1478.66 42.7852C1477.97 42.5898 1477.44 42.2513 1477.08 41.7695C1476.71 41.2878 1476.45 40.7409 1476.3 40.1289C1476.14 39.5039 1476.05 38.8594 1476.02 38.1953C1476 37.5182 1475.98 36.8932 1475.97 36.3203C1475.97 36.0729 1476.04 35.8906 1476.2 35.7734C1476.36 35.6432 1476.53 35.5781 1476.73 35.5781C1476.92 35.5781 1477.1 35.6432 1477.26 35.7734C1477.42 35.8906 1477.52 36.0729 1477.53 36.3203C1477.54 36.8411 1477.55 37.3685 1477.55 37.9023C1477.56 38.4362 1477.62 38.9375 1477.72 39.4062C1477.78 39.6667 1477.83 39.8945 1477.9 40.0898C1477.96 40.2721 1478.07 40.4674 1478.21 40.6758C1478.28 40.7669 1478.31 40.819 1478.31 40.832C1478.32 40.8451 1478.34 40.8581 1478.37 40.8711C1478.56 41.0273 1478.69 41.125 1478.76 41.1641C1478.82 41.1901 1478.9 41.2161 1478.99 41.2422C1479.54 41.3984 1480.09 41.3854 1480.65 41.2031C1481.21 41.0078 1481.66 40.6628 1482 40.168C1482.2 39.8555 1482.34 39.5299 1482.43 39.1914C1482.54 38.8529 1482.61 38.5143 1482.65 38.1758C1482.68 37.8242 1482.71 37.4727 1482.72 37.1211C1482.75 36.7565 1482.79 36.3984 1482.84 36.0469C1482.84 35.6562 1482.94 35.4023 1483.13 35.2852C1483.34 35.1549 1483.56 35.1094 1483.78 35.1484C1483.91 35.1875 1484.01 35.2331 1484.09 35.2852L1484.25 35.4219C1484.39 35.6562 1484.44 35.8841 1484.4 36.1055ZM1495.03 36.1836C1495.27 36.1836 1495.46 36.2617 1495.57 36.418C1495.7 36.5742 1495.77 36.75 1495.77 36.9453C1495.77 37.1406 1495.7 37.3229 1495.57 37.4922C1495.46 37.6484 1495.27 37.7266 1495.03 37.7266C1494.71 37.7396 1494.4 37.7396 1494.09 37.7266C1493.79 37.7005 1493.49 37.6745 1493.19 37.6484C1493.2 38.6771 1493.18 39.7057 1493.13 40.7344C1493.09 41.763 1492.99 42.7852 1492.82 43.8008C1492.79 44.0221 1492.68 44.1849 1492.47 44.2891C1492.26 44.3932 1492.06 44.4128 1491.86 44.3477C1491.64 44.2826 1491.48 44.1589 1491.39 43.9766C1491.32 43.8073 1491.3 43.612 1491.33 43.3906C1491.49 42.401 1491.58 41.4115 1491.59 40.4219C1491.61 39.4323 1491.61 38.4362 1491.59 37.4336C1491.09 37.3555 1490.59 37.2773 1490.08 37.1992C1489.58 37.1081 1489.08 37.0299 1488.58 36.9648C1488.36 36.9388 1488.2 36.8216 1488.11 36.6133C1488.01 36.3919 1487.98 36.1901 1488.03 36.0078C1488.1 35.7865 1488.22 35.6367 1488.41 35.5586C1488.59 35.4674 1488.78 35.4349 1488.99 35.4609C1489.42 35.526 1489.85 35.5977 1490.28 35.6758C1490.71 35.7409 1491.15 35.806 1491.59 35.8711C1491.58 35.806 1491.57 35.7083 1491.57 35.5781C1491.57 34.4062 1491.56 33.2474 1491.55 32.1016C1491.55 30.9557 1491.61 29.7969 1491.73 28.625C1491.75 28.4167 1491.83 28.2344 1491.96 28.0781C1492.1 27.9219 1492.29 27.8438 1492.51 27.8438C1492.7 27.8438 1492.88 27.9219 1493.05 28.0781C1493.24 28.2344 1493.31 28.4167 1493.29 28.625C1493.16 29.875 1493.09 31.1185 1493.09 32.3555C1493.11 33.5794 1493.13 34.8229 1493.15 36.0859C1493.46 36.112 1493.78 36.138 1494.09 36.1641C1494.4 36.1771 1494.71 36.1836 1495.03 36.1836ZM1509.53 43.2539C1509.35 43.319 1509.15 43.2995 1508.93 43.1953C1508.72 43.0911 1508.6 42.9349 1508.58 42.7266C1508.39 41.5807 1508.28 40.4479 1508.22 39.3281C1508.19 38.1953 1508.17 37.056 1508.17 35.9102C1508.17 35.7148 1508.22 35.5586 1508.32 35.4414C1508.43 35.3242 1508.55 35.2461 1508.69 35.207C1508.84 35.168 1508.99 35.1615 1509.14 35.1875C1509.3 35.2135 1509.43 35.2786 1509.53 35.3828C1509.83 35.1354 1510.15 34.9206 1510.49 34.7383C1510.83 34.556 1511.17 34.4388 1511.51 34.3867C1511.86 34.3216 1512.2 34.3411 1512.54 34.4453C1512.88 34.5365 1513.2 34.7383 1513.5 35.0508C1513.75 35.3112 1513.96 35.5911 1514.14 35.8906C1514.32 36.1771 1514.49 36.4831 1514.63 36.8086C1514.83 36.3138 1515.1 35.8581 1515.45 35.4414C1515.8 35.0247 1516.25 34.7448 1516.8 34.6016C1517.2 34.4974 1517.52 34.5234 1517.76 34.6797C1517.99 34.8229 1518.21 35.0508 1518.42 35.3633C1518.64 35.6888 1518.84 36.0208 1519.03 36.3594C1519.22 36.6979 1519.4 37.043 1519.57 37.3945C1519.74 37.7461 1519.9 38.0977 1520.06 38.4492C1520.22 38.8008 1520.37 39.1458 1520.53 39.4844C1520.71 39.862 1520.87 40.2396 1521 40.6172C1521.14 40.9818 1521.23 41.3724 1521.27 41.7891C1521.3 42.0104 1521.22 42.1992 1521.04 42.3555C1520.87 42.4987 1520.69 42.5703 1520.49 42.5703C1520.27 42.5703 1520.09 42.4987 1519.94 42.3555C1519.81 42.1992 1519.74 42.0104 1519.71 41.7891C1519.68 41.4766 1519.6 41.1771 1519.46 40.8906C1519.32 40.5911 1519.19 40.2982 1519.06 40.0117C1518.92 39.7122 1518.78 39.4062 1518.63 39.0938C1518.5 38.7812 1518.37 38.4753 1518.22 38.1758C1518.08 37.8763 1517.93 37.5768 1517.76 37.2773C1517.6 36.9779 1517.43 36.6849 1517.25 36.3984C1517.22 36.3594 1517.2 36.3203 1517.17 36.2812C1517.14 36.2422 1517.12 36.2031 1517.09 36.1641C1516.83 36.3073 1516.64 36.444 1516.53 36.5742C1516.41 36.7044 1516.3 36.8802 1516.19 37.1016C1516.1 37.2969 1516.02 37.5052 1515.96 37.7266C1515.91 37.9349 1515.86 38.1497 1515.82 38.3711C1515.74 38.7878 1515.69 39.224 1515.65 39.6797C1515.62 40.0182 1515.62 40.3438 1515.65 40.6562C1515.69 40.9688 1515.67 41.2943 1515.61 41.6328C1515.57 41.8411 1515.44 41.9974 1515.24 42.1016C1515.04 42.2057 1514.85 42.2318 1514.65 42.1797C1514.47 42.1276 1514.33 42.0365 1514.24 41.9062C1514.16 41.763 1514.11 41.6003 1514.08 41.418C1514.03 41.0013 1513.97 40.5716 1513.91 40.1289C1513.84 39.6862 1513.76 39.25 1513.65 38.8203C1513.55 38.3776 1513.41 37.9544 1513.24 37.5508C1513.09 37.1341 1512.88 36.75 1512.62 36.3984C1512.44 36.1641 1512.25 36.0078 1512.05 35.9297C1511.87 35.8516 1511.64 35.8841 1511.37 36.0273C1511.07 36.1836 1510.78 36.3724 1510.49 36.5938C1510.2 36.8151 1509.95 37.0625 1509.73 37.3359C1509.74 38.1693 1509.77 39.0026 1509.81 39.8359C1509.86 40.6562 1509.95 41.4766 1510.08 42.2969C1510.11 42.5182 1510.07 42.7201 1509.98 42.9023C1509.9 43.0716 1509.75 43.1888 1509.53 43.2539ZM1525.25 35.4219C1525.5 35.0833 1525.79 34.7839 1526.13 34.5234C1526.48 34.263 1526.86 34.0612 1527.25 33.918C1527.64 33.7617 1528.04 33.6836 1528.46 33.6836C1528.87 33.6706 1529.29 33.7487 1529.71 33.918C1530.11 34.0742 1530.47 34.2891 1530.8 34.5625C1531.13 34.8229 1531.38 35.1615 1531.56 35.5781C1531.71 35.8906 1531.79 36.2292 1531.82 36.5938C1531.84 36.9583 1531.74 37.2904 1531.52 37.5898C1531.33 37.8633 1531.09 38.0716 1530.8 38.2148C1530.53 38.3581 1530.23 38.4622 1529.9 38.5273C1529.59 38.5924 1529.26 38.625 1528.93 38.625C1528.6 38.625 1528.29 38.6185 1527.99 38.6055C1527.65 38.5924 1527.31 38.5664 1526.97 38.5273C1526.65 38.4883 1526.31 38.4492 1525.98 38.4102C1526.08 38.9961 1526.29 39.5169 1526.6 39.9727C1526.91 40.4284 1527.34 40.7734 1527.87 41.0078C1528.01 41.0599 1528.12 41.099 1528.2 41.125C1528.24 41.138 1528.27 41.151 1528.3 41.1641C1528.34 41.1641 1528.38 41.1641 1528.42 41.1641C1528.52 41.1771 1528.61 41.1901 1528.67 41.2031C1528.75 41.2031 1528.82 41.1966 1528.89 41.1836C1528.98 41.1706 1529.04 41.1641 1529.06 41.1641C1529.1 41.151 1529.14 41.138 1529.18 41.125C1529.32 41.0859 1529.45 41.0404 1529.55 40.9883C1529.67 40.9362 1529.8 40.8516 1529.96 40.7344C1530.04 40.6693 1530.14 40.5716 1530.27 40.4414C1530.4 40.3112 1530.51 40.194 1530.61 40.0898C1530.74 39.9076 1530.89 39.7839 1531.07 39.7188C1531.27 39.6536 1531.46 39.6797 1531.66 39.7969C1531.83 39.901 1531.95 40.0638 1532.01 40.2852C1532.09 40.4935 1532.06 40.6888 1531.93 40.8711C1531.56 41.3789 1531.11 41.8151 1530.59 42.1797C1530.08 42.5312 1529.49 42.7201 1528.83 42.7461C1528.29 42.7721 1527.78 42.681 1527.28 42.4727C1526.79 42.2513 1526.35 41.9583 1525.98 41.5938C1525.51 41.138 1525.14 40.6107 1524.86 40.0117C1524.59 39.4128 1524.44 38.8008 1524.41 38.1758C1524.3 38.0846 1524.21 37.974 1524.14 37.8438C1524.09 37.7005 1524.07 37.5573 1524.08 37.4141C1524.11 37.2708 1524.16 37.1406 1524.24 37.0234C1524.32 36.8932 1524.43 36.8086 1524.59 36.7695C1524.73 36.2878 1524.95 35.8385 1525.25 35.4219ZM1529.94 35.8906C1529.8 35.7083 1529.58 35.5456 1529.28 35.4023C1529.03 35.2982 1528.74 35.2461 1528.4 35.2461C1528.07 35.2461 1527.79 35.3047 1527.56 35.4219C1527.26 35.5651 1526.99 35.7669 1526.76 36.0273C1526.52 36.2747 1526.33 36.5547 1526.19 36.8672C1526.5 36.9062 1526.82 36.9453 1527.13 36.9844C1527.44 37.0234 1527.75 37.0495 1528.07 37.0625C1528.24 37.0625 1528.4 37.0625 1528.57 37.0625C1528.74 37.0625 1528.91 37.056 1529.08 37.043C1529.13 37.043 1529.18 37.043 1529.22 37.043C1529.27 37.0299 1529.32 37.0234 1529.37 37.0234C1529.49 36.9974 1529.58 36.9844 1529.63 36.9844C1529.69 36.9714 1529.76 36.9518 1529.82 36.9258C1529.88 36.9128 1529.94 36.8932 1530.02 36.8672C1530.08 36.8411 1530.12 36.8216 1530.14 36.8086C1530.15 36.7956 1530.17 36.7826 1530.19 36.7695L1530.25 36.5352C1530.23 36.4831 1530.21 36.4375 1530.19 36.3984C1530.19 36.3464 1530.18 36.3008 1530.16 36.2617C1530.14 36.2227 1530.11 36.1641 1530.06 36.0859C1530.02 36.0078 1529.98 35.9427 1529.94 35.8906Z" fill="#280206"/>
<path d="M1587.39 42.4531C1587.27 42.6224 1587.14 42.7331 1586.98 42.7852C1586.83 42.8372 1586.67 42.8438 1586.51 42.8047C1586.37 42.7526 1586.24 42.668 1586.12 42.5508C1586.01 42.4206 1585.94 42.2578 1585.93 42.0625C1585.9 41.8802 1585.89 41.763 1585.89 41.7109C1585.86 41.6068 1585.84 41.5026 1585.83 41.3984C1585.82 41.2943 1585.8 41.1901 1585.77 41.0859C1585.72 40.8255 1585.67 40.5651 1585.61 40.3047C1585.58 40.0443 1585.52 39.7839 1585.46 39.5234C1585.32 38.8594 1585.17 38.2083 1585.01 37.5703C1584.85 36.9193 1584.7 36.2682 1584.56 35.6172C1584.42 35.0312 1584.27 34.4453 1584.13 33.8594C1583.99 33.2604 1583.84 32.668 1583.7 32.082C1583.65 31.8867 1583.6 31.6914 1583.56 31.4961C1583.52 31.3008 1583.48 31.1055 1583.43 30.9102C1583.4 30.806 1583.38 30.6953 1583.35 30.5781C1583.32 30.4479 1583.32 30.3307 1583.33 30.2266C1583.36 30.0052 1583.43 29.8229 1583.56 29.6797C1583.71 29.5234 1583.89 29.4453 1584.11 29.4453C1584.31 29.4453 1584.49 29.5234 1584.66 29.6797C1584.84 29.8229 1584.92 30.0052 1584.89 30.2266C1584.91 30.3047 1584.91 30.3698 1584.91 30.4219C1584.92 30.474 1584.94 30.5326 1584.97 30.5977C1585.01 30.806 1585.05 31.0078 1585.09 31.2031C1585.14 31.3984 1585.19 31.5938 1585.22 31.7891C1585.37 32.401 1585.51 33.0065 1585.65 33.6055C1585.81 34.1914 1585.96 34.7839 1586.1 35.3828C1586.25 36.0339 1586.39 36.6784 1586.53 37.3164C1586.69 37.9544 1586.84 38.599 1586.98 39.25C1587.01 39.3802 1587.03 39.5039 1587.06 39.6211C1587.09 39.7383 1587.11 39.8555 1587.14 39.9727C1587.57 39.3086 1587.98 38.638 1588.37 37.9609C1588.77 37.2708 1589.15 36.5677 1589.5 35.8516C1589.93 34.9792 1590.32 34.0742 1590.65 33.1367C1590.99 32.1992 1591.19 31.2422 1591.26 30.2656C1591.27 30.0573 1591.35 29.888 1591.49 29.7578C1591.64 29.6276 1591.79 29.5495 1591.96 29.5234C1592.13 29.4974 1592.29 29.5299 1592.45 29.6211C1592.62 29.6992 1592.73 29.849 1592.78 30.0703C1593 30.9036 1593.2 31.75 1593.37 32.6094C1593.55 33.4688 1593.73 34.3216 1593.92 35.168C1594.11 36.0143 1594.33 36.8542 1594.56 37.6875C1594.81 38.5208 1595.11 39.3346 1595.48 40.1289C1595.86 39.6341 1596.19 39.1198 1596.47 38.5859C1596.76 38.0391 1597 37.4596 1597.18 36.8477C1597.49 35.832 1597.7 34.8034 1597.8 33.7617C1597.92 32.707 1598.03 31.6523 1598.13 30.5977C1598.16 30.3893 1598.24 30.207 1598.37 30.0508C1598.51 29.8945 1598.69 29.8164 1598.92 29.8164C1599.11 29.8164 1599.29 29.8945 1599.46 30.0508C1599.64 30.194 1599.72 30.3763 1599.7 30.5977C1599.58 31.7565 1599.46 32.9089 1599.35 34.0547C1599.23 35.1875 1598.99 36.3073 1598.64 37.4141C1598.34 38.3125 1597.96 39.1393 1597.49 39.8945C1597.03 40.6497 1596.49 41.3789 1595.87 42.082C1595.7 42.2643 1595.48 42.3424 1595.2 42.3164C1594.94 42.2773 1594.76 42.1471 1594.64 41.9258C1594.29 41.3008 1593.98 40.6562 1593.72 39.9922C1593.46 39.3281 1593.23 38.6576 1593.04 37.9805C1592.84 37.3034 1592.67 36.6198 1592.51 35.9297C1592.35 35.2266 1592.2 34.5299 1592.06 33.8398C1591.72 34.7383 1591.34 35.6237 1590.91 36.4961C1590.4 37.5378 1589.85 38.5534 1589.25 39.543C1588.65 40.5195 1588.03 41.4896 1587.39 42.4531ZM1607.94 33.9961C1608.35 33.944 1608.79 33.931 1609.25 33.957C1609.7 33.9701 1610.14 34.0482 1610.55 34.1914C1610.97 34.3216 1611.35 34.5234 1611.69 34.7969C1612.03 35.0703 1612.29 35.4284 1612.47 35.8711C1612.6 36.1836 1612.66 36.5026 1612.66 36.8281C1612.68 37.1406 1612.63 37.4466 1612.53 37.7461C1612.44 38.0326 1612.29 38.3125 1612.1 38.5859C1611.91 38.8464 1611.7 39.0872 1611.45 39.3086C1610.92 39.7904 1610.33 40.2005 1609.69 40.5391C1609.06 40.8776 1608.39 41.138 1607.68 41.3203C1607.38 41.3984 1607.07 41.4701 1606.75 41.5352C1606.43 41.5872 1606.11 41.6133 1605.79 41.6133C1605.46 41.6133 1605.14 41.5807 1604.83 41.5156C1604.52 41.4375 1604.23 41.3138 1603.95 41.1445C1603.76 41.0273 1603.64 40.8711 1603.6 40.6758C1603.52 40.4544 1603.44 40.2461 1603.35 40.0508C1603.26 39.8555 1603.16 39.6536 1603.07 39.4453C1603 39.237 1602.93 39.0286 1602.88 38.8203C1602.83 38.612 1602.8 38.3971 1602.8 38.1758C1602.8 37.7331 1602.89 37.3164 1603.07 36.9258C1603.27 36.5221 1603.53 36.1706 1603.85 35.8711C1604.4 35.3503 1605.03 34.9336 1605.75 34.6211C1606.47 34.3086 1607.19 34.1003 1607.94 33.9961ZM1610.14 35.6758C1609.79 35.5456 1609.41 35.4805 1609.01 35.4805C1608.58 35.4674 1608.15 35.513 1607.72 35.6172C1607.29 35.7083 1606.88 35.8385 1606.49 36.0078C1606.13 36.151 1605.75 36.3529 1605.36 36.6133C1604.98 36.8607 1604.7 37.1667 1604.52 37.5312C1604.41 37.7266 1604.36 37.9284 1604.36 38.1367C1604.38 38.332 1604.41 38.5339 1604.46 38.7422C1604.53 38.9375 1604.6 39.1393 1604.69 39.3477C1604.8 39.543 1604.89 39.7383 1604.97 39.9336C1605.18 39.9857 1605.31 40.0117 1605.36 40.0117C1605.38 40.0247 1605.42 40.0312 1605.46 40.0312C1605.5 40.0312 1605.53 40.0312 1605.55 40.0312C1605.81 40.0573 1606.05 40.0508 1606.26 40.0117C1606.4 40.0117 1606.58 39.9857 1606.8 39.9336C1607.14 39.8685 1607.47 39.7839 1607.78 39.6797C1608.09 39.5625 1608.38 39.4388 1608.64 39.3086C1608.94 39.1654 1609.23 39.0091 1609.52 38.8398C1609.81 38.6706 1610.05 38.4948 1610.24 38.3125C1610.37 38.1953 1610.5 38.0716 1610.61 37.9414C1610.68 37.8763 1610.72 37.8242 1610.75 37.7852C1610.81 37.694 1610.87 37.6289 1610.91 37.5898C1610.94 37.5378 1610.98 37.4792 1611 37.4141C1611.06 37.3229 1611.08 37.2513 1611.08 37.1992C1611.09 37.1732 1611.1 37.1406 1611.1 37.1016C1611.11 37.0625 1611.13 37.0299 1611.14 37.0039V36.7891C1611.13 36.737 1611.12 36.6979 1611.12 36.6719C1611.12 36.6458 1611.11 36.6198 1611.1 36.5938C1611.06 36.5026 1611.02 36.4375 1610.98 36.3984C1610.96 36.3464 1610.92 36.2943 1610.89 36.2422C1610.9 36.2552 1610.88 36.2357 1610.83 36.1836C1610.79 36.1315 1610.76 36.099 1610.75 36.0859L1610.59 35.9297C1610.53 35.8906 1610.46 35.8451 1610.38 35.793C1610.3 35.7409 1610.22 35.7018 1610.14 35.6758ZM1616.53 35.0508C1616.54 34.8034 1616.63 34.6211 1616.8 34.5039C1616.97 34.3737 1617.15 34.3086 1617.35 34.3086C1617.54 34.3086 1617.71 34.3737 1617.86 34.5039C1618.01 34.6211 1618.08 34.8034 1618.07 35.0508C1618.07 35.1289 1618.06 35.2135 1618.05 35.3047C1618.05 35.3828 1618.05 35.4609 1618.05 35.5391C1618.47 35.3307 1618.9 35.1549 1619.36 35.0117C1619.83 34.8555 1620.29 34.7578 1620.75 34.7188C1621.22 34.6797 1621.66 34.7188 1622.09 34.8359C1622.54 34.9401 1622.94 35.1484 1623.31 35.4609C1623.49 35.6302 1623.57 35.8125 1623.54 36.0078C1623.53 36.2031 1623.45 36.3724 1623.31 36.5156C1623.18 36.6458 1623.01 36.7305 1622.8 36.7695C1622.59 36.7956 1622.39 36.7305 1622.19 36.5742C1622.05 36.457 1621.89 36.3724 1621.7 36.3203C1621.53 36.2682 1621.35 36.2487 1621.14 36.2617C1620.94 36.2617 1620.74 36.2812 1620.53 36.3203C1620.34 36.3594 1620.15 36.4049 1619.97 36.457C1619.28 36.6784 1618.63 36.9714 1618.03 37.3359C1618.06 37.974 1618.1 38.612 1618.15 39.25C1618.2 39.7839 1618.25 40.3372 1618.29 40.9102C1618.32 41.4701 1618.44 42.0039 1618.62 42.5117C1618.7 42.7461 1618.68 42.9414 1618.56 43.0977C1618.46 43.2669 1618.31 43.3776 1618.11 43.4297C1617.93 43.4818 1617.73 43.4688 1617.52 43.3906C1617.33 43.3125 1617.19 43.1562 1617.11 42.9219C1617.01 42.6224 1616.94 42.3164 1616.9 42.0039C1616.86 41.6914 1616.82 41.3789 1616.78 41.0664C1616.76 40.7669 1616.72 40.4674 1616.68 40.168C1616.66 39.8555 1616.63 39.5495 1616.61 39.25C1616.54 38.5469 1616.5 37.8503 1616.47 37.1602C1616.46 36.457 1616.48 35.7539 1616.53 35.0508ZM1627.23 38.7812C1627.18 38.625 1627.17 38.4622 1627.21 38.293C1627.12 36.7174 1627.02 35.1549 1626.92 33.6055C1626.81 32.043 1626.82 30.474 1626.94 28.8984C1626.96 28.6771 1627.04 28.4948 1627.17 28.3516C1627.31 28.1953 1627.5 28.1172 1627.72 28.1172C1627.93 28.1172 1628.11 28.1953 1628.28 28.3516C1628.45 28.4948 1628.52 28.6771 1628.5 28.8984C1628.39 30.3177 1628.38 31.724 1628.46 33.1172C1628.54 34.4974 1628.62 35.8971 1628.71 37.3164C1629.44 36.8607 1630.17 36.418 1630.9 35.9883C1631.64 35.5586 1632.37 35.1029 1633.07 34.6211C1633.28 34.4779 1633.47 34.4453 1633.65 34.5234C1633.85 34.5885 1633.99 34.7057 1634.08 34.875C1634.19 35.0443 1634.23 35.2331 1634.2 35.4414C1634.18 35.6497 1634.06 35.8255 1633.85 35.9688C1633.15 36.4505 1632.43 36.9062 1631.7 37.3359C1630.99 37.7526 1630.26 38.1823 1629.53 38.625C1630.41 39.2109 1631.27 39.8034 1632.13 40.4023C1632.99 41.0013 1633.83 41.6328 1634.65 42.2969C1634.82 42.4401 1634.9 42.6289 1634.89 42.8633C1634.87 43.0846 1634.79 43.2669 1634.65 43.4102C1634.48 43.5664 1634.29 43.638 1634.08 43.625C1633.89 43.612 1633.71 43.5404 1633.54 43.4102C1632.78 42.7982 1632.01 42.2188 1631.23 41.6719C1630.45 41.125 1629.66 40.5781 1628.85 40.0312C1628.86 40.526 1628.86 41.0273 1628.85 41.5352C1628.85 42.043 1628.84 42.5443 1628.81 43.0391C1628.8 43.2995 1628.71 43.4883 1628.54 43.6055C1628.38 43.7357 1628.21 43.8008 1628.01 43.8008C1627.81 43.8008 1627.64 43.7357 1627.48 43.6055C1627.33 43.4883 1627.25 43.2995 1627.27 43.0391C1627.29 42.3359 1627.3 41.6328 1627.29 40.9297C1627.29 40.2135 1627.27 39.4974 1627.23 38.7812Z" fill="#280206"/>
<path d="M1686.27 31.2422C1686.01 31.1641 1685.85 30.9948 1685.8 30.7344C1685.73 30.5521 1685.75 30.3568 1685.86 30.1484C1685.96 29.9271 1686.12 29.8034 1686.35 29.7773C1687.61 29.582 1688.87 29.4779 1690.13 29.4648C1691.41 29.4388 1692.69 29.4193 1693.96 29.4062C1694.21 29.4062 1694.4 29.4844 1694.53 29.6406C1694.66 29.7969 1694.72 29.9727 1694.72 30.168C1694.72 30.3633 1694.66 30.5456 1694.53 30.7148C1694.4 30.8711 1694.21 30.9492 1693.96 30.9492C1692.95 30.9753 1691.93 30.9883 1690.9 30.9883C1689.87 30.9883 1688.84 31.0404 1687.81 31.1445C1687.84 31.6654 1687.87 32.1862 1687.91 32.707C1687.95 33.2148 1687.99 33.7292 1688.03 34.25C1689.01 34.1979 1690 34.1328 1690.97 34.0547C1691.96 33.9766 1692.95 33.9635 1693.94 34.0156C1694.19 34.0286 1694.38 34.1198 1694.51 34.2891C1694.64 34.4583 1694.71 34.6406 1694.71 34.8359C1694.71 35.0312 1694.64 35.207 1694.51 35.3633C1694.38 35.5195 1694.19 35.5911 1693.94 35.5781C1692.97 35.526 1692 35.5391 1691.03 35.6172C1690.08 35.6953 1689.12 35.7604 1688.14 35.8125C1688.22 36.75 1688.29 37.6875 1688.36 38.625C1688.44 39.5495 1688.49 40.4805 1688.51 41.418C1688.97 41.3138 1689.43 41.2161 1689.9 41.125C1690.37 41.0208 1690.84 40.9427 1691.31 40.8906C1691.78 40.8255 1692.24 40.793 1692.71 40.793C1693.18 40.793 1693.65 40.832 1694.12 40.9102C1694.33 40.9492 1694.48 41.0729 1694.59 41.2812C1694.69 41.4896 1694.72 41.6849 1694.67 41.8672C1694.6 42.0885 1694.48 42.2448 1694.29 42.3359C1694.11 42.4271 1693.91 42.4531 1693.69 42.4141C1693.27 42.3359 1692.85 42.3099 1692.42 42.3359C1691.99 42.362 1691.57 42.4076 1691.15 42.4727C1690.67 42.5508 1690.19 42.6419 1689.71 42.7461C1689.24 42.8503 1688.77 42.9609 1688.3 43.0781C1688.08 43.1302 1687.87 43.0911 1687.67 42.9609C1687.49 42.9349 1687.33 42.8633 1687.19 42.7461C1687.04 42.6289 1686.97 42.4531 1686.97 42.2188C1686.94 41.112 1686.89 40.0182 1686.81 38.9375C1686.75 37.8568 1686.67 36.7695 1686.58 35.6758C1686.44 35.5326 1686.35 35.3568 1686.33 35.1484C1686.31 34.9271 1686.37 34.7383 1686.5 34.582C1686.4 33.4753 1686.32 32.362 1686.27 31.2422ZM1698.57 41.1445C1699.09 40.6497 1699.61 40.1615 1700.11 39.6797C1700.62 39.1849 1701.1 38.651 1701.54 38.0781C1701.12 37.5833 1700.71 37.082 1700.31 36.5742C1699.92 36.0664 1699.53 35.5586 1699.14 35.0508C1698.99 34.8685 1698.91 34.6797 1698.9 34.4844C1698.89 34.2891 1698.97 34.1068 1699.14 33.9375C1699.28 33.7943 1699.46 33.7161 1699.68 33.7031C1699.92 33.6901 1700.1 33.7682 1700.23 33.9375C1700.59 34.4062 1700.96 34.875 1701.32 35.3438C1701.69 35.8125 1702.06 36.2747 1702.44 36.7305C1702.7 36.2747 1702.94 35.8125 1703.18 35.3438C1703.41 34.875 1703.65 34.4062 1703.9 33.9375C1704.02 33.7161 1704.18 33.5924 1704.37 33.5664C1704.58 33.5404 1704.76 33.5794 1704.92 33.6836C1705.09 33.7747 1705.21 33.918 1705.29 34.1133C1705.38 34.3086 1705.37 34.5169 1705.25 34.7383C1704.95 35.2982 1704.66 35.8516 1704.39 36.3984C1704.12 36.9453 1703.81 37.4857 1703.47 38.0195C1703.97 38.6445 1704.47 39.2695 1704.98 39.8945C1705.48 40.5195 1705.99 41.1445 1706.5 41.7695C1706.64 41.9388 1706.72 42.1276 1706.73 42.3359C1706.75 42.5312 1706.67 42.7135 1706.5 42.8828C1706.36 43.026 1706.17 43.1042 1705.95 43.1172C1705.73 43.1302 1705.55 43.0521 1705.41 42.8828C1704.92 42.2839 1704.44 41.6914 1703.96 41.1055C1703.48 40.5065 1703 39.9076 1702.52 39.3086C1702.09 39.8424 1701.63 40.3503 1701.15 40.832C1700.67 41.3008 1700.17 41.7695 1699.66 42.2383C1699.48 42.4076 1699.29 42.4792 1699.08 42.4531C1698.87 42.4271 1698.69 42.349 1698.55 42.2188C1698.42 42.0755 1698.34 41.9062 1698.32 41.7109C1698.3 41.5026 1698.39 41.3138 1698.57 41.1445ZM1712.14 48.625C1712.15 48.8724 1712.08 49.0547 1711.93 49.1719C1711.78 49.3021 1711.61 49.3672 1711.42 49.3672C1711.22 49.3672 1711.04 49.3021 1710.87 49.1719C1710.7 49.0547 1710.61 48.8724 1710.6 48.625C1710.46 46.5417 1710.37 44.4648 1710.34 42.3945C1710.32 40.3112 1710.26 38.2279 1710.17 36.1445C1709.99 35.8581 1709.97 35.5846 1710.13 35.3242C1710.12 35.181 1710.1 35.0508 1710.09 34.9336C1710.09 34.8034 1710.08 34.6667 1710.07 34.5234C1710.06 34.2891 1710.12 34.1133 1710.27 33.9961C1710.41 33.8659 1710.57 33.7943 1710.76 33.7812C1710.95 33.7682 1711.13 33.8203 1711.3 33.9375C1711.47 34.0417 1711.58 34.2044 1711.61 34.4258C1711.84 34.3216 1712.04 34.224 1712.24 34.1328C1712.45 34.0417 1712.66 33.9505 1712.88 33.8594C1713.07 33.7812 1713.27 33.7096 1713.49 33.6445C1713.71 33.5664 1713.94 33.5078 1714.17 33.4688C1714.41 33.4297 1714.64 33.4102 1714.86 33.4102C1715.09 33.4102 1715.31 33.4492 1715.5 33.5273C1715.89 33.6836 1716.21 33.918 1716.46 34.2305C1716.72 34.543 1716.93 34.888 1717.1 35.2656C1717.26 35.6302 1717.41 36.0013 1717.55 36.3789C1717.7 36.7435 1717.77 37.1211 1717.79 37.5117C1717.8 37.9154 1717.74 38.293 1717.61 38.6445C1717.48 38.9961 1717.3 39.3151 1717.06 39.6016C1716.84 39.888 1716.58 40.1419 1716.26 40.3633C1715.95 40.5846 1715.62 40.7734 1715.27 40.9297C1714.89 41.099 1714.5 41.2487 1714.09 41.3789C1713.69 41.5091 1713.28 41.5938 1712.86 41.6328C1712.68 41.6589 1712.51 41.6523 1712.34 41.6133C1712.18 41.5742 1712.03 41.5221 1711.89 41.457C1711.91 42.668 1711.94 43.8659 1711.97 45.0508C1712.01 46.2357 1712.06 47.4271 1712.14 48.625ZM1711.73 36.1055C1711.76 36.7044 1711.78 37.3034 1711.79 37.9023C1711.8 38.4883 1711.82 39.0807 1711.85 39.6797C1711.93 39.7318 1712.01 39.7839 1712.08 39.8359C1712.16 39.875 1712.25 39.9206 1712.34 39.9727C1712.44 40.0378 1712.53 40.0768 1712.59 40.0898C1712.66 40.0898 1712.76 40.0768 1712.9 40.0508C1713.19 39.9857 1713.48 39.9206 1713.76 39.8555C1714.05 39.7773 1714.32 39.6732 1714.58 39.543C1714.83 39.4258 1715.06 39.3021 1715.29 39.1719C1715.51 39.0286 1715.71 38.8464 1715.89 38.625C1716.01 38.4818 1716.1 38.319 1716.17 38.1367C1716.23 37.9414 1716.25 37.7331 1716.22 37.5117C1716.21 37.2513 1716.15 36.9844 1716.03 36.7109C1715.92 36.4375 1715.82 36.1836 1715.72 35.9492C1715.65 35.832 1715.59 35.7148 1715.52 35.5977C1715.47 35.4674 1715.4 35.3503 1715.33 35.2461C1715.21 35.1289 1715.12 35.0573 1715.05 35.0312C1714.69 35.0052 1714.37 35.0247 1714.09 35.0898C1713.82 35.1549 1713.55 35.2461 1713.27 35.3633C1713.01 35.4674 1712.75 35.5846 1712.49 35.7148C1712.23 35.8451 1711.98 35.9753 1711.73 36.1055ZM1722.26 35.4219C1722.5 35.0833 1722.8 34.7839 1723.14 34.5234C1723.49 34.263 1723.86 34.0612 1724.25 33.918C1724.64 33.7617 1725.04 33.6836 1725.46 33.6836C1725.88 33.6706 1726.29 33.7487 1726.71 33.918C1727.11 34.0742 1727.48 34.2891 1727.8 34.5625C1728.13 34.8229 1728.38 35.1615 1728.57 35.5781C1728.71 35.8906 1728.79 36.2292 1728.82 36.5938C1728.85 36.9583 1728.75 37.2904 1728.53 37.5898C1728.33 37.8633 1728.09 38.0716 1727.8 38.2148C1727.53 38.3581 1727.23 38.4622 1726.91 38.5273C1726.59 38.5924 1726.27 38.625 1725.93 38.625C1725.6 38.625 1725.29 38.6185 1724.99 38.6055C1724.65 38.5924 1724.31 38.5664 1723.98 38.5273C1723.65 38.4883 1723.32 38.4492 1722.98 38.4102C1723.08 38.9961 1723.29 39.5169 1723.6 39.9727C1723.92 40.4284 1724.34 40.7734 1724.87 41.0078C1725.02 41.0599 1725.13 41.099 1725.21 41.125C1725.24 41.138 1725.28 41.151 1725.3 41.1641C1725.34 41.1641 1725.38 41.1641 1725.42 41.1641C1725.52 41.1771 1725.61 41.1901 1725.67 41.2031C1725.75 41.2031 1725.82 41.1966 1725.89 41.1836C1725.98 41.1706 1726.04 41.1641 1726.07 41.1641C1726.1 41.151 1726.14 41.138 1726.18 41.125C1726.33 41.0859 1726.45 41.0404 1726.55 40.9883C1726.67 40.9362 1726.81 40.8516 1726.96 40.7344C1727.04 40.6693 1727.15 40.5716 1727.28 40.4414C1727.41 40.3112 1727.52 40.194 1727.61 40.0898C1727.74 39.9076 1727.89 39.7839 1728.08 39.7188C1728.27 39.6536 1728.47 39.6797 1728.66 39.7969C1728.83 39.901 1728.95 40.0638 1729.01 40.2852C1729.09 40.4935 1729.07 40.6888 1728.94 40.8711C1728.56 41.3789 1728.11 41.8151 1727.59 42.1797C1727.08 42.5312 1726.49 42.7201 1725.83 42.7461C1725.3 42.7721 1724.78 42.681 1724.29 42.4727C1723.79 42.2513 1723.36 41.9583 1722.98 41.5938C1722.51 41.138 1722.14 40.6107 1721.87 40.0117C1721.59 39.4128 1721.44 38.8008 1721.42 38.1758C1721.3 38.0846 1721.21 37.974 1721.14 37.8438C1721.09 37.7005 1721.07 37.5573 1721.08 37.4141C1721.11 37.2708 1721.16 37.1406 1721.24 37.0234C1721.32 36.8932 1721.44 36.8086 1721.59 36.7695C1721.74 36.2878 1721.96 35.8385 1722.26 35.4219ZM1726.94 35.8906C1726.8 35.7083 1726.58 35.5456 1726.28 35.4023C1726.03 35.2982 1725.74 35.2461 1725.4 35.2461C1725.08 35.2461 1724.8 35.3047 1724.56 35.4219C1724.26 35.5651 1723.99 35.7669 1723.76 36.0273C1723.53 36.2747 1723.34 36.5547 1723.19 36.8672C1723.51 36.9062 1723.82 36.9453 1724.13 36.9844C1724.44 37.0234 1724.76 37.0495 1725.07 37.0625C1725.24 37.0625 1725.41 37.0625 1725.58 37.0625C1725.75 37.0625 1725.92 37.056 1726.08 37.043C1726.14 37.043 1726.18 37.043 1726.22 37.043C1726.27 37.0299 1726.33 37.0234 1726.38 37.0234C1726.49 36.9974 1726.58 36.9844 1726.63 36.9844C1726.7 36.9714 1726.76 36.9518 1726.83 36.9258C1726.88 36.9128 1726.94 36.8932 1727.02 36.8672C1727.09 36.8411 1727.13 36.8216 1727.14 36.8086C1727.15 36.7956 1727.17 36.7826 1727.2 36.7695L1727.26 36.5352C1727.23 36.4831 1727.21 36.4375 1727.2 36.3984C1727.2 36.3464 1727.19 36.3008 1727.16 36.2617C1727.15 36.2227 1727.11 36.1641 1727.06 36.0859C1727.02 36.0078 1726.98 35.9427 1726.94 35.8906ZM1733.11 35.0508C1733.13 34.8034 1733.22 34.6211 1733.39 34.5039C1733.56 34.3737 1733.74 34.3086 1733.93 34.3086C1734.13 34.3086 1734.3 34.3737 1734.44 34.5039C1734.6 34.6211 1734.67 34.8034 1734.66 35.0508C1734.66 35.1289 1734.65 35.2135 1734.64 35.3047C1734.64 35.3828 1734.64 35.4609 1734.64 35.5391C1735.05 35.3307 1735.49 35.1549 1735.95 35.0117C1736.41 34.8555 1736.88 34.7578 1737.33 34.7188C1737.8 34.6797 1738.25 34.7188 1738.68 34.8359C1739.12 34.9401 1739.53 35.1484 1739.89 35.4609C1740.07 35.6302 1740.15 35.8125 1740.13 36.0078C1740.11 36.2031 1740.03 36.3724 1739.89 36.5156C1739.76 36.6458 1739.59 36.7305 1739.38 36.7695C1739.17 36.7956 1738.97 36.7305 1738.78 36.5742C1738.63 36.457 1738.47 36.3724 1738.29 36.3203C1738.12 36.2682 1737.93 36.2487 1737.72 36.2617C1737.53 36.2617 1737.33 36.2812 1737.12 36.3203C1736.92 36.3594 1736.73 36.4049 1736.55 36.457C1735.86 36.6784 1735.22 36.9714 1734.62 37.3359C1734.64 37.974 1734.68 38.612 1734.73 39.25C1734.79 39.7839 1734.83 40.3372 1734.87 40.9102C1734.91 41.4701 1735.02 42.0039 1735.2 42.5117C1735.28 42.7461 1735.26 42.9414 1735.14 43.0977C1735.04 43.2669 1734.89 43.3776 1734.7 43.4297C1734.51 43.4818 1734.32 43.4688 1734.11 43.3906C1733.91 43.3125 1733.78 43.1562 1733.7 42.9219C1733.6 42.6224 1733.52 42.3164 1733.48 42.0039C1733.45 41.6914 1733.41 41.3789 1733.37 41.0664C1733.34 40.7669 1733.31 40.4674 1733.27 40.168C1733.24 39.8555 1733.22 39.5495 1733.19 39.25C1733.13 38.5469 1733.08 37.8503 1733.06 37.1602C1733.04 36.457 1733.06 35.7539 1733.11 35.0508ZM1743.46 42.8047C1743.57 42.1797 1743.68 41.5677 1743.81 40.9688C1743.96 40.3568 1744.06 39.7383 1744.13 39.1133C1744.18 38.5013 1744.19 37.9023 1744.15 37.3164C1744.12 36.7174 1744.16 36.112 1744.26 35.5C1744.29 35.2917 1744.41 35.1354 1744.62 35.0312C1744.84 34.9271 1745.04 34.901 1745.22 34.9531C1745.44 35.0182 1745.59 35.1419 1745.67 35.3242C1745.76 35.5065 1745.79 35.7018 1745.77 35.9102C1745.72 36.2096 1745.69 36.5156 1745.69 36.8281C1745.7 37.1406 1745.72 37.4531 1745.73 37.7656C1745.73 38.3646 1745.69 38.9635 1745.61 39.5625C1745.53 40.1875 1745.43 40.7995 1745.3 41.3984C1745.18 41.9974 1745.07 42.6029 1744.97 43.2148C1744.93 43.4232 1744.8 43.5794 1744.6 43.6836C1744.39 43.7878 1744.19 43.8138 1744.01 43.7617C1743.79 43.6966 1743.63 43.5729 1743.54 43.3906C1743.45 43.2083 1743.42 43.013 1743.46 42.8047ZM1744.4 33.8203C1744.31 33.7943 1744.22 33.7552 1744.13 33.7031C1744.04 33.638 1743.97 33.5599 1743.93 33.4688C1743.89 33.3646 1743.86 33.2734 1743.83 33.1953C1743.81 33.1172 1743.79 33.026 1743.79 32.9219C1743.79 32.8047 1743.81 32.6875 1743.85 32.5703C1743.91 32.3359 1744.01 32.1667 1744.17 32.0625C1744.22 31.9844 1744.29 31.9258 1744.38 31.8867C1744.52 31.7956 1744.69 31.75 1744.87 31.75C1745.05 31.737 1745.21 31.7826 1745.36 31.8867C1745.42 31.9388 1745.49 31.9974 1745.55 32.0625C1745.62 32.1146 1745.67 32.1862 1745.71 32.2773C1745.74 32.3424 1745.76 32.4141 1745.79 32.4922C1745.83 32.5703 1745.84 32.6484 1745.83 32.7266C1745.81 32.8177 1745.8 32.9023 1745.79 32.9805C1745.77 33.0586 1745.74 33.1302 1745.69 33.1953C1745.62 33.2865 1745.57 33.3516 1745.53 33.3906C1745.49 33.4297 1745.43 33.4818 1745.34 33.5469C1745.29 33.599 1745.21 33.638 1745.1 33.6641C1744.83 33.8203 1744.6 33.8724 1744.4 33.8203ZM1752 43.2539C1751.81 43.319 1751.61 43.2995 1751.39 43.1953C1751.18 43.0911 1751.06 42.9349 1751.04 42.7266C1750.86 41.5807 1750.74 40.4479 1750.69 39.3281C1750.65 38.1953 1750.63 37.056 1750.63 35.9102C1750.63 35.7148 1750.68 35.5586 1750.78 35.4414C1750.89 35.3242 1751.01 35.2461 1751.16 35.207C1751.3 35.168 1751.45 35.1615 1751.61 35.1875C1751.76 35.2135 1751.89 35.2786 1752 35.3828C1752.3 35.1354 1752.61 34.9206 1752.95 34.7383C1753.29 34.556 1753.63 34.4388 1753.97 34.3867C1754.32 34.3216 1754.66 34.3411 1755 34.4453C1755.34 34.5365 1755.66 34.7383 1755.96 35.0508C1756.21 35.3112 1756.42 35.5911 1756.61 35.8906C1756.79 36.1771 1756.95 36.4831 1757.09 36.8086C1757.29 36.3138 1757.56 35.8581 1757.91 35.4414C1758.27 35.0247 1758.71 34.7448 1759.26 34.6016C1759.66 34.4974 1759.98 34.5234 1760.22 34.6797C1760.45 34.8229 1760.67 35.0508 1760.88 35.3633C1761.1 35.6888 1761.31 36.0208 1761.49 36.3594C1761.68 36.6979 1761.87 37.043 1762.03 37.3945C1762.2 37.7461 1762.37 38.0977 1762.52 38.4492C1762.68 38.8008 1762.84 39.1458 1762.99 39.4844C1763.17 39.862 1763.33 40.2396 1763.46 40.6172C1763.6 40.9818 1763.69 41.3724 1763.73 41.7891C1763.76 42.0104 1763.68 42.1992 1763.5 42.3555C1763.33 42.4987 1763.15 42.5703 1762.95 42.5703C1762.73 42.5703 1762.55 42.4987 1762.41 42.3555C1762.28 42.1992 1762.2 42.0104 1762.17 41.7891C1762.15 41.4766 1762.06 41.1771 1761.92 40.8906C1761.79 40.5911 1761.66 40.2982 1761.53 40.0117C1761.38 39.7122 1761.24 39.4062 1761.1 39.0938C1760.97 38.7812 1760.83 38.4753 1760.69 38.1758C1760.54 37.8763 1760.39 37.5768 1760.22 37.2773C1760.06 36.9779 1759.89 36.6849 1759.71 36.3984C1759.68 36.3594 1759.66 36.3203 1759.63 36.2812C1759.61 36.2422 1759.58 36.2031 1759.55 36.1641C1759.29 36.3073 1759.11 36.444 1758.99 36.5742C1758.87 36.7044 1758.76 36.8802 1758.66 37.1016C1758.56 37.2969 1758.49 37.5052 1758.42 37.7266C1758.37 37.9349 1758.32 38.1497 1758.28 38.3711C1758.21 38.7878 1758.15 39.224 1758.11 39.6797C1758.08 40.0182 1758.08 40.3438 1758.11 40.6562C1758.15 40.9688 1758.14 41.2943 1758.07 41.6328C1758.03 41.8411 1757.91 41.9974 1757.7 42.1016C1757.5 42.2057 1757.31 42.2318 1757.11 42.1797C1756.93 42.1276 1756.79 42.0365 1756.7 41.9062C1756.62 41.763 1756.57 41.6003 1756.55 41.418C1756.49 41.0013 1756.44 40.5716 1756.37 40.1289C1756.31 39.6862 1756.22 39.25 1756.12 38.8203C1756.01 38.3776 1755.88 37.9544 1755.71 37.5508C1755.55 37.1341 1755.34 36.75 1755.08 36.3984C1754.9 36.1641 1754.71 36.0078 1754.52 35.9297C1754.33 35.8516 1754.11 35.8841 1753.83 36.0273C1753.53 36.1836 1753.24 36.3724 1752.95 36.5938C1752.67 36.8151 1752.41 37.0625 1752.19 37.3359C1752.2 38.1693 1752.23 39.0026 1752.27 39.8359C1752.32 40.6562 1752.41 41.4766 1752.54 42.2969C1752.57 42.5182 1752.54 42.7201 1752.44 42.9023C1752.37 43.0716 1752.22 43.1888 1752 43.2539ZM1767.72 35.4219C1767.96 35.0833 1768.26 34.7839 1768.59 34.5234C1768.95 34.263 1769.32 34.0612 1769.71 33.918C1770.1 33.7617 1770.5 33.6836 1770.92 33.6836C1771.34 33.6706 1771.75 33.7487 1772.17 33.918C1772.57 34.0742 1772.94 34.2891 1773.26 34.5625C1773.59 34.8229 1773.84 35.1615 1774.02 35.5781C1774.17 35.8906 1774.25 36.2292 1774.28 36.5938C1774.3 36.9583 1774.21 37.2904 1773.99 37.5898C1773.79 37.8633 1773.55 38.0716 1773.26 38.2148C1772.99 38.3581 1772.69 38.4622 1772.36 38.5273C1772.05 38.5924 1771.73 38.625 1771.39 38.625C1771.06 38.625 1770.75 38.6185 1770.45 38.6055C1770.11 38.5924 1769.77 38.5664 1769.43 38.5273C1769.11 38.4883 1768.78 38.4492 1768.44 38.4102C1768.54 38.9961 1768.75 39.5169 1769.06 39.9727C1769.38 40.4284 1769.8 40.7734 1770.33 41.0078C1770.48 41.0599 1770.59 41.099 1770.67 41.125C1770.7 41.138 1770.74 41.151 1770.76 41.1641C1770.8 41.1641 1770.84 41.1641 1770.88 41.1641C1770.98 41.1771 1771.07 41.1901 1771.13 41.2031C1771.21 41.2031 1771.28 41.1966 1771.35 41.1836C1771.44 41.1706 1771.5 41.1641 1771.52 41.1641C1771.56 41.151 1771.6 41.138 1771.64 41.125C1771.79 41.0859 1771.91 41.0404 1772.01 40.9883C1772.13 40.9362 1772.27 40.8516 1772.42 40.7344C1772.5 40.6693 1772.61 40.5716 1772.74 40.4414C1772.87 40.3112 1772.98 40.194 1773.07 40.0898C1773.2 39.9076 1773.35 39.7839 1773.54 39.7188C1773.73 39.6536 1773.93 39.6797 1774.12 39.7969C1774.29 39.901 1774.41 40.0638 1774.47 40.2852C1774.55 40.4935 1774.53 40.6888 1774.4 40.8711C1774.02 41.3789 1773.57 41.8151 1773.05 42.1797C1772.54 42.5312 1771.95 42.7201 1771.29 42.7461C1770.76 42.7721 1770.24 42.681 1769.75 42.4727C1769.25 42.2513 1768.82 41.9583 1768.44 41.5938C1767.97 41.138 1767.6 40.6107 1767.33 40.0117C1767.05 39.4128 1766.9 38.8008 1766.88 38.1758C1766.76 38.0846 1766.67 37.974 1766.6 37.8438C1766.55 37.7005 1766.53 37.5573 1766.54 37.4141C1766.57 37.2708 1766.62 37.1406 1766.7 37.0234C1766.78 36.8932 1766.9 36.8086 1767.05 36.7695C1767.2 36.2878 1767.42 35.8385 1767.72 35.4219ZM1772.4 35.8906C1772.26 35.7083 1772.04 35.5456 1771.74 35.4023C1771.49 35.2982 1771.2 35.2461 1770.86 35.2461C1770.54 35.2461 1770.26 35.3047 1770.02 35.4219C1769.72 35.5651 1769.45 35.7669 1769.22 36.0273C1768.99 36.2747 1768.8 36.5547 1768.65 36.8672C1768.97 36.9062 1769.28 36.9453 1769.59 36.9844C1769.9 37.0234 1770.22 37.0495 1770.53 37.0625C1770.7 37.0625 1770.87 37.0625 1771.04 37.0625C1771.21 37.0625 1771.37 37.056 1771.54 37.043C1771.6 37.043 1771.64 37.043 1771.68 37.043C1771.73 37.0299 1771.79 37.0234 1771.84 37.0234C1771.95 36.9974 1772.04 36.9844 1772.09 36.9844C1772.16 36.9714 1772.22 36.9518 1772.29 36.9258C1772.34 36.9128 1772.4 36.8932 1772.48 36.8672C1772.55 36.8411 1772.59 36.8216 1772.6 36.8086C1772.61 36.7956 1772.63 36.7826 1772.66 36.7695L1772.72 36.5352C1772.69 36.4831 1772.67 36.4375 1772.66 36.3984C1772.66 36.3464 1772.64 36.3008 1772.62 36.2617C1772.61 36.2227 1772.57 36.1641 1772.52 36.0859C1772.48 36.0078 1772.44 35.9427 1772.4 35.8906ZM1778.44 41.125C1778.44 40.5651 1778.48 39.9987 1778.55 39.4258C1778.64 38.7357 1778.74 38.0521 1778.83 37.375C1778.92 36.6849 1778.96 35.9883 1778.94 35.2852C1778.94 35.0378 1779.02 34.849 1779.18 34.7188C1779.33 34.5885 1779.51 34.5234 1779.71 34.5234C1779.9 34.5234 1780.08 34.5885 1780.25 34.7188C1780.42 34.849 1780.51 35.0378 1780.51 35.2852C1781.01 35.2461 1781.5 35.2266 1781.95 35.2266C1782.47 35.2396 1782.92 35.3893 1783.28 35.6758C1783.64 35.9622 1783.92 36.3464 1784.1 36.8281C1784.26 37.2708 1784.35 37.7266 1784.37 38.1953C1784.4 38.6641 1784.42 39.1328 1784.43 39.6016C1784.45 40.2656 1784.46 40.9297 1784.49 41.5938C1784.52 42.2448 1784.53 42.9023 1784.53 43.5664C1784.53 43.8268 1784.45 44.0156 1784.28 44.1328C1784.12 44.263 1783.94 44.3281 1783.75 44.3281C1783.57 44.3281 1783.39 44.263 1783.22 44.1328C1783.07 44.0156 1782.99 43.8268 1782.99 43.5664C1782.99 42.9414 1782.97 42.3294 1782.95 41.7305C1782.94 41.1315 1782.92 40.5195 1782.89 39.8945C1782.86 39.556 1782.85 39.2109 1782.85 38.8594C1782.86 38.4948 1782.84 38.1628 1782.77 37.8633C1782.73 37.681 1782.69 37.5247 1782.66 37.3945C1782.62 37.2513 1782.54 37.1146 1782.44 36.9844C1782.41 36.9323 1782.36 36.8867 1782.26 36.8477C1782.19 36.8086 1782.11 36.7891 1782.05 36.7891C1781.85 36.7891 1781.67 36.8021 1781.5 36.8281C1781.33 36.8542 1781.16 36.8932 1780.98 36.9453C1780.9 36.9714 1780.82 36.9974 1780.74 37.0234C1780.66 37.0495 1780.59 37.082 1780.53 37.1211C1780.4 37.5898 1780.3 38.0391 1780.23 38.4688C1780.18 38.8854 1780.13 39.3086 1780.08 39.7383C1780.04 40.0508 1780.01 40.3698 1780 40.6953C1780 41.0078 1779.99 41.3203 1779.96 41.6328C1779.95 41.9453 1779.91 42.2578 1779.84 42.5703C1779.79 42.8828 1779.69 43.1823 1779.55 43.4688C1779.43 43.6901 1779.28 43.8138 1779.08 43.8398C1778.89 43.8789 1778.7 43.8464 1778.53 43.7422C1778.38 43.651 1778.25 43.5078 1778.16 43.3125C1778.08 43.1172 1778.1 42.9089 1778.2 42.6875C1778.32 42.4531 1778.38 42.1992 1778.4 41.9258C1778.41 41.6523 1778.42 41.3854 1778.44 41.125ZM1794.76 36.1836C1795.01 36.1836 1795.19 36.2617 1795.31 36.418C1795.44 36.5742 1795.5 36.75 1795.5 36.9453C1795.5 37.1406 1795.44 37.3229 1795.31 37.4922C1795.19 37.6484 1795.01 37.7266 1794.76 37.7266C1794.45 37.7396 1794.14 37.7396 1793.82 37.7266C1793.53 37.7005 1793.23 37.6745 1792.93 37.6484C1792.94 38.6771 1792.92 39.7057 1792.87 40.7344C1792.83 41.763 1792.72 42.7852 1792.56 43.8008C1792.53 44.0221 1792.41 44.1849 1792.2 44.2891C1792 44.3932 1791.79 44.4128 1791.6 44.3477C1791.38 44.2826 1791.22 44.1589 1791.13 43.9766C1791.05 43.8073 1791.03 43.612 1791.07 43.3906C1791.23 42.401 1791.31 41.4115 1791.32 40.4219C1791.35 39.4323 1791.35 38.4362 1791.32 37.4336C1790.83 37.3555 1790.33 37.2773 1789.82 37.1992C1789.31 37.1081 1788.81 37.0299 1788.32 36.9648C1788.1 36.9388 1787.94 36.8216 1787.85 36.6133C1787.74 36.3919 1787.72 36.1901 1787.77 36.0078C1787.84 35.7865 1787.96 35.6367 1788.14 35.5586C1788.32 35.4674 1788.52 35.4349 1788.73 35.4609C1789.16 35.526 1789.59 35.5977 1790.02 35.6758C1790.45 35.7409 1790.88 35.806 1791.32 35.8711C1791.31 35.806 1791.31 35.7083 1791.31 35.5781C1791.31 34.4062 1791.3 33.2474 1791.29 32.1016C1791.29 30.9557 1791.34 29.7969 1791.46 28.625C1791.49 28.4167 1791.57 28.2344 1791.7 28.0781C1791.84 27.9219 1792.02 27.8438 1792.24 27.8438C1792.44 27.8438 1792.62 27.9219 1792.79 28.0781C1792.97 28.2344 1793.05 28.4167 1793.02 28.625C1792.89 29.875 1792.83 31.1185 1792.83 32.3555C1792.84 33.5794 1792.86 34.8229 1792.89 36.0859C1793.2 36.112 1793.51 36.138 1793.82 36.1641C1794.14 36.1771 1794.45 36.1836 1794.76 36.1836ZM1799.74 38.6641C1799.4 38.4167 1799.16 38.1107 1799.02 37.7461C1798.87 37.3685 1798.87 36.9714 1799 36.5547C1799.13 36.1771 1799.33 35.8385 1799.6 35.5391C1799.88 35.2396 1800.19 34.9987 1800.54 34.8164C1800.93 34.6081 1801.35 34.4453 1801.79 34.3281C1802.23 34.2109 1802.68 34.1458 1803.14 34.1328C1803.59 34.1198 1804.04 34.1654 1804.49 34.2695C1804.94 34.3607 1805.37 34.5104 1805.78 34.7188C1806 34.8359 1806.12 34.9922 1806.15 35.1875C1806.17 35.3828 1806.13 35.5651 1806.03 35.7344C1805.94 35.9036 1805.79 36.0273 1805.6 36.1055C1805.4 36.1836 1805.2 36.1641 1804.97 36.0469C1804.66 35.8776 1804.31 35.7669 1803.92 35.7148C1803.53 35.6628 1803.13 35.6628 1802.73 35.7148C1802.34 35.7539 1801.97 35.8516 1801.62 36.0078C1801.26 36.1641 1800.97 36.3659 1800.74 36.6133C1800.67 36.6784 1800.63 36.724 1800.6 36.75C1800.59 36.776 1800.56 36.8346 1800.52 36.9258L1800.48 37.1406C1800.52 37.2578 1800.55 37.3294 1800.58 37.3555C1800.84 37.5247 1801.11 37.6354 1801.38 37.6875C1801.67 37.7266 1801.95 37.7526 1802.24 37.7656C1802.64 37.7917 1803.05 37.8177 1803.47 37.8438C1803.9 37.8568 1804.31 37.9089 1804.7 38C1805.1 38.0911 1805.48 38.2409 1805.81 38.4492C1806.15 38.6576 1806.44 38.9635 1806.67 39.3672C1806.93 39.8229 1807.05 40.2982 1807.03 40.793C1807.01 41.2747 1806.82 41.7109 1806.46 42.1016C1806.09 42.4922 1805.67 42.7656 1805.19 42.9219C1804.71 43.0651 1804.22 43.1693 1803.72 43.2344C1803.28 43.2865 1802.82 43.2995 1802.34 43.2734C1801.87 43.2474 1801.41 43.1693 1800.97 43.0391C1800.54 42.9219 1800.14 42.7396 1799.76 42.4922C1799.38 42.2318 1799.07 41.8932 1798.82 41.4766C1798.71 41.2682 1798.69 41.0729 1798.76 40.8906C1798.84 40.6953 1798.96 40.5521 1799.12 40.4609C1799.28 40.3568 1799.47 40.3177 1799.66 40.3438C1799.87 40.3698 1800.04 40.487 1800.17 40.6953C1800.35 40.9948 1800.61 41.2227 1800.93 41.3789C1801.26 41.5352 1801.61 41.6458 1801.99 41.7109C1802.38 41.763 1802.77 41.776 1803.16 41.75C1803.55 41.7109 1803.9 41.6589 1804.21 41.5938C1804.38 41.5547 1804.55 41.5026 1804.72 41.4375C1804.9 41.3594 1805.05 41.2682 1805.17 41.1641C1805.3 41.0599 1805.39 40.9427 1805.44 40.8125C1805.5 40.6693 1805.49 40.513 1805.42 40.3438C1805.29 40.0182 1805.07 39.7839 1804.76 39.6406C1804.46 39.4974 1804.14 39.4128 1803.8 39.3867C1803.46 39.3607 1803.12 39.3477 1802.77 39.3477C1802.42 39.3477 1802.06 39.3346 1801.71 39.3086C1801.36 39.2695 1801.02 39.2044 1800.68 39.1133C1800.34 39.0221 1800.03 38.8724 1799.74 38.6641Z" fill="#280206"/>
<line x1="1.86084" y1="4.53125" x2="1844.14" y2="4.53125" stroke="#280206" stroke-width="2.5" stroke-linecap="round"/>
<line x1="1.86084" y1="69.5312" x2="1844.14" y2="69.5312" stroke="#280206" stroke-width="2.5" stroke-linecap="round"/>
<path d="M3.7876 2V72" stroke="#280206" stroke-width="2.5" stroke-linecap="round"/>
<path d="M133.788 2V72" stroke="#280206" stroke-width="2.5" stroke-linecap="round"/>
<path d="M1841.7 2V72" stroke="#280206" stroke-width="2.5" stroke-linecap="round"/>
<g clip-path="url(#clip0)">
<path fill-rule="evenodd" clip-rule="evenodd" d="M68.7876 12.7812C82.1632 12.7812 93.0063 23.6244 93.0063 37C93.0063 50.3756 82.1632 61.2188 68.7876 61.2188C55.412 61.2188 44.5688 50.3756 44.5688 37C44.5688 23.6244 55.412 12.7812 68.7876 12.7812ZM77.4696 33.3453C77.4696 36.797 74.6715 39.5953 71.2198 39.5953C67.7681 39.5953 64.9698 36.797 64.9698 33.3453C64.9698 29.8934 67.7681 27.0953 71.2198 27.0953C74.6715 27.0953 77.4696 29.8934 77.4696 33.3453Z" fill="white"/>
<path d="M71.0429 55.75V18.25C63.2304 18.25 56.9805 24.5962 56.9805 32.5289V55.75H71.0429Z" fill="#660813"/>
<path d="M71.2197 39.5952C74.6714 39.5952 77.4696 36.7969 77.4696 33.3452C77.4696 29.8933 74.6714 27.0952 71.2197 27.0952C67.768 27.0952 64.9697 29.8933 64.9697 33.3452C64.9697 36.7969 67.768 39.5952 71.2197 39.5952Z" fill="#E84141"/>
</g>
<defs>
<clipPath id="clip0">
<rect width="50" height="50" fill="white" transform="translate(43.7876 12)"/>
</clipPath>
</defs>
</svg>
