<svg width="76" height="17" viewBox="0 0 76 17" fill="none" xmlns="http://www.w3.org/2000/svg">
<path d="M11.4401 6.8128C11.9026 6.52685 12.2593 6.09785 12.4559 5.59087C12.6526 5.08389 12.6785 4.52661 12.5298 4.00356C12.3811 3.4805 12.0658 3.02023 11.6318 2.69256C11.1979 2.36488 10.6689 2.18769 10.1251 2.18787H5.87509C5.33129 2.18767 4.80226 2.36485 4.36827 2.69253C3.93427 3.0202 3.619 3.48049 3.47028 4.00356C3.32156 4.52663 3.3475 5.08394 3.54418 5.59093C3.74086 6.09792 4.09753 6.52693 4.56009 6.81287C4.19781 7.03668 3.89876 7.3494 3.69136 7.72132C3.48396 8.09324 3.37509 8.51201 3.3751 8.93785C3.37511 9.36369 3.48399 9.78246 3.6914 10.1544C3.89881 10.5263 4.19786 10.839 4.56015 11.0628C4.18982 11.292 3.88581 11.614 3.67823 11.9969C3.47066 12.3798 3.36673 12.8102 3.37675 13.2456C3.38677 13.6811 3.51038 14.1063 3.73534 14.4792C3.9603 14.8521 4.2788 15.1598 4.65928 15.3718C5.03976 15.5837 5.46901 15.6925 5.90451 15.6875C6.34001 15.6825 6.76663 15.5637 7.1421 15.343C7.51758 15.1223 7.82887 14.8074 8.04514 14.4293C8.26141 14.0513 8.37515 13.6233 8.37509 13.1878V10.7209C8.62592 10.9672 8.9259 11.1578 9.25542 11.2802C9.58494 11.4027 9.93658 11.4542 10.2874 11.4314C10.6382 11.4087 10.9802 11.3122 11.2912 11.1482C11.6021 10.9843 11.875 10.7566 12.0919 10.4799C12.3088 10.2033 12.465 9.88407 12.5501 9.543C12.6352 9.20194 12.6474 8.84675 12.5859 8.50064C12.5244 8.15454 12.3905 7.82531 12.1931 7.53447C11.9956 7.24362 11.7391 6.99771 11.4401 6.8128ZM11.8751 4.68787C11.8746 5.15162 11.6902 5.59625 11.3624 5.9243C11.0346 6.25234 10.5901 6.43702 10.1263 6.43787L10.1251 6.4378L10.1227 6.43787L8.37509 6.4378V2.93787H10.1251C10.5891 2.93838 11.0339 3.12292 11.362 3.451C11.69 3.77907 11.8746 4.2239 11.8751 4.68787ZM4.12509 4.68787C4.1256 4.2239 4.31014 3.77907 4.63822 3.451C4.9663 3.12292 5.41112 2.93838 5.87509 2.93787H7.62509V6.4378H5.8739C5.41015 6.43698 4.96564 6.25231 4.63782 5.92428C4.31 5.59625 4.12562 5.15162 4.12509 4.68787ZM4.12509 8.9378C4.1256 8.47404 4.30998 8.0294 4.6378 7.70135C4.96562 7.37331 5.41014 7.18863 5.8739 7.1878L5.87509 7.18787H7.62509V10.6877L5.87509 10.6878C5.41112 10.6873 4.9663 10.5028 4.63822 10.1747C4.31014 9.8466 4.1256 9.40178 4.12509 8.9378ZM5.87509 14.9377C5.6444 14.9391 5.41571 14.8949 5.20219 14.8075C4.98866 14.7202 4.79451 14.5915 4.6309 14.4289C4.46728 14.2663 4.33744 14.0729 4.24884 13.8599C4.16024 13.6469 4.11463 13.4185 4.11463 13.1878C4.11463 12.9571 4.16024 12.7287 4.24884 12.5157C4.33744 12.3027 4.46728 12.1093 4.6309 11.9466C4.79451 11.784 4.98866 11.6553 5.20219 11.568C5.41571 11.4807 5.6444 11.4364 5.87509 11.4378H7.62509V13.1878C7.62456 13.6518 7.44001 14.0966 7.11194 14.4246C6.78386 14.7527 6.33905 14.9372 5.87509 14.9377ZM10.1251 10.6878C9.66277 10.6854 9.22019 10.5001 8.89401 10.1725C8.56784 9.84479 8.38458 9.40138 8.38426 8.93905C8.38394 8.47672 8.56658 8.03305 8.89229 7.70493C9.21801 7.37682 9.66033 7.19093 10.1227 7.18787H10.1263C10.5887 7.19079 11.031 7.37653 11.3568 7.70453C11.6827 8.03253 11.8654 8.47614 11.8653 8.93846C11.8651 9.40078 11.682 9.84425 11.356 10.172C11.0299 10.4998 10.5874 10.6852 10.1251 10.6878Z" fill="#343434"/>
<path d="M32.5208 1.93787H23.4792C23.1535 1.93745 22.831 2.00295 22.53 2.1306C22.229 2.25826 21.9556 2.44556 21.7253 2.68179C21.495 2.91801 21.3124 3.19852 21.1879 3.50724C21.0635 3.81597 20.9996 4.14684 21 4.48091V13.3948C20.9996 13.7289 21.0635 14.0598 21.1879 14.3685C21.3124 14.6772 21.495 14.9577 21.7253 15.1939C21.9556 15.4302 22.229 15.6175 22.53 15.7451C22.831 15.8728 23.1535 15.9383 23.4792 15.9379H32.5208C32.8465 15.9383 33.169 15.8728 33.47 15.7451C33.771 15.6175 34.0444 15.4302 34.2747 15.1939C34.505 14.9577 34.6876 14.6772 34.8121 14.3685C34.9366 14.0598 35.0004 13.7289 35 13.3948V4.48091C35.0004 4.14684 34.9366 3.81597 34.8121 3.50724C34.6876 3.19852 34.505 2.91801 34.2747 2.68179C34.0444 2.44556 33.771 2.25826 33.47 2.1306C33.169 2.00295 32.8465 1.93745 32.5208 1.93787ZM34.4098 13.1615C34.4114 13.4468 34.3581 13.7296 34.2528 13.9937C34.1475 14.2578 33.9923 14.4979 33.7962 14.7003C33.6001 14.9027 33.367 15.0633 33.1102 15.173C32.8534 15.2826 32.578 15.3391 32.2998 15.3392H23.7006C23.1394 15.3384 22.6014 15.1094 22.2046 14.7023C21.8077 14.2953 21.5844 13.7434 21.5836 13.1678V4.70753C21.5844 4.13187 21.8077 3.58003 22.2046 3.17298C22.6014 2.76593 23.1394 2.53688 23.7006 2.53605H32.2928C32.8543 2.53617 33.3927 2.76499 33.7896 3.17219C34.1866 3.5794 34.4097 4.13165 34.4098 4.70753V13.1615Z" fill="#343434"/>
<path d="M25.5058 10.6386L24.9773 12.6361C24.9668 12.6936 24.9458 12.7036 24.8808 12.7036H23.9018C23.8343 12.7036 23.8238 12.6826 23.8343 12.6071L25.7273 5.97711C25.7613 5.85711 25.7818 5.75061 25.7923 5.41961C25.7923 5.37511 25.8158 5.35461 25.8498 5.35461H27.2458C27.2903 5.35461 27.3133 5.36511 27.3238 5.41961L29.4463 12.6176C29.4593 12.6721 29.4463 12.7036 29.3918 12.7036H28.2928C28.2353 12.7036 28.2043 12.6906 28.1938 12.6461L27.6418 10.6381H25.5038L25.5058 10.6386ZM27.3653 9.55511C27.1778 8.81811 26.7378 7.20361 26.5738 6.42211H26.5608C26.4203 7.20061 26.0658 8.52111 25.7928 9.55511H27.3653ZM30.3653 5.84961C30.3653 5.42011 30.6623 5.16711 31.0478 5.16711C31.4543 5.16711 31.7303 5.44311 31.7303 5.84961C31.7303 6.28961 31.4438 6.53211 31.0348 6.53211C30.6363 6.53211 30.3628 6.29011 30.3628 5.84961H30.3653ZM30.4408 7.36511C30.4408 7.31311 30.4618 7.29211 30.5163 7.29211H31.5633C31.6233 7.29211 31.6438 7.31311 31.6438 7.37011V12.6331C31.6438 12.6876 31.6333 12.7086 31.5658 12.7086H30.5343C30.4668 12.7086 30.4458 12.6771 30.4458 12.6226V7.36461L30.4408 7.36511Z" fill="#343434"/>
<path d="M52.5208 1.93787H43.4792C43.1535 1.93745 42.831 2.00295 42.53 2.1306C42.229 2.25826 41.9556 2.44556 41.7253 2.68179C41.495 2.91801 41.3124 3.19852 41.1879 3.50724C41.0635 3.81597 40.9996 4.14684 41 4.48092V13.3948C40.9996 13.7289 41.0635 14.0598 41.1879 14.3685C41.3124 14.6772 41.495 14.9577 41.7253 15.1939C41.9556 15.4302 42.229 15.6175 42.53 15.7451C42.831 15.8728 43.1535 15.9383 43.4792 15.9379H52.5208C52.8465 15.9383 53.169 15.8728 53.47 15.7451C53.771 15.6175 54.0444 15.4302 54.2747 15.1939C54.505 14.9577 54.6876 14.6772 54.8121 14.3685C54.9366 14.0598 55.0004 13.7289 55 13.3948V4.48092C55.0004 4.14684 54.9366 3.81597 54.8121 3.50724C54.6876 3.19852 54.505 2.91801 54.2747 2.68179C54.0444 2.44556 53.771 2.25826 53.47 2.1306C53.169 2.00295 52.8465 1.93745 52.5208 1.93787ZM54.4098 13.1615C54.4114 13.4468 54.3581 13.7296 54.2528 13.9937C54.1475 14.2578 53.9923 14.4979 53.7962 14.7003C53.6001 14.9027 53.367 15.0633 53.1102 15.173C52.8534 15.2826 52.578 15.3391 52.2998 15.3392H43.7006C43.1394 15.3384 42.6014 15.1094 42.2046 14.7023C41.8077 14.2953 41.5844 13.7434 41.5836 13.1678V4.70753C41.5844 4.13187 41.8077 3.58003 42.2046 3.17298C42.6014 2.76593 43.1394 2.53688 43.7006 2.53605H52.2928C52.8543 2.53617 53.3927 2.76499 53.7896 3.17219C54.1866 3.5794 54.4097 4.13165 54.4098 4.70753V13.1615ZM46.5351 8.48912L48.1691 11.7075C48.1988 11.7564 48.1809 11.8031 48.1345 11.8031H47.1182C47.0548 11.8031 47.0251 11.787 46.9975 11.7259C46.6243 10.9361 46.2433 10.1463 45.8535 9.29776H45.8425C45.4838 10.1149 45.1138 10.9268 44.7326 11.7331C44.7059 11.7798 44.6762 11.7982 44.6281 11.7982H43.666C43.607 11.7982 43.6026 11.7493 43.6324 11.7143L45.2296 8.59143L43.6849 5.43181C43.6481 5.3829 43.6849 5.34744 43.7185 5.34744H44.7213C44.7803 5.34744 44.8035 5.35956 44.8263 5.41251C45.1985 6.20857 45.5624 7.00873 45.9178 7.81286H45.9287C46.2682 7.02306 46.6423 6.20276 47.0019 5.41969C47.0316 5.37078 47.0496 5.34026 47.1069 5.34026H48.0453C48.093 5.34026 48.1113 5.37796 48.082 5.42463L46.5351 8.48912ZM48.4556 9.4638C48.4556 8.07089 49.3582 6.98133 50.7936 6.98133C50.9165 6.98133 50.9804 6.98133 51.0967 6.99345V5.40892C51.0967 5.37123 51.1261 5.34789 51.1558 5.34789H52.0763C52.124 5.34789 52.1358 5.36629 52.1358 5.39456V10.8895C52.1358 11.0506 52.1358 11.2538 52.1655 11.4733C52.1655 11.511 52.1537 11.5222 52.1178 11.5415C51.6514 11.7688 51.1415 11.887 50.6251 11.8875C49.3582 11.8942 48.4556 11.0927 48.4556 9.4638ZM51.0972 7.93267C50.9894 7.89043 50.8748 7.86986 50.7594 7.87209C50.024 7.87209 49.5113 8.45367 49.5113 9.41713C49.5113 10.5179 50.035 10.9595 50.696 10.9595C50.8347 10.9595 50.9878 10.9433 51.0972 10.8944V7.93267Z" fill="#280206"/>
<path d="M64.4417 5.44385C64.4417 5.40795 64.4533 5.37804 64.5 5.37804C64.8675 5.36009 65.3925 5.34812 65.9583 5.34812C67.5333 5.34812 68.2217 6.23359 68.2217 7.37034C68.2217 8.8541 67.16 9.48829 65.8767 9.48829C65.6608 9.48829 65.585 9.47633 65.4333 9.47633V11.7498C65.4333 11.7977 65.4158 11.8156 65.3692 11.8156H64.5058C64.4592 11.8156 64.4417 11.7977 64.4417 11.7498V5.44385ZM65.4333 8.54299C65.5617 8.55496 65.6667 8.55496 65.8942 8.55496C66.5592 8.55496 67.195 8.31564 67.195 7.38829C67.195 6.64641 66.74 6.26949 65.9758 6.26949C65.7483 6.26949 65.5325 6.28146 65.4333 6.28744V8.54299ZM70.52 7.84898C70.0708 7.84898 69.9192 8.08231 69.9192 8.27376C69.9192 8.48317 70.0242 8.63274 70.625 8.94983C71.5175 9.39257 71.7975 9.81735 71.7975 10.4456C71.7975 11.3789 71.1033 11.8815 70.1642 11.8815C69.6683 11.8815 69.225 11.7738 68.98 11.6302C68.945 11.6122 68.9333 11.5823 68.9333 11.5344V10.6729C68.9333 10.6131 68.9625 10.5951 68.9975 10.625C69.3533 10.8644 69.7908 10.9721 70.1642 10.9721C70.6133 10.9721 70.8 10.7806 70.8 10.5174C70.8 10.308 70.6717 10.1225 70.0942 9.81137C69.2833 9.4165 68.9508 9.00966 68.9508 8.33958C68.9508 7.58573 69.5225 6.96351 70.52 6.96351C71.01 6.96351 71.3717 7.04128 71.5583 7.12505C71.605 7.15496 71.6167 7.20282 71.6167 7.23872V8.04043C71.6167 8.08829 71.5875 8.11821 71.535 8.10026C71.2783 7.9447 70.8875 7.84898 70.52 7.84898ZM63.4792 1.93787C62.1083 1.93787 61 3.07462 61 4.4806V13.3951C61 14.8011 62.1083 15.9379 63.4792 15.9379H72.5208C73.8917 15.9379 75 14.8011 75 13.3951V4.4806C75 3.07462 73.8917 1.93787 72.5208 1.93787H63.4792ZM63.7008 2.53616H72.2933C72.8549 2.53616 73.3935 2.76497 73.7906 3.17226C74.1877 3.57955 74.4108 4.13196 74.4108 4.70795V13.1618C74.4121 13.4471 74.3584 13.7299 74.2528 13.9939C74.1473 14.2579 73.992 14.498 73.7958 14.7003C73.5996 14.9026 73.3664 15.0632 73.1096 15.1729C72.8528 15.2826 72.5774 15.3393 72.2992 15.3396H63.7008C62.5342 15.3396 61.5833 14.3644 61.5833 13.1678V4.70795C61.5833 3.51137 62.5342 2.53616 63.7008 2.53616Z" fill="#280206"/>
</svg>
