<svg width="168" height="7" viewBox="0 0 168 7" fill="none" xmlns="http://www.w3.org/2000/svg">
<path d="M144.61 3.92733L143.412 3.7373C147.256 3.70807 149.039 3.92733 152.328 3.83963L152.153 3.86886C152.635 3.92733 152.913 3.51804 158.175 4.11736V4.13198C158.365 4.13198 158.365 4.10274 158.716 4.14659L157.81 4.01504C158.351 3.9858 158.833 3.91271 159.564 3.91271C159.725 3.94195 159.769 3.97118 159.783 4.00042L161.567 4.01504L162.107 4.14659C162.648 4.10274 162.414 3.85424 163.876 4.01504C163.335 3.83963 164.607 3.92733 164.432 3.83963C164.505 3.86886 164.665 3.8981 164.812 3.92733C165.689 3.92733 167.326 3.91271 167.735 3.83963C167.735 3.83963 164.344 3.41572 163.423 3.21108C164.651 3.28416 163.745 3.19646 163.511 3.13799L163.423 3.18184C162.692 3.12337 162.692 3.02105 162.327 2.9772C162.327 2.99182 162.341 2.99182 162.341 3.00643L162.385 2.99182C162.414 3.00643 162.4 3.02105 162.356 3.03567C162.37 3.0649 162.327 3.07952 162.137 3.0649L162.18 3.05029C161.873 3.0649 161.347 3.03567 161.113 3.02105V2.93335C160.573 3.09414 157.459 2.59714 156.728 2.56791C155.997 2.43635 155.076 2.56791 154.17 2.49482C152.708 2.43635 153.439 2.34865 152.708 2.26094C151.787 2.18786 152.898 2.36327 152.518 2.36327L151.422 2.21709C152.065 2.21709 151.714 2.15862 151.597 2.12939C150.647 2.10015 149.156 1.91013 148.864 2.08553C147.592 1.98321 147.578 1.91013 147.037 1.89551C147.227 1.92474 147.578 1.96859 147.592 1.99783C147.081 1.91013 147.344 2.01245 147.563 2.02706C146.774 2.08553 143.514 1.64701 143.339 1.83704V1.8078C143.149 1.95398 143.441 2.10015 142.9 2.15862L142.535 2.08553L141.979 2.144C141.614 2.08553 141.789 2.0563 141.789 2.04168C140.897 2.10015 139.655 1.99783 138.573 1.9686L139.713 2.37788C138.807 2.27556 137.155 2.07092 136.98 2.18786L136.439 2.04168C134.612 1.77857 135.153 2.144 134.437 2.0563L133.516 1.91013L134.437 1.92474C133.516 1.83704 133.15 1.79319 132.434 1.69086H132.419C132.463 1.69086 132.507 1.70548 132.507 1.7201H132.375C132.259 1.79319 131.791 1.83704 131.148 1.82242C130.227 1.79319 129.51 1.89551 128.049 1.73472L127.683 1.88089L126.587 1.77857V1.66163C127.669 1.67625 129.686 1.64701 131.075 1.66163L131.104 1.60316C130.285 1.60316 129.35 1.63239 128.809 1.61778C128.546 1.58854 127.873 1.4716 128.356 1.3839L127.844 1.50084C125.111 1.48622 125.096 1.50084 122.231 1.35466L122.479 1.41313C121.909 1.44237 121.354 1.4716 121.193 1.3839C119.483 1.35466 117.7 1.28158 116.589 1.12078L116.326 1.26696C115.96 1.25234 115.419 1.0477 115.244 1.23772L114.469 1.29619C113.972 1.28158 113.665 1.36928 113.11 1.28158C113.08 1.28158 113.037 1.26696 113.007 1.26696V1.28158C111.882 1.22311 113.022 1.39852 111.736 1.32543C111.326 1.22311 111.283 1.50084 110.654 1.4716L110.025 1.28158C108.9 1.16464 108.695 1.36928 107.058 1.36928C106.269 1.29619 105.889 1.1354 106.415 0.974609C105.699 1.15002 106.093 1.09155 105.143 1.17925C104.997 1.10617 105.099 1.09155 105.304 1.01846C104.456 0.930757 104.778 1.09155 104.149 1.09155C103.959 1.23772 103.755 1.45698 103.55 1.4716L103.798 1.51545C103.126 1.58854 102.381 1.63239 101.606 1.55931L101.635 1.48622L100.802 1.53007L100.743 1.44237L99.5447 1.4716L99.7055 1.50084C99.4278 1.51545 98.5069 1.54469 97.9807 1.50084L97.9953 1.45698C96.5043 1.31081 95.2911 1.51545 93.5516 1.54469L93.7855 1.44237C93.1861 1.34005 93.6247 1.60316 92.923 1.55931L92.8938 1.42775C92.2799 1.60316 92.0898 1.39852 91.6659 1.34005L91.8706 1.50084L91.0666 1.4716C90.175 1.42775 90.5258 1.26696 90.6427 1.17925L90.0434 1.31081L89.9265 1.16464C89.4879 1.34005 89.4879 1.1354 88.7132 1.23772C88.6547 1.17925 88.8448 1.15002 88.5817 1.1354L87.3099 1.35466L88.0847 1.25234L87.997 1.4716C87.193 1.64701 86.9153 1.45698 86.3452 1.53007L86.7399 1.45698C85.8044 1.51545 85.7605 1.42775 85.2343 1.3839C85.3951 1.42775 85.6436 1.4716 85.2781 1.51545C85.0004 1.53007 85.1319 1.44237 84.8688 1.42775C84.8104 1.57392 84.138 1.64701 83.524 1.58854C83.524 1.57392 83.5386 1.54469 83.5825 1.53007C83.4217 1.55931 83.3486 1.58854 83.0709 1.55931L83.2317 1.39852L82.6616 1.55931C82.3108 1.51545 81.8138 1.64701 81.8576 1.53007L82.0477 1.50084H79.4312L79.3873 1.36928C79.1242 1.54469 77.9548 1.32543 78.0425 1.54469C77.5455 1.42775 76.0984 1.66163 76.3761 1.41313C74.6512 1.42775 73.7303 1.66163 71.6254 1.58854C70.8799 1.39851 68.8335 1.50084 67.4887 1.50084C64.8576 1.64701 63.1619 1.73472 60.4869 1.88089C58.8644 1.63239 56.4672 2.07092 54.7131 1.95398L54.2453 2.08553C53.0905 1.92474 51.3218 2.20247 49.6993 2.07092C49.3046 2.12939 49.1 2.15862 48.9976 2.15862C49.0707 2.15862 49.1877 2.18786 49.2169 2.24633C48.7491 2.20247 47.8136 2.3048 47.8867 2.15862L48.0037 2.144C48.0621 1.99783 46.6004 2.24633 46.0742 2.144L46.3665 2.29018H45.4895L45.7233 2.24633C41.9228 2.69947 40.1979 2.26094 36.6313 2.69947C37.0991 2.50944 35.9297 2.81641 35.8712 2.62638C34.9649 2.42174 34.2048 2.7287 33.4593 2.81641C33.4593 2.83102 33.4447 2.83102 33.4155 2.84564L32.1584 2.87488C32.9185 2.61176 31.2375 3.09414 31.9391 2.87488C28.5625 2.81641 24.1772 3.16722 20.2744 3.24031L20.4498 3.29878C19.4558 3.32802 18.2279 3.45957 17.4825 3.38649C16.7223 3.32802 15.8453 3.60575 15.553 3.63498C14.7344 3.78116 13.9743 3.60575 14.3251 3.59113C13.448 3.66422 12.6295 3.91271 11.4016 3.86886C10.9777 3.67883 8.08344 4.21968 8.03959 4.00042L8.02497 4.01504C6.46091 3.92733 4.99916 4.26353 3.30354 4.20506C3.30354 4.20506 3.33278 4.19045 3.39125 4.17583L0 5.00902L1.0086 5.71066L4.00518 6.17842C6.68017 6.01762 9.35516 5.8276 12.0302 5.66681L18.4618 5.63757C21.0637 5.50601 23.6656 5.40369 26.2675 5.28675C28.8694 5.16981 31.4713 5.05287 34.0732 4.96517L35.1842 4.76053C38.2684 4.95055 42.1859 4.48279 45.5041 4.59973L45.5625 4.45356C46.4981 4.42432 46.4396 4.51203 46.6589 4.52665C48.8222 4.45356 51.0149 4.38047 53.1928 4.29277C55.3708 4.21968 57.5488 4.14659 59.683 4.08812C60.7501 4.05889 61.8171 4.02965 62.8842 4.00042C63.9367 3.9858 64.9891 3.95657 66.027 3.94195C68.1026 3.91271 70.1198 3.8981 72.064 3.8981C72.8241 3.97118 75.1044 3.88348 75.7037 3.9858C78.2325 3.76654 80.9221 3.7373 83.4656 3.72269L83.3632 3.7373L84.5619 3.69345C84.6057 3.70807 84.6203 3.72269 84.5765 3.7373C85.9213 3.59113 88.0554 3.70807 89.7072 3.7373L89.6049 3.75192C94.4286 3.70807 99.0624 3.63498 103.696 3.57651C106.02 3.54728 108.33 3.53266 110.669 3.53266C113.007 3.53266 115.346 3.54728 117.743 3.62037C119.965 3.75192 122.363 3.7373 124.848 3.72269C127.332 3.70807 129.905 3.70807 132.449 3.82501C132.916 3.8981 135.723 3.92733 138.529 3.95657C141.336 3.95657 144.143 3.95657 144.61 3.92733Z" fill="#280206"/>
</svg>
