<svg width="79" height="45" viewBox="0 0 79 45" fill="none" xmlns="http://www.w3.org/2000/svg">
<path d="M78.5829 6.35087C78.5725 6.06696 78.4684 5.78305 78.3122 5.53069C78.2705 5.47812 78.2393 5.44657 78.1976 5.41503C78.1664 5.38348 78.1351 5.36245 78.1143 5.34142C78.0726 5.29936 78.0414 5.27833 78.0206 5.2573C78.0414 5.28884 78.0726 5.34142 78.0518 5.38348C77.9893 5.28884 77.8747 5.18369 77.781 5.09957C77.7706 5.06803 77.7602 5.03648 77.7602 5.00494C77.7602 4.86824 77.7289 4.74206 77.6769 4.60536C77.6248 4.52124 77.5727 4.44763 77.5102 4.38454C77.479 4.353 77.4478 4.32145 77.4269 4.28991C77.4061 4.26888 77.3853 4.24785 77.3644 4.22682C77.3019 4.16373 77.229 4.11115 77.1561 4.05857C77.1145 4.02703 77.0832 4.006 77.0416 3.97445C76.9999 3.94291 76.9478 3.92188 76.8958 3.87982C76.8437 3.84827 76.7916 3.80621 76.7291 3.76415C76.6666 3.72209 76.5938 3.68003 76.5208 3.62745C76.2501 3.40664 76.1459 3.22788 76.3959 3.26994C76.3021 3.24891 76.2501 3.2384 76.2084 3.2384L76.2605 3.15427C76.1147 3.05964 75.9793 2.965 75.8335 2.87037V2.85985H75.8231C75.8022 2.84934 75.7814 2.83882 75.771 2.81779L75.8022 2.82831C75.7085 2.77573 75.6148 2.72315 75.5106 2.67058C75.5002 2.66006 75.5106 2.64955 75.521 2.64955C75.4169 2.618 75.3023 2.56543 75.1878 2.50234C75.1774 2.48131 75.1774 2.46028 75.219 2.43925C74.8649 2.18688 74.5941 2.17637 74.2088 1.80834C74.1359 1.59804 73.6985 1.32464 73.4485 1.09331C73.1673 0.904039 72.9174 0.725282 72.6362 0.567555C72.4904 0.483434 72.3446 0.409828 72.1675 0.336223C71.9905 0.262617 71.803 0.199526 71.5635 0.157466C71.4281 0.0733446 71.251 0.0417993 71.0636 0.0312841L69.8138 0.0102539L70.1679 0.599101C70.1575 0.620131 70.1471 0.641161 70.1367 0.662191L70.0846 0.788373L70.0638 0.851463C70.0533 0.861979 70.0533 0.872494 70.0533 0.893524L70.0429 0.935584L70.0221 1.11434L70.0117 1.20898V1.23001V1.26155V1.31413C70.0221 1.46134 70.0325 1.59804 70.0325 1.74525V1.95555V2.0607V2.11328V2.14482C70.0221 2.28152 70.0221 2.42873 70.0013 2.57594C69.9492 3.15427 69.8555 3.76415 69.8034 4.43712C69.7617 4.72103 69.7513 5.02597 69.7721 5.3309L69.2827 5.28884C68.9181 5.2573 68.5432 5.22575 68.1787 5.21524L67.0643 5.15215C66.8769 5.14163 66.6998 5.13112 66.5124 5.1206L65.9604 5.09957L65.0751 5.02597L64.6377 4.98391C64.4919 4.97339 64.3461 4.96287 64.1899 4.95236C63.5962 4.92081 63.013 4.87875 62.4194 4.84721C59.5345 4.83669 56.6497 4.96287 53.7961 5.24678L53.192 5.40451C52.9837 5.40451 52.7546 5.40451 52.5359 5.41503C52.3068 5.42554 52.0776 5.44657 51.8485 5.47812C51.3798 5.53069 50.9008 5.58327 50.4113 5.65687C49.9218 5.73048 49.4323 5.80408 48.9532 5.87769C48.8283 5.89872 48.7137 5.90924 48.5887 5.93027C48.4742 5.9513 48.3492 5.96181 48.2346 5.98284C47.9951 6.01439 47.766 6.04593 47.5368 6.06696L47.516 6.15108C47.0161 6.2352 47.0369 6.18263 46.9015 6.19314C44.5478 6.61375 42.1941 7.17105 39.9341 7.79144C39.6529 7.86505 39.3717 7.94917 39.0905 8.03329C38.8094 8.11741 38.5282 8.19102 38.2574 8.27514C37.7054 8.44338 37.1534 8.60111 36.6119 8.77986C35.5287 9.11635 34.4873 9.47386 33.477 9.81034C33.2688 9.86292 32.8834 9.99962 32.5085 10.1363C32.1336 10.273 31.769 10.4202 31.6024 10.4518C30.3735 11.0722 29.0508 11.661 27.8115 12.2709L27.8531 12.2393C27.6657 12.334 27.4782 12.4496 27.2907 12.5443C27.2595 12.5548 27.2491 12.5443 27.2699 12.5338C27.1137 12.6284 26.9366 12.7335 26.7388 12.8387C26.5409 12.9439 26.3326 13.0595 26.1139 13.1752C25.8952 13.2908 25.666 13.396 25.4578 13.5117C25.239 13.6273 25.0308 13.743 24.8329 13.8376L24.8745 13.8061C23.7602 14.458 22.6875 15.1415 21.6772 15.8776L21.3023 16.151L20.9378 16.4349C20.6878 16.6241 20.4483 16.8029 20.1984 17.0027C19.7193 17.3917 19.2402 17.7703 18.782 18.1699L18.4383 18.4643L18.2612 18.6115L18.0946 18.7587L17.4176 19.3686C17.1885 19.5684 16.9698 19.7787 16.7511 19.989L16.4178 20.2939C16.3033 20.3991 16.1991 20.5042 16.095 20.6094C15.8763 20.8197 15.6576 21.03 15.4389 21.2403C15.2201 21.4506 15.0118 21.6714 14.7931 21.8817C14.5744 22.092 14.3661 22.3128 14.1474 22.5336C13.9391 22.7545 13.71 22.9753 13.5017 23.1961C12.6685 23.9952 11.8666 24.9416 11.0751 25.93C10.2836 26.9184 9.49208 27.9594 8.66932 28.9689C8.57559 29.053 8.31522 29.379 7.98195 29.8311C7.81532 30.0625 7.62785 30.3148 7.42998 30.5882C7.2321 30.8616 7.03422 31.156 6.82592 31.4505C6.62805 31.7449 6.43017 32.0393 6.2427 32.3232C6.05524 32.6071 5.88861 32.87 5.7428 33.1118C5.44077 33.585 5.2429 33.9425 5.18041 34.0477L5.60741 33.585C5.35746 33.9951 5.13875 34.3526 4.93046 34.6786C4.82631 34.8363 4.73258 34.9941 4.63885 35.1413C4.54511 35.2885 4.4618 35.4357 4.36806 35.5829C4.28475 35.7301 4.19102 35.8668 4.1077 36.014C4.02438 36.1612 3.94106 36.3084 3.85775 36.4557C3.77443 36.6134 3.69111 36.7606 3.60779 36.9288C3.52448 37.0971 3.44116 37.2758 3.35784 37.4546L3.37867 37.36C3.31618 37.4651 3.31618 37.5703 3.15996 37.9278C3.08706 38.1065 2.96209 38.3589 2.77462 38.6954C2.68089 38.8636 2.57674 39.0634 2.45177 39.2947C2.38928 39.4104 2.31638 39.5261 2.24347 39.6628C2.17057 39.789 2.09767 39.9362 2.01435 40.0729H2.00394C1.97269 40.157 1.99352 40.1675 1.88937 40.3252L2.12891 39.9256C2.05601 40.1885 2.01435 40.4304 1.87896 40.7669C1.8373 40.8405 1.80606 40.851 1.78523 40.851L1.49362 41.6922L1.3374 41.934C1.29574 42.2074 1.47279 42.1233 1.17076 42.7963C1.35823 42.5544 1.1291 43.1538 1.21242 43.0802C1.19159 43.1117 1.14993 43.1853 1.10828 43.2484C1.07703 43.3536 1.04579 43.4798 1.01454 43.6165C0.983299 43.7532 0.952055 43.9004 0.931226 44.0371C0.879153 44.3105 0.837494 44.5628 0.837494 44.668C0.837494 44.668 0.993714 44.2684 1.18118 43.8268C1.27491 43.6059 1.38947 43.3746 1.4832 43.1643C1.58735 42.9645 1.67067 42.7858 1.73316 42.6911C1.52486 43.2589 1.70191 42.8489 1.7644 42.7437L1.75398 42.7016C1.88937 42.3652 1.96228 42.3862 2.03518 42.2179C2.02477 42.2179 2.02477 42.2179 2.01435 42.2179V42.239C1.99352 42.2495 1.99352 42.239 1.99352 42.2179C1.98311 42.2179 1.97269 42.1969 2.00394 42.1128V42.1338C2.02477 42.0602 2.05601 41.9656 2.08725 41.8709C2.1185 41.7763 2.16016 41.6922 2.18099 41.6396L2.23306 41.6501C2.23306 41.5765 2.27472 41.4398 2.35803 41.2716C2.43094 41.1033 2.53508 40.893 2.64965 40.6932C2.76421 40.4935 2.87877 40.2832 2.98291 40.1044C3.07665 39.9256 3.17038 39.7889 3.20162 39.7048C3.30577 39.5576 3.38909 39.3683 3.46199 39.1686C3.54531 38.9688 3.62862 38.769 3.74318 38.5692C4.07645 37.9278 3.98272 38.2748 4.19102 37.9698C4.43055 37.5808 4.08687 38.0224 4.17019 37.8647L4.49304 37.4125C4.35765 37.6964 4.4618 37.5597 4.51387 37.5177C4.61802 37.3074 4.79507 37.0655 4.94087 36.8342C5.07626 36.6134 5.18041 36.4136 5.16999 36.3295C5.53451 35.8037 5.57617 35.8247 5.72197 35.5934C5.65948 35.667 5.55534 35.8142 5.52409 35.8037C5.70114 35.6039 5.57617 35.6986 5.51368 35.7827C5.58658 35.6039 5.89902 35.1938 6.18022 34.8258C6.46141 34.4473 6.72178 34.1108 6.69053 34.0477L6.71136 34.0582C6.68012 33.9425 6.5239 34.0267 6.61763 33.7743L6.75302 33.6376L6.86758 33.3958C6.99256 33.2591 6.97173 33.3432 6.97173 33.3432C7.18002 32.9541 7.57578 32.4599 7.88822 32.0288C7.70076 32.1445 7.52371 32.2601 7.34666 32.3863C7.64868 32.0393 8.2319 31.4189 8.21107 31.3032L8.4402 31.1245C9.11715 30.462 8.75264 30.5672 9.013 30.3043L9.3671 29.9783L9.09632 30.3464C9.40876 29.9994 9.54415 29.8732 9.81493 29.5998C9.7941 29.6208 9.78369 29.6313 9.77327 29.6313L9.80452 29.5788C9.7941 29.5157 9.91908 29.3054 10.117 29.053C10.2628 28.8743 10.3773 28.706 10.5127 28.5167C10.6585 28.3275 10.8356 28.1172 11.0959 27.8543L11.1272 27.665C11.2522 27.5283 11.3875 27.3916 11.5229 27.2654L11.5854 27.3075C11.4084 27.5178 11.1793 27.8227 10.9293 28.1487C10.6793 28.4747 10.4294 28.8112 10.2211 29.0951L10.2419 29.1266C10.3669 28.9584 10.4919 28.7796 10.6064 28.6219C10.721 28.4537 10.8356 28.3064 10.9189 28.2013C11.0022 28.1172 11.2313 27.9279 11.2001 28.0436L11.273 27.8543C12.127 26.7817 12.127 26.7712 13.1164 25.7197L13.0018 25.7933C13.1685 25.562 13.3351 25.3412 13.4392 25.3096C13.585 25.1519 13.7308 24.9837 13.8767 24.8259C14.0225 24.6682 14.1787 24.521 14.3245 24.3738C14.6161 24.0899 14.8869 23.8375 15.116 23.6693L15.1264 23.5326C15.2514 23.4064 15.543 23.2802 15.5118 23.1435C15.5951 23.0384 15.668 22.9437 15.7513 22.8386C15.9283 22.6598 16.0012 22.5231 16.2408 22.3549C16.2512 22.3444 16.272 22.3339 16.2824 22.3233C16.2824 22.3233 16.2824 22.3233 16.272 22.3233C16.699 21.9448 16.1991 22.2813 16.7094 21.8502C16.9073 21.745 16.7928 21.6188 17.0323 21.4085L17.3551 21.2613C17.5947 21.0826 17.7092 20.9669 17.8342 20.8092C17.9696 20.6619 18.105 20.4727 18.4174 20.1993C18.7507 19.9574 18.9694 19.9049 18.8444 20.1362C19.0319 19.8207 18.9173 19.9785 19.2402 19.621C19.3339 19.5999 19.3027 19.642 19.2506 19.7366C19.6151 19.4948 19.4173 19.5368 19.6672 19.3265C19.6776 19.2109 19.6568 19.0426 19.7401 18.969L19.6255 19.0321C19.7401 18.9059 19.8651 18.7797 20.0109 18.6536C20.1463 18.5274 20.3129 18.4117 20.4795 18.3066L20.5004 18.3486L20.8232 18.0647L20.8857 18.0857L21.1148 17.886C21.1982 17.8229 21.2711 17.7598 21.3544 17.6967L21.2815 17.7387C21.396 17.6441 21.7605 17.3497 21.9897 17.213L22.0001 17.2445C22.1667 17.1499 22.3229 17.0553 22.4687 16.9501C22.6146 16.845 22.7604 16.7398 22.9062 16.6241C23.1874 16.3928 23.4894 16.1615 23.8643 15.9091L23.8018 16.0248C24.0934 15.9091 23.8122 15.9091 24.1351 15.7304L24.1976 15.7829C24.4059 15.5306 24.5621 15.5831 24.7808 15.4885L24.635 15.4675L24.9995 15.2677C25.4161 15.0469 25.312 15.2151 25.2911 15.2992C25.364 15.2256 25.4369 15.152 25.5098 15.0784L25.614 15.1205C25.7494 14.9207 25.8223 15.0153 26.1347 14.7735C26.1868 14.784 26.1035 14.8471 26.2284 14.7945C26.3951 14.6473 26.5617 14.5106 26.7388 14.3739L26.4159 14.6158L26.3847 14.4896C26.6971 14.2057 26.8846 14.2267 27.1345 14.0585L26.9783 14.1846C27.3845 13.9218 27.447 13.9533 27.7073 13.8587C27.6136 13.8797 27.4782 13.9112 27.6448 13.8061C27.7698 13.7325 27.7386 13.8061 27.874 13.7535C27.8531 13.6694 28.1447 13.4696 28.4468 13.3539C28.4468 13.3645 28.4468 13.375 28.4363 13.396C28.4988 13.3539 28.5301 13.3119 28.6655 13.2698L28.6446 13.3855L28.8425 13.1857C29.0196 13.1331 29.2174 12.9544 29.2383 13.0175L29.155 13.0805C29.5716 12.8808 29.9985 12.702 30.4151 12.5127L30.4672 12.5653C30.5401 12.4181 31.1754 12.2919 31.0713 12.1973C31.342 12.1552 31.9878 11.7451 31.9148 11.9344C32.3419 11.7662 32.6439 11.6084 32.9876 11.4402C33.3312 11.2825 33.6958 11.1247 34.2269 10.9565C34.4352 10.946 34.7997 10.8408 35.1851 10.7041C35.5704 10.5779 35.9974 10.4307 36.3411 10.3151C36.6639 10.1889 36.966 10.0837 37.2576 9.97859C37.4034 9.92601 37.5388 9.87344 37.6742 9.83138C37.8095 9.7788 37.9449 9.73674 38.0907 9.69468C38.3615 9.60004 38.6427 9.50541 38.9343 9.41077C39.2259 9.31613 39.5384 9.2215 39.8821 9.11635C40.3299 9.0848 40.8402 8.92708 41.3714 8.77986C41.9025 8.63265 42.4337 8.46441 42.9023 8.40132L43.1314 8.27514C43.4543 8.26462 43.8292 8.16999 44.2458 8.07535C44.4541 8.02277 44.6624 7.98071 44.8811 7.93865C45.0998 7.89659 45.3185 7.86505 45.5372 7.85453C45.7351 7.79144 45.8497 7.7599 45.9017 7.74938C45.8601 7.74938 45.7976 7.74938 45.7663 7.71784C46.0163 7.69681 46.5058 7.57062 46.485 7.65475L46.4225 7.67578C46.4121 7.71784 46.5995 7.67578 46.8182 7.6232C47.0369 7.57062 47.3077 7.51805 47.4431 7.52856L47.2765 7.46547L47.7451 7.40238L47.6202 7.44444C48.1201 7.30775 48.5471 7.21311 48.9532 7.15002C49.3594 7.08693 49.7239 7.04487 50.0884 7.01332C50.8175 6.9292 51.5257 6.87663 52.4734 6.67684C52.2339 6.80302 52.8483 6.5822 52.89 6.68735C53.3899 6.77148 53.7856 6.57169 54.1814 6.49808C54.1814 6.48757 54.1814 6.48757 54.2022 6.47705C54.4313 6.45602 54.6709 6.43499 54.9 6.43499C54.4938 6.60323 55.3895 6.28778 55.025 6.42448C56.8475 6.3719 59.2325 6.18263 61.3467 6.22469L61.253 6.19314C61.5237 6.19314 61.8258 6.19314 62.1069 6.18263C62.2528 6.18263 62.3881 6.18263 62.5131 6.18263C62.6381 6.19314 62.7631 6.20366 62.8568 6.21417C63.263 6.27727 63.7525 6.15108 63.9087 6.14057C64.1378 6.11954 64.3461 6.14057 64.4815 6.1616C64.5856 6.18263 64.6377 6.20366 64.6169 6.21417C65.0751 6.21417 65.523 6.11954 66.1687 6.20366C66.2207 6.2352 66.3666 6.24572 66.5436 6.25623C66.7206 6.26675 66.9394 6.26675 67.1581 6.26675C67.5851 6.26675 67.9912 6.27727 67.9912 6.34036L68.0017 6.32984C68.4182 6.40345 68.8348 6.42448 69.2514 6.45602C69.4597 6.46654 69.6784 6.47705 69.8971 6.49808C70.0013 7.11847 70.1158 7.7599 70.1471 8.40132C70.095 8.65368 70.5845 11.4717 70.6366 11.5243C70.6366 11.5243 70.7615 11.6505 70.7719 11.7031C70.7824 11.7662 70.7928 11.8398 70.8032 11.9029C70.8553 12.2604 70.8969 12.5758 70.9386 12.8808C70.9698 13.2067 71.1052 13.417 71.2198 13.5432C71.251 13.5748 71.2823 13.6063 71.3135 13.6378C71.3448 13.6589 71.376 13.6904 71.4385 13.722C71.501 13.7535 71.5635 13.764 71.626 13.764C71.6884 13.764 71.7613 13.764 71.8238 13.7535C71.803 13.764 71.7822 13.7745 71.7613 13.7851C71.8342 13.7956 71.9072 13.7535 72.1259 13.6484C72.1259 13.6589 72.1259 13.6589 72.1259 13.6694C72.1467 13.764 72.1675 13.8587 72.1988 13.9638V13.9848V13.9954L72.2092 13.9848L72.2508 13.9638C72.2821 13.9533 72.3133 13.9323 72.3342 13.9218C72.3862 13.8902 72.4487 13.8692 72.5112 13.8376C72.5841 13.8376 72.6883 13.7956 72.8132 13.743C72.9382 13.6904 73.084 13.6273 73.2611 13.5012C73.4277 13.3855 73.6256 13.2067 73.8234 12.9859C74.0213 12.7651 74.1984 12.5338 74.365 12.3445C74.7399 11.8713 74.792 11.7767 74.9482 11.5664C75.0836 11.3771 75.2086 11.2089 75.344 11.0301C75.6044 10.6726 75.8647 10.3256 76.1876 9.89447C76.7291 9.50541 77.1665 8.60111 77.6769 8.12793L77.7394 7.93865C77.8331 7.86505 77.9268 7.77041 78.0206 7.66526C78.0622 7.61269 78.1143 7.56011 78.1664 7.4865C78.1976 7.45496 78.2184 7.4129 78.2497 7.37084C78.2601 7.34981 78.2809 7.31826 78.3018 7.29723C78.3226 7.26569 78.3434 7.23414 78.3538 7.21311C78.4267 7.09744 78.4788 6.96075 78.5205 6.82405C78.5413 6.75045 78.5517 6.68735 78.5621 6.61375C78.5829 6.49808 78.5829 6.42448 78.5829 6.35087Z" fill="#3E3E3E"/>
</svg>
