<svg width="116" height="114" viewBox="0 0 116 114" fill="none" xmlns="http://www.w3.org/2000/svg">
<path d="M0.659395 57.2247C0.659395 41.1839 0.756778 25.1431 0.562012 9.10226C0.562012 4.79416 2.21752 3.69422 6.79452 3.51089C24.5182 2.86926 42.1446 1.31101 59.8683 0.76104C75.5469 0.302731 91.2256 0.669378 106.904 0.944364C113.137 1.03603 115.669 3.32757 115.669 9.19392C115.766 30.0011 115.766 50.8084 115.279 71.6156C114.987 82.4317 113.916 93.1561 112.845 103.972C112.26 110.114 110.215 111.488 103.788 111.672C73.015 112.222 42.3393 112.863 11.5663 113.322C2.80182 113.413 1.53584 112.222 1.53584 104.064C1.43846 88.4813 1.53584 72.8988 1.53584 57.3163C1.24369 57.2247 0.951544 57.2247 0.659395 57.2247ZM67.7563 59.2412C67.7563 58.8746 67.6589 58.4163 67.6589 58.0496C65.8086 58.0496 63.9583 57.958 62.2054 58.0496C45.9425 59.4246 29.5821 60.8911 13.3192 62.1744C11.7611 62.2661 10.1055 61.2578 8.54742 60.7078C9.71601 59.6079 10.5925 57.958 11.9558 57.4997C15.8511 56.1247 20.0386 55.2998 23.9339 54.2915C23.7392 49.8001 23.7392 49.7084 27.8293 48.7001C33.4775 47.2336 39.1257 46.0419 45.8451 44.392C39.0283 42.8338 36.0094 39.9006 36.7885 35.8675C37.3728 32.9343 38.8335 30.0928 40.1969 26.6097C37.5676 26.6097 35.133 26.8846 32.8932 26.518C31.0429 26.1513 29.3874 24.9597 27.6345 24.1348C29.1926 23.2182 30.6534 21.7516 32.3089 21.4766C37.8597 20.56 43.4105 20.1017 49.0587 19.5517C49.0587 19.0934 48.9614 18.7267 48.9614 18.2684C46.6242 18.3601 44.1896 18.7267 41.8524 18.6351C40.1969 18.5434 38.6388 17.8101 37.0806 17.4435C38.5414 16.4352 40.0995 14.5103 41.5602 14.602C55.5834 14.6936 69.6066 15.0603 83.6297 15.5186C84.5062 15.5186 86.3564 17.6268 86.0643 18.0851C84.214 21.8432 83.2402 26.4263 77.2024 26.3347C75.7417 26.3347 74.1836 26.9763 72.6254 27.2513C75.6443 27.9846 78.4684 27.5263 81.2925 27.6179C83.1428 27.6179 84.9931 28.4429 86.8433 28.9012C85.9669 30.3678 85.0905 31.8344 84.214 33.2093C87.0381 34.7676 90.057 36.4175 93.7575 38.434C89.2779 43.2921 82.4611 41.3672 77.6893 44.2087C83.5323 44.667 89.3753 44.4837 95.2183 44.7587C96.679 44.8503 98.1398 46.0419 99.6005 46.7752C98.2372 47.6002 96.8738 48.9751 95.3157 49.1584C90.1544 49.8001 84.8957 49.9834 79.637 50.4417C74.8652 50.9 70.1908 51.5416 65.5165 52.0916C65.5165 52.5499 65.6139 53.0082 65.6139 53.4665C67.3667 53.4665 69.217 53.3749 70.9699 53.4665C81.7794 53.8332 92.5889 54.0165 103.398 54.5665C104.859 54.6581 106.223 56.1247 107.586 56.9497C106.223 57.8663 104.957 59.0579 103.398 59.6079C102.23 60.0662 100.769 59.8829 99.4057 60.0662C94.8288 60.6162 90.3491 61.2578 85.7721 61.8078C85.7721 62.2661 85.8695 62.7244 85.8695 63.1827C91.2256 63.1827 96.5816 63.091 101.938 63.2744C103.009 63.366 104.08 64.7409 105.151 65.5659C104.178 66.2075 103.301 67.3991 102.23 67.4908C98.5293 68.0408 94.8288 68.1324 91.1282 68.5907C85.48 69.2324 79.9291 69.874 74.2809 70.5156C81.2925 72.1655 88.1093 72.6239 95.0235 73.4488C96.5816 73.6321 97.945 75.0071 99.3084 75.9237C97.8476 76.932 96.4843 78.3985 94.8288 78.8568C92.1994 79.6818 89.2779 79.9568 86.5512 80.4151C86.8433 80.7817 87.2329 81.2401 87.525 81.6067C86.1617 83.165 85.0904 85.4565 83.3376 86.0065C77.8841 87.9314 72.2359 89.2146 66.6851 90.7729C67.8537 91.5978 69.217 91.4145 69.9961 91.9645C71.3595 92.9728 73.2097 94.531 73.1123 95.631C72.9176 97.4642 71.5542 100.397 70.1908 100.672C61.0368 102.414 53.1488 99.7557 46.7215 93.3394C44.6765 91.3228 42.4367 89.3979 40.2943 87.3814C38.0545 86.5564 35.2304 86.8314 32.4063 87.0147C25.8816 87.6564 19.2595 88.3897 12.7349 88.7563C11.5663 88.848 10.3003 87.748 9.03433 87.1981C10.1055 86.1898 10.8846 84.7232 12.1506 84.1732C13.8061 83.4399 15.7538 83.3483 17.604 83.165C28.9005 82.1567 40.0995 81.2401 51.3959 80.1401C58.6023 79.4068 65.8086 78.5819 74.1836 77.5736C72.6254 76.5653 72.3333 76.2903 72.1385 76.2903C51.2012 77.5736 30.3612 78.6735 9.42386 79.7735C6.40499 79.9568 5.91808 81.6067 6.01546 83.9899C6.21023 90.2229 6.50237 96.4559 6.11284 102.597C5.82069 107.455 7.76835 108.922 12.8323 108.83C42.7288 108.189 72.6254 107.639 102.522 107.18C106.125 107.089 107.781 105.897 107.975 102.506C108.657 91.8728 110.02 81.2401 110.313 70.6073C110.8 50.7167 110.702 30.9178 110.897 11.0272C110.897 7.0857 109.144 5.34413 104.762 5.43579C84.6035 5.8941 64.3479 6.07742 44.0922 6.62739C31.335 6.99404 18.5779 8.00232 6.01546 8.73561C6.01546 28.3512 6.01546 47.7835 6.01546 67.3075C27.1476 64.5576 47.5006 61.8994 67.7563 59.2412ZM47.2085 69.049C35.912 67.9491 8.0605 71.8906 5.2364 75.0987C20.0386 72.9905 33.5748 71.0656 47.2085 69.049Z" fill="#5C5C5C"/>
</svg>
