<svg width="10" height="10" viewBox="0 0 29 30" fill="none" xmlns="http://www.w3.org/2000/svg">
<path d="M24.4361 2.89017C26.6025 4.65107 27.0923 5.45627 27.8237 8.46151C28.6161 11.717 27.098 16.4322 24.1528 19.8657C20.5763 24.0345 19.3853 25.1123 17.0996 26.248C15.8737 26.8571 14.8362 27.4582 14.7939 27.584C14.7517 27.7097 15.3674 28.2027 16.1621 28.6796C18.4824 30.0719 16.6187 30.3802 13.2477 29.1616C9.32873 27.745 5.20523 24.499 3.39207 21.4035C0.00828251 15.626 -0.696965 11.9878 1.05945 9.3667C1.50033 8.70872 2.0976 7.68584 2.3867 7.09356C3.25271 5.31952 7.29802 1.86928 9.18195 1.29779C11.7492 0.519043 17.2876 0.351703 20.1957 0.965044C21.8101 1.30554 23.34 2.0004 24.4357 2.89085L24.4361 2.89017Z" fill="#3E3E3E"/>
</svg>
