<svg width="10" height="10" viewBox="0 0 36 32" fill="none" xmlns="http://www.w3.org/2000/svg">
<path d="M0.888816 12.5454C1.08196 9.19536 1.52238 8.15162 3.93756 5.32541C6.55383 2.26382 12.2177 0.4279 17.6356 0.884519C24.2144 1.43937 26.1025 1.84248 28.8169 3.27195C30.2726 4.03861 31.5882 4.62727 31.7405 4.58005C31.8928 4.53285 31.9404 3.58596 31.8464 2.47587C31.572 -0.764896 33.183 0.834957 34.3657 4.97792C35.7406 9.79422 35.476 16.0964 33.7335 20.0406C30.4811 27.4018 27.4306 30.6475 23.6404 30.7786C22.689 30.8115 21.2719 30.9485 20.4913 31.0832C18.153 31.4865 11.945 29.9694 10.0632 28.5348C7.49881 26.5798 3.44114 21.2988 1.99407 18.0327C1.19072 16.2195 0.792268 14.2396 0.889767 12.5453L0.888816 12.5454Z" fill="#3E3E3E"/>
</svg>
