<svg width="10" height="10" viewBox="0 0 29 33" fill="none" xmlns="http://www.w3.org/2000/svg">
<path d="M9.90872 32.5668C6.79864 32.0848 5.86391 31.5796 3.44296 29.0703C0.82038 26.3521 -0.383489 20.8992 0.530743 15.8823C1.64122 9.79054 2.1876 8.06415 3.76657 5.65885C4.61341 4.36883 5.28145 3.19365 5.25108 3.04723C5.22072 2.90086 4.34102 2.7711 3.29621 2.75888C0.246024 2.72316 1.88468 1.36329 5.85894 0.632289C10.4791 -0.217503 16.3388 0.597073 19.864 2.57904C26.4433 6.27838 29.1987 9.41858 28.9797 12.9687C28.9247 13.8599 28.9251 15.1952 28.9805 15.9361C29.1464 18.1554 27.1709 23.8143 25.6622 25.4419C23.6062 27.6599 18.3105 30.9724 15.131 32.0291C13.3659 32.6158 11.4817 32.8095 9.90874 32.5659L9.90872 32.5668Z" fill="#3E3E3E"/>
</svg>
