<svg width="10" height="10" viewBox="0 0 38 43" fill="none" xmlns="http://www.w3.org/2000/svg">
<path d="M12.577 42.618C8.54301 41.9927 7.3306 41.3375 4.19047 38.0828C0.788818 34.5571 -0.772677 27.4843 0.413143 20.9771C1.85351 13.0757 2.56219 10.8365 4.61022 7.71663C5.70862 6.0434 6.57512 4.51911 6.53573 4.32919C6.49635 4.13934 5.35533 3.97103 4.00014 3.95519C0.0438478 3.90885 2.1693 2.14501 7.32416 1.19685C13.3168 0.0946188 20.9172 1.15117 25.4897 3.72191C34.0234 8.5202 37.5974 12.5932 37.3133 17.198C37.242 18.354 37.2424 20.0859 37.3143 21.0469C37.5295 23.9255 34.9672 31.2654 33.0102 33.3766C30.3435 36.2534 23.4746 40.5499 19.3506 41.9206C17.0612 42.6816 14.6172 42.9328 12.577 42.6168L12.577 42.618Z" fill="#3E3E3E"/>
</svg>
