<svg width="10" height="10" viewBox="0 0 19 17" fill="none" xmlns="http://www.w3.org/2000/svg">
<path d="M0.732546 8.41074C0.580093 6.68825 0.726464 6.1231 1.74616 4.50123C2.85075 2.74429 5.60097 1.38397 8.39755 1.21095C11.7933 1.00106 12.7862 1.06515 14.2772 1.59066C15.0768 1.8725 15.7917 2.07408 15.8658 2.0386C15.9399 2.00313 15.8932 1.51679 15.7622 0.957841C15.3795 -0.673931 16.3207 0.0210922 17.2341 2.04482C18.2958 4.39745 18.633 7.63045 18.04 9.77195C16.9331 13.7687 15.6209 15.6521 13.6983 16.0028C13.2157 16.0909 12.5034 16.2669 12.1155 16.394C10.9535 16.7748 7.67474 16.4663 6.60781 15.8758C5.15392 15.0712 2.68952 12.6825 1.70708 11.1257C1.16168 10.2614 0.810223 9.28176 0.733026 8.41063L0.732546 8.41074Z" fill="#3E3E3E"/>
</svg>
