<svg width="10" height="10" viewBox="0 0 21 22" fill="none" xmlns="http://www.w3.org/2000/svg">
<path d="M15.9016 0.653475C17.7681 1.44974 18.2717 1.91416 19.3848 3.86735C20.5907 5.98317 20.4748 9.5818 19.105 12.5708C17.4414 16.2002 16.8252 17.1919 15.4558 18.4433C14.7213 19.1145 14.1168 19.7424 14.1125 19.8387C14.1082 19.935 14.6372 20.1561 15.288 20.3301C17.1881 20.838 15.9478 21.4268 13.3483 21.2508C10.3263 21.0463 6.79489 19.6046 4.90781 17.805C1.38599 14.4463 0.164281 12.0457 0.866283 9.86243C1.04249 9.31437 1.25485 8.48002 1.33816 8.00827C1.58778 6.59525 3.72289 3.37407 4.92467 2.5973C6.56234 1.53881 10.3984 0.312195 12.5532 0.158047C13.7494 0.0724714 14.9575 0.251428 15.9015 0.654031L15.9016 0.653475Z" fill="#3E3E3E"/>
</svg>
