<svg width="10" height="10" viewBox="0 0 29 27" fill="none" xmlns="http://www.w3.org/2000/svg">
<path d="M3.74977 3.43457C5.54918 1.51129 6.33913 1.10309 9.21545 0.611959C12.3313 0.0799031 16.6693 1.818 19.7074 4.81515C23.3961 8.45466 24.3323 9.64628 25.2511 11.8719C25.7439 13.0656 26.2416 14.0815 26.3572 14.1296C26.4727 14.1776 26.9771 13.6305 27.4781 12.9138C28.9407 10.8215 29.1085 12.5956 27.7405 15.6883C26.1501 19.2836 22.8246 22.9513 19.7923 24.4546C14.1328 27.26 10.6625 27.685 8.31098 25.86C7.72067 25.4019 6.7972 24.7727 6.25875 24.4617C4.64598 23.5303 1.66431 19.4967 1.2501 17.6862C0.685664 15.219 0.891623 9.9957 1.6597 7.29905C2.0861 5.80199 2.84045 4.40779 3.75038 3.435L3.74977 3.43457Z" fill="#3E3E3E"/>
</svg>
