<svg width="10" height="10" viewBox="0 0 28 29" fill="none" xmlns="http://www.w3.org/2000/svg">
<path d="M23.866 3.11499C25.9206 4.78506 26.3852 5.54873 27.0789 8.39896C27.8303 11.4865 26.3906 15.9585 23.5973 19.2149C20.2052 23.1687 19.0757 24.1909 16.9079 25.268C15.7452 25.8457 14.7612 26.4158 14.7211 26.5351C14.681 26.6543 15.265 27.1219 16.0188 27.5742C18.2193 28.8947 16.4518 29.187 13.2546 28.0314C9.53783 26.6878 5.62702 23.6093 3.90738 20.6734C0.698136 15.1939 0.0292666 11.7434 1.69508 9.25747C2.11323 8.63343 2.67969 7.66331 2.95388 7.10158C3.77522 5.41904 7.61188 2.14676 9.39864 1.60475C11.8335 0.866172 17.0862 0.707461 19.8443 1.28916C21.3754 1.6121 22.8264 2.27111 23.8656 3.11563L23.866 3.11499Z" fill="#3E3E3E"/>
</svg>
