<svg width="10" height="10" viewBox="0 0 41 39" fill="none" xmlns="http://www.w3.org/2000/svg">
<path d="M31.5448 36.4904C28.3458 38.4714 27.1042 38.7396 22.9545 38.3439C18.4592 37.9152 13.1254 33.9 10.054 28.6334C6.32489 22.2383 5.47843 20.2458 5.04163 16.8337C4.80736 15.0038 4.50004 13.4172 4.3586 13.3078C4.21721 13.1985 3.31749 13.7648 2.35927 14.5663C-0.438181 16.9059 -0.00777478 14.3967 3.03249 10.6422C6.56689 6.27755 12.5211 2.46025 17.2635 1.51841C26.1146 -0.23905 31.0587 0.469499 33.6207 3.86352C34.2639 4.71549 35.3026 5.92772 35.9292 6.5574C37.8057 8.44355 40.4127 15.1183 40.3085 17.7696C40.1665 21.3825 37.9339 28.5087 35.8687 31.941C34.7222 33.8464 33.1618 35.4876 31.5441 36.4896L31.5448 36.4904Z" fill="#3E3E3E"/>
</svg>
