<svg width="10" height="10" viewBox="0 0 16 17" fill="none" xmlns="http://www.w3.org/2000/svg">
<path d="M13.2654 1.70578C14.4173 2.6421 14.6778 3.07025 15.0667 4.66822C15.488 6.39925 14.6808 8.90647 13.1148 10.7321C11.2131 12.9488 10.5798 13.5219 9.3644 14.1258C8.71257 14.4497 8.16088 14.7693 8.13841 14.8362C8.11594 14.903 8.44333 15.1652 8.86594 15.4187C10.0997 16.1591 9.10873 16.323 7.31624 15.675C5.23243 14.9218 3.03984 13.1958 2.07574 11.5498C0.276483 8.47775 -0.0985194 6.54324 0.835411 5.14952C1.06984 4.79965 1.38742 4.25576 1.54115 3.94082C2.00163 2.99752 4.15262 1.16293 5.15436 0.859056C6.51943 0.444975 9.46433 0.356 11.0106 0.682131C11.8691 0.863184 12.6826 1.23266 13.2652 1.70614L13.2654 1.70578Z" fill="#3E3E3E"/>
</svg>
