<svg width="10" height="10" viewBox="0 0 19 17" fill="none" xmlns="http://www.w3.org/2000/svg">
<path d="M0.745727 4.25371C1.35208 2.63427 1.72816 2.18775 3.34827 1.16527C5.10328 0.0576233 8.17128 0.0183812 10.7684 1.07003C13.9218 2.34718 14.7896 2.83376 15.9075 3.95162C16.507 4.55116 17.0647 5.04169 17.1469 5.04169C17.229 5.04169 17.397 4.5829 17.5202 4.02215C17.8797 2.38514 18.4285 3.41847 18.3783 5.63818C18.32 8.21864 17.2279 11.2802 15.7683 12.9557C13.0439 16.0825 11.0471 17.2146 9.16151 16.7006C8.68819 16.5716 7.96977 16.4228 7.56497 16.3699C6.35249 16.2116 3.52844 14.5174 2.82113 13.524C1.85727 12.1704 0.666057 8.95174 0.452268 7.12329C0.333582 6.10822 0.43964 5.07287 0.746208 4.25382L0.745727 4.25371Z" fill="#3E3E3E"/>
</svg>
