<svg width="10" height="10" viewBox="0 0 16 16" fill="none" xmlns="http://www.w3.org/2000/svg">
<path d="M2.52144 14.4214C1.36952 13.4851 1.10904 13.0569 0.720134 11.459C0.29883 9.72794 1.10601 7.22073 2.67207 5.39507C4.57379 3.17838 5.20708 2.60529 6.42245 2.00141C7.07428 1.67754 7.62597 1.35788 7.64844 1.29103C7.67091 1.2242 7.34352 0.96203 6.92091 0.708452C5.68719 -0.0318623 6.67812 -0.19578 8.47061 0.452151C10.5544 1.20539 12.747 2.93139 13.7111 4.57737C15.5104 7.64944 15.8854 9.58395 14.9514 10.9777C14.717 11.3275 14.3994 11.8714 14.2457 12.1864C13.7852 13.1297 11.6342 14.9643 10.6325 15.2681C9.26741 15.6822 6.32251 15.7712 4.7762 15.4451C3.91775 15.264 3.10428 14.8945 2.52166 14.4211L2.52144 14.4214Z" fill="#3E3E3E"/>
</svg>
