<svg width="10" height="10" viewBox="0 0 32 29" fill="none" xmlns="http://www.w3.org/2000/svg">
<path d="M1.61267 5.841C2.90903 3.22574 3.61725 2.54052 6.51343 1.1018C9.65076 -0.456754 14.8094 0.00431423 18.9899 2.21635C24.0659 4.90263 25.4396 5.86877 27.1247 7.93794C28.0285 9.04768 28.8808 9.96719 29.0188 9.98131C29.1567 9.99541 29.5176 9.25384 29.8207 8.33337C30.7056 5.6462 31.4497 7.47566 30.9841 11.1945C30.443 15.5176 28.0833 20.4712 25.3444 23.034C20.2325 27.8168 16.6848 29.3747 13.6069 28.1878C12.8342 27.8899 11.6533 27.5166 10.9827 27.3583C8.97383 26.8841 4.5226 23.5541 3.50546 21.7645C2.11943 19.326 0.671944 13.7164 0.626998 10.6093C0.602046 8.88436 0.957976 7.16399 1.61346 5.84127L1.61267 5.841Z" fill="#3E3E3E"/>
</svg>
