<svg width="10" height="10" viewBox="0 0 26 24" fill="none" xmlns="http://www.w3.org/2000/svg">
<path d="M1.32437 6.02137C2.1706 3.76125 2.69546 3.13807 4.95654 1.71107C7.40587 0.165212 11.6876 0.110445 15.3122 1.57814C19.7132 3.36057 20.9244 4.03965 22.4845 5.59977C23.3212 6.4365 24.0996 7.1211 24.2142 7.1211C24.3289 7.1211 24.5633 6.48079 24.7352 5.6982C25.237 3.41355 26.0029 4.85569 25.9328 7.95357C25.8514 11.5549 24.3273 15.8278 22.2902 18.166C18.488 22.53 15.7012 24.1099 13.0696 23.3926C12.4091 23.2125 11.4064 23.0048 10.8415 22.9311C9.14929 22.7101 5.20799 20.3456 4.22084 18.9593C2.87566 17.0701 1.21318 12.5781 0.914806 10.0262C0.749164 8.60956 0.897182 7.16461 1.32503 6.02152L1.32437 6.02137Z" fill="#3E3E3E"/>
</svg>
