<svg width="38" height="37" viewBox="0 0 38 37" fill="none" xmlns="http://www.w3.org/2000/svg">
<g clip-path="url(#clip0)">
<path d="M8.06751 3.97058C8.04774 3.91396 8.00511 3.89153 7.95954 3.88263C7.87153 3.78328 7.76265 3.70174 7.64591 3.6291C7.64591 3.6291 7.64609 3.62892 7.64609 3.62874C7.78479 2.84447 7.75917 1.87504 7.57106 1.09896C7.4631 0.654038 7.19247 0.159975 6.66473 0.135049C6.09125 0.107987 5.74944 0.661338 5.55401 1.10644C5.22024 1.86667 5.1293 2.73355 5.3465 3.53634C4.9701 3.71278 4.64457 3.97521 4.41162 4.31722C4.33587 4.30031 4.24602 4.32648 4.2226 4.41176C2.06885 12.2765 1.22218 22.4412 3.82534 30.6708C3.82149 30.671 3.81747 30.6712 3.81363 30.6713C3.70493 30.6769 3.70365 30.8406 3.81363 30.8369C3.83394 30.8362 3.85407 30.8357 3.87438 30.8349C4.29085 32.1245 4.78565 33.3695 5.38218 34.5455C5.41164 34.6035 5.45355 34.6358 5.49929 34.6504C5.38767 34.9911 5.32363 35.3663 5.50332 35.6939C5.6519 35.9645 5.94871 36.1634 6.27168 36.1308C6.96959 36.0604 6.97197 35.2292 6.88121 34.7241C6.87627 34.6965 6.85559 34.6886 6.84333 34.6694C6.88175 34.6429 6.91579 34.6083 6.93592 34.556C10.6529 24.9552 11.4981 13.7779 8.06751 3.97058ZM5.7423 1.96549C5.82885 1.61154 6.13279 0.462822 6.71396 0.594038C7.45103 0.760328 7.21516 2.72429 7.2115 3.4304C6.80325 3.29883 6.34506 3.27141 5.97396 3.33195C5.86362 3.34993 5.76042 3.385 5.65593 3.41705C5.62482 2.92388 5.62171 2.45884 5.7423 1.96549ZM4.46926 4.846C4.47402 4.84191 4.48098 4.84316 4.48518 4.83835C4.91301 4.34162 5.42098 3.93212 6.0951 3.83901C6.09437 3.83972 6.09327 3.84008 6.09272 3.84079C6.07442 3.84292 6.05612 3.84755 6.0413 3.86393C4.74868 5.29378 4.65463 7.99234 4.65463 10.0512C4.64566 10.053 4.6367 10.0548 4.62791 10.0564C4.46725 10.0863 4.51776 10.285 4.65463 10.3104C4.65554 10.5942 4.65719 10.8643 4.65701 11.1136C4.65481 12.6401 4.40357 15.1784 6.20379 15.803C7.19539 16.6344 7.89879 13.9697 7.97071 13.2853C8.27904 10.3498 8.5709 6.22261 6.43051 3.83918C6.42466 3.83278 6.41788 3.83117 6.41185 3.82548C6.9458 3.84951 7.34837 4.10678 7.8406 4.28607C8.87228 8.8521 9.44063 13.322 9.43514 17.7573C9.37732 17.749 9.31785 17.757 9.26735 17.8075C7.93502 19.1389 4.52764 18.6771 3.24362 17.5471C3.19788 17.5068 3.14975 17.5079 3.10602 17.5223C3.31481 13.2785 3.93623 9.01447 4.46926 4.846ZM6.07497 15.2402C5.84459 15.0296 5.65703 14.742 5.49856 14.4086C5.78384 14.4132 6.07094 14.4228 6.35439 14.3938C6.50078 14.3787 6.50096 14.1871 6.35439 14.172C6.03544 14.1392 5.71138 14.1557 5.39097 14.1586C5.27623 13.8698 5.18694 13.5431 5.11264 13.1977C5.45666 13.1683 5.80323 13.1464 6.14286 13.0859C6.27808 13.0619 6.24771 12.8441 6.11029 12.8518C5.76023 12.8714 5.41238 12.9321 5.06562 12.9832C4.91429 12.1727 4.86378 11.2441 4.88318 10.2951C5.30789 10.2339 5.73937 10.1821 6.15201 10.0727C6.29931 10.0338 6.2757 9.7934 6.11486 9.80604C5.70351 9.83844 5.29563 9.92444 4.88958 10.0049C4.92325 9.06521 5.02719 8.11803 5.17376 7.24884C5.5767 7.21946 6.00617 7.21145 6.38623 7.09929C6.51304 7.0619 6.49163 6.87122 6.35457 6.87175C5.97652 6.87282 5.58475 6.97608 5.20816 7.06101C5.26544 6.74018 5.32875 6.43199 5.39664 6.14018C5.79884 6.06843 6.18714 6.0841 6.59593 6.07377C6.75842 6.06968 6.80691 5.82202 6.63582 5.78766C6.24972 5.71004 5.84715 5.76363 5.46526 5.86048C5.6455 5.14636 5.85301 4.55117 6.06966 4.16411C6.07369 4.16945 6.0746 4.17515 6.07918 4.18031C7.47298 5.73496 7.49183 7.76587 7.54636 9.72432C7.56832 10.5161 7.59101 11.3105 7.55643 12.1021C7.54252 12.3652 7.52861 12.6283 7.5147 12.8915C7.75076 14.1027 7.26694 14.8829 6.07497 15.2402ZM6.31669 35.6942C6.04057 35.811 5.83635 35.495 5.78988 35.2717C5.74816 35.0711 5.78475 34.8562 5.81403 34.6516C6.0488 34.6719 6.28943 34.6952 6.5231 34.6794C6.49456 34.7198 6.47754 34.77 6.4876 34.8295C6.52713 35.0611 6.59831 35.5751 6.31669 35.6942ZM6.47809 34.366C6.25722 34.3566 6.02941 34.3828 5.80872 34.4027C5.80708 34.3742 5.8014 34.3448 5.7875 34.3148C5.57487 33.8563 5.38218 33.3948 5.1981 32.9319C5.54303 32.936 5.88796 32.9424 6.23325 32.9355C6.30773 32.934 6.30791 32.8244 6.23325 32.823C5.87423 32.8157 5.51558 32.8222 5.15674 32.8267C5.0669 32.5979 4.99645 32.3659 4.91319 32.1361C5.2841 32.148 5.65538 32.1193 6.01385 32.0191C6.10351 31.994 6.06527 31.8692 5.97579 31.885C5.60103 31.9514 5.23451 31.9863 4.86287 31.9942C4.72362 31.603 4.60632 31.2085 4.48518 30.8147C5.26983 30.7894 6.05411 30.7637 6.83711 30.7093C6.94507 30.7018 6.94781 30.5421 6.83711 30.5437C6.0338 30.5558 5.23159 30.5982 4.42937 30.6402C4.29909 30.2063 4.18545 29.7701 4.07548 29.3332C4.63304 29.3529 5.20139 29.3841 5.74925 29.3236C5.87149 29.31 5.87185 29.1518 5.74925 29.1382C5.18346 29.0756 4.59589 29.1108 4.02058 29.1302C3.92049 28.7204 3.83229 28.3089 3.74903 27.8967C4.46725 27.9146 5.18145 27.8932 5.89473 27.7871C5.99592 27.7721 5.97323 27.5996 5.87039 27.6115C5.1529 27.6947 4.43523 27.7369 3.71408 27.7378C3.60081 27.1623 3.50877 26.5839 3.42606 26.0044C3.43484 26.0076 3.43978 26.0149 3.45095 26.015C3.97356 26.0236 4.5011 26.0514 5.02353 26.0332C5.15272 26.0287 5.1529 25.8423 5.02353 25.8379C4.5011 25.8197 3.97374 25.8477 3.45095 25.856C3.43173 25.8564 3.42002 25.8658 3.40776 25.8746C3.34079 25.3924 3.29431 24.9076 3.24637 24.423C3.25222 24.4615 3.27729 24.4965 3.32999 24.4958C4.63487 24.4775 5.95145 24.4157 7.23364 24.167C7.36886 24.1408 7.3405 23.9138 7.2007 23.9296C5.90937 24.076 4.63011 24.254 3.33018 24.3172C3.27491 24.3199 3.24765 24.3605 3.24417 24.402C3.19696 23.9227 3.16183 23.4418 3.13127 22.9606C3.81216 22.9511 4.50605 22.9597 5.17687 22.8714C5.31521 22.8532 5.27623 22.6429 5.14467 22.6405C4.47366 22.6283 3.78965 22.7179 3.11755 22.7856C3.0912 22.3429 3.08863 21.898 3.07546 21.4542C3.08077 21.4549 3.0826 21.4595 3.08827 21.4597C3.88572 21.4693 4.71428 21.5412 5.50771 21.4547C5.65172 21.439 5.65209 21.2519 5.50771 21.2362C4.71428 21.1497 3.88591 21.2218 3.08827 21.2313C3.07949 21.2313 3.07637 21.238 3.06869 21.2396C3.05789 20.8068 3.05588 20.3733 3.05423 19.9396C3.83211 19.9134 4.6098 19.8885 5.38657 19.8358C5.57011 19.8233 5.57468 19.5507 5.38657 19.5545C4.60705 19.5701 3.82936 19.6136 3.05112 19.6558C3.05222 19.0351 3.06265 18.4139 3.09065 17.7912C4.04584 18.7957 5.30826 19.0513 6.68669 19.0195C7.60949 18.9981 8.78591 18.9831 9.42709 18.2678C9.36652 23.6441 8.45855 28.9742 6.47809 34.366Z" fill="#343434"/>
<path d="M19.6296 28.6304C19.6729 28.6354 19.7161 28.6255 19.739 28.5749C19.9134 28.1894 19.9558 27.5337 19.6222 27.1969C19.9221 26.6825 19.592 25.8156 18.9639 25.8203C18.7644 20.4516 18.4455 15.0892 18.2634 9.71897C18.3179 9.66342 18.3655 9.60164 18.3944 9.52508C18.4281 9.43606 18.3642 9.35897 18.2833 9.33262C18.2967 9.28455 18.3002 9.23345 18.2753 9.1779C17.0974 6.55626 15.8955 3.94386 14.6761 1.34055C14.5969 1.17142 14.2875 1.20916 14.2554 1.39397C14.1894 1.77747 14.11 2.15669 14.0238 2.53343C13.9681 2.579 13.9542 2.64951 13.9815 2.70595C13.4529 4.94178 12.6177 7.07774 11.8675 9.25838C11.7862 9.28366 11.7218 9.35025 11.7249 9.45992C11.8768 14.9826 11.9619 20.5483 12.4133 26.0558C12.414 26.0651 12.4217 26.0684 12.4239 26.0766C12.264 26.1331 12.1092 26.2016 11.9674 26.299C11.9674 26.299 11.9672 26.2995 11.9668 26.2997C11.931 26.2744 11.8841 26.2627 11.8428 26.2871C11.4219 26.5356 11.2943 27.2266 11.7002 27.5236C11.4029 27.8095 11.3529 28.3824 11.5381 28.6846C11.5405 28.7086 11.5575 28.7285 11.5796 28.7483C11.64 28.8195 11.7205 28.8605 11.8173 28.8715C11.8801 28.8993 11.9425 28.9199 12.0053 28.9436C11.7333 29.0983 11.5503 29.3563 11.5079 29.6709C11.4612 30.0163 11.5901 30.4931 11.989 30.5698C12.0788 30.5871 12.1498 30.5362 12.1751 30.4659C12.2356 30.4915 12.2971 30.5018 12.3579 30.5232C12.3579 30.5244 12.3568 30.5246 12.3568 30.5259C12.3451 31.8435 12.234 33.3035 12.5002 34.6042C12.4064 34.6377 12.3652 34.7775 12.472 34.8528C13.7162 35.7288 15.2328 36.0845 16.7545 35.8584C17.7527 35.7099 19.6678 35.2171 19.5027 33.9384C19.4954 33.8818 19.4623 33.836 19.4199 33.8004C19.3214 32.6761 19.2076 31.5508 19.0504 30.4328C19.1348 30.423 19.22 30.4171 19.304 30.4066C19.4596 30.387 19.5073 30.2309 19.4475 30.1328C19.7489 29.938 19.8995 29.588 19.8554 29.2365C19.8336 29.0629 19.7415 28.8475 19.6016 28.6972C19.6107 28.6744 19.6275 28.6547 19.6296 28.6304ZM18.6239 25.8585C18.1053 25.8477 17.5863 25.8454 17.0672 25.8457C17.0685 25.8359 17.0773 25.8324 17.0773 25.8215C17.0055 20.478 16.7267 15.1019 16.36 9.76882C16.381 9.72805 16.4112 9.69137 16.428 9.64936C16.6165 9.8039 16.8447 9.91393 17.097 9.96217C17.3007 10.0012 17.566 10.0061 17.807 9.95238C17.8356 15.2509 18.0255 20.5939 18.6239 25.8585ZM16.0319 23.7073C15.6683 23.6777 15.3078 23.6859 14.9431 23.6907C14.9268 23.6909 14.9195 23.7019 14.9065 23.7064C14.897 23.3932 14.8847 23.0788 14.8748 22.7653C15.168 22.7804 15.4609 22.7498 15.7248 22.6139C15.8425 22.5534 15.7579 22.3908 15.6383 22.4142C15.3738 22.4658 15.1283 22.5092 14.8664 22.5142C14.8543 22.1352 14.8382 21.7552 14.8251 21.3758C15.1063 21.3837 15.3887 21.3945 15.669 21.3744C15.8635 21.3603 15.8639 21.0938 15.669 21.0797C15.385 21.0594 15.099 21.0707 14.8141 21.0787C14.802 20.7399 14.7857 20.4009 14.7726 20.0619C14.7898 20.0685 14.8002 20.0827 14.8221 20.0831C15.1943 20.0879 15.5803 20.1262 15.9479 20.0633C16.0811 20.0405 16.0811 19.8244 15.9479 19.8016C15.5806 19.7389 15.194 19.7772 14.8221 19.7818C14.7954 19.7822 14.7817 19.7979 14.7621 19.8075C14.7319 19.0529 14.697 18.2984 14.658 17.5444C14.9334 17.5136 15.2128 17.479 15.4745 17.4027C15.6386 17.3548 15.6168 17.0865 15.4324 17.1004C15.1673 17.1203 14.9028 17.1801 14.6424 17.2444C14.6192 16.81 14.5914 16.3761 14.5639 15.9422C14.9098 15.9805 15.2703 15.9716 15.5925 15.8493C15.7618 15.785 15.6997 15.5432 15.5166 15.5811C15.1859 15.6495 14.8785 15.7079 14.5497 15.7043C14.5253 15.331 14.4902 14.9594 14.4624 14.5866C14.7564 14.57 15.0489 14.554 15.3407 14.5093C15.497 14.4855 15.4615 14.2277 15.3032 14.2394C15.0137 14.2608 14.7299 14.3105 14.4448 14.3596C14.4205 14.0432 14.3897 13.7281 14.3632 13.4121C14.686 13.3629 15.0329 13.3387 15.3435 13.2394C15.478 13.1965 15.465 12.9732 15.3082 12.9858C14.9817 13.0118 14.6617 13.1119 14.3442 13.1908C14.3187 12.8966 14.2893 12.6032 14.2617 12.3093C14.6238 12.2858 14.9925 12.2797 15.3477 12.2062C15.5104 12.1725 15.4719 11.9251 15.3089 11.9267C14.9506 11.9302 14.5923 12.0027 14.238 12.0566C14.2146 11.8142 14.183 11.5733 14.1575 11.331C14.1747 11.3438 14.1939 11.355 14.2203 11.353C14.5522 11.3277 14.8999 11.3299 15.2225 11.2458C15.3656 11.2085 15.3358 10.9964 15.1877 10.9955C14.8542 10.9936 14.518 11.0815 14.1905 11.1385C14.1665 11.1426 14.153 11.1577 14.14 11.1725C14.0992 10.7926 14.0631 10.4114 14.0135 10.033C14.0406 10.0104 14.0702 9.99048 14.0953 9.96609C14.2584 10.3656 14.7041 10.6571 15.1998 10.6167C15.5186 10.5907 15.8187 10.4165 16.0578 10.1787C16.1528 15.3873 16.3362 20.6277 16.7133 25.8217C16.714 25.8318 16.7228 25.8354 16.725 25.8448C16.1409 25.8479 15.557 25.8569 14.9735 25.8737C14.9532 25.227 14.9336 24.5788 14.9136 23.9298C14.9248 23.9328 14.9301 23.9423 14.9431 23.9425C15.3078 23.9473 15.6681 23.9555 16.0319 23.9259C16.1761 23.914 16.1764 23.7188 16.0319 23.7073ZM13.9306 4.67899C14.3233 4.83781 14.8035 4.8622 15.1468 4.60333C15.2165 4.55081 15.1598 4.41816 15.0721 4.42814C14.6849 4.47229 14.3674 4.5225 13.9967 4.43419C14.041 4.26825 14.0767 4.10018 14.1197 3.93389C14.3941 3.9403 14.6686 3.94671 14.9433 3.95312C15.136 3.95757 15.1363 3.65722 14.9433 3.66185C14.6895 3.66772 14.4359 3.67378 14.1821 3.67965C14.258 3.37948 14.3297 3.07841 14.4037 2.77788C14.5621 2.79087 14.7186 2.81972 14.8758 2.87437C15.1541 3.48416 15.434 4.09342 15.7111 4.70392C15.6855 4.72778 15.6631 4.75715 15.6489 4.79579C15.3565 5.57917 14.4073 5.78872 13.7718 5.26849C13.8289 5.07318 13.8768 4.8752 13.9306 4.67899ZM12.1434 9.34954C12.793 8.15827 13.2735 6.90521 13.6662 5.62332C14.4152 6.21513 15.4608 6.00647 15.9493 5.22576C16.5653 6.57958 17.1741 7.9366 17.8026 9.28491C17.8028 9.34402 17.8037 9.40313 17.8039 9.46224C17.6171 9.54111 17.4341 9.61143 17.1786 9.5744C16.9184 9.53648 16.693 9.42948 16.5133 9.26764C16.5257 9.09796 16.5096 8.92758 16.4357 8.76645C16.3618 8.60497 16.1266 8.67227 16.0782 8.81185C16.0696 8.83678 16.0639 8.86188 16.0564 8.88681C16.0057 8.9169 15.9682 8.96764 15.9909 9.03173C15.9953 9.04437 16.004 9.05434 16.0088 9.06681C15.916 9.48413 15.8939 9.88775 15.3998 10.1119C14.9213 10.3289 14.3833 10.0318 14.3599 9.57351C14.4024 9.46152 14.4276 9.34437 14.4161 9.22135C14.4152 9.21244 14.408 9.20692 14.4062 9.19856C14.4029 9.18983 14.4013 9.18218 14.3958 9.17452C14.3416 9.02568 14.135 8.95838 14.0388 9.122C13.9616 9.25304 13.8922 9.38194 13.8152 9.50229C13.782 9.51778 13.754 9.54253 13.754 9.5833C13.754 9.58793 13.7542 9.59256 13.7542 9.59701C13.6406 9.74888 13.4975 9.87191 13.2686 9.9287C12.8216 10.0396 12.3903 9.78947 12.1679 9.42307C12.1615 9.39707 12.1568 9.36983 12.1434 9.34954ZM12.2069 10.0245C12.4759 10.2752 12.8356 10.4183 13.2369 10.3795C13.4113 10.3626 13.5936 10.298 13.7634 10.2045C13.8181 15.4234 14.3056 20.6676 14.5824 25.8811C14.5791 25.8813 14.5758 25.8811 14.5727 25.8813C13.9702 25.9023 13.2909 25.8566 12.6854 25.9992C12.7366 20.6832 12.4468 15.3376 12.2069 10.0245ZM11.9796 26.4861C12.0078 26.5009 12.0407 26.5064 12.079 26.4849C12.7176 26.1229 13.7118 26.1551 14.6004 26.2032C14.6016 26.2303 14.6035 26.2575 14.6049 26.2846C14.617 26.5216 14.9938 26.5242 14.9859 26.2846C14.9852 26.2641 14.9846 26.2435 14.9841 26.223C15.2154 26.2353 15.4375 26.2456 15.6328 26.2442C16.6934 26.2372 17.7532 26.2515 18.8138 26.2607C18.8354 26.2609 18.8444 26.2456 18.8625 26.241C19.0321 26.2883 19.165 26.3481 19.2654 26.5228C19.3617 26.69 19.3745 26.8686 19.296 27.0325C19.2005 27.0445 19.1397 27.1239 19.1448 27.2227C16.8024 27.335 14.4611 27.374 12.1169 27.4144C12.1022 27.3888 12.0766 27.3708 12.0462 27.3628C11.9024 27.0689 11.7868 26.79 11.9796 26.4861ZM19.0537 33.9984C18.7263 35.1961 16.6881 35.4596 15.7041 35.4546C14.6761 35.4492 13.7557 35.179 12.8583 34.7319C12.8764 34.7059 12.8977 34.6813 12.9017 34.6477C12.9628 34.1478 12.9539 33.6272 12.9238 33.1035C13.5398 33.1689 14.131 33.1509 14.7352 33.0095C14.8443 32.9841 14.8242 32.8003 14.7081 32.8146C14.1122 32.8872 13.5114 32.9187 12.9119 32.873C12.8563 32.1133 12.752 31.3493 12.6742 30.6229C13.2748 30.7657 13.8942 30.7438 14.5777 30.7149C15.9418 30.6573 17.3254 30.6092 18.6875 30.4709C18.7373 31.5891 18.833 32.7069 18.9421 33.821C18.9501 33.9038 18.9955 33.9615 19.0537 33.9984ZM19.207 29.902C19.1459 29.943 19.134 29.9992 19.1395 30.0537C18.0127 30.0471 16.884 30.1374 15.7592 30.1993C14.6055 30.2629 13.169 30.5501 12.0424 30.1292C11.9707 30.0145 11.9066 29.8999 11.8947 29.7498C11.8731 29.4788 11.978 29.2329 12.2175 29.0877C12.2404 29.0738 12.2515 29.052 12.2596 29.03C13.0179 29.2527 13.783 29.2135 14.6338 29.1662C16.1245 29.0832 17.6156 28.9798 19.1042 28.8651C19.2145 28.9924 19.3525 29.0631 19.4059 29.2596C19.47 29.4956 19.425 29.756 19.207 29.902ZM19.5112 28.4227C19.4846 28.4129 19.4539 28.4079 19.4184 28.4099C18.2215 28.4786 17.0257 28.5658 15.8298 28.6516C14.6278 28.7378 13.2113 29.0156 12.0201 28.6493C11.9502 28.4763 11.7963 28.3613 11.7818 28.1417C11.7697 27.9566 11.8267 27.8045 11.931 27.6738C14.344 27.8271 16.7625 27.7798 19.1739 27.6122C19.235 27.608 19.2764 27.5807 19.3066 27.5456C19.3624 27.6245 19.4177 27.7039 19.4563 27.796C19.5432 28.0037 19.554 28.2069 19.5112 28.4227Z" fill="#343434"/>
<path d="M35.7148 9.90573C35.2423 8.21594 34.7472 6.521 34.1821 4.85738C34.1825 4.85596 34.1828 4.85471 34.1832 4.85329C34.2105 4.76017 34.1698 4.6619 34.0986 4.59727C34.0976 4.59442 34.0968 4.59139 34.0957 4.58836C34.045 4.44148 33.873 4.44593 33.796 4.53584C31.6613 4.65264 29.5266 4.76961 27.3918 4.88658C27.2764 4.89299 27.1777 4.96011 27.1444 5.06996C25.153 11.634 23.2401 18.2695 21.8688 24.9899C21.8587 24.9895 21.8486 24.9902 21.8388 24.9897C21.6958 24.9835 21.6957 25.1802 21.8238 25.2074C21.7705 25.4709 21.7121 25.7335 21.6605 25.9972C21.6485 26.023 21.6461 26.0456 21.645 26.0732C21.6313 26.1437 21.6155 26.2139 21.6018 26.2844C21.5756 26.4199 21.7687 26.4774 21.8172 26.354C21.9105 26.5353 22.0056 26.7163 22.0991 26.8977C22.0525 26.8985 22.0056 26.8992 21.9588 26.8999C21.834 26.9015 21.8338 27.0868 21.9588 27.0886C22.0391 27.0897 22.1195 27.0909 22.1998 27.0922C22.557 27.783 22.9195 28.472 23.3178 29.1389C23.4942 29.4341 23.6179 29.785 23.9462 29.9355C24.5594 30.2164 25.8897 29.9045 26.5682 29.879C27.7693 29.834 28.9844 29.8347 30.178 29.6942C30.3183 29.6777 30.3787 29.5655 30.3676 29.4631C30.3796 29.4453 30.3827 29.4234 30.3895 29.4031C30.4569 29.4079 30.5286 29.3846 30.5584 29.3063C32.9275 23.0672 34.6105 16.6643 35.7856 10.1153C35.8019 10.0266 35.7677 9.95629 35.7148 9.90573ZM26.4539 9.14211C27.2052 6.58794 27.6564 5.37228 30.6603 5.214C33.2245 5.07904 33.3731 5.70272 32.718 8.02758C32.2185 9.8005 31.7451 11.5804 31.2849 13.3635C31.2486 13.3371 31.2049 13.3202 31.1495 13.3266C29.1222 13.5609 27.1047 13.8237 25.0719 14.0135C25.5223 12.3869 25.9775 10.7616 26.4539 9.14211ZM21.9489 25.8778C22.0071 25.6618 22.0604 25.4446 22.118 25.2284C23.0095 25.2772 23.8858 25.2578 24.772 25.117C24.8849 25.099 24.8593 24.914 24.7449 24.9219C23.8913 24.9804 23.0353 25.0118 22.1798 24.9913C22.3037 24.5243 22.4219 24.0559 22.5438 23.5883C23.2931 23.6346 24.0361 23.6214 24.7804 23.5055C24.9175 23.4842 24.8868 23.2561 24.7475 23.2682C24.035 23.33 23.3242 23.3567 22.6106 23.3314C22.74 22.834 22.8681 22.3362 22.9963 21.8385C23.5768 21.8531 24.1649 21.8861 24.7417 21.8368C24.9252 21.8211 24.9256 21.5745 24.7417 21.5587C24.1892 21.5115 23.6264 21.5394 23.0697 21.5549C23.2176 20.9815 23.3665 20.4083 23.5149 19.8349C24.2145 19.967 24.9283 19.999 25.6269 19.8384C25.7673 19.8062 25.7411 19.5714 25.5922 19.5881C24.9107 19.6647 24.2503 19.6905 23.5768 19.5961C23.9131 18.2966 24.2556 16.9987 24.6053 15.7024C24.6115 15.7036 24.6139 15.7093 24.6207 15.7099C25.7336 15.7861 26.9702 15.8072 28.0403 15.457C28.1639 15.4166 28.1531 15.2115 28.0078 15.2229C26.8809 15.3112 25.8088 15.4925 24.6732 15.4451C24.7065 15.3226 24.7371 15.1994 24.7706 15.0769C24.8339 14.8451 24.9036 14.6149 24.9673 14.3831C24.9751 14.3836 24.9777 14.3904 24.9861 14.39C27.0476 14.3222 29.1417 14.152 31.1718 13.7849C31.152 13.8623 31.1293 13.9389 31.1096 14.0163C30.0874 18.0221 29.1672 22.0515 28.3575 26.103C28.3554 26.1135 28.3584 26.122 28.3576 26.132C26.168 26.1729 24.1341 26.2171 21.9489 25.8778ZM25.0644 29.4428C24.4902 29.4676 24.3532 29.544 23.9462 29.1938C23.8851 29.1412 23.8306 29.0748 23.7777 29.005C24.291 29.1355 24.8125 29.2162 25.3461 29.1957C25.4535 29.1916 25.4531 29.039 25.3461 29.0335C24.7773 29.0043 24.2165 28.9523 23.6611 28.8313C23.5261 28.6116 23.4102 28.3664 23.2951 28.1747C23.2714 28.1351 23.2461 28.0967 23.2221 28.0572C23.8086 28.0999 24.3954 28.1446 24.983 28.1519C25.1144 28.1535 25.1093 27.9687 24.983 27.9566C24.3566 27.8967 23.7266 27.8793 23.0975 27.8565C22.9427 27.6026 22.7837 27.351 22.6269 27.0984C23.3317 27.1098 24.0366 27.1203 24.7413 27.1036C24.8857 27.1002 24.886 26.8885 24.7413 26.8851C23.994 26.8673 23.2463 26.8799 22.4988 26.8921C22.3852 26.7099 22.2741 26.5264 22.1592 26.3451C24.177 26.8233 26.4352 27.0177 28.4629 26.6027C28.9238 27.5042 29.395 28.4018 29.8821 29.2899C28.283 29.2459 26.6603 29.3741 25.0644 29.4428ZM30.2962 29.0955C29.7897 28.1825 29.2654 27.2773 28.7315 26.3791C28.7824 26.3524 28.8239 26.3067 28.8396 26.2321C29.6993 22.169 30.6446 18.1296 31.6686 14.1086C32.0485 15.6828 32.4745 17.3443 33.0831 18.8215C33.1323 18.9406 33.2379 18.9774 33.3321 18.9612C32.4454 22.3686 31.4285 25.743 30.2962 29.0955ZM33.4558 18.4798C33.1404 16.8183 32.4827 15.0678 31.8203 13.5253C31.8203 13.5253 31.8197 13.5249 31.8196 13.5246C32.5052 10.8563 33.2185 8.19422 33.9887 5.54409C34.3793 7.07452 34.8165 8.59873 35.2749 10.1083C35.2804 10.1263 35.291 10.1382 35.2992 10.1532C34.783 12.9563 34.1609 15.7285 33.4558 18.4798Z" fill="#343434"/>
<path d="M6.23332 11.6936C5.87393 11.6598 5.50522 11.6924 5.14455 11.702C5.00018 11.7059 4.99981 11.9167 5.14455 11.9204C5.50522 11.9301 5.87375 11.9626 6.23332 11.9286C6.38831 11.914 6.38867 11.7082 6.23332 11.6936Z" fill="#343434"/>
<path d="M6.23355 8.27205C5.8749 8.23359 5.5049 8.27169 5.14479 8.28362C4.99382 8.2886 4.99364 8.50688 5.14479 8.51204C5.5049 8.52415 5.8749 8.56207 6.23355 8.52362C6.39952 8.50599 6.39989 8.28985 6.23355 8.27205Z" fill="#343434"/>
<path d="M16.2718 25.01C15.8621 25.0178 15.4469 25.1006 15.0416 25.1544C14.942 25.1676 14.9644 25.3376 15.0655 25.3267C15.4732 25.2831 15.8948 25.2651 16.2949 25.1759C16.3904 25.1546 16.3693 25.0082 16.2718 25.01Z" fill="#343434"/>
<path d="M15.6691 18.4157C15.4286 18.3922 15.1847 18.4127 14.9433 18.4207C14.8119 18.425 14.8118 18.615 14.9433 18.6194C15.1849 18.6274 15.4284 18.6479 15.6691 18.6244C15.8067 18.6109 15.8068 18.4293 15.6691 18.4157Z" fill="#343434"/>
<path d="M15.1718 33.7862C14.5321 33.8821 13.8955 33.9115 13.2507 33.8545C13.1544 33.846 13.1557 33.9909 13.2507 34.0002C13.91 34.0643 14.5601 34.0457 15.2108 33.9234C15.3043 33.9058 15.2631 33.7724 15.1718 33.7862Z" fill="#343434"/>
<path d="M14.4591 31.366C13.9352 31.3846 13.4079 31.4535 12.8878 31.5168C12.7846 31.5295 12.7778 31.6842 12.8878 31.679C13.4199 31.6541 13.9583 31.6317 14.4862 31.5612C14.6006 31.5459 14.5728 31.3621 14.4591 31.366Z" fill="#343434"/>
<path d="M26.3149 18.0418C25.5738 18.0903 24.8404 18.1971 24.1055 18.2995C23.9699 18.3183 24.0007 18.5448 24.1381 18.5336C24.8785 18.4734 25.6174 18.4161 26.3511 18.302C26.5019 18.2785 26.4675 18.0319 26.3149 18.0418Z" fill="#343434"/>
<path d="M27.1635 17.0461C26.3091 17.0227 25.4363 17.0537 24.5887 17.1675C24.4613 17.1846 24.5021 17.3689 24.6176 17.3756C25.461 17.4249 26.3241 17.3874 27.1635 17.301C27.3278 17.2841 27.3355 17.0509 27.1635 17.0461Z" fill="#343434"/>
</g>
<defs>
<clipPath id="clip0">
<rect width="37" height="36" fill="white" transform="translate(0.5 0.134155)"/>
</clipPath>
</defs>
</svg>
