<svg width="37" height="37" viewBox="0 0 37 37" fill="none" xmlns="http://www.w3.org/2000/svg">
<g clip-path="url(#clip0)">
<path d="M15.5224 17.6493C14.4171 16.7721 9.52754 15.5657 10.5488 13.4319C10.6368 13.2479 10.3912 13.1031 10.2754 13.272C9.47483 14.4392 10.2169 15.5815 11.3271 16.2197C12.5953 16.9489 14.9941 17.035 15.7688 18.4916C16.9299 20.6747 14.984 24.3432 12.5347 24.7732C12.3647 24.8029 12.4018 25.0984 12.5759 25.0776C14.6821 24.8253 16.4444 22.2898 16.8058 20.3109C17.0339 19.0617 16.4921 18.4186 15.5224 17.6493Z" fill="#343434"/>
<path d="M22.9777 1.43672C23.3257 1.06576 23.1577 0.404702 22.6681 0.207837C22.0176 -0.0537538 21.4672 0.422094 21.2368 0.991892C20.4498 0.850608 19.6249 0.771359 18.7535 0.7762C18.6198 0.776918 18.552 0.878578 18.5475 0.982748C18.2201 1.16688 18.2659 1.88101 18.453 2.13507C18.4894 2.18438 18.5407 2.20105 18.5925 2.20464C18.6148 2.22329 18.6413 2.23817 18.6746 2.24498C19.338 2.37856 19.9661 2.55785 20.5777 2.7574C20.2876 3.47315 19.9788 4.17007 19.5977 4.84314C19.2514 4.7664 18.8989 4.69881 18.5316 4.65273C12.9128 3.94828 6.9253 7.12215 5.4307 12.6039C5.40739 12.6021 5.3839 12.6009 5.36059 12.5991C5.28475 12.5931 5.28762 12.707 5.36059 12.7158C5.37207 12.717 5.38336 12.7188 5.39484 12.7203C5.28798 13.1325 5.20084 13.5543 5.1467 13.9915C5.11191 14.273 5.08807 14.5562 5.07265 14.8406C5.04934 14.839 5.02513 14.8381 5.002 14.8363C4.86915 14.8257 4.8704 15.0319 5.002 15.043C5.02334 15.0448 5.04521 15.0477 5.06673 15.0497C5.035 15.881 5.07785 16.7203 5.1951 17.5528C5.06279 17.5985 5.07157 17.8155 5.23545 17.8235C5.92681 22.1386 8.59076 26.193 12.6871 27.6598C12.6136 27.8307 12.5499 28.0076 12.4746 28.1699C12.314 28.5163 12.1347 28.8509 11.9412 29.1799C11.4016 29.0352 10.8631 28.8715 10.3276 28.6877C10.232 28.6549 10.1745 28.7187 10.1637 28.7942C9.75923 28.9464 9.46393 29.4483 9.73717 29.8422C9.82395 29.9671 10.0762 29.9408 10.057 29.7556C10.028 29.4752 10.0621 29.1757 10.3764 29.0802C10.4067 29.071 10.4181 29.0495 10.4364 29.0323C19.3422 32.6044 29.2575 29.5912 30.6951 19.2927C31.8318 11.15 27.4764 2.93742 18.7451 1.81844C18.7324 1.68971 18.7365 1.56115 18.7932 1.43851C18.834 1.34976 18.8751 1.28558 18.8989 1.21027C29.1991 1.19844 33.2133 12.6209 30.9988 21.2597C28.6691 30.3487 19.7529 33.5649 11.5538 30.5827C11.5317 30.5215 11.4571 30.4935 11.3969 30.5226C10.944 30.3533 10.4929 30.1696 10.0459 29.9623C9.89262 29.8913 9.76138 30.1029 9.91127 30.1925C10.3256 30.4403 10.7556 30.658 11.193 30.8584C10.8685 31.4546 10.5793 32.0765 10.3256 32.7037C9.61884 32.6571 8.85468 32.8715 8.34316 33.3547C7.87305 33.7988 7.51535 34.6207 7.91948 35.2135C7.99443 35.3236 8.18359 35.2945 8.19165 35.1518C8.94164 36.2301 10.5851 35.9957 11.8541 36.0493C15.4558 36.2014 19.0648 36.1447 22.6623 35.9226C22.7669 35.9161 22.8334 35.8548 22.8669 35.7791C23.9321 35.3657 24.1679 33.952 23.3171 33.1417C23.2454 33.0734 23.1642 33.0614 23.09 33.0788C23.0715 33.0723 23.0618 33.0558 23.0394 33.0548C19.2335 32.8742 15.4536 33.3424 11.6578 32.8814C11.9801 32.4029 12.2665 31.8965 12.5544 31.3959C16.1455 32.6053 20.2437 32.4118 23.7758 31.0859C27.9483 29.5194 30.4141 25.5545 31.4831 21.3929C33.4829 13.6071 30.5857 4.00135 22.9777 1.43672ZM12.4739 26.8906C13.3847 26.9378 14.2728 27.0905 15.1689 27.2519C15.2811 27.2722 15.3299 27.1108 15.2168 27.0783C14.3232 26.8227 13.3951 26.73 12.4684 26.7C12.3791 26.6972 12.3572 26.7952 12.3979 26.8515C11.8401 26.5623 11.3017 26.2529 10.8013 25.9065C12.136 26.1738 13.4871 26.3716 14.837 26.5397C14.9277 26.551 14.9491 26.3958 14.8587 26.3793C13.4419 26.1202 12.0131 25.8869 10.5793 25.7426C10.5736 25.7421 10.5705 25.7464 10.5655 25.7473C9.88222 25.2526 9.26276 24.6993 8.70551 24.0963C9.43399 24.2557 10.1628 24.4156 10.8979 24.5388C11.0304 24.5611 11.0903 24.3671 10.9546 24.333C10.1203 24.1234 9.27388 23.9622 8.43012 23.793C8.14253 23.4595 7.88112 23.1061 7.63351 22.7426C8.29152 22.8465 8.96262 22.909 9.6244 22.953C9.70562 22.9583 9.72624 22.8212 9.64394 22.809C8.9463 22.7046 8.23504 22.613 7.5288 22.5788C6.93695 21.6785 6.47473 20.687 6.1416 19.619C6.86021 19.7023 7.57345 19.8067 8.29009 19.9171C8.42025 19.9372 8.47942 19.752 8.34585 19.7145C7.60375 19.5069 6.82686 19.3947 6.05482 19.3427C5.9191 18.8676 5.81887 18.372 5.73729 17.8664C6.43421 17.9175 7.12467 18.0138 7.81137 18.1538C7.97829 18.1878 8.0484 17.9456 7.88237 17.8967C7.16358 17.6842 6.43044 17.5851 5.68691 17.5508C5.64764 17.2638 5.62505 16.9679 5.603 16.6721C5.6177 16.6963 5.64065 16.7166 5.6792 16.7232C6.1633 16.8062 6.64721 16.9036 7.13561 16.9572C7.27044 16.9721 7.29805 16.7513 7.16752 16.7214C6.69974 16.6145 6.22139 16.5505 5.74823 16.4724C5.6688 16.4593 5.61268 16.5122 5.5935 16.5726C5.56266 16.1159 5.54688 15.6514 5.56302 15.1714C5.56373 15.1476 5.56714 15.1248 5.56804 15.1009C5.93344 15.1415 6.30261 15.1775 6.65958 15.1499C6.73973 15.1436 6.76626 15.0238 6.67948 15.0025C6.32771 14.9159 5.95478 14.891 5.58453 14.8711C5.60981 14.465 5.66432 14.072 5.73442 13.6865C6.08243 13.6983 6.43026 13.71 6.77845 13.6951C6.84067 13.6924 6.84067 13.6011 6.77845 13.5984C6.43493 13.5837 6.09158 13.595 5.74823 13.6067C5.80148 13.3274 5.87678 13.0595 5.95191 12.7914C6.3451 12.8434 6.73865 12.8945 7.13238 12.9241C7.25197 12.9331 7.24659 12.7549 7.13238 12.7407C6.75371 12.6943 6.37146 12.6674 5.9892 12.6421C6.06934 12.3728 6.16096 12.1099 6.26173 11.8525C6.75013 11.8609 7.23548 11.8788 7.72423 11.9054C7.87627 11.9136 7.91285 11.6664 7.76063 11.637C7.31293 11.5502 6.85125 11.5328 6.39351 11.5529C6.49302 11.3221 6.61171 11.1037 6.72682 10.8832C7.05905 10.8889 7.36923 10.9752 7.66973 11.1362C7.78932 11.2004 7.889 11.0284 7.77569 10.9549C7.48577 10.7665 7.16788 10.6768 6.83439 10.6672C7.03234 10.3095 7.24713 9.96343 7.4899 9.63819C8.93088 11.8408 6.88065 14.6947 8.04929 17.1013C9.39203 19.8662 11.0091 21.9591 11.5764 25.1158C11.6226 25.3736 12.0029 25.2607 11.9654 25.0086C11.7675 23.6832 11.4607 22.431 10.9411 21.191C10.3552 19.7924 9.13474 18.6225 8.60654 17.2491C7.63674 14.728 9.4503 11.5385 7.66076 9.4277C9.36155 7.27509 11.9287 5.84504 14.7393 5.36363C14.7259 5.41706 14.7248 5.47533 14.7511 5.53629C15.689 7.70916 15.2905 10.0897 13.1375 11.2868C12.2439 11.7836 11.4005 12.0796 10.7633 12.9139C10.702 12.9942 10.8339 13.0923 10.902 13.0209C12.1944 11.6655 14.1912 11.7811 15.2033 10.0481C16.0697 8.56475 15.9524 6.78902 15.1951 5.29532C16.2732 5.15152 17.3809 5.14292 18.4857 5.29066C20.0988 5.50653 21.4901 6.03885 22.6672 6.80838C21.9358 6.91847 21.2036 7.46191 20.7957 7.98796C20.7003 8.11114 20.8601 8.28613 20.9725 8.16475C21.294 7.81817 21.6771 7.54995 22.1243 7.3902C22.4863 7.26092 22.8545 7.26756 23.2212 7.19853C24.5363 8.20222 25.5477 9.52613 26.2583 11.0482C24.5322 11.2314 18.3092 11.5712 20.3475 8.67717C20.4436 8.54073 20.2331 8.38618 20.1198 8.50146C19.3389 9.29502 19.4906 10.6421 20.5178 11.159C22.1492 11.98 24.6469 11.6825 26.3987 11.3739C26.6602 11.98 26.8811 12.6116 27.0513 13.2678C24.6711 13.1603 21.9197 11.0087 19.6009 12.477C18.2524 13.3309 18.5133 15.1915 19.841 15.9626C19.9543 16.0284 20.0719 15.8758 19.9803 15.7821C18.7478 14.5189 19.3174 12.574 21.2219 12.4216C22.0249 12.3572 22.8002 12.5682 23.5583 12.7979C24.7581 13.1615 25.8629 13.5658 27.1262 13.5794C27.3975 14.7332 27.539 15.9443 27.5345 17.1818C27.5262 19.4919 26.4266 21.7246 24.7574 23.5471C22.4522 23.3564 23.7252 19.6183 23.204 18.171C22.7841 17.0049 21.7818 16.8399 20.8167 16.2554C20.6688 16.1659 20.4837 16.3901 20.6268 16.5014C21.4338 17.1293 22.3846 17.2467 22.8214 18.308C23.2655 19.3873 22.8223 20.5698 22.9081 21.687C22.9867 22.7088 23.4525 23.7173 24.4936 23.8268C21.948 26.4492 18.2207 28.1407 14.9647 27.8212C14.8924 27.814 14.8392 27.8357 14.7972 27.8689C14.2263 27.6833 13.6827 27.4651 13.1549 27.2293C13.1309 27.1703 13.0609 27.1391 13.0018 27.1619C12.82 27.0787 12.6505 26.9808 12.4739 26.8906ZM13.0573 29.4463C12.7513 29.3799 12.4452 29.3093 12.1394 29.2301C12.3647 28.9174 12.5822 28.5963 12.7692 28.2594C12.8544 28.1061 12.9505 27.9409 13.0278 27.7702C13.2617 27.8445 13.5004 27.9096 13.7414 27.97C13.6666 28.1577 13.6107 28.3581 13.5298 28.5369C13.4007 28.8218 13.246 29.0916 13.0744 29.3529C13.0523 29.3866 13.0532 29.4172 13.0573 29.4463ZM30.1789 19.1257C28.9253 28.3671 21.2047 31.1085 13.3306 29.5024C13.542 29.218 13.7313 28.9208 13.89 28.6036C13.9761 28.4315 14.0713 28.2447 14.1279 28.0528C14.3242 28.0935 14.5195 28.1367 14.7225 28.1633C14.754 28.2629 14.8347 28.349 14.965 28.3619C20.6431 28.919 27.8172 23.6293 28.0767 17.6987C28.3146 12.2634 25.9291 7.04936 20.9415 5.23508C21.1353 4.92669 21.328 4.61794 21.5105 4.30238C21.6929 3.98701 21.9062 3.66499 22.0432 3.3229C28.1193 6.00712 31.1283 12.1277 30.1789 19.1257ZM21.7476 3.20636C21.5443 3.49574 21.3815 3.82206 21.2179 4.13116C21.0392 4.46913 20.8715 4.81212 20.7062 5.15654C20.4204 5.06026 20.1311 4.96864 19.8288 4.89477C20.2444 4.25577 20.5963 3.5714 20.8317 2.8458C21.1468 2.95445 21.4469 3.08085 21.7476 3.20636ZM22.6518 1.26621C22.6319 1.28056 22.6301 1.301 22.6182 1.31857C22.2489 1.20705 21.8695 1.11148 21.4788 1.03349C21.6429 0.731197 21.8976 0.456877 22.2582 0.444506C22.6975 0.429624 23.0905 0.95155 22.6518 1.26621ZM22.9132 33.4494C22.9246 33.4688 22.9332 33.4885 22.9515 33.5068C23.5697 34.1221 23.4016 35.0229 22.7095 35.4491C22.6935 35.4469 22.6803 35.4412 22.6622 35.4423C20.5022 35.5667 18.3424 35.6612 16.1787 35.6755C14.7748 35.6847 9.81194 36.1168 8.45056 34.9797C9.55142 35.0464 10.6546 35.0745 11.7571 35.0905C11.8973 35.0924 11.8957 34.8814 11.7571 34.8737C10.6127 34.8113 9.46626 34.7597 8.31985 34.7536C8.29618 34.7534 8.28256 34.7656 8.26696 34.7753C8.24939 34.7509 8.22267 34.7303 8.20797 34.7048C8.22787 34.5044 8.27736 34.3181 8.35732 34.1442C10.1219 34.1915 11.8609 34.2856 13.6117 34.5422C13.8378 34.5754 13.8828 34.262 13.6539 34.2311C11.9461 34.0018 10.2132 33.8707 8.48857 33.9245C8.57875 33.7969 8.68561 33.6753 8.83353 33.5679C9.2936 33.2337 9.83381 33.1536 10.3633 33.0126C10.3373 33.283 10.459 33.5448 10.7606 33.6323C11.1054 33.7323 11.5021 33.4944 11.5197 33.1346C15.2783 33.8637 19.1119 33.3384 22.9132 33.4494ZM11.1979 32.8457C11.1357 32.9438 11.1688 33.0334 11.2361 33.0881C11.1575 33.195 11.0645 33.2809 10.9184 33.2696C10.7507 33.2565 10.6344 33.1001 10.6327 32.9273C10.6912 32.8877 10.7084 32.8027 10.6634 32.7534C10.9497 32.176 11.2117 31.5777 11.4338 30.9706C11.7254 31.0974 12.0225 31.2107 12.3221 31.3172C11.935 31.8166 11.5357 32.3134 11.1979 32.8457Z" fill="#343434"/>
<path d="M9.05486 21.262C8.34038 21.1437 7.61943 21.0809 6.89921 21.0064C6.78285 20.9943 6.78697 21.1715 6.89921 21.1864C7.60886 21.281 8.31653 21.3877 9.03084 21.4388C9.13089 21.446 9.15545 21.2787 9.05486 21.262Z" fill="#343434"/>
<path d="M24.3139 15.263C24.0138 18.2259 22.4806 20.7787 19.6348 21.9231C16.4348 23.2101 11.6812 22.2249 10.7006 18.4177C10.657 18.2488 10.415 18.3225 10.4435 18.4885C11.0656 22.1185 15.271 23.5518 18.5521 22.8768C22.2149 22.123 24.6422 18.9167 24.8306 15.2632C24.8478 14.9263 24.3467 14.9382 24.3139 15.263Z" fill="#343434"/>
<path d="M14.7681 12.6252C14.236 12.1379 13.4389 11.9225 12.7726 12.2627C11.5552 12.8841 11.5541 14.8226 12.7188 15.4841C12.8981 15.5859 13.0455 15.3243 12.8786 15.2106C12.0913 14.6736 12.0893 13.2698 12.9171 12.7536C13.4023 12.4511 14.0069 12.6274 14.4078 12.9854C14.8816 13.4087 14.9179 13.8767 14.9177 14.4707C14.9177 14.6649 15.1753 14.7262 15.2748 14.5675C15.6695 13.9393 15.2603 13.0758 14.7681 12.6252Z" fill="#343434"/>
<path d="M19.2781 10.1456C17.723 10.4387 17.1125 12.591 18.5725 13.4471C18.7592 13.5567 18.9182 13.2772 18.7407 13.1594C17.431 12.2885 18.4424 10.5017 19.8211 10.601C20.479 10.6483 21.0421 11.0268 21.3785 11.585C21.7405 12.1851 21.7096 12.7914 21.7772 13.4568C21.8005 13.685 22.1159 13.7508 22.1898 13.5126C22.7282 11.7757 21.0773 9.80619 19.2781 10.1456Z" fill="#343434"/>
</g>
<defs>
<clipPath id="clip0">
<rect width="36" height="36" fill="white" transform="translate(0.5 0.134155)"/>
</clipPath>
</defs>
</svg>
