<svg width="41" height="41" viewBox="0 0 41 41" fill="none" xmlns="http://www.w3.org/2000/svg">
<g clip-path="url(#clip0)">
<path d="M39.965 31.8078C39.9093 31.6421 39.7437 31.6312 39.6471 31.7227C37.7877 28.8805 35.8739 26.0764 34.0314 23.2184C34.0069 23.1805 33.975 23.1606 33.942 23.1542C34.263 17.6095 34.1609 11.9995 33.8595 6.45592C33.8487 6.25649 33.6146 6.21705 33.5169 6.33017C33.4841 6.27102 33.4286 6.22466 33.3441 6.21982C24.9734 5.73982 16.4901 5.63171 8.12271 6.24663C7.92144 6.2615 7.91671 6.57787 8.12271 6.57147C16.5539 6.31201 24.9143 6.22328 33.3441 6.66055C33.401 6.66349 33.4431 6.64429 33.4765 6.61661C33.7365 12.1097 33.5316 17.5958 33.6776 23.0878C25.3125 22.851 16.5291 22.4739 8.19971 23.5187C8.22706 23.4134 8.08472 23.3142 7.99962 23.4038C7.98425 23.4199 7.97041 23.4376 7.95504 23.4537C7.96146 23.4383 7.97479 23.4294 7.97665 23.4102C7.99016 23.263 7.99827 23.1148 8.01093 22.9674C8.01279 22.9673 8.01397 22.9688 8.01583 22.9685C8.90197 22.7913 9.7871 22.7545 10.6859 22.8272C10.78 22.8348 10.8034 22.6699 10.7084 22.6566C9.80179 22.5293 8.90906 22.5891 8.02292 22.813C8.05551 22.4224 8.07864 22.0303 8.10515 21.6387C8.34256 21.634 8.5776 21.6089 8.80825 21.5309C8.89015 21.5032 8.85655 21.373 8.77229 21.3975C8.55278 21.4615 8.33496 21.4935 8.11427 21.5081C8.14061 21.1099 8.15918 20.7107 8.17978 20.3118C8.41499 20.3353 8.64717 20.3227 8.87326 20.257C8.87326 20.8878 8.86668 21.5188 8.86955 22.1498C8.87022 22.3101 9.04397 22.3504 9.13971 22.2764C9.15964 22.311 9.19037 22.3385 9.24457 22.3383C17.0201 22.3203 24.7834 21.6932 32.5662 21.7469C32.7339 21.7482 32.7342 21.4781 32.5662 21.4801C24.8191 21.5667 16.9659 21.3367 9.24457 22.065C9.2265 22.0668 9.21789 22.0796 9.20354 22.0863C9.29354 17.3275 9.46577 12.497 9.20641 7.74421C9.20371 7.69561 9.18345 7.65963 9.15542 7.63455C9.17703 7.65461 9.20185 7.67278 9.23883 7.67468C16.948 8.0758 24.7355 7.87273 32.4555 7.89591C32.4752 7.89591 32.4838 7.88173 32.4997 7.87636C32.8614 12.4165 32.0916 16.9605 32.654 21.4845C32.6822 21.7115 33.0345 21.7141 33.0056 21.4845C32.4349 16.9204 33.4144 12.3274 32.7304 7.77915C32.7201 7.70997 32.6562 7.6854 32.5976 7.69509C32.5838 7.62763 32.5419 7.56692 32.4553 7.56796C24.7146 7.66482 16.9725 7.3277 9.23866 7.39187C9.10476 7.39308 9.07234 7.54599 9.1387 7.62659C9.04887 7.56519 8.90129 7.60013 8.90163 7.74456C8.90501 8.74641 8.89977 9.74826 8.89623 10.7501C8.71251 10.7382 8.52728 10.7555 8.34357 10.7645C8.26083 10.7686 8.26066 10.8923 8.34357 10.8963C8.52745 10.9054 8.71218 10.9227 8.89589 10.9108C8.89454 11.2791 8.89538 11.6473 8.89386 12.0156C8.6828 11.991 8.46582 11.9981 8.24952 12.0092C8.23517 11.1111 8.21626 10.2137 8.1916 9.31808C8.34847 9.30251 8.5055 9.30511 8.6779 9.31549C8.76672 9.32085 8.78867 9.17036 8.69917 9.15445C8.52711 9.12366 8.35505 9.13058 8.18603 9.16068C8.1759 8.80539 8.16104 8.45184 8.14922 8.09725C8.37025 8.0822 8.59145 8.06732 8.80994 8.03273C8.90366 8.01786 8.88255 7.8544 8.78749 7.86218C8.57203 7.87982 8.35809 7.91684 8.14432 7.95403C8.1325 7.60809 8.12153 7.26197 8.10836 6.91655C9.15407 6.93799 10.1998 6.96342 11.2458 6.94716C11.3953 6.94491 11.3956 6.7114 11.2458 6.70915C10.1977 6.69289 9.15001 6.71849 8.10228 6.73994C8.10194 6.73095 8.10177 6.72195 8.10144 6.71313C8.09097 6.46596 7.71594 6.46405 7.72472 6.71313C7.7254 6.73441 7.72523 6.75568 7.7259 6.77696C7.70311 6.80792 7.70294 6.85479 7.72793 6.88403C7.75292 7.68333 7.76136 8.48107 7.77352 9.27934C7.77183 9.28003 7.76998 9.28055 7.76829 9.28107C7.70615 9.30615 7.72185 9.39315 7.77572 9.40007C7.84292 14.0743 7.70615 18.7307 7.67795 23.4108C7.67711 23.5415 7.79446 23.5749 7.88277 23.5346C7.87618 23.5415 7.87011 23.5491 7.86352 23.5561C7.83414 23.5599 7.80408 23.5619 7.7747 23.5657C7.69568 23.5761 7.67829 23.6687 7.72658 23.7091C5.30962 26.3028 3.18156 29.2205 1.02902 32.0403C0.93801 32.1597 0.974144 32.3039 1.05604 32.3885C1.05688 32.4392 1.08018 32.4845 1.13979 32.5032C1.14536 32.7555 1.15549 33.0077 1.16512 33.2599C1.15515 33.2779 1.15566 33.2848 1.16613 33.3025C1.17677 33.6412 1.15701 34.0006 1.26913 34.3199C1.31945 34.4635 1.5192 34.4949 1.59265 34.3644C14.221 34.6425 26.9809 33.9338 39.5946 33.3331C39.6645 33.3874 39.7763 33.3843 39.809 33.2707C39.9368 32.8261 40.1184 32.2647 39.965 31.8078ZM8.88745 15.5632C8.88593 15.5637 8.88491 15.5622 8.88339 15.5629C8.73835 15.6189 8.59584 15.6696 8.44573 15.7101C8.41837 15.7175 8.42985 15.7604 8.45738 15.7535C8.6004 15.7175 8.74206 15.694 8.88728 15.6729C8.88626 15.9368 8.88677 16.2008 8.88593 16.4647C8.67891 16.412 8.4768 16.4331 8.28076 16.5004C8.28886 15.9064 8.28819 15.3122 8.28802 14.7179C8.41837 14.7236 8.54873 14.7285 8.67858 14.7191C8.82379 14.7086 8.82413 14.4981 8.67858 14.4875C8.54906 14.4782 8.41905 14.4828 8.28903 14.4885C8.28852 14.1691 8.27822 13.8503 8.27569 13.5308C8.48929 13.5478 8.70019 13.5201 8.8915 13.4134C8.88863 14.1298 8.89032 14.8464 8.88745 15.5632ZM8.89369 12.16C8.89217 12.5414 8.89302 12.9228 8.89167 13.3042C8.67604 13.366 8.48693 13.4031 8.27383 13.3955C8.27012 12.9854 8.25864 12.5763 8.25239 12.1664C8.46785 12.1776 8.68364 12.1844 8.89369 12.16ZM8.27637 16.6941C8.47612 16.6429 8.67283 16.6306 8.88508 16.6355C8.88373 16.9952 8.88221 17.355 8.8812 17.715C8.69327 17.7466 8.50651 17.7843 8.31976 17.8236C8.22065 17.8444 8.26556 17.9886 8.36062 17.9755C8.53404 17.9516 8.70779 17.926 8.88052 17.8966C8.87968 18.192 8.87799 18.4873 8.87731 18.7827C8.65747 18.8182 8.44184 18.8803 8.22706 18.9434C8.25442 18.1946 8.26505 17.4443 8.27637 16.6941ZM8.2225 19.0918C8.44269 19.0517 8.66304 19.0093 8.87698 18.945C8.8763 19.3138 8.87343 19.6827 8.87343 20.0515C8.64582 20.0975 8.42175 20.1201 8.19076 20.1073C8.20731 19.7695 8.20984 19.4302 8.2225 19.0918ZM1.49573 32.1996C1.63858 32.0125 1.7865 31.8288 1.9307 31.6425C2.91596 31.6198 3.90121 31.5902 4.88444 31.5219C4.99015 31.5146 4.99251 31.3488 4.88444 31.3515C3.93414 31.3764 2.98518 31.4378 2.03707 31.5062C2.22737 31.2611 2.42155 31.0186 2.61337 30.7745C3.48128 30.7482 4.35188 30.7364 5.21742 30.6705C5.31097 30.6635 5.3135 30.5176 5.21742 30.5194C4.38042 30.5348 3.54324 30.6005 2.70725 30.6552C2.96914 30.3227 3.23323 29.9915 3.49664 29.66C3.99628 29.668 4.49524 29.6792 4.99487 29.6678C5.10193 29.6654 5.1021 29.4999 4.99487 29.4975C4.53644 29.4869 4.07851 29.4969 3.62007 29.5045C3.85478 29.2095 4.08932 28.9142 4.32402 28.6189C4.32453 28.6189 4.3247 28.6194 4.3252 28.6194C4.76895 28.6305 5.22181 28.6687 5.66472 28.6307C5.76147 28.6224 5.76164 28.4847 5.66472 28.4764C5.25693 28.4415 4.84122 28.4703 4.43141 28.4838C4.68452 28.1652 4.93307 27.8432 5.185 27.5235C5.64158 27.4778 6.09428 27.4758 6.5566 27.5026C6.66196 27.5086 6.65555 27.3519 6.5566 27.3386C6.14476 27.2831 5.72939 27.2985 5.31857 27.3535C5.5114 27.1084 5.70136 26.861 5.89216 26.6145C6.41003 26.608 6.92554 26.6021 7.44257 26.5685C6.76395 27.4922 6.14375 28.4851 5.6843 29.4599C5.58654 29.6675 5.82681 29.8104 5.97135 29.6666C5.99499 29.7214 6.03501 29.7683 6.11066 29.7725C15.998 30.3154 26.0374 29.8925 35.9011 29.0975C36.2283 29.0712 36.2332 28.551 35.9083 28.5677C35.0114 27.1914 34.4169 25.6646 33.5929 24.2479C33.5471 24.1692 33.4351 24.1883 33.3999 24.2543C33.3909 24.1698 33.3391 24.0912 33.2315 24.0947C25.093 24.3586 16.9245 24.451 8.79491 24.9C8.69749 24.9054 8.65207 24.9857 8.65494 25.0626C8.26117 25.4964 7.87939 25.9794 7.50893 26.4777C7.50167 26.4528 7.48495 26.431 7.45084 26.4298C6.97704 26.4153 6.50493 26.4248 6.03146 26.4352C6.13311 26.3035 6.23595 26.1726 6.33759 26.0408C6.70772 25.9868 7.07228 25.974 7.45084 25.9768C7.51906 25.9773 7.51568 25.8778 7.45084 25.8708C7.10757 25.8324 6.75922 25.8664 6.41966 25.9353C6.66787 25.6123 6.90511 25.2816 7.14961 24.9561C7.51028 24.9614 7.87163 24.973 8.2323 24.9639C8.31909 24.9616 8.31926 24.8277 8.2323 24.8257C7.90219 24.8172 7.57174 24.827 7.24163 24.8328C7.38229 24.6447 7.52142 24.4555 7.66275 24.2678C8.74595 24.2837 9.82813 24.3019 10.9115 24.2858C11.0084 24.2844 11.0086 24.1329 10.9115 24.1315C9.85785 24.116 8.80538 24.1327 7.75191 24.1483C7.85457 24.0108 7.95994 23.8752 8.05956 23.7356C16.5671 24.0023 25.1551 23.3713 33.6805 23.4936C33.7495 23.4946 33.7953 23.4635 33.8264 23.4208C35.2785 26.385 37.1538 29.3828 39.2812 31.9002C33.0981 31.9846 26.9147 32.0938 20.7325 32.2325C14.4633 32.3731 7.72945 33.1636 1.50316 32.2615C1.50029 32.2406 1.49826 32.22 1.49573 32.1996ZM35.6333 28.5855C25.789 29.343 16.0125 29.4302 6.14713 29.4217C6.60827 28.7558 7.01149 28.0412 7.45506 27.3633C7.92819 26.6403 8.44606 25.9432 8.88981 25.2007C16.9988 25.1348 25.1245 24.7158 33.2312 24.4678C33.334 24.4647 33.3838 24.3882 33.3963 24.3069C33.3968 24.3163 33.3912 24.3234 33.3946 24.3334C33.9083 25.8533 34.8294 27.2085 35.6333 28.5855ZM1.65378 34.0457C1.66357 33.816 1.63487 33.5829 1.61021 33.353C2.62603 33.3985 3.6427 33.4476 4.65869 33.4787C4.78567 33.4825 4.78128 33.2911 4.65869 33.2793C3.64608 33.1823 2.6154 33.174 1.59603 33.215C1.59502 33.2047 1.59367 33.1942 1.59282 33.184C1.57543 32.982 1.55905 32.7801 1.5398 32.5784C7.24805 33.6282 13.6263 32.7318 19.4007 32.6725C26.0588 32.6038 32.717 32.5006 39.374 32.3679C39.4765 32.3658 39.5319 32.3025 39.5623 32.228C39.5669 32.4385 39.5853 32.6481 39.5782 32.8604C26.9443 33.408 14.2796 33.4431 1.65378 34.0457Z" fill="#343434"/>
<path d="M24.7175 31.5349C24.5257 31.1768 24.3233 30.8587 24.0911 30.5358C24.0963 30.4817 24.0676 30.437 24.0117 30.4206C24.0094 30.4175 24.0077 30.4145 24.0053 30.4114C23.9175 30.2935 23.7595 30.3265 23.697 30.4171C21.7187 30.5067 19.749 30.5624 17.7684 30.5718C17.7554 30.483 17.6451 30.4324 17.5832 30.5282C17.5664 30.554 17.5536 30.5792 17.5374 30.6048C17.5046 30.6282 17.4835 30.6598 17.4808 30.6994C17.2726 31.036 17.0906 31.368 16.9219 31.7367C16.8576 31.8774 16.9344 32.0342 17.0926 32.0417C19.5868 32.1584 22.0689 32.0645 24.5539 31.8272C24.6961 31.8135 24.7912 31.6724 24.7175 31.5349ZM23.4088 31.5375C22.6714 31.6674 21.8607 31.6324 21.1139 31.6521C20.3483 31.6726 19.5815 31.68 18.8158 31.6743C17.8182 31.667 17.3054 31.8665 17.6818 30.857C19.7021 30.9859 21.7543 30.93 23.7657 30.6856C24.2228 31.3455 24.2959 31.3813 23.4088 31.5375Z" fill="#343434"/>
</g>
<defs>
<clipPath id="clip0">
<rect width="39.0476" height="40" fill="white" transform="translate(0.976074 0.134155)"/>
</clipPath>
</defs>
</svg>
