<svg width="774" height="378" viewBox="0 0 774 378" fill="none" xmlns="http://www.w3.org/2000/svg">
<path d="M343.613 3.63376C301.649 5.32968 260.559 7.36474 211.6 10.0782C205.917 10.4174 199.797 10.7566 194.115 10.7566C161.767 12.1133 127.671 13.47 99.6946 26.0197C83.5207 33.4816 71.281 43.9962 65.1612 55.5284C61.227 63.3295 60.3528 71.809 59.0414 79.9494C58.6042 84.3587 58.1671 88.768 56.8557 93.1774C55.5443 98.6043 53.3587 105.388 47.6759 110.476C42.4304 114.885 35.4363 116.92 28.4422 119.294C24.9452 120.312 21.4481 121.329 17.9511 122.686C9.64566 125.739 3.52578 131.505 1.34011 136.932C0.0287131 141.002 0.90298 145.072 3.96286 148.803C4.83712 149.821 6.14852 150.16 7.45993 150.16C8.77133 150.16 10.0827 149.481 10.957 148.464C15.7654 141.68 23.1967 139.645 28.4422 139.306C38.0591 138.628 49.4245 142.359 55.5443 148.464C68.6582 161.014 67.784 177.973 66.0355 193.914L66.0355 194.592C62.9755 221.048 59.4785 248.183 66.0355 274.978C72.5924 301.773 90.0776 324.159 116.305 339.083C140.785 353.329 172.258 362.826 214.66 368.931C251.379 374.358 288.098 375.715 332.685 376.393C366.781 377.072 412.68 377.411 459.016 377.072C471.693 377.072 484.807 377.072 497.046 377.072C527.645 377.411 559.119 377.75 590.155 375.376C624.688 373.001 660.533 369.61 692.007 356.721C722.606 344.171 746.211 321.107 758.888 291.937C766.756 274.3 770.253 254.288 769.816 230.885C772.439 209.856 773.75 188.148 773.75 167.119C773.75 166.78 773.75 166.101 773.75 165.762C773.75 132.183 772.876 101.996 764.133 73.1658C755.828 45.353 736.157 25.0022 707.743 14.4876C678.893 3.63378 645.671 2.27706 611.575 1.59868C533.328 0.58113 439.782 -0.436394 343.613 3.63376Z" fill="white"/>
</svg>
