<svg width="774" height="347" viewBox="0 0 774 347" fill="none" xmlns="http://www.w3.org/2000/svg">
<path d="M343.613 344.269C301.649 342.707 260.559 340.832 211.6 338.332C205.917 338.02 199.797 337.707 194.115 337.707C161.767 336.457 127.671 335.208 99.6946 323.646C83.5207 316.772 71.281 307.085 65.1612 296.461C61.227 289.274 60.3528 281.463 59.0413 273.963C58.6042 269.901 58.1671 265.839 56.8557 261.777C55.5443 256.777 53.3587 250.528 47.6759 245.841C42.4304 241.779 35.4363 239.904 28.4422 237.717C24.9452 236.779 21.4481 235.842 17.9511 234.592C9.64565 231.78 3.52578 226.468 1.34011 221.468C0.0287095 217.718 0.902977 213.969 3.96285 210.532C4.83712 209.594 6.14852 209.282 7.45992 209.282C8.77132 209.282 10.0827 209.907 10.957 210.844C15.7654 217.094 23.1967 218.968 28.4422 219.281C38.0591 219.906 49.4245 216.469 55.5443 210.844C68.6582 199.283 67.784 183.659 66.0355 168.973L66.0355 168.348C62.9755 143.975 59.4785 118.978 66.0355 94.2924C72.5924 69.6072 90.0776 48.9841 116.305 35.2353C140.785 22.1116 172.258 13.3624 214.66 7.73788C251.379 2.73834 288.098 1.48845 332.685 0.863503C366.781 0.238558 412.68 -0.0739164 459.016 0.238551C471.693 0.23855 484.807 0.238549 497.046 0.238549C527.645 -0.0739247 559.119 -0.386398 590.155 1.8009C624.688 3.98819 660.533 7.1129 692.007 18.9868C722.606 30.5482 746.211 51.7963 758.888 78.6688C766.756 94.9173 770.253 113.353 769.816 134.914C772.439 154.287 773.75 174.285 773.75 193.658C773.75 193.971 773.75 194.596 773.75 194.908C773.75 225.843 772.876 253.653 764.133 280.213C755.828 305.835 736.157 324.583 707.743 334.27C678.893 344.269 645.671 345.519 611.575 346.144C533.328 347.081 439.782 348.019 343.613 344.269Z" fill="white"/>
</svg>
