<svg width="774" height="323" viewBox="0 0 774 323" fill="none" xmlns="http://www.w3.org/2000/svg">
<path d="M430.887 3.28934C472.851 4.73678 513.941 6.47372 562.9 8.78966C568.583 9.07915 574.703 9.36864 580.385 9.36864C612.733 10.5266 646.829 11.6846 674.805 22.3958C690.979 28.7646 703.219 37.7388 709.339 47.5815C713.273 54.2398 714.147 61.4772 715.459 68.425C715.896 72.1884 716.333 75.9517 717.644 79.7151C718.956 84.347 721.141 90.1368 726.824 94.4792C732.07 98.2426 739.064 99.9795 746.058 102.006C749.555 102.874 753.052 103.743 756.549 104.901C764.854 107.506 770.974 112.428 773.16 117.06C774.471 120.533 773.597 124.007 770.537 127.192C769.663 128.06 768.351 128.35 767.04 128.35C765.729 128.35 764.417 127.771 763.543 126.902C758.735 121.112 751.303 119.375 746.058 119.086C736.441 118.507 725.075 121.691 718.956 126.902C705.842 137.613 706.716 152.088 708.464 165.694L708.464 166.273C711.524 188.853 715.021 212.013 708.464 234.883C701.908 257.753 684.422 276.859 658.194 289.597C633.715 301.755 602.242 309.861 559.84 315.072C523.121 319.704 486.402 320.862 441.815 321.441C407.719 322.02 361.82 322.309 315.484 322.02C302.807 322.02 289.693 322.02 277.454 322.02C246.855 322.309 215.381 322.599 184.345 320.572C149.812 318.546 113.967 315.651 82.4934 304.65C51.8943 293.939 28.2892 274.254 15.6124 249.357C7.74408 234.304 4.24703 217.224 4.68416 197.249C2.06138 179.3 0.749982 160.773 0.74998 142.824C0.74998 142.535 0.74998 141.956 0.74998 141.666C0.749977 113.007 1.62424 87.242 10.3668 62.6352C18.6723 38.8968 38.3432 21.5273 66.7567 12.5531C95.6073 3.28936 128.829 2.13137 162.925 1.55239C241.172 0.683913 334.718 -0.184563 430.887 3.28934Z" fill="white"/>
</svg>
