<svg width="774" height="319" viewBox="0 0 774 319" fill="none" xmlns="http://www.w3.org/2000/svg">
<path d="M430.887 316.233C472.851 314.799 513.941 313.079 562.9 310.784C568.583 310.498 574.703 310.211 580.385 310.211C612.733 309.064 646.829 307.917 674.805 297.305C690.979 290.996 703.219 282.106 709.339 272.355C713.273 265.759 714.147 258.589 715.459 251.706C715.896 247.978 716.333 244.249 717.644 240.521C718.956 235.933 721.141 230.197 726.824 225.895C732.07 222.167 739.064 220.446 746.058 218.438C749.555 217.578 753.052 216.718 756.549 215.571C764.854 212.99 770.974 208.114 773.16 203.525C774.471 200.084 773.597 196.643 770.537 193.488C769.663 192.628 768.351 192.341 767.04 192.341C765.729 192.341 764.417 192.914 763.543 193.775C758.735 199.51 751.303 201.231 746.058 201.518C736.441 202.092 725.075 198.937 718.956 193.775C705.842 183.164 706.716 168.824 708.464 155.345L708.464 154.771C711.524 132.402 715.021 109.459 708.464 86.8026C701.908 64.1463 684.422 45.2182 658.194 32.5995C633.715 20.5544 602.242 12.5243 559.84 7.36214C523.121 2.77352 486.402 1.62637 441.815 1.05279C407.719 0.479207 361.82 0.192416 315.484 0.479202C302.807 0.479201 289.693 0.479201 277.454 0.4792C246.855 0.19241 215.381 -0.0943805 184.345 1.91314C149.812 3.92065 113.967 6.78854 82.4934 17.6865C51.8943 28.2977 28.2892 47.7993 15.6124 72.4631C7.74408 87.3761 4.24703 104.297 4.68416 124.085C2.06137 141.866 0.749979 160.22 0.749976 178.001C0.749976 178.288 0.749976 178.862 0.749976 179.148C0.749972 207.54 1.62423 233.065 10.3668 257.442C18.6723 280.958 38.3432 298.166 66.7567 307.056C95.6073 316.233 128.829 317.38 162.925 317.954C241.172 318.814 334.718 319.675 430.887 316.233Z" fill="white"/>
</svg>
