<svg width="53" height="31" viewBox="0 0 53 31" fill="none" xmlns="http://www.w3.org/2000/svg">
<path d="M52.4401 4.3533C52.4331 4.15968 52.3629 3.96606 52.2575 3.79396C52.2294 3.7581 52.2083 3.73659 52.1802 3.71508C52.1591 3.69356 52.1381 3.67922 52.124 3.66488C52.0959 3.63619 52.0749 3.62185 52.0608 3.60751C52.0749 3.62902 52.0959 3.66488 52.0819 3.69356C52.0397 3.62902 51.9625 3.55731 51.8992 3.49995C51.8922 3.47843 51.8852 3.45692 51.8852 3.43541C51.8852 3.34218 51.8641 3.25613 51.829 3.16291C51.7939 3.10554 51.7587 3.05534 51.7166 3.01232C51.6955 2.9908 51.6744 2.96929 51.6604 2.94778C51.6463 2.93344 51.6323 2.91909 51.6182 2.90475C51.5761 2.86172 51.5269 2.82587 51.4777 2.79001C51.4496 2.7685 51.4286 2.75416 51.4005 2.73265C51.3724 2.71113 51.3372 2.69679 51.3021 2.66811C51.267 2.64659 51.2319 2.61791 51.1897 2.58923C51.1476 2.56054 51.0984 2.53186 51.0492 2.496C50.8666 2.34541 50.7963 2.2235 50.9649 2.25219C50.9017 2.23785 50.8666 2.23068 50.8385 2.23068L50.8736 2.17331C50.7753 2.10877 50.6839 2.04423 50.5856 1.97969V1.97252H50.5786C50.5645 1.96535 50.5505 1.95818 50.5434 1.94384L50.5645 1.95101C50.5013 1.91515 50.4381 1.8793 50.3678 1.84344C50.3608 1.83627 50.3678 1.8291 50.3748 1.8291C50.3046 1.80759 50.2273 1.77173 50.1501 1.72871C50.143 1.71436 50.143 1.70002 50.1711 1.68568C49.9323 1.51357 49.7496 1.5064 49.4897 1.25542C49.4405 1.112 49.1455 0.925551 48.9769 0.767789C48.7872 0.638711 48.6186 0.516804 48.429 0.409239C48.3306 0.35187 48.2323 0.301673 48.1129 0.251476C47.9934 0.201279 47.867 0.158253 47.7054 0.129569C47.6141 0.0722009 47.4947 0.0506878 47.3682 0.0435168L46.5253 0.0291748L46.7641 0.430752C46.7571 0.445094 46.75 0.459436 46.743 0.473778L46.7079 0.55983L46.6939 0.602856C46.6868 0.610027 46.6868 0.617198 46.6868 0.63154L46.6798 0.660224L46.6658 0.782131L46.6587 0.84667V0.861012V0.882525V0.91838C46.6658 1.01877 46.6728 1.112 46.6728 1.21239V1.35581V1.42752V1.46338V1.48489C46.6658 1.57811 46.6658 1.67851 46.6517 1.7789C46.6166 2.17331 46.5534 2.58923 46.5182 3.04817C46.4901 3.24179 46.4831 3.44975 46.4972 3.65771L46.167 3.62902C45.9211 3.60751 45.6682 3.586 45.4224 3.57883L44.6707 3.5358C44.5443 3.52863 44.4248 3.52146 44.2984 3.51429L43.9261 3.49995L43.329 3.44975L43.0339 3.42106C42.9356 3.41389 42.8372 3.40672 42.7319 3.39955C42.3314 3.37804 41.9381 3.34935 41.5376 3.32784C39.5918 3.32067 37.6459 3.40672 35.7211 3.60034L35.3137 3.7079C35.1732 3.7079 35.0186 3.7079 34.8711 3.71508C34.7166 3.72225 34.562 3.73659 34.4075 3.7581C34.0914 3.79396 33.7682 3.82981 33.4381 3.88001C33.1079 3.93021 32.7777 3.9804 32.4546 4.0306C32.3703 4.04494 32.293 4.05211 32.2087 4.06646C32.1314 4.0808 32.0471 4.08797 31.9699 4.10231C31.8083 4.12382 31.6538 4.14534 31.4992 4.15968L31.4852 4.21705C31.148 4.27441 31.162 4.23856 31.0707 4.24573C29.4831 4.53257 27.8955 4.91263 26.3711 5.33572C26.1814 5.38592 25.9918 5.44329 25.8021 5.50066C25.6124 5.55803 25.4228 5.60822 25.2401 5.66559C24.8678 5.78033 24.4955 5.88789 24.1302 6.0098C23.3996 6.23927 22.6971 6.48309 22.0157 6.71256C21.8752 6.74841 21.6153 6.84164 21.3624 6.93486C21.1095 7.02808 20.8637 7.12848 20.7513 7.14999C19.9223 7.57308 19.0302 7.97466 18.1942 8.39058L18.2223 8.36906C18.0959 8.4336 17.9694 8.51248 17.843 8.57702C17.8219 8.58419 17.8149 8.57702 17.8289 8.56985C17.7236 8.63439 17.6042 8.7061 17.4707 8.77781C17.3372 8.84952 17.1967 8.9284 17.0492 9.00728C16.9017 9.08616 16.7471 9.15787 16.6066 9.23676C16.4591 9.31564 16.3186 9.39452 16.1851 9.45906L16.2132 9.43754C15.4616 9.88215 14.738 10.3483 14.0566 10.8502L13.8037 11.0367L13.5579 11.2303C13.3893 11.3594 13.2277 11.4813 13.0591 11.6175C12.736 11.8829 12.4128 12.141 12.1037 12.4135L11.8719 12.6143L11.7525 12.7147L11.6401 12.8151L11.1835 13.231C11.0289 13.3673 10.8814 13.5107 10.7339 13.6541L10.5091 13.8621C10.4318 13.9338 10.3616 14.0055 10.2913 14.0772C10.1438 14.2206 9.99629 14.364 9.84877 14.5075C9.70125 14.6509 9.56075 14.8015 9.41323 14.9449C9.26571 15.0883 9.12522 15.2389 8.9777 15.3895C8.8372 15.5401 8.68265 15.6907 8.54216 15.8413C7.98017 16.3863 7.43926 17.0316 6.90538 17.7057C6.37149 18.3798 5.83761 19.0897 5.28265 19.7781C5.21943 19.8355 5.04381 20.0578 4.81901 20.3662C4.70662 20.5239 4.58017 20.696 4.4467 20.8825C4.31323 21.0689 4.17976 21.2697 4.03926 21.4705C3.90579 21.6713 3.77232 21.8721 3.64587 22.0657C3.51942 22.2593 3.40703 22.4386 3.30868 22.6035C3.10496 22.9262 2.97149 23.17 2.92934 23.2417L3.21736 22.9262C3.04876 23.2059 2.90124 23.4497 2.76075 23.672C2.6905 23.7796 2.62728 23.8871 2.56405 23.9875C2.50083 24.0879 2.44463 24.1883 2.38141 24.2887C2.32521 24.3891 2.26199 24.4823 2.20579 24.5827C2.14959 24.6831 2.09339 24.7835 2.03719 24.8839C1.98099 24.9915 1.9248 25.0919 1.8686 25.2066C1.8124 25.3213 1.7562 25.4432 1.7 25.5652L1.71405 25.5006C1.6719 25.5723 1.6719 25.644 1.56653 25.8878C1.51736 26.0098 1.43306 26.1819 1.30661 26.4113C1.24339 26.5261 1.17314 26.6623 1.08884 26.8201C1.0467 26.899 0.997522 26.9778 0.948348 27.0711C0.899175 27.1571 0.850001 27.2575 0.793802 27.3507H0.786778C0.765703 27.4081 0.779753 27.4153 0.709505 27.5228L0.871075 27.2503C0.821902 27.4296 0.793802 27.5945 0.70248 27.824C0.674381 27.8742 0.653307 27.8814 0.639257 27.8814L0.442562 28.4551L0.33719 28.62C0.309091 28.8065 0.428513 28.7491 0.224794 29.208C0.35124 29.0431 0.196695 29.4518 0.252893 29.4016C0.238843 29.4232 0.210744 29.4734 0.182645 29.5164C0.161571 29.5881 0.140496 29.6741 0.119422 29.7674C0.0983473 29.8606 0.0772729 29.961 0.0632233 30.0542C0.0280993 30.2407 0 30.4128 0 30.4845C0 30.4845 0.105372 30.212 0.231818 29.9108C0.295042 29.7602 0.372314 29.6024 0.435538 29.459C0.505786 29.3228 0.561984 29.2009 0.604133 29.1363C0.463637 29.5236 0.583059 29.2439 0.625207 29.1722L0.618182 29.1435C0.709505 28.914 0.758678 28.9284 0.807852 28.8136C0.800827 28.8136 0.800827 28.8136 0.793802 28.8136V28.828C0.779753 28.8351 0.779753 28.828 0.779753 28.8136C0.772728 28.8136 0.765703 28.7993 0.786778 28.7419V28.7563C0.800827 28.7061 0.821902 28.6415 0.842976 28.577C0.864051 28.5124 0.89215 28.4551 0.906199 28.4192L0.941323 28.4264C0.941323 28.3762 0.969423 28.283 1.02562 28.1682C1.07479 28.0535 1.14504 27.9101 1.22232 27.7738C1.29959 27.6376 1.37686 27.4942 1.44711 27.3722C1.51033 27.2503 1.57356 27.1571 1.59463 27.0998C1.66488 26.9994 1.72108 26.8703 1.77025 26.734C1.82645 26.5978 1.88265 26.4615 1.95992 26.3253C2.18471 25.8878 2.12149 26.1245 2.26199 25.9165C2.42356 25.6512 2.19174 25.9524 2.24794 25.8448L2.46571 25.5365C2.37438 25.7301 2.44463 25.6369 2.47975 25.6082C2.55 25.4648 2.66942 25.2998 2.76777 25.1421C2.85909 24.9915 2.92934 24.8552 2.92232 24.7979C3.16819 24.4393 3.19628 24.4536 3.29463 24.2959C3.25248 24.3461 3.18224 24.4465 3.16116 24.4393C3.28058 24.3031 3.19628 24.3676 3.15414 24.425C3.20331 24.3031 3.41405 24.0234 3.60372 23.7724C3.79339 23.5142 3.96901 23.2848 3.94794 23.2417L3.96199 23.2489C3.94091 23.17 3.83554 23.2274 3.89876 23.0553L3.99009 22.9621L4.06736 22.7971C4.15166 22.7039 4.13761 22.7613 4.13761 22.7613C4.2781 22.496 4.54505 22.1589 4.75579 21.8649C4.62934 21.9438 4.50992 22.0227 4.3905 22.1087C4.59422 21.8721 4.98761 21.449 4.97356 21.3701L5.1281 21.2482C5.58472 20.7964 5.33885 20.8681 5.51447 20.6889L5.75331 20.4666L5.57067 20.7175C5.78141 20.4809 5.87273 20.3949 6.05538 20.2084C6.04133 20.2227 6.0343 20.2299 6.02728 20.2299L6.04835 20.1941C6.04133 20.151 6.12563 20.0076 6.2591 19.8355C6.35744 19.7136 6.43472 19.5989 6.52604 19.4698C6.62439 19.3407 6.74381 19.1973 6.91943 19.018L6.9405 18.8889C7.0248 18.7957 7.11612 18.7025 7.20745 18.6164L7.24959 18.6451C7.13017 18.7885 6.97563 18.9965 6.80703 19.2188C6.63844 19.4411 6.46984 19.6706 6.32934 19.8642L6.3434 19.8857C6.42769 19.771 6.51199 19.6491 6.58926 19.5415C6.66654 19.4268 6.74381 19.3264 6.80001 19.2547C6.85621 19.1973 7.01075 19.0682 6.98968 19.1471L7.03885 19.018C7.61488 18.2866 7.61488 18.2794 8.28224 17.5623L8.20497 17.6125C8.31736 17.4547 8.42976 17.3041 8.50001 17.2826C8.59836 17.1751 8.6967 17.0603 8.79505 16.9528C8.8934 16.8452 8.99877 16.7448 9.09712 16.6444C9.29381 16.4508 9.47646 16.2787 9.631 16.164L9.63803 16.0707C9.72232 15.9847 9.91902 15.8986 9.89794 15.8054C9.95414 15.7337 10.0033 15.6692 10.0595 15.5974C10.1789 15.4755 10.2281 15.3823 10.3897 15.2676C10.3967 15.2604 10.4108 15.2532 10.4178 15.2461C10.4178 15.2461 10.4178 15.2461 10.4108 15.2461C10.6988 14.9879 10.3616 15.2174 10.7058 14.9234C10.8393 14.8517 10.762 14.7656 10.9236 14.6222L11.1413 14.5218C11.3029 14.3999 11.3802 14.321 11.4645 14.2134C11.5558 14.113 11.6471 13.984 11.8579 13.7975C12.0827 13.6326 12.2302 13.5967 12.1459 13.7545C12.2723 13.5394 12.1951 13.6469 12.4128 13.4031C12.476 13.3888 12.455 13.4175 12.4198 13.482C12.6657 13.3171 12.5322 13.3457 12.7008 13.2023C12.7079 13.1234 12.6938 13.0087 12.75 12.9585L12.6727 13.0015C12.75 12.9155 12.8343 12.8294 12.9327 12.7434C13.024 12.6573 13.1364 12.5784 13.2488 12.5067L13.2628 12.5354L13.4806 12.3418L13.5227 12.3561L13.6773 12.2199C13.7335 12.1769 13.7827 12.1338 13.8389 12.0908L13.7897 12.1195C13.867 12.055 14.1128 11.8542 14.2674 11.761L14.2744 11.7825C14.3868 11.7179 14.4922 11.6534 14.5905 11.5817C14.6889 11.51 14.7872 11.4383 14.8856 11.3594C15.0752 11.2016 15.2789 11.0439 15.5318 10.8717L15.4897 10.9506C15.6864 10.8717 15.4967 10.8717 15.7145 10.7498L15.7566 10.7857C15.8971 10.6136 16.0025 10.6494 16.15 10.5849L16.0517 10.5706L16.2975 10.4343C16.5785 10.2837 16.5083 10.3985 16.4942 10.4558C16.5434 10.4056 16.5926 10.3554 16.6418 10.3052L16.712 10.3339C16.8033 10.1977 16.8525 10.2622 17.0632 10.0973C17.0984 10.1044 17.0422 10.1475 17.1265 10.1116C17.2389 10.0112 17.3513 9.918 17.4707 9.82478L17.2529 9.98971L17.2318 9.90366C17.4426 9.71004 17.569 9.72439 17.7376 9.60965L17.6322 9.6957C17.9062 9.51643 17.9484 9.53794 18.124 9.4734C18.0608 9.48774 17.9694 9.50925 18.0818 9.43754C18.1661 9.38735 18.1451 9.43754 18.2364 9.40169C18.2223 9.34432 18.419 9.20807 18.6227 9.12919C18.6227 9.13636 18.6227 9.14353 18.6157 9.15788C18.6579 9.12919 18.6789 9.10051 18.7703 9.07182L18.7562 9.1507L18.8897 9.01445C19.0091 8.9786 19.1426 8.85669 19.1566 8.89972L19.1004 8.94274C19.3814 8.8065 19.6694 8.68459 19.9504 8.55551L19.9856 8.59136C20.0347 8.49097 20.4632 8.40492 20.393 8.34038C20.5756 8.3117 21.0112 8.03203 20.962 8.1611C21.25 8.04637 21.4537 7.9388 21.6856 7.82407C21.9174 7.7165 22.1632 7.60894 22.5215 7.4942C22.662 7.48703 22.9079 7.41532 23.1678 7.32209C23.4277 7.23604 23.7157 7.13565 23.9475 7.05677C24.1653 6.97072 24.369 6.89901 24.5657 6.8273C24.6641 6.79144 24.7554 6.75559 24.8467 6.7269C24.938 6.69105 25.0294 6.66236 25.1277 6.63368C25.3104 6.56914 25.5 6.5046 25.6967 6.44006C25.8934 6.37552 26.1042 6.31098 26.336 6.23927C26.638 6.21776 26.9823 6.11019 27.3405 6.0098C27.6988 5.90941 28.0571 5.79467 28.3732 5.75164L28.5277 5.66559C28.7455 5.65842 28.9984 5.59388 29.2794 5.52934C29.4199 5.49349 29.5604 5.4648 29.7079 5.43612C29.8554 5.40743 30.0029 5.38592 30.1504 5.37875C30.2839 5.33572 30.3612 5.31421 30.3963 5.30704C30.3682 5.30704 30.3261 5.30704 30.305 5.28553C30.4736 5.27119 30.8038 5.18513 30.7897 5.2425L30.7476 5.25684C30.7405 5.28553 30.867 5.25684 31.0145 5.22099C31.162 5.18513 31.3447 5.14928 31.436 5.15645L31.3236 5.11342L31.6397 5.0704L31.5554 5.09908C31.8926 5.00586 32.1806 4.94132 32.4546 4.89829C32.7285 4.85527 32.9744 4.82658 33.2203 4.80507C33.712 4.7477 34.1897 4.71185 34.829 4.5756C34.6674 4.66165 35.0819 4.51106 35.11 4.58277C35.4471 4.64014 35.7141 4.50389 35.981 4.45369C35.981 4.44652 35.981 4.44652 35.9951 4.43935C36.1496 4.42501 36.3112 4.41066 36.4657 4.41066C36.1918 4.5254 36.7959 4.31027 36.55 4.40349C37.7794 4.36764 39.3881 4.23856 40.8141 4.26724L40.7509 4.24573C40.9335 4.24573 41.1372 4.24573 41.3269 4.23856C41.4253 4.23856 41.5166 4.23856 41.6009 4.23856C41.6852 4.24573 41.7695 4.2529 41.8327 4.26007C42.1067 4.3031 42.4368 4.21705 42.5422 4.20988C42.6967 4.19553 42.8372 4.20988 42.9286 4.22422C42.9988 4.23856 43.0339 4.2529 43.0199 4.26007C43.329 4.26007 43.631 4.19553 44.0666 4.2529C44.1017 4.27441 44.2 4.28159 44.3195 4.28876C44.4389 4.29593 44.5864 4.29593 44.7339 4.29593C45.0219 4.29593 45.2959 4.3031 45.2959 4.34612L45.3029 4.33895C45.5839 4.38915 45.8649 4.40349 46.1459 4.42501C46.2864 4.43218 46.4339 4.43935 46.5815 4.45369C46.6517 4.87678 46.729 5.31421 46.75 5.75164C46.7149 5.92375 47.0451 7.84558 47.0802 7.88143C47.0802 7.88143 47.1645 7.96749 47.1715 8.00334C47.1786 8.04637 47.1856 8.09656 47.1926 8.13959C47.2277 8.3834 47.2558 8.59854 47.2839 8.80649C47.305 9.0288 47.3963 9.17222 47.4736 9.25827C47.4947 9.27978 47.5158 9.3013 47.5368 9.32281C47.5579 9.33715 47.579 9.35866 47.6211 9.38018C47.6633 9.40169 47.7054 9.40886 47.7476 9.40886C47.7897 9.40886 47.8389 9.40886 47.881 9.40169C47.867 9.40886 47.8529 9.41603 47.8389 9.4232C47.8881 9.43037 47.9372 9.40169 48.0848 9.32998C48.0848 9.33715 48.0848 9.33715 48.0848 9.34432C48.0988 9.40886 48.1129 9.4734 48.1339 9.54511V9.55945V9.56662L48.141 9.55945L48.1691 9.54511C48.1901 9.53794 48.2112 9.5236 48.2253 9.51643C48.2604 9.49491 48.3025 9.48057 48.3447 9.45906C48.3939 9.45906 48.4641 9.43037 48.5484 9.39452C48.6327 9.35866 48.731 9.31564 48.8505 9.22958C48.9629 9.1507 49.0963 9.0288 49.2298 8.87821C49.3633 8.72761 49.4827 8.56985 49.5951 8.44077C49.848 8.11808 49.8831 8.05354 49.9885 7.91012C50.0798 7.78104 50.1641 7.6663 50.2554 7.5444C50.431 7.30058 50.6067 7.06394 50.8244 6.76993C51.1897 6.5046 51.4848 5.88789 51.829 5.5652L51.8711 5.43612C51.9344 5.38592 51.9976 5.32138 52.0608 5.24967C52.0889 5.21382 52.124 5.17796 52.1591 5.12777C52.1802 5.10625 52.1943 5.07757 52.2153 5.04888C52.2224 5.03454 52.2364 5.01303 52.2505 4.99869C52.2645 4.97717 52.2786 4.95566 52.2856 4.94132C52.3348 4.86244 52.3699 4.76921 52.398 4.67599C52.412 4.62579 52.4191 4.58277 52.4261 4.53257C52.4401 4.45369 52.4401 4.40349 52.4401 4.3533Z" fill="#343434"/>
</svg>
