<svg width="10" height="10" viewBox="0 0 36 32" fill="none" xmlns="http://www.w3.org/2000/svg">
<path d="M0.888238 12.5454C1.08138 9.19539 1.5218 8.15165 3.93699 5.32543C6.55325 2.26385 12.2171 0.427917 17.6351 0.884532C24.2138 1.43938 26.1019 1.84249 28.8163 3.27196C30.2721 4.03862 31.5877 4.62728 31.7399 4.58006C31.8922 4.53286 31.9398 3.58596 31.8458 2.47587C31.5714 -0.764894 33.1824 0.834959 34.3651 4.97792C35.74 9.79422 35.4754 16.0964 33.7329 20.0406C30.4805 27.4018 27.43 30.6476 23.6398 30.7786C22.6884 30.8115 21.2713 30.9486 20.4906 31.0832C18.1524 31.4865 11.9444 29.9694 10.0626 28.5348C7.49821 26.5799 3.44056 21.2988 1.99348 18.0327C1.19014 16.2195 0.791688 14.2396 0.889189 12.5453L0.888238 12.5454Z" fill="#3E3E3E"/>
</svg>
