<svg width="10" height="10" viewBox="0 0 27 31" fill="none" xmlns="http://www.w3.org/2000/svg">
<path d="M9.23442 30.3336C6.34992 29.8866 5.48299 29.418 3.23764 27.0908C0.805295 24.5697 -0.311248 19.5123 0.536675 14.8593C1.56661 9.20943 2.07336 7.60826 3.5378 5.37743C4.32321 4.18098 4.9428 3.09104 4.91463 2.95523C4.88648 2.81948 4.07059 2.69913 3.10156 2.6878C0.272617 2.65467 1.79242 1.39344 5.4784 0.715457C9.76345 -0.0727001 15.1981 0.682787 18.4676 2.52099C24.5697 5.952 27.1252 8.86443 26.9221 12.1571C26.8711 12.9836 26.8714 14.2221 26.9228 14.9092C27.0767 16.9676 25.2445 22.216 23.8452 23.7255C21.9383 25.7826 17.0267 28.8548 14.0779 29.835C12.4409 30.3791 10.6933 30.5587 9.23443 30.3328L9.23442 30.3336Z" fill="#3E3E3E"/>
</svg>
