<svg width="10" height="10" viewBox="0 0 29 30" fill="none" xmlns="http://www.w3.org/2000/svg">
<path d="M24.4361 2.54678C26.6025 4.30769 27.0923 5.11289 27.8237 8.11813C28.6161 11.3736 27.098 16.0888 24.1528 19.5223C20.5763 23.6911 19.3853 24.7689 17.0996 25.9046C15.8737 26.5137 14.8362 27.1149 14.7939 27.2406C14.7517 27.3663 15.3674 27.8593 16.1621 28.3362C18.4824 29.7285 16.6187 30.0368 13.2477 28.8182C9.32873 27.4017 5.20523 24.1556 3.39207 21.0601C0.00828251 15.2826 -0.696965 11.6444 1.05945 9.02331C1.50033 8.36534 2.0976 7.34246 2.3867 6.75018C3.25271 4.97614 7.29802 1.52589 9.18195 0.954408C11.7492 0.17566 17.2876 0.0083188 20.1957 0.62166C21.8101 0.962157 23.34 1.65701 24.4357 2.54746L24.4361 2.54678Z" fill="#3E3E3E"/>
</svg>
