<svg width="10" height="10" viewBox="0 0 22 23" fill="none" xmlns="http://www.w3.org/2000/svg">
<path d="M18.4201 2.55604C19.9947 3.83595 20.3508 4.42121 20.8824 6.60558C21.4583 8.97183 20.3549 12.3991 18.2141 14.8947C15.6146 17.9248 14.7489 18.7082 13.0875 19.5337C12.1965 19.9764 11.4423 20.4134 11.4116 20.5048C11.3809 20.5961 11.8284 20.9545 12.4061 21.3011C14.0926 22.3131 12.738 22.5372 10.2877 21.6515C7.43925 20.6218 4.44207 18.2625 3.12417 16.0125C0.664662 11.8131 0.152054 9.16869 1.4287 7.26352C1.74917 6.78527 2.18329 6.04179 2.39342 5.61129C3.02288 4.32182 5.96322 1.81401 7.33257 1.39862C9.19857 0.832587 13.2241 0.710954 15.3379 1.15676C16.5114 1.40425 17.6233 1.90931 18.4198 2.55653L18.4201 2.55604Z" fill="#3E3E3E"/>
</svg>
