<svg width="10" height="10" viewBox="0 0 27 31" fill="none" xmlns="http://www.w3.org/2000/svg">
<path d="M9.23343 30.3336C6.34894 29.8866 5.48201 29.418 3.23666 27.0908C0.804312 24.5697 -0.31223 19.5123 0.535694 14.8593C1.56563 9.20943 2.07238 7.60826 3.53682 5.37743C4.32224 4.18098 4.94182 3.09103 4.91366 2.95523C4.8855 2.81948 4.06961 2.69913 3.10059 2.6878C0.27164 2.65467 1.79144 1.39343 5.47743 0.715454C9.76248 -0.0727038 15.1971 0.682782 18.4667 2.52099C24.5687 5.952 27.1243 8.86442 26.9211 12.1571C26.8701 12.9836 26.8704 14.2221 26.9218 14.9092C27.0757 16.9675 25.2436 22.216 23.8442 23.7255C21.9373 25.7826 17.0258 28.8548 14.0769 29.835C12.4399 30.3791 10.6923 30.5587 9.23344 30.3328L9.23343 30.3336Z" fill="#3E3E3E"/>
</svg>
