<svg width="70" height="7" viewBox="0 0 70 7" fill="none" xmlns="http://www.w3.org/2000/svg">
<path d="M9.89 4.91644L10.3756 4.68152C8.79413 4.75648 8.06544 5.05521 6.70269 5.06917L6.77583 5.09652C6.58141 5.15472 6.45779 4.73953 4.29571 5.56138L4.29588 5.59715C4.22291 5.60556 4.22274 5.56979 4.07714 5.65815L4.44132 5.47302C4.22224 5.46249 4.02716 5.37762 3.71096 5.41407C3.63816 5.45825 3.63833 5.49402 3.61417 5.53259L2.88448 5.61671L2.66623 5.78502C2.447 5.73872 2.54313 5.47713 1.93588 5.72607C2.15396 5.522 1.6435 5.65242 1.71598 5.5367C1.69182 5.57527 1.61902 5.61945 1.57053 5.66083C1.20569 5.70289 0.548804 5.74283 0.378212 5.69093C0.378212 5.69093 1.76263 5.10188 2.15079 4.8424C1.64035 4.97282 2.02918 4.85642 2.12614 4.77367L2.15029 4.7351C2.44184 4.62991 2.44133 4.52261 2.58711 4.47002L2.58727 4.50578L2.56295 4.50859C2.5388 4.54716 2.56312 4.54436 2.56312 4.54436C2.56328 4.58012 2.56328 4.58012 2.66057 4.56891L2.63626 4.57171C2.75787 4.55769 2.97677 4.53245 3.0739 4.48547L3.0734 4.37817C3.29314 4.53177 4.57976 3.84663 4.87164 3.81298C5.16284 3.63626 5.55285 3.77024 5.91736 3.65664C6.52527 3.55077 6.20857 3.47992 6.52427 3.33616C6.91311 3.21976 6.4518 3.45188 6.59773 3.43505L7.0837 3.27167C6.81614 3.30251 6.96175 3.21415 7.01023 3.17277C7.39923 3.09214 8.00647 2.8432 8.12892 3.00802C8.66353 2.83902 8.66319 2.76749 8.8821 2.74225C8.80929 2.78643 8.66353 2.83902 8.66369 2.87479C8.8821 2.74225 8.76115 2.89934 8.68818 2.90776C9.00471 2.94284 10.3648 2.35659 10.4388 2.56279L10.4386 2.52702C10.5122 2.66168 10.3915 2.85454 10.6107 2.90084L10.7563 2.81248L10.9755 2.85878C11.1213 2.80619 11.048 2.74306 11.048 2.74306C11.4132 2.77254 11.9236 2.64212 12.3856 2.55307L11.9011 3.03837C12.2655 2.889 12.9457 2.63165 13.0437 2.7635L13.2619 2.5952C14.0147 2.25789 13.7977 2.67658 14.0892 2.57139L14.4777 2.38345L14.0885 2.42832C14.4774 2.31192 14.6232 2.25933 14.9145 2.11837C14.8902 2.12118 14.8902 2.12118 14.8661 2.15975L14.9147 2.15414C14.9637 2.22007 15.1586 2.26917 15.4261 2.23833C15.8153 2.19346 16.1077 2.26712 16.7151 2.05394L16.8619 2.21596L17.3237 2.09114L17.323 1.94807C16.8852 1.99855 16.0336 2.02515 15.474 2.05388L15.4736 1.98234C15.8142 1.94308 16.2036 1.96976 16.4226 1.94452C16.5197 1.89753 16.8111 1.75658 16.616 1.67171L16.8355 1.78954C17.9546 1.69633 17.9791 1.72929 19.1461 1.48739L19.0491 1.57014C19.2925 1.57787 19.5117 1.62417 19.5842 1.50845C20.2896 1.42713 21.0191 1.30724 21.4806 1.11089L21.5785 1.24275C21.7245 1.22592 21.9667 0.983274 22.0163 1.19227L22.333 1.26313C22.5276 1.24069 22.6497 1.33398 22.8926 1.2344C22.917 1.23159 22.917 1.23159 22.9413 1.22879C23.4033 1.13974 22.9419 1.37186 23.4767 1.23864C23.6465 1.1117 23.648 1.43362 23.9154 1.367L24.1819 1.12155C24.6436 0.960968 24.7177 1.20293 25.3989 1.16019C25.7148 1.0522 25.8844 0.889496 25.6888 0.69732C25.9817 0.878279 25.8111 0.826372 26.2007 0.888811C26.2734 0.808862 26.2246 0.778703 26.1269 0.718383C26.4671 0.607589 26.3463 0.80045 26.6139 0.769605C26.6877 0.940033 26.7618 1.182 26.8591 1.17078L26.762 1.21777C27.03 1.29422 27.3466 1.32931 27.6626 1.25709L27.6623 1.18555L28.0031 1.21783L28.0028 1.14629L28.4896 1.16175L28.4168 1.20593C28.5386 1.22768 28.9037 1.25715 29.1225 1.19614L29.1222 1.12461C29.7297 0.947202 30.2417 1.13869 30.9475 1.16468L30.8498 1.06859C31.0926 0.969014 30.8992 1.24182 31.1909 1.17241L31.2146 1.02653C31.4588 1.2131 31.5551 0.987272 31.7252 0.931876L31.6288 1.12193L31.9693 1.08267C32.334 1.00485 32.2115 0.840026 32.1624 0.738329L32.4064 0.889129L32.4544 0.740448C32.6257 0.935428 32.649 0.718016 32.9415 0.827439C32.9655 0.753099 32.8924 0.725743 32.9897 0.714527L33.5018 0.941785L33.1849 0.835166L33.2104 1.08274C33.5276 1.26089 33.6484 1.06803 33.892 1.11153L33.7214 1.05962C34.111 1.12206 34.1349 1.01195 34.3536 0.950946C34.2808 0.995126 34.1838 1.07788 34.3299 1.09682C34.4517 1.11857 34.4026 1.01687 34.4997 0.96989C34.5249 1.14593 34.7929 1.22239 35.036 1.15858C35.0358 1.12281 35.0358 1.12281 35.0113 1.08984C35.0844 1.1172 35.1089 1.15016 35.2062 1.13895L35.1568 0.965716L35.3522 1.12212C35.4979 1.06953 35.6934 1.22594 35.6927 1.08287L35.6196 1.05551L36.6903 1.03943L36.7139 0.893558C36.8122 1.09695 37.2977 0.82626 37.2502 1.08224C37.4686 0.949703 38.0539 1.20432 37.9309 0.932194C38.6366 0.922411 39.0029 1.20226 39.8786 1.10132C40.1939 0.886022 41.0462 1.00249 41.5815 0.976565C42.6531 1.13933 43.3593 1.23685 44.455 1.36104C45.135 1.06792 46.1108 1.56381 46.816 1.44673L47.0114 1.60314C47.4973 1.43975 48.2044 1.71611 48.8852 1.60183C49.0315 1.65654 49.129 1.68109 49.1535 1.71406C49.1291 1.71686 49.0805 1.72247 49.0567 1.83258C49.2511 1.77438 49.6168 1.91115 49.6159 1.73231L49.5671 1.70215C49.542 1.52612 50.1274 1.8165 50.3703 1.71692L50.2493 1.87402L50.6143 1.86772L50.5169 1.84317C52.0524 2.34611 52.8047 1.9015 54.2185 2.38269C54.0472 2.18771 54.4869 2.53068 54.5345 2.31047C54.9228 2.08676 55.2165 2.44656 55.5091 2.55598C55.5091 2.55598 55.5093 2.59175 55.5336 2.58895L56.0692 2.63456C55.7758 2.3463 56.4354 2.87864 56.1665 2.62334C57.5536 2.60658 59.332 3.00994 60.9388 3.14678L60.866 3.19097C61.28 3.2506 61.7674 3.40913 62.0835 3.3369C62.3995 3.26468 62.7418 3.61888 62.8393 3.64343C63.1565 3.82158 63.4964 3.63925 63.3503 3.62031C63.7158 3.72132 64.0091 4.00958 64.5199 3.9507C64.7137 3.74942 65.8362 4.40733 65.8837 4.15135L65.8838 4.18712C66.5406 4.11141 67.1022 4.5119 67.8077 4.46635C67.8077 4.46635 67.8075 4.43058 67.7832 4.43338L69.1499 5.27786L68.6425 6.05211L67.3549 6.52264C66.283 6.28834 65.2111 6.05404 64.1149 5.82254L61.486 5.69616C60.4387 5.49483 59.3673 5.36783 58.3202 5.23803C57.273 5.07246 56.2015 4.9097 55.1546 4.81566L54.7154 4.57999C53.4265 4.76438 51.8665 4.22848 50.5042 4.34974L50.4791 4.1737C50.0896 4.14703 50.1144 4.25153 50.0171 4.26275C49.1406 4.18486 48.2397 4.074 47.3632 3.99611C46.4868 3.91821 45.586 3.84312 44.7095 3.76523C44.2714 3.74417 43.8331 3.68734 43.3949 3.66628C42.9568 3.64521 42.5429 3.62135 42.1048 3.60028C41.253 3.59112 40.4255 3.57916 39.6225 3.60016C39.3065 3.67238 38.3814 3.60009 38.1385 3.69967C37.1154 3.49553 36.02 3.44287 34.9737 3.45614L35.0225 3.4863L34.5355 3.43508C34.5112 3.43789 34.5114 3.47365 34.5357 3.47085C33.9996 3.31793 33.0998 3.45745 32.4431 3.53316L32.4919 3.56332C30.5207 3.57584 28.6224 3.54419 26.7242 3.5483C25.7751 3.55035 24.8261 3.58818 23.8772 3.626C22.9283 3.66382 21.9552 3.74022 20.9823 3.85238C20.0583 4.03047 19.0851 4.0711 18.0632 4.11734C17.0413 4.16357 15.9951 4.21261 14.9497 4.44049C14.7554 4.53446 13.6121 4.63049 12.4446 4.76508C11.2283 4.86952 10.0847 4.92977 9.89 4.91644Z" fill="#343434"/>
</svg>
