<svg width="668" height="601" viewBox="0 0 668 601" fill="none" xmlns="http://www.w3.org/2000/svg">
<path fill-rule="evenodd" clip-rule="evenodd" d="M411.009 106.267C411.878 107.708 413.232 105.688 413.784 106.431C414.131 106.898 412.779 109.068 412.522 109.612C414.245 109.812 415.111 107.146 415.764 105.897C416.545 106.226 416.857 106.444 416.674 107.311C416.352 108.843 415.698 107.307 415.056 108.563C415.796 109.077 415.98 108.505 416.425 108.073C416.812 109.535 416.939 108.44 417.737 109.114C418.386 109.662 418.581 110.197 419.036 110.932C419.059 112.248 419.084 113.565 419.108 114.882C419.137 116.466 419.502 116.813 417.896 117.011C417.929 116.665 418.368 114.845 418.132 114.554C417.863 114.222 416.189 114.356 415.665 114.212C414.744 113.96 414.533 113.479 413.835 113.075C413.75 112.442 413.5 112.242 413.084 112.477L413.194 113.984C413.651 114.88 414.383 114.443 415.236 115.109C416.542 116.129 415.792 115.518 415.714 116.853C415.637 118.165 416.19 119.543 415.514 120.493C416.107 120.485 416.699 120.478 417.292 120.469C416.718 122.263 418.834 120.552 419.174 120.248C419.162 121.296 419.15 122.344 419.139 123.392C417.613 123.265 416.424 122.246 415.128 121.548L414.85 125.834C415.437 125.497 416.025 125.161 416.611 124.825C416.6 125.026 416.321 126.495 416.501 126.711C417.234 127.593 419.061 126.073 419.432 127.496C419.478 127.678 418.471 130.421 418.234 130.749C419.366 130.744 419.711 130.374 419.881 131.639L418.211 131.443C418.144 132.281 418.012 133.13 418.109 133.97C418.373 134.429 418.495 134.921 418.474 135.449C418.392 135.95 418.265 136.439 418.095 136.918C418.147 137.708 419.742 141.421 420.323 141.88C420.603 140.679 422.852 141.547 420.264 142.728C419.131 143.245 419.099 142.974 419.121 144.169C419.139 145.11 419.267 145.879 420.267 145.514C420.195 147.279 420.854 148.312 421.486 149.87C421.997 151.133 422.212 152.521 422.51 153.853C422.589 153.417 422.668 152.981 422.747 152.545C423.97 153.587 424.007 154.918 424.359 156.469C423.327 155.911 423.942 157.466 423.32 157.56C422.052 157.751 422.784 157.131 421.992 156.602C421.305 156.143 421.262 155.941 420.354 155.884C419.148 155.808 417.441 156.564 416.261 156.881C414.277 157.414 412.396 158.179 410.494 158.948C403.376 161.829 396.384 164.925 389.58 168.493C383.321 171.776 377.156 175.679 371.417 179.774C365.307 184.133 359.298 188.323 353.81 193.486C352.749 194.484 351.898 195.944 350.787 196.828C349.732 197.667 348.538 198.207 347.494 199.204C344.996 201.593 342.28 203.779 339.737 206.13C336.997 208.665 333.911 211.144 331.513 214.016C330.471 215.264 329.657 216.683 328.619 217.939C327.642 219.121 325.785 220.641 325.765 222.353C325.757 223.02 325.982 223.398 326.403 223.894C327.246 224.89 327.444 224.65 328.284 224.174C329.452 223.51 330.594 221.842 331.606 220.929C334.376 218.431 337.278 216.119 340.196 213.798C345.436 209.631 350.182 204.32 355.55 200.641C358.734 198.459 361.262 195.321 364.457 193.114C365.158 192.631 366.869 190.531 367.667 190.623C367.879 190.647 368.832 191.66 369.105 191.881C370.088 192.675 371.13 193.4 372.241 194.006C375.587 195.836 379.396 196.801 382.977 198.06C387.068 199.498 390.915 201.388 394.878 203.126C394.985 202.757 395.092 202.389 395.199 202.02C395.804 203.984 397.8 204.689 399.506 205.431C401.533 206.313 403.255 207.226 405.093 208.447C406.601 209.449 408.272 210.165 409.836 210.991C411.374 211.803 412.707 213.023 414.212 213.968C417.669 216.139 421.12 218.385 424.575 220.506C426.202 221.505 427.707 222.776 429.222 224.066C430.424 225.09 433.47 226.916 434.046 228.179C434.197 228.857 437.232 231.967 435.002 230.866C434.935 231.324 434.868 231.783 434.801 232.241C435.117 231.898 435.433 231.556 435.749 231.213C435.054 232.832 437.335 231.959 437.658 232.539C437.548 232.82 437.437 233.102 437.327 233.383C437.307 234.234 436.909 234.525 436.134 234.255C435.555 234.563 435.284 234.284 434.722 234.808C435.808 235.511 436.338 234.512 437.284 235.735C438.118 236.814 437.341 237.481 436.721 238.626L436.682 238.698L436.694 238.778C436.77 239.49 436.065 239.494 435.353 239.656C433.649 240.045 431.648 240.214 429.915 240.432C426.17 240.903 422.473 241.546 418.765 242.391C410.303 244.319 402.667 247.894 394.634 250.948C394.448 249.997 394.484 250.072 393.999 249.652C394.622 250.19 392.332 250.161 394.438 251.017C391.083 253.265 386.964 254.605 383.377 256.48C383.374 256.02 383.567 255.401 383.073 255.292C382.483 258.609 376.172 260.181 373.461 261.854C371.87 262.837 370.388 264.005 368.827 265.04L368.17 265.474C367.622 265.838 367.078 266.211 366.572 266.631C365.92 267.171 365.058 268.561 364.265 268.691C364.346 266.136 363.98 268.483 363.828 268.581C363.372 268.877 362.603 269.427 361.9 269.748C361.229 266.153 361.248 262.55 360.285 258.972C359.685 256.741 359.112 252.968 356.396 252.432C354.909 252.138 352.992 252.801 351.57 253.12C350.011 253.468 347.531 254.614 345.926 254.373C344.673 254.184 344.205 253.699 342.72 253.795C341.006 253.906 340.081 253.662 338.811 254.783C339.067 253.756 339.657 252.824 338.129 252.591C337.502 252.497 336.75 253.352 336.266 252.741C335.675 253.758 336.11 254.164 336.263 255.119C336.448 255.468 336.698 255.767 337.014 256.015C336.637 256.413 336.26 256.811 335.882 257.209C335.815 256.282 335.167 257.148 334.817 256.837C334.295 256.372 334.042 255.415 333.754 254.783C332.938 255.52 332.111 256.348 332.148 257.533C330.662 257.368 331.104 257.109 331.225 255.789C330.139 256.004 330.162 256.605 330.384 257.486C329.794 257.562 329.203 257.638 328.613 257.714C329.775 257.174 329.638 256.133 329.213 255.129C328.827 255.483 328.441 255.839 328.055 256.193C328.181 256.716 328.306 257.238 328.432 257.761C327.994 258.693 325.636 258.445 324.89 258.407C322.289 258.273 321.375 258.308 320.539 255.691C319.838 253.497 319.433 251.155 318.6 249.008C317.675 246.623 316.271 244.261 315.011 242.038C312.573 237.735 309.924 233.607 307.648 229.208C306.417 226.826 305.171 224.45 303.963 222.055C303.003 220.151 301.363 218.324 303.697 217.051C302.974 216.247 303.362 214.759 304.039 213.829C304.026 212.956 304.344 212.732 304.996 213.158C305.372 213.111 305.656 212.923 305.847 212.592C307.037 211.685 307.768 209.069 308.65 207.844C309.514 206.643 311.621 204.51 311.943 203.005C312.254 201.549 311.089 202.228 310.881 201.119C310.596 199.603 312.716 201 313.028 201.186C313.25 200.587 314.462 199.098 314.17 198.507C313.755 198.613 313.341 198.719 312.926 198.826C313.234 198.392 313.834 197.244 314.277 196.925C315.032 196.385 314.625 196.316 315.706 196.928C315.774 196.464 315.797 195.029 316.04 194.63C316.156 194.439 317.119 193.908 317.294 193.739C318.204 192.859 317.708 192.063 318.323 191.296C318.621 190.924 319.234 191.007 319.494 190.716C319.909 190.252 319.557 189.475 319.899 188.979C320.195 188.549 321.321 188.28 321.727 187.881C322.398 187.218 322.237 186.959 322.593 186.146C323.092 185.006 323.919 184.761 324.597 183.76C325.301 182.723 324.542 181.455 325.31 180.798C326.335 179.919 327.148 180.902 327.285 179.502C327.316 179.188 326.492 179.115 326.721 178.529C327.003 177.807 327.48 178.297 327.887 178.573L327.997 176.692C329.603 176.811 328.649 176.148 329.408 175.216C329.745 174.803 330.297 175.064 330.656 174.587C330.919 174.236 330.791 173.793 330.925 173.421C331.184 172.706 331.142 171.905 331.784 171.327C331.552 171.536 333.744 170.458 333.502 170.453C333.141 170.234 332.78 170.015 332.418 169.795C333.581 169.265 334.649 168.917 335.615 168.054C335.956 167.749 336.492 167.274 336.707 166.87C337.3 165.756 337.172 166.02 336.587 164.739C338.209 164.967 339.68 163.958 340.495 162.463C340.921 161.683 341.071 160.913 341.581 160.151C341.813 159.854 342.056 159.564 342.308 159.284C342.515 158.696 342.908 158.512 343.486 158.733C343.976 158.328 343.923 158.227 344.232 157.758C344.244 157.455 344.266 157.153 344.299 156.852C344.742 156.591 345.161 156.298 345.559 155.972C347.098 154.699 347.622 153.042 349.724 153.339C349.738 152.818 349.753 152.297 349.766 151.777C350.954 152.546 350.955 151.293 351.675 150.434C351.976 150.074 352.456 149.8 352.727 149.473L353.38 149.343C353.311 148.752 353.242 148.161 353.173 147.57C353.568 147.548 355.223 147.657 355.604 147.437C356.152 147.122 356.393 145.839 356.864 145.403C357.583 144.737 357.448 145.245 358.282 144.872C358.922 144.585 359.265 144.538 359.572 143.749C357.485 144.114 359.734 142.811 360.445 142.288C361.553 141.474 362.309 141.459 362.717 140.101L361.834 140.504C362.343 139.311 362.178 139.726 363.131 139.385C363.431 139.277 365.004 139.395 364.585 138.471C366.091 138.631 366.105 138.626 367.183 137.752C367.661 137.365 367.914 136.7 368.504 136.417C369.08 136.142 369.616 136.215 370.109 135.923C370.404 135.748 371.303 134.845 371.608 134.544C372.093 134.066 372.269 133.438 372.746 133.009C373.269 132.535 374.153 132.411 374.732 131.976C376.452 130.681 377.051 129.022 379.406 128.698C378.779 126.74 381.278 126.099 382.608 125.723C383.535 125.462 384.136 125.612 384.838 124.779C385.41 124.1 385.575 123.362 386.261 122.715C386.788 122.219 387.556 121.682 388.145 121.25C388.489 120.94 388.882 120.711 389.322 120.566C389.771 120.433 390.208 120.456 390.634 120.633L390.714 120.67C390.709 120.487 391.357 119.313 391.285 119.454C391.749 118.533 392.194 118.601 392.122 117.253L390.403 117.637C391.186 117.214 391.75 116.844 392.611 116.831C393.206 116.822 394.566 117.594 395.063 117.368C395.963 116.959 395.698 115.546 395.307 114.926C396.865 116.342 397.642 116.342 398.925 114.669C399.076 114.472 399.227 114.276 399.378 114.079C399.588 113.472 399.992 113.297 400.591 113.555L401.478 113.618C401.546 113.013 401.614 112.409 401.682 111.804C402.667 112.362 403.26 112.141 404.157 111.497C404.775 111.052 405.607 109.181 406.108 108.953C406.399 108.82 407.094 109.361 407.642 109.278C408.549 109.143 409.531 107.995 409.465 107.096C409.764 107.347 410.062 107.599 410.36 107.852C410.577 107.324 410.796 106.796 411.009 106.267ZM436.654 238.704L436.665 238.731L436.682 238.698L436.683 238.696L436.654 238.704ZM434.906 237.478L435.588 238.973L436.135 238.835L436.654 238.704L436.622 238.619C436.315 237.891 435.704 237.526 434.906 237.478ZM387.555 251.893C387.618 252.449 387.682 253.005 387.746 253.561C388.296 253.363 388.847 253.164 389.397 252.965C388.783 252.608 388.169 252.25 387.555 251.893ZM307.781 242.003C309.096 241.813 309.061 241.779 309.784 242.748C313.901 248.265 313.005 257.156 318.669 261.602C309.839 265.544 301.104 269.741 292.829 274.764C291.309 271.431 289.901 268.055 288.131 264.841C287.328 263.383 286.471 261.955 285.63 260.519C284.563 258.695 284.676 258.779 286.087 257.737C286.828 257.19 286.884 256.535 287.523 255.86C288.003 255.353 288.4 255.526 289.018 255.343C290.122 255.017 290.055 254.836 290.913 254.199C292.755 252.832 294.559 252.197 295.475 249.935C296.278 249.481 296.361 250.38 296.909 250.039C297.307 249.79 297.216 248.874 297.561 248.488C298.637 247.285 300.94 246.408 302.327 245.553C303.743 244.68 304.763 243.394 306.11 242.537C306.664 242.184 307.145 242.095 307.781 242.003ZM332.811 251.928C333.009 253.115 331.136 252.306 331.495 253.145L331.53 253.22L331.525 253.2C331.525 253.028 333.547 254.124 333.448 254.103C334.358 254.305 334.73 254.077 335.229 253.141C333.833 253.715 333.597 252.797 332.811 251.928ZM337.318 251.678C337.945 251.726 337.776 250.949 337.839 250.4C337.152 250.375 337.366 251.064 337.318 251.678ZM333.667 247.781C334.175 248.379 334.402 248.913 334.726 249.623C335.809 248.93 336.135 248.679 335.593 247.434L335.152 248.107C334.532 247.61 334.438 247.592 333.667 247.781ZM325.224 253.023C325.409 252.734 325.594 252.444 325.779 252.155C325.137 251.773 324.752 252.751 325.224 253.023ZM323.469 241.414C323.723 241.086 323.978 240.757 324.233 240.428C322.857 239.713 322.963 240.115 323.469 241.414ZM318.238 233.155L316.92 233.756C317.565 234.487 318.708 234.187 318.238 233.155ZM424.788 124.88C425.169 124.919 425.551 124.958 425.932 124.996C425.476 126.067 424.843 127.226 425.986 127.716C426.894 128.104 429.863 127.133 430.819 126.989C430.68 127.461 430.497 128.662 430.203 129.077C429.97 129.406 429.348 128.809 429.04 129.827C430.352 129.895 429.877 129.607 430.135 130.902C430.287 131.666 430.044 132.672 429.998 133.441C429.887 135.31 429.754 137.179 429.594 139.045C429.266 142.872 428.824 146.69 428.263 150.49C427.187 148.979 427.256 146.705 427.002 144.889C426.681 142.605 426.363 140.321 426.047 138.036C425.441 133.633 424.734 129.324 424.788 124.88ZM381.018 150.955C380.26 151.566 379.763 151.965 378.979 152.596C380.456 152.42 380.456 152.42 381.018 150.955ZM415.606 126.155C414.745 127.168 414.799 127.594 415.971 127.818C415.853 127.282 415.767 126.888 415.606 126.155ZM409.93 114.066C410.079 114.786 408.873 114.578 408.886 115.148C408.917 116.451 410.333 115.626 410.838 115.317C410.535 114.899 410.232 114.483 409.93 114.066ZM415.754 110.41C416.097 111.937 416.097 111.937 417.549 111.528C416.948 111.154 416.444 110.84 415.754 110.41ZM390.714 120.67L390.718 120.686C390.723 120.694 390.733 120.694 390.749 120.686L390.714 120.67Z" fill="#E84141"/>
<path fill-rule="evenodd" clip-rule="evenodd" d="M285.814 344.91C286.092 346.065 285.806 346.8 286.789 347.529C287.625 348.148 289.184 348.092 289.968 347.48L285.814 344.91ZM244.738 318.04L241.076 321.514C242.796 322.14 244.487 322.851 246.268 323.29L244.738 318.04ZM318.118 289.182C315.569 289.081 313.195 290.021 310.864 290.923C312.061 292.634 313.259 294.345 314.457 296.056C315.677 293.765 316.898 291.473 318.118 289.182ZM334.365 456.513C333.617 455.968 328.212 451.585 327.759 452.144C327.518 452.44 328.934 455.607 329.093 456.076C329.66 457.747 330.226 459.417 330.793 461.087C332.191 459.736 333.749 458.434 334.365 456.513ZM293.762 419.673C294.759 420.731 295.758 421.789 296.756 422.847C297.23 423.351 297.75 424.175 298.348 424.537C299.126 425.006 298.957 425.567 299.239 424.537C299.542 423.43 298.766 421.201 298.608 420.086C298.368 418.393 298.128 416.701 297.888 415.008C295.804 415.938 295.327 418.226 293.762 419.673ZM216.467 365.805C214.711 368.719 212.918 371.634 211.688 374.822C213.587 373.808 216.923 373.914 218.475 372.441C219.408 372.236 219.541 371.784 218.876 371.086L218.09 369.363L216.467 365.805ZM259.974 360.908L264.633 371.121C266.088 367.997 267.735 364.961 269.052 361.774C266.026 361.485 263 361.196 259.974 360.908ZM357.276 348.491C358.598 353.381 360.691 358.079 362.584 362.775C362.92 363.608 363.167 364.981 364.036 365.448C364.908 365.917 366.641 365.606 367.604 365.63C370.315 365.696 373.026 365.799 375.737 365.881C369.583 360.084 363.429 354.288 357.276 348.491ZM400.862 294.825C405.106 289.63 409.351 284.435 413.595 279.24C407.188 279.411 400.781 279.582 394.374 279.753C396.537 284.777 398.699 289.802 400.862 294.825ZM350.301 333.234C351.335 332.849 349.75 328.957 349.455 327.871C348.896 325.81 348.344 323.746 347.802 321.68C346.719 317.549 345.672 313.409 344.665 309.259C342.651 300.96 340.801 292.622 339.146 284.245C337.06 284.776 335.176 285.333 333.038 285.629C331.311 285.868 329.614 286.941 327.826 286.616C329.266 290.238 331.866 293.601 333.809 296.994C336.057 300.92 338.12 304.904 339.964 309.036C343.538 317.044 346.876 325.162 350.301 333.234ZM273.596 498.812C274.429 498.125 267.19 485.678 266.275 483.824C263.627 478.457 261.11 473.024 258.723 467.536C255.077 473.08 251.197 478.426 247.014 483.558C249.225 484.729 251.413 486.081 253.715 487.06C256.086 488.068 258.548 488.657 260.864 489.851C265.527 492.255 269.492 495.59 273.596 498.812ZM361.425 365.576C359.874 361.546 358.309 357.533 356.921 353.443C356.33 351.703 353.901 342.13 351.427 343.51C350.02 344.294 348.435 347.606 347.438 348.969C346.121 350.768 344.8 352.565 343.467 354.353C340.837 357.881 338.165 361.377 335.512 364.888C344.15 365.118 352.788 365.347 361.425 365.576ZM308.98 290.998C305.954 292.114 303.027 293.186 299.892 293.956C298.202 294.372 296.664 295.122 295.009 295.637C293.824 296.006 291.213 296.083 290.306 296.861C289.168 297.839 291.697 304.644 292.271 306.38C293.195 309.176 294.473 312.497 296.802 314.457C301.29 318.237 305.736 311.66 307.812 308.269C309.591 305.362 311.702 302.277 313.021 299.131C314.189 296.344 310.56 293.189 308.98 290.998ZM348.078 336.525C349.875 334.626 349.328 333.52 348.369 331.165C347.205 328.303 345.99 325.46 344.788 322.614C342.647 317.542 340.497 312.472 338.166 307.482C335.891 302.608 333.423 297.832 330.645 293.223C329.664 291.593 328.52 288.567 326.947 287.512C325.511 286.551 322.944 287.705 321.584 288.425C320.051 289.237 319.459 291.319 318.728 292.797C317.92 294.436 315.948 297.122 316.452 298.785C317.013 300.642 319.111 302.701 320.257 304.228C324.44 309.801 328.891 315.178 333.412 320.478C338.103 325.976 342.847 331.528 348.078 336.525ZM285.314 347.249C284.822 345.793 284.808 344.395 283.505 343.389C282.385 342.523 280.886 341.823 279.66 341.079C276.149 338.947 272.444 337.062 268.809 335.154C265.48 333.406 262.112 331.71 258.72 330.09C256.83 329.188 254.918 328.335 253.01 327.473C251.613 326.842 250.069 325.764 248.52 325.807C250.313 332.271 252.284 338.685 254.437 345.039C255.478 348.11 256.562 351.166 257.688 354.207C258.006 355.066 258.643 358.164 259.407 358.75C260.209 359.365 263.347 359.247 264.382 359.376C267.278 359.738 269.992 361.034 271.097 357.764C271.858 355.513 272.036 352.747 273.063 350.617C273.598 349.507 274.425 349.171 275.198 348.304C276.096 347.298 275.915 346.805 277.565 346.865C280.344 346.965 282.482 348.012 285.314 347.249ZM186.171 429.943C188.075 434.116 189.355 437.677 193.719 439.768C197.531 441.595 200.406 441.109 204.406 440.691C206.761 440.445 206.616 439.748 207.742 437.835C208.814 436.017 210.124 434.353 211.158 432.511C213.386 428.54 215.576 424.493 217.652 420.439C218.35 419.075 218.324 419.444 217.684 418.482C217.101 417.605 215.875 416.71 215.094 415.98C213.683 414.658 212.175 413.443 210.669 412.231C208.96 410.856 207.295 409.275 205.424 408.12C204.648 407.641 203.815 407.267 202.989 406.883C201.25 406.076 201.312 406.107 200.45 407.809C198.628 411.402 197.092 415.093 194.684 418.351C191.835 422.207 189.002 426.073 186.171 429.943ZM257.793 358.218C255.474 352.039 253.223 345.868 251.219 339.577C250.19 336.347 249.225 333.098 248.248 329.852C247.85 328.531 247.552 326.144 246.636 325.101C245.735 324.075 243.636 323.665 242.375 323.2C242.036 323.075 240.876 322.432 240.547 322.529C240.196 322.633 239.369 324.113 239.104 324.482C238.169 325.789 237.273 327.124 236.411 328.48C234.785 331.037 233.282 333.672 231.854 336.344C228.86 341.948 226.2 347.722 223.359 353.404C229.13 355.144 235.484 355.641 241.428 356.471C244.943 356.962 248.463 357.427 251.99 357.814C253.778 358.01 255.993 358.546 257.793 358.218ZM250.34 491.043C248.019 494.765 245.903 498.542 242.786 501.674C239.683 504.791 236.228 507.022 232.739 509.626C230.979 510.939 229.354 512.238 227.497 513.443C226.455 514.117 224.698 514.842 223.895 515.779C222.9 515.999 222.719 516.456 223.351 517.151C223.476 517.399 223.601 517.647 223.726 517.896C225.587 521.295 229.773 524.498 233.044 526.46C234.954 527.606 237.126 528.492 239.219 529.232C241.584 530.067 243.04 530.753 245.025 529.045C248.372 526.167 250.748 522.361 254.204 519.585C256.938 517.388 258.755 514.57 261.382 512.342C264.622 509.594 267.756 506.717 271.125 504.119C267.955 501.629 264.901 498.923 261.383 496.922C257.774 494.868 253.993 493.037 250.34 491.043ZM220.726 372.088C228.318 370.301 236.446 368.146 244.315 368.905C247.387 369.202 251.458 369.968 253.495 372.55C255.931 375.635 253.567 379.312 251.268 381.671C248.507 384.503 245.083 386.668 241.715 388.7C239.933 389.776 238.096 390.757 236.255 391.726C234.765 392.512 232.017 393.359 230.895 394.604C229.939 394.829 229.798 395.323 230.472 396.088C230.6 396.414 230.73 396.74 230.859 397.066L232.02 399.996C232.794 401.947 233.567 403.898 234.34 405.849C236.025 410.099 237.71 414.35 239.395 418.6C242.007 414.674 243.466 410.093 245.926 406.054C247.096 404.134 248.253 402.216 249.417 400.303C249.906 399.501 250.031 398.631 250.524 397.867C251.176 396.853 251.832 396.123 252.344 394.952C254.434 390.169 257.116 385.635 259.54 381.014C260.64 378.914 261.951 376.848 262.925 374.69C263.945 372.43 263.152 371.313 262.136 369.197C261.061 366.955 260.608 363.77 259.229 361.764C259.214 360.877 258.756 360.53 257.856 360.722C257.15 360.621 256.445 360.52 255.739 360.419C254.331 360.218 252.924 360.016 251.516 359.815C245.918 359.015 240.319 358.214 234.72 357.414C231.923 357.014 229.126 356.614 226.329 356.214C225.548 356.103 222.778 355.252 222.124 355.613C221.456 355.981 220.873 357.882 220.551 358.549C220.057 359.572 219.602 360.619 219.006 361.59C218.713 362.082 218.387 362.552 218.028 362.998C217.316 363.41 217.245 363.938 217.812 364.582C218.117 366.982 219.847 369.821 220.726 372.088ZM362.428 427.18C357.484 420.515 351.464 412.7 343.028 410.482C334.471 408.232 326.257 414.357 324.11 422.562C323.035 426.672 323.137 430.905 323.686 435.088C324.25 439.382 324.788 445.066 326.917 448.908C327.85 450.592 330.2 451.788 331.748 452.922C333.346 454.095 334.96 456.084 336.787 454.593C339.619 452.279 342.006 448.846 344.383 446.083C346.787 443.288 349.466 440.669 352.005 437.871C353.69 436.014 355.554 434.335 357.228 432.467C358.816 430.697 361.337 429.294 362.428 427.18ZM435.47 340.734C440.584 340.306 441.717 336.74 443.513 332.488C445.215 328.46 447.208 324.424 448.571 320.268C449.977 315.982 450.55 311.414 451.1 306.954C451.656 302.446 452.844 297.31 452.387 292.781C452.154 290.477 451.435 288.135 450.921 285.878C450.798 285.335 450.644 283.173 450.235 282.855C449.671 282.419 447.725 283.233 447.16 283.39C442.663 284.639 438.204 286.633 434.269 289.146C426.655 294.008 421.936 301.687 423.012 310.86C424.275 321.612 430.478 331.373 435.47 340.734ZM369.872 272.401C370.545 274.056 374.633 272.736 375.812 272.655C378.537 272.469 381.27 272.337 384 272.342C389.623 272.351 395.215 271.476 400.843 272.021C412.975 273.195 425.182 272.355 437.303 273.242C439.192 273.381 443.054 274.028 444.703 273.072C445.579 272.564 445.233 273.616 445.162 271.883C445.136 271.259 444.895 270.542 444.758 269.924C444.347 268.072 443.847 266.241 443.485 264.377C442.888 261.31 442.397 258.437 441.38 255.468C440.95 254.21 440.532 252.948 439.993 251.731C439.448 250.498 438.327 247.294 437.29 246.484C436.602 245.947 436.639 246.222 435.632 246.441C435.056 246.567 434.397 246.581 433.819 246.654C432.462 246.825 431.111 247.012 429.815 247.471C428.536 247.924 427.579 247.907 426.326 248.216C425.011 248.54 423.893 249.384 422.514 249.628C421.025 249.891 420.246 249.866 418.915 250.633C417.624 251.375 417.1 251.253 415.611 251.487C414.368 251.683 413.152 252.497 411.961 252.928C410.518 253.448 409.052 253.907 407.61 254.431C401.126 256.79 395.13 260.414 388.832 263.217C385.406 264.741 382.299 266.768 378.822 268.166C375.784 269.388 372.722 270.824 369.872 272.401ZM401.231 298.031C398.717 300.582 396.755 303.757 394.674 306.67C392.275 310.029 390.069 313.441 388.082 317.063C384.743 323.152 380.901 330.38 382.577 337.583C384.297 344.976 392.692 347.847 399.453 348.108C407.165 348.405 415.205 346.71 422.624 344.783C414.781 329.536 407.834 313.849 401.231 298.031ZM326.9 376.259C325.287 377.613 324.223 379.421 322.88 381.014C321.677 382.439 320.441 383.664 319.434 385.253C317.794 387.841 315.681 390.381 313.776 392.673C309.063 398.343 304.848 404.638 300.339 410.596C299.144 412.175 298.872 412.953 299.138 414.96C299.428 417.139 299.758 419.317 300.072 421.494C300.365 423.524 300.403 425.82 301.486 427.611C302.428 429.168 303.985 430.332 305.309 431.541C308.643 434.581 312.085 437.5 315.571 440.362C318.7 442.933 321.78 445.769 325.247 447.862C323.009 438.678 320.141 428.552 323.468 419.258C326.793 409.97 336.737 405.324 345.798 409.212C350.102 411.059 353.658 414.236 356.849 417.602C358.526 419.37 359.984 421.286 361.435 423.241C362.986 425.328 363.424 426.611 365.651 424.748C367.419 423.269 369.36 421.847 371.053 420.307C371.931 419.509 372.766 418.681 372.441 417.846C372.031 416.79 369.689 415.315 368.839 414.534C364.455 410.501 360.069 406.468 355.684 402.436C350.922 398.057 346.16 393.678 341.397 389.3C339.021 387.116 336.644 384.932 334.268 382.748C332.101 380.757 329.563 377.491 326.9 376.259ZM398.9 292.468C397.809 289.987 396.725 287.503 395.632 285.023C394.981 283.544 394.338 280.405 392.583 279.938C391.494 279.648 388.918 280.221 387.714 280.232C385.338 280.255 383.02 280.839 380.635 280.874C371.292 281.007 361.893 281.856 352.623 282.758C350.624 282.952 348.636 283.272 346.629 283.48C345.546 283.593 341.222 283.326 340.574 284.207C340.007 284.979 341.74 290.297 341.975 291.458C342.532 294.206 343.117 296.95 343.726 299.687C346.09 310.317 348.817 320.863 351.671 331.37C355.194 327.803 357.998 323.128 361.034 319.118C364.188 314.952 367.33 310.797 370.536 306.67C371.441 305.505 374.318 300.735 375.809 301.412C378.202 302.498 375.425 306.319 374.795 307.539C372.358 312.259 369.532 316.693 366.658 321.152C363.679 325.773 360.386 330.157 357.364 334.738C356.273 336.392 354.366 338.669 354.502 340.559C354.679 342.99 356.389 345.263 357.998 346.928C361.951 351.021 366.042 354.979 370.22 358.841C372.12 360.597 374.039 362.333 375.971 364.052C378.272 366.1 380.005 365.965 383.009 366.02C395.806 366.255 408.893 366.049 421.636 367.264C420.837 369.985 415.261 368.659 413.224 368.608C409.453 368.514 405.681 368.426 401.91 368.326C394.884 368.139 387.863 367.884 380.836 367.781C388.389 374.532 396.469 380.671 404.888 386.296C403.854 387.27 404.162 387.155 403.058 386.768C402.128 386.442 401.139 385.424 400.345 384.844C398.705 383.646 397.074 382.437 395.428 381.246C392.014 378.775 388.554 376.385 385.263 373.748C382.788 371.765 379.727 367.721 376.462 367.642C372.395 367.541 368.302 367.504 364.224 367.381C370.079 380.214 376.723 392.343 383.892 404.481C384.254 405.093 385.735 406.71 384.41 407.09C383.812 407.261 382.018 403.828 381.585 403.139C379.597 399.975 377.674 396.773 375.817 393.532C372.113 387.063 368.681 380.438 365.544 373.676C367.753 380.634 369.961 387.592 372.17 394.55L375.31 404.44C375.86 406.172 376.41 407.904 376.959 409.635C377.212 410.431 377.72 411.39 377.783 412.23C377.884 413.551 377.984 413.401 376.916 414.511C374.245 405.357 371.473 396.231 368.561 387.151C367.14 382.72 365.686 378.3 364.194 373.893C363.793 372.708 363.389 371.523 362.983 370.339C362.775 369.736 362.425 367.652 361.93 367.298C361.44 366.947 359.403 367.278 358.771 367.273C357.387 367.263 356.004 367.253 354.62 367.239C350.127 367.194 345.63 367.133 341.139 366.985C339.174 366.919 336.933 366.456 334.998 366.826C333.071 367.195 332.361 368.98 331.229 370.425C330.348 371.55 327.993 373.588 327.686 374.956C327.4 376.229 331.356 378.999 332.578 380.128C336.025 383.313 339.473 386.499 342.921 389.684C349.911 396.142 356.902 402.6 363.893 409.058C365.602 410.637 367.311 412.215 369.02 413.794C370.115 414.806 372.616 417.971 373.952 417.53C374.544 417.335 375.188 416.299 375.652 415.875C376.344 415.241 377.096 414.903 377.847 414.393C379.225 413.458 380.423 411.978 381.642 410.768C384.776 407.656 388.272 404.975 391.478 401.941C394.699 398.894 397.784 395.713 400.989 392.672C403.901 389.91 406.768 386.969 409.38 383.911C412.138 380.68 415.074 377.602 417.662 374.236C422.375 368.104 427.12 362.22 430.769 355.672C431.627 354.133 432.567 352.551 433.381 350.95C434.093 349.546 435.727 347.468 435.954 345.946C436.041 345.366 435.89 344.374 435.308 343.998C434.683 343.593 433.093 344.381 432.293 344.623C429.77 345.388 427.247 346.152 424.724 346.916C425.621 348.4 426.52 349.882 427.37 351.394C427.969 352.462 429.962 355.097 429.476 356.369C427.735 355.767 426.548 352.131 425.736 350.641C425.303 349.844 424.777 348.137 424.076 347.575C423.308 346.959 422.199 347.477 421.089 347.719C416.386 348.744 411.789 349.9 406.976 350.319C398.845 351.027 388.568 350.648 383.314 343.271C377.837 335.58 381.663 325.006 385.545 317.552C387.87 313.089 390.598 308.899 393.536 304.824C394.91 302.92 396.283 301.015 397.679 299.128C398.187 298.442 400.064 296.649 400.122 295.827C400.181 294.986 399.172 293.271 398.9 292.468ZM308.282 490.288C308.019 490.609 307.755 490.93 307.491 491.251C306.347 478.742 305.19 466.298 303.334 453.868C302.439 447.869 301.566 441.866 300.729 435.858C300.369 433.267 300.607 429.363 299.064 427.211C297.395 424.882 294.949 422.711 292.907 420.704C288.654 427.187 284.189 433.534 279.759 439.891C275.788 445.592 271.563 450.978 267.538 456.662C265.476 459.574 263.083 461.997 260.762 464.666C258.876 466.836 261.311 469.727 262.355 471.924C266.039 479.681 269.61 487.524 273.642 495.109C275.11 497.872 276.376 501.236 279.261 502.778C282.949 504.749 286.496 506.856 290.054 509.079C291.387 509.912 297.646 514.857 298.817 514.152C299.582 513.692 299.131 510.739 299.252 509.935C299.512 508.201 300.259 506.471 300.926 504.868C303.804 497.939 307.856 492.135 312.071 486.108C316.353 479.986 320.881 474.039 325.355 468.045C326.366 466.69 327.574 465.495 328.569 464.128C328.962 463.588 329.795 462.635 329.885 461.95C330.019 460.924 328.841 458.79 328.509 457.788C327.832 455.741 327.29 453.542 326.415 451.568C325.549 449.619 323.625 448.483 322.01 447.176C314.918 441.437 307.923 435.633 301.21 429.449C302.724 439.495 304.092 449.556 305.66 459.593C306.479 464.834 306.996 470.12 307.556 475.392C307.843 478.085 308.124 480.778 308.412 483.471C308.636 485.568 309.537 488.377 308.282 490.288ZM285.065 298.547C283.112 299.464 281.201 299.986 279.093 300.451C278.32 300.622 277.672 300.841 276.93 301.104C276.087 301.402 275.151 301.298 274.403 301.535C273.837 301.715 273.003 302.368 272.569 302.774C271.563 303.714 271.509 303.496 272.09 304.9C272.987 307.07 273.903 309.232 274.759 311.419C278.129 320.025 281.032 328.745 283.606 337.616C284.126 339.41 284.441 341.929 285.582 343.425C286.611 344.774 288.641 345.789 290.074 346.661C293.02 348.452 297.756 347.842 301.011 347.246C304.444 346.618 307.771 345.445 311.012 344.803C311.91 344.626 312.686 343.863 313.638 343.661C314.518 343.475 315.339 343.631 316.223 343.612C318.387 343.565 320.473 342.787 322.615 342.536C326.863 342.038 330.796 340.157 335.026 339.61C336.107 339.47 337.262 339.833 338.289 339.67C339.228 339.52 339.963 338.857 340.894 338.588C342.868 338.017 344.881 337.864 346.215 339.659C346.936 338.246 347.201 338.41 346.373 337.112C345.842 336.279 344.853 335.421 344.191 334.687C342.504 332.815 340.813 330.946 339.126 329.073C335.788 325.368 332.457 321.655 329.212 317.869C326.308 314.482 323.492 311.019 320.793 307.467C319.42 305.661 318.117 303.812 316.804 301.966C316.423 301.43 316.11 300.446 315.342 300.323C314.647 300.213 313.98 302.053 313.603 302.72C310.968 307.379 305.79 319.963 298.587 317.219C294.708 315.741 292.707 310.945 291.411 307.341C290.614 305.126 290.027 302.849 289.488 300.56C289.353 299.989 289.225 298.015 288.821 297.749C288.385 297.463 285.646 298.424 285.065 298.547ZM444.821 282.088C445.924 281.727 447.027 281.367 448.129 281.007C447.646 280.201 447.149 278.884 446.468 278.24C445.525 277.349 444.383 277.722 442.982 277.814C440.765 277.96 438.554 278.216 436.333 278.298C431.514 278.475 426.702 278.62 421.88 278.799C419.767 278.877 417.129 278.63 415.471 280.11C413.683 281.707 412.228 283.961 410.72 285.813C409.014 287.911 407.309 290.011 405.605 292.111C404.806 293.095 404.007 294.08 403.208 295.065C401.952 296.611 401.773 296.792 402.485 298.691C406.129 308.407 410.641 318.17 415.228 327.471C417.569 332.218 419.614 337.131 422.15 341.779C422.345 342.136 423.269 344.234 423.63 344.413C424.137 344.665 426.487 343.757 427.08 343.608C429.389 343.026 431.595 342.176 433.837 341.387C428.332 330.663 420.56 318.563 421.602 305.982C422.647 293.343 433.704 285.664 444.821 282.088ZM297.642 219.026C297.616 217.294 298.148 215.579 298.501 213.889C298.692 212.975 299.189 211.759 299.146 210.812C299.084 209.463 299.193 209.708 298.053 209.022C296.975 208.375 296.955 208.298 295.877 208.586C294.969 208.828 294.182 209.479 293.25 209.717C292.308 209.958 289.58 210.314 289.495 208.676C289.499 208.747 290.571 207.432 290.625 207.264C290.799 206.725 290.54 205.866 290.502 205.328C290.384 203.605 290.144 202.564 288.813 201.278C286.825 199.359 282.87 200.327 280.964 202.148C280.011 203.057 279.745 204.185 279.714 205.464C279.694 206.277 280.057 207.273 279.903 208.042C279.67 209.202 279.587 209.123 278.21 209.565C276.456 210.128 274.799 210.11 273.018 210.383C271.078 210.679 270.413 212.18 269.277 213.663C267.225 216.342 264.837 218.037 261.906 219.651C258.642 221.448 255.137 222.06 251.694 223.376C254.391 226.989 258.122 229.219 261.572 232.03C262.179 232.525 262.986 232.945 263.335 233.678C263.665 234.368 263.092 235.773 263.468 236.297C264.27 237.415 267.415 237.168 268.594 237.047C271.93 236.706 276.092 237.117 278.922 234.898C280.474 233.682 280.153 230.494 281.702 229.543C283.778 228.265 283.428 231.858 283.464 233.022C286.806 232.072 290.582 229.862 293.088 227.436C294.345 226.22 295.252 224.847 296.261 223.436C297.518 221.678 297.749 221.248 297.642 219.026ZM270.183 303.629C264.655 306.263 258.636 308.038 253.391 311.323C252.175 312.084 251.024 312.941 249.887 313.814C249.07 314.441 246.25 315.942 245.951 316.901C245.679 317.775 246.979 320.635 247.232 321.493C247.796 323.403 248.147 323.992 249.921 324.858C255.758 327.709 261.69 330.353 267.496 333.28C273.073 336.092 278.25 339.714 283.837 342.445C283.202 335.971 280.252 329.2 278.101 323.09C276.954 319.831 275.78 316.582 274.591 313.339C273.458 310.251 272.469 306.024 270.183 303.629ZM225.002 395.523C225.646 395.229 226.766 394.963 227.3 394.475C228.286 394.357 228.426 393.902 227.721 393.11C227.588 392.781 227.454 392.452 227.321 392.123C226.462 390.002 225.612 387.878 224.76 385.755C223.981 383.814 223.199 381.873 222.406 379.937C221.866 378.616 221.052 375.099 219.994 374.166C219.283 373.538 218.531 374.097 217.465 374.444C216.452 374.774 215.439 375.114 214.412 375.402C213.109 375.767 211.561 375.945 210.448 376.783C209.329 377.625 208.95 379.189 208.308 380.366C207.292 382.228 206.222 384.063 205.185 385.913C203.299 389.277 201.459 392.665 199.612 396.05C198.849 397.447 198.488 397.247 199.623 398.238C200.325 398.849 201.518 399.359 202.32 399.835C203.917 400.783 205.836 402.448 207.586 403.01C210.133 403.828 214.65 400.51 217.035 399.408C219.754 398.152 222.4 396.995 225.002 395.523ZM231.994 392.169C234.252 390.859 236.685 389.87 238.889 388.48C241.284 386.969 243.585 385.299 245.958 383.752C248.324 382.21 255.348 377.136 252.851 373.683C250.212 370.032 243.196 370.325 239.306 370.468C233.23 370.692 227.376 371.998 221.452 373.259C222.421 377.168 224.282 380.991 225.824 384.697C226.661 386.71 227.508 388.721 228.414 390.705C228.632 391.182 228.92 392.248 229.317 392.603C230.251 393.439 230.603 392.804 231.994 392.169ZM225.01 397.441L209.926 404.322C214.271 407.935 218.533 411.691 223.013 415.137C227.474 418.57 232.506 421.427 237.208 424.531C237.554 423.466 238.281 422.15 238.341 421.042C238.408 419.816 237.73 418.368 237.292 417.184C236.157 414.112 234.89 411.068 233.606 408.056C232.481 405.418 231.414 402.774 230.427 400.081C230.21 399.49 229.486 396.239 228.904 395.916C228.386 395.629 225.671 397.144 225.01 397.441ZM245.647 278.164C248.192 277.003 250.725 275.808 253.288 274.69C255.615 273.676 258.44 271.901 261.098 272.128C266.515 272.589 260.745 282.752 259.714 285.118C263.006 284.856 266.485 280.808 268.824 278.614C271.717 275.901 274.85 273.536 277.925 271.042C278.693 270.419 282.232 268.271 282.399 267.386C282.565 266.509 279.689 262.984 279.198 262.188C278.737 261.438 278.256 260.163 277.585 259.566C277.378 258.577 276.92 258.406 276.212 259.054C275.925 259.184 275.638 259.314 275.35 259.444C273.236 260.428 271.158 261.496 269.069 262.534C261.892 266.102 254.93 269.67 248.224 274.106C245.107 276.169 242.015 278.366 238.97 280.541C236.407 282.372 237.09 282.616 239.72 281.424C241.778 280.492 243.675 279.257 245.647 278.164ZM430.203 129.078C430.408 128.382 430.614 127.685 430.819 126.989C429.627 127.168 428.434 127.347 427.241 127.527C425.972 127.718 425.402 128.067 425.328 126.583C425.235 124.724 428.007 123.241 429.352 122.556C433.981 120.197 439.63 119.44 444.722 118.72C447.207 118.368 449.38 118.588 451.841 119.075C452.915 119.288 454.098 119.409 455.125 119.785C456.191 120.176 456.922 120.967 457.973 121.367C459.697 122.023 461.477 121.93 462.842 123.389C464.408 125.065 464.649 127.691 464.454 129.864C464.256 132.07 463.38 134.069 462.904 136.208C462.525 137.905 462.106 142.263 465.037 140.443C466.587 139.48 467.439 135.692 468.112 134.03C469.077 131.648 469.997 129.241 471.113 126.923C472.102 124.867 473.319 122.668 475.345 121.461C477.481 120.19 479.261 121.12 481.157 122.373C482.945 123.556 483.847 125.095 485.346 126.457C486.07 127.113 486.723 127.364 487.335 128.16C488.277 129.384 488.991 130.862 489.789 132.184C491.043 134.259 492.068 135.873 492.624 138.214C493.144 140.404 494.009 142.588 494.608 144.785C495.286 147.273 496.032 149.742 496.715 152.229C497.295 154.335 497.368 157.678 499.379 158.965C504.212 162.058 504.664 154.053 504.459 151.233C504.098 146.278 502.785 141.28 502.2 136.322C501.888 133.671 501.472 131.04 500.805 128.451C500.255 126.31 498.98 123.977 499.258 121.719C499.475 119.965 500.497 118.241 502.331 117.91C504.626 117.496 506.774 120.114 508.205 121.649C511.98 125.696 513.354 130.265 514.926 135.432C515.654 137.824 516.397 140.213 516.892 142.666C517.226 144.322 517.163 148.008 519.681 147.842C523.252 147.608 522.485 137.384 522.451 135.012C522.36 128.799 520.888 123.268 519.294 117.295C518.927 115.921 518.498 114.544 518.247 113.144C518.03 111.925 518.363 110.441 517.94 109.316C517.517 108.189 516.448 107.756 516.699 106.347C516.907 105.174 517.993 104.613 518.994 104.148C521.344 103.053 524.074 103.062 526.611 102.814C528.973 102.583 532.695 102.743 534.67 101.244C524.556 97.3656 514.497 93.5594 503.761 91.8435C498.776 91.0463 493.833 90.3495 488.753 90.1627C483.607 89.9734 478.16 90.7446 473.095 91.5204C470.34 91.9419 467.557 92.2653 464.786 92.5713C462.32 92.8436 460.1 93.6947 457.635 93.8519C452.279 94.194 446.874 95.8456 441.588 96.7675C439.254 97.175 436.932 97.6702 434.612 98.1198C432.172 98.5923 428.666 99.0802 426.468 100.191C424.59 101.14 424.947 103.63 424.724 105.577C424.4 108.404 424.313 111.227 424.342 114.072C424.402 119.9 424.415 125.942 425.186 131.707C425.61 134.873 426.045 138.036 426.486 141.199C426.867 143.938 426.657 148.234 428.263 150.49C429.308 143.412 430.014 136.234 430.203 129.078ZM288.011 253.554C286.173 254.496 284.334 255.437 282.497 256.379C287.18 261.69 289.914 268.374 292.829 274.764C301.104 269.741 309.839 265.544 318.669 261.602C315.627 259.214 314.404 254.873 313.338 251.317C312.714 249.235 312.004 247.28 311.063 245.321C310.18 243.484 310.002 241.682 307.781 242.003C306.019 242.257 305.382 243.463 304.058 244.485C302.473 245.708 300.564 246.639 298.861 247.688C295.315 249.871 291.816 251.799 288.011 253.554ZM243.093 288.55C248.014 284.412 254.267 282.257 259.388 278.482C257.562 277.891 255.453 279.697 253.787 280.575C251.892 281.573 249.986 282.541 248.084 283.524C246.229 284.482 240.901 286.738 241.32 289.47C241.911 289.164 242.502 288.856 243.093 288.55ZM409.468 107.111C402.389 111.124 394.619 114.547 387.885 119.177C380.174 124.479 371.855 129.394 364.912 135.706C358.102 141.898 350.784 147.396 344.29 153.982C337.977 160.384 332.03 166.844 326.611 174.026C323.959 177.542 321.454 181.129 319.095 184.852C316.793 188.488 314.001 191.881 311.858 195.598C309.952 198.908 308.357 201.872 307.019 205.471C305.59 209.319 304.264 213.205 302.831 217.049C301.633 220.257 305.485 225.007 306.962 227.875C309.01 231.851 311.172 235.706 313.511 239.517C315.739 243.149 318.113 247.062 319.239 251.187C319.713 252.921 320.079 256.123 321.247 257.536C322.181 258.669 324.909 258.568 326.273 258.454C327.94 258.314 329.305 257.43 331.074 257.414C333.049 257.396 334.85 257.677 336.769 257.266C339.135 256.759 341.733 256.056 343.949 255.063C345.998 254.144 348.35 253.872 350.573 253.351C354.19 252.505 357.518 251.237 359.139 255.336C361.009 260.065 360.988 264.864 361.9 269.748C363.373 269.076 364.443 268.702 365.553 267.563C366.849 266.234 368.454 265.305 369.989 264.287C373.378 262.036 376.857 260.224 380.367 258.173C386.797 254.416 393.692 251.37 400.471 248.364C403.903 246.842 407.728 245.416 411.34 244.413C415.045 243.383 418.78 242.092 422.607 241.613C425.836 241.209 429.028 240.481 432.267 239.948C433.727 239.708 435.413 239.284 436.82 239.118C438.858 238.878 440.364 239.662 442.405 238.698C440.088 235.15 437.118 232.233 434.575 228.826C431.919 225.268 428.62 222.553 425.039 219.688C423.441 218.409 422.016 216.93 420.442 215.624C418.691 214.171 416.722 213.205 414.84 211.958C410.989 209.408 407.051 207.063 403.229 204.47C399.892 202.206 396.343 200.196 392.874 198.123C389.061 195.844 384.726 194.789 380.729 192.926C379.041 192.139 377.448 191.419 375.677 190.798C374.045 190.227 371.336 188.551 369.547 189.23C368.519 189.62 367.046 190.973 366.231 191.709C364.724 193.073 363.02 194.291 361.424 195.614C359.678 197.062 358.04 198.656 356.279 200.079C355.574 200.648 354.581 200.984 353.929 201.561C353.249 202.165 352.861 202.989 352.107 203.629C348.389 206.793 344.773 210.108 340.974 213.177C337.063 216.337 333.007 219.358 329.449 222.93C328.771 223.611 328.192 224.754 327.344 224.563C326.713 224.42 325.95 223.55 325.805 222.905C325.324 220.759 328.127 218.626 329.273 217.153C332.344 213.207 335.672 209.893 339.353 206.485C341.167 204.807 342.951 203.085 344.838 201.49C346.416 200.156 347.907 198.438 349.638 197.334C351.178 196.351 352.05 195.169 353.421 193.849C355.44 191.904 357.597 190.079 359.712 188.24C363.327 185.095 367.519 182.554 371.417 179.774C380.446 173.332 390.292 167.677 400.455 163.184C405.578 160.92 410.841 158.339 416.261 156.881C417.568 156.529 420.103 155.326 421.439 156.036C422.156 156.418 422.311 157.401 422.716 157.984C423.401 158.968 424.212 159.201 425.164 159.948C423.827 154.169 422.701 148.43 421.713 142.586C420.817 137.298 419.788 131.967 419.345 126.552C418.876 120.823 418.648 114.625 419.247 108.913C419.37 107.737 420.06 105.644 419.704 104.554C419.338 103.429 417.464 103.283 416.383 103.632C413.956 104.417 411.696 106 409.468 107.111ZM493.481 160.066C490.885 152.389 489.579 143.715 484.994 136.91C483.053 134.029 481.291 131.238 478.451 129.133C477.015 128.069 476.223 127.168 475.104 128.692C473.971 130.235 473.529 132.971 472.823 134.762C471.527 138.054 470.151 141.462 468.134 144.387C466.546 146.691 462.771 149.91 459.839 147.832C457.045 145.851 457.417 141.138 457.901 138.232C458.456 134.906 460.629 131.069 457.375 128.763C455.974 127.77 454.684 127.931 453.093 127.586C451.716 127.287 450.402 126.686 449.019 126.374C445.01 125.468 441.303 125.988 437.276 126.263C435.417 126.389 434.952 125.922 434.658 127.706C434.339 129.644 434.743 131.971 434.771 133.94C434.828 137.884 434.711 141.699 434.25 145.611C433.785 149.559 433.596 153.548 433.262 157.51C433.136 159.005 433.058 160.501 432.777 161.979C432.623 162.783 432.337 163.568 432.291 164.392C432.222 165.612 432.862 166.403 432.986 167.53C433.523 172.389 428.805 167.416 427.788 166.214C426.632 164.846 425.012 164.108 423.656 162.959C422.535 162.011 421.328 160.392 419.695 160.45C418.357 160.498 417.198 161.799 416.079 162.385C414.021 163.462 411.817 164.261 409.758 165.36C407.833 166.387 405.943 167.48 404.017 168.505C402.09 169.532 399.956 170.099 398.094 171.201C394.754 173.178 391.137 174.756 387.87 176.874C384.037 179.36 380.264 181.867 376.372 184.255C378.159 185.634 380.504 185.516 382.666 186.095C384.597 186.613 386.318 187.443 388.234 187.9C390.179 188.364 391.786 189.629 393.586 190.431C395.349 191.217 396.93 191.829 398.621 192.837C406.783 197.704 414.98 202.239 422.543 208.074C426.371 211.027 430.23 214.294 433.537 217.828C437.084 221.618 440.012 226.082 443.018 230.303C444.516 232.407 445.637 234.247 446.208 236.79C446.332 237.401 446.45 238.013 446.562 238.626C446.435 239.479 446.788 239.834 447.622 239.69C448.348 240.128 449.052 240.095 449.487 240.948C449.817 241.596 449.8 242.53 449.402 243.162C448.633 244.382 448.19 243.41 447.157 244.141C446.838 244.565 446.519 244.988 446.2 245.41C445.821 245.171 445.437 244.939 445.049 244.714C444.014 244.356 443.47 244.68 442.451 244.943C445.451 250.251 446.939 255.533 448.184 261.478C448.783 264.337 448.94 267.331 449.62 270.158C450.38 273.316 452.214 274.076 455.001 275.142C454.634 275.615 453.912 276.276 453.686 276.836C453.326 277.728 453.522 277.728 453.952 278.67C454.741 280.396 455.186 282.248 455.69 284.069C456.623 287.44 457.65 290.901 457.943 294.404C458.475 300.765 457.895 307.888 456.862 314.176C456.284 317.695 455.868 321.582 454.664 324.941C453.454 328.311 452.274 331.693 451.074 335.068C448.711 341.711 445.284 347.118 441.509 353.007C440.015 355.339 438.466 357.853 437.421 360.385C436.358 362.957 434.448 365.29 432.808 367.555C432.077 368.565 431.741 369.69 430.885 370.636C430.081 371.524 429.446 371.984 428.864 372.933C427.421 375.287 425.718 377.514 423.908 379.62C421.699 382.188 419.631 384.946 417.26 387.359C416.18 388.459 415.198 389.568 414.198 390.734C413.115 391.995 411.825 393.088 410.727 394.407C409.798 395.522 408.745 396.404 407.748 397.424C406.934 398.257 406.44 399.23 405.614 400.089C403.898 401.874 402.195 403.189 400.607 405.095C398.496 407.627 395.569 409.694 393.148 411.927C390.445 414.422 387.62 416.965 384.695 419.193C383.451 420.141 382.456 421.093 381.333 422.181C380.601 422.891 379.677 423.518 378.844 424.254C376.542 426.292 374.229 428.298 371.857 430.22C367.224 433.974 362.602 438.052 358.349 442.219C356.119 444.404 353.94 446.803 351.94 449.202C349.678 451.914 346.923 454.14 344.644 456.843C340.241 462.064 335.893 467.355 331.616 472.679C329.37 475.475 327.185 478.297 325.066 481.19C324.297 482.239 323.277 482.993 322.51 484.029C321.507 485.383 320.903 486.975 319.864 488.338C315.861 493.59 311.673 498.727 308.444 504.534C306.755 507.574 304.896 510.745 303.739 514.034C303.356 515.12 302.631 516.862 302.999 518.016C303.544 519.723 303.046 518.151 304.06 518.894C304.878 518.635 305.189 518.854 304.996 519.548C304.908 519.873 304.713 520.107 304.411 520.25C303.523 520.895 301.219 520.691 300.234 520.615C298.529 520.484 297.371 519.863 295.92 518.998C292.769 517.124 289.652 515.204 286.462 513.394C283.593 511.767 280.649 509.877 277.628 508.558C275.579 507.665 275.779 508.372 274.658 509.914C273.823 511.062 272.641 511.928 271.749 513.057C268.351 517.36 264.24 521.268 260.412 524.933C259.541 525.767 259.25 526.593 258.567 527.508C257.697 528.674 256.369 529.656 255.334 530.674C252.484 533.479 249.673 536.324 246.877 539.183C244.718 541.391 242.564 543.338 241.365 546.142C240.888 547.258 240.143 548.242 239.643 549.379C239.06 550.701 238.382 552.731 237.372 553.789L236.888 554.722C236.217 554.599 235.545 554.478 234.873 554.357C234.206 554.237 233.54 554.118 232.874 553.996C231.201 553.691 229.531 553.369 227.861 553.048C224.072 552.321 220.274 551.622 216.565 550.541C209.978 548.624 203.313 547.005 196.628 545.444C189.612 543.805 182.64 541.921 175.556 540.604C169.135 539.411 162.512 538.95 156.153 537.5C152.952 536.77 149.751 536.025 146.526 535.375C146.351 535.34 143.825 535.026 143.744 534.901C143.597 534.668 143.951 533.725 144.048 533.429C144.504 532.027 145.107 530.689 145.555 529.277C147.644 522.7 153.217 520.354 158.93 517.483C161.52 516.18 164.934 516.095 167.816 515.782C171.34 515.4 174.973 515.541 178.516 515.478C185.819 515.347 193.141 514.742 200.416 514.387C203.277 514.248 205.903 513.618 208.666 513.159C211.47 512.693 213.749 510.878 216.442 509.708C217.839 509.101 219.186 508.584 220.546 507.869C221.353 507.444 222.236 506.851 223.06 506.492C223.729 506.201 224.542 506.161 225.121 505.813C227.654 504.291 230.281 502.579 232.878 500.974C235.456 499.38 238.2 497.921 240.653 496.148C241.888 495.256 243.053 494.259 244.15 493.2C245.102 492.281 246.958 490.885 247.519 489.647C248.021 488.54 247.652 488.697 246.646 487.723C246.248 487.338 245.734 486.714 245.255 486.387C243.962 485.502 243.075 485.444 242.807 483.721C242.334 480.685 244.125 477.792 245.724 475.461C249.326 470.211 252.12 464.31 256.191 459.393C264.582 449.262 271.306 438.006 279.196 427.484C287.868 415.918 295.419 403.544 304.373 392.171C312.708 381.585 320.979 370.988 329.485 360.538C333.639 355.435 338.598 350.238 341.878 344.537C339.028 345.431 336.126 346.232 333.31 347.227C332.004 347.688 330.78 348.37 329.441 348.74C327.943 349.153 326.365 349.189 324.864 349.59C322.283 350.277 319.754 350.437 317.218 351.227C314.498 352.074 311.634 352.466 308.955 353.432C303.349 355.453 297.561 355.68 291.676 355.324C290.219 355.236 289.418 356.032 288.102 356.12C287.376 356.17 286.294 355.538 285.371 355.355C282.828 354.85 280.442 353.973 277.936 353.298C278.036 363.648 273.194 372.927 268.659 381.969C266.362 386.548 263.552 390.824 261.192 395.366C259.363 398.887 257.688 402.055 255.459 405.208C253.318 408.235 251.626 411.776 249.777 415.083C248.523 417.324 246.792 419.374 245.336 421.487C244.147 423.214 241.618 426.134 241.983 428.115C242.281 429.735 243.782 431.138 241.265 431.48C239.012 431.786 236.571 430.237 234.709 429.21C229.893 426.554 225.216 423.671 220.546 420.77C220.386 424.359 218.776 427.625 217.388 430.865C216.545 432.834 215.604 434.733 214.582 436.613C214.086 437.525 213.576 438.43 213.078 439.342C212.883 439.701 212.364 440.353 212.315 440.756C212.2 441.699 212.322 441.24 212.799 442.099C213.545 443.445 214.511 444.331 214.333 446.028C214.165 447.622 212.796 448.895 212.056 450.268C210.296 453.537 208.456 456.998 206.198 459.955C205.685 460.626 205.187 461.231 204.758 461.962C204.042 463.181 204.356 463.361 202.972 463.138C200.806 462.787 198.532 461.602 196.424 460.95C192.008 459.583 187.572 458.267 183.12 457.022C174.636 454.649 166.087 452.615 157.636 450.115C149.606 447.739 141.478 446.248 133.374 444.204C131.151 443.643 128.935 443.046 126.721 442.449C124.75 441.918 121.833 441.673 120.083 440.641C117.542 439.141 122.183 433.391 123.793 432.116C126.57 429.917 130.816 428.513 134.238 427.716C137.829 426.88 142.191 427.572 145.893 427.554C150.065 427.533 154.206 427.272 158.364 427.152C160.218 427.098 162.106 426.87 163.953 427.095C165.913 427.334 167.768 427.78 169.756 427.823C172.046 427.872 174.382 427.827 176.662 427.597C177.695 427.492 178.797 427.358 179.793 427.051C181.203 426.618 180.742 426.085 181.691 425.238C182.498 424.517 183.072 425.186 184.015 425.015C184.903 424.854 185.404 424.379 185.897 423.635C186.997 421.979 187.763 420.038 188.846 418.343C189.85 416.769 191.027 415.19 191.886 413.535C192.27 412.798 192.419 411.958 192.79 411.218C193.385 410.03 193.895 410.161 194.755 409.138C195.458 408.301 195.909 407.134 196.523 406.217C196.904 405.648 198.002 404.648 198.102 403.962C198.366 402.163 196.392 401.897 195.206 402.933C194.453 401.826 192.097 399.458 192.039 398.124C191.988 396.945 193.133 396.647 193.783 395.714C196.228 392.204 197.057 387.476 199.128 383.718C201.08 380.176 202.491 376.366 204.397 372.796C206.03 369.738 207.916 366.618 209.256 363.511C210.841 359.839 213.429 356.363 215.368 352.845C217.372 349.211 219.046 345.422 221.006 341.777C222.891 338.271 224.681 334.69 226.694 331.253C228.503 328.163 230.515 325.178 232.257 322.087C233.211 320.395 234.357 318.768 235.676 317.341C236.988 315.921 238.044 314.477 239.294 313.023C241.778 310.133 245.418 307.258 248.651 305.28C252.205 303.105 255.797 300.97 259.594 299.234C261.617 298.309 263.759 297.798 265.827 297.003C267.726 296.272 269.938 295.829 271.745 294.93C272.563 294.523 273.125 293.841 273.981 293.588C274.697 293.376 275.467 293.516 276.22 293.258C277.897 292.685 279.439 291.79 281.157 291.258C285.104 290.034 289.148 289.012 293.057 287.686C297.223 286.274 301.204 284.55 305.475 283.424C309.648 282.323 313.857 281.236 318.055 280.249C326.977 278.153 335.967 275.979 345.121 274.733C347.261 274.442 349.399 274.118 351.563 274.07C352.612 274.047 353.663 274.119 354.707 273.983C356.202 273.789 356.53 273.825 356.703 272.414C356.999 269.987 356.495 267.186 356.397 264.737C356.299 262.314 356.373 259.793 355.883 257.44C354.375 257.858 352.799 259.101 351.371 259.813C349.625 260.683 347.853 261.445 346.076 262.243C342.495 263.851 339.22 264.067 335.334 264.499C332.058 264.862 328.021 266.056 324.871 264.904C323.181 264.286 322.702 264.261 321.045 265.266C319.373 266.279 317.791 267.433 316.034 268.306C309.414 271.597 303.259 275.825 296.612 279.138C294.814 280.034 290.641 282.986 289.523 279.744C289.291 279.071 289.529 278.287 289.322 277.58C289.101 276.822 288.594 276.181 288.166 275.536C287.151 274.012 286.125 272.494 285.111 270.969C279.857 275.759 274.354 280.208 268.795 284.639C266.489 286.477 262.991 289.88 259.928 290.287C256.967 290.679 256.798 286.322 256.806 284.195C252.181 287.733 247.553 292.178 242.489 295.024C240.949 295.89 239.551 296.957 238.293 295.186C237.29 293.774 237.542 291.374 237.49 289.755C233.283 291.237 229.114 293.181 227.506 287.642C226.029 282.559 229.545 279.81 233.352 277.021C238.051 273.579 243.187 270.803 248.013 267.551C252.212 264.721 256.785 261.615 261.6 259.88C264.149 258.961 266.642 257.88 269.202 256.987C270.409 256.566 271.606 256.238 272.872 256.043C274.04 255.863 275.899 256.108 276.967 255.64C278.579 254.935 279.519 251.885 281.012 250.599C282.861 249.004 285.108 247.843 287.241 246.686C289.66 245.375 292.118 244.138 294.521 242.797C295.068 242.492 297.283 241.652 297.58 241.113C298.012 240.328 296.438 238.03 295.925 237.026C295.449 236.096 294.821 234.237 293.996 234.164C293.22 234.096 291.643 235.394 291.081 235.768C288.752 237.318 286.343 238.361 283.792 239.401C282.614 239.881 281.644 240.697 280.429 241.067C279.126 241.465 277.7 241.615 276.371 241.943C273.493 242.653 270.794 243.133 267.831 242.686C265.229 242.295 262.453 242.493 260.288 240.716C258.703 239.415 256.895 236.334 259.091 234.757C256.363 233.13 254.011 230.978 251.888 228.63C251.502 228.205 251.056 227.503 250.621 227.176C249.087 226.022 250.482 227.03 249.012 226.959C247.559 226.89 246.492 226.796 245.091 226.161C242.859 225.148 241.298 223.36 240.113 221.253C238.504 218.392 236.503 215.25 235.586 212.091C233.997 206.62 235.979 201.06 238.364 196.225C239.659 193.599 242.089 191.733 244.042 189.608C245.927 187.555 248.065 185.33 250.42 183.976C252.546 182.754 254.38 181.039 256.469 179.731C259.341 177.934 262.47 176.689 265.485 175.165C266.872 174.464 268.191 173.621 269.529 172.827C270.285 172.378 271.67 171.857 272.254 171.21C273.209 170.149 273.061 171.529 272.765 169.753C272.201 166.374 271.574 163.25 271.466 159.766C271.365 156.521 271.563 153.283 272.334 150.118C273.056 147.148 274.556 144.533 275.73 141.743C276.6 139.675 277.732 137.65 278.934 135.751C279.621 134.665 280.554 133.822 281.253 132.821C282.121 131.579 282.926 130.57 284.067 129.532C286.514 127.304 288.913 125.03 291.98 123.689C295.286 122.243 298.228 119.976 301.866 119.489C308.623 118.585 314.471 123.705 317.072 129.669C318.87 128.236 320.198 126.45 322.31 125.385C324.255 124.405 326.686 123.504 328.799 122.985C332.901 121.978 337.743 122.31 341.448 124.471C344.981 126.532 347.144 130.422 347.398 134.473C347.52 136.412 347.188 138.338 346.757 140.219C346.442 141.599 345.213 143.528 345.756 144.936C358.348 133.843 371.595 124.03 385.788 115.116C392.983 110.597 400.891 107.608 408.294 103.525C411.457 101.78 415.176 100.505 418.569 98.9735C420.002 98.3269 421.024 97.62 421.637 96.2194C422.259 94.8022 422.573 93.2702 424.415 94.0667C424.885 94.2698 425.332 95.0762 425.87 95.1447C426.523 95.2274 427.906 94.3354 428.532 94.0949C430.722 93.2535 432.965 92.6675 435.247 92.1307C439.433 91.1461 443.599 90.181 447.833 89.4233C455.897 87.981 463.837 86.5215 471.954 85.473C480.236 84.403 488.834 83.8222 497.184 84.3976C501.228 84.6761 505.467 85.393 509.44 86.2075C511.287 86.5865 513.028 87.1137 514.789 87.7834C516.673 88.499 518.65 88.6595 520.526 89.3905C524.605 90.9805 528.752 92.7494 532.682 94.695C534.734 95.7108 536.717 96.8648 538.674 98.0527C540.047 98.886 543.221 100.11 543.435 101.899C543.549 102.853 542.886 103.86 541.943 104.043C541.628 104.105 541.223 103.843 540.965 103.919C540.09 104.177 540.705 103.546 539.924 104.373C538.373 106.016 538.474 107.847 535.894 108.597C531.506 109.872 526.75 109.69 522.235 109.699C523.034 114.28 524.819 118.593 525.774 123.162C526.706 127.62 526.943 132.169 526.799 136.713C526.672 140.701 526.185 145.111 524.395 148.736C523.029 151.502 518.666 156.154 515.345 153.107C513.935 151.812 513.807 148.86 513.34 147.079C512.713 144.688 512.123 142.274 511.333 139.931C510.691 138.028 509.951 136.156 509.296 134.257C508.732 132.622 507.616 129.071 506.107 128.089C505.198 127.497 505.525 128.336 505.596 129.308C505.683 130.488 505.829 131.63 506.03 132.793C506.456 135.266 506.946 137.728 507.407 140.194C508.231 144.601 508.916 148.966 508.494 153.459C508.119 157.449 507.143 162.083 503.493 164.374C501.784 165.446 499.032 165.694 497.082 165.099C494.895 164.432 494.324 161.946 493.481 160.066Z" fill="#343434"/>
<path fill-rule="evenodd" clip-rule="evenodd" d="M478.48 362.202C480.423 360.805 481.442 358.276 482.601 356.197C484.078 353.545 485.375 350.798 486.751 348.093C489.343 342.996 491.415 337.757 493.163 332.29C496.614 321.503 497.353 309.307 495.149 298.197C494.034 292.575 492.806 285.952 489.732 281.019C488.664 279.305 488.151 279.136 486.274 279.742C485.427 280.015 483.279 280.715 482.699 281.363C481.196 283.042 481.778 287.005 482.024 289.018C482.748 294.962 484.233 300.783 485.135 306.697C486.02 312.494 486.046 318.774 485.913 324.632C485.617 337.669 482.509 349.88 478.48 362.202ZM493.953 283.916C499.309 299.04 501.602 314.732 497.912 330.563C496.159 338.088 493.319 345.234 489.854 352.13C486.276 359.25 482.457 366.16 477.591 372.473C476.296 374.153 474.998 375.831 473.663 377.479C472.923 378.393 471.307 381.252 470.076 381.478C469.089 381.658 468.545 381.078 468 380.248C466.776 378.386 467.619 376.793 468.345 374.908C471.262 367.332 474.187 359.73 476.611 351.981C481.398 336.678 482.783 320.335 480.449 304.448C479.731 299.556 478.856 294.678 478.252 289.771C477.883 286.782 476.929 281.597 479.073 279.045C480.222 277.677 482.243 277.576 483.595 276.453C484.864 275.4 485.458 274.161 487.305 274.942C490.546 276.312 492.753 280.893 493.953 283.916Z" fill="#343434"/>
<path fill-rule="evenodd" clip-rule="evenodd" d="M146.327 543.864C145.421 544.742 145.55 545.143 144.546 544.254C144.04 543.806 143.757 543.005 143.549 542.395C143.052 540.932 143.197 539.305 143.235 537.79C151.056 539.895 158.884 541.437 166.866 542.807C175.403 544.273 183.871 546.369 192.273 548.474C199.797 550.359 207.327 552.084 214.819 554.05C218.432 554.999 222.193 555.295 225.706 556.369C228.545 557.236 232.265 556.508 234.949 557.828C232.964 560.711 229.918 563.692 226.244 563.657C222.192 563.619 218.702 562.752 214.764 561.992C212.735 561.6 210.691 561.336 208.654 560.991C206.863 560.687 205.28 559.773 203.498 559.534C199.754 559.032 195.85 558.377 192.136 557.548C188.321 556.696 184.408 556.419 180.632 555.386C176.761 554.328 172.915 554.211 169.015 553.418C160.751 551.739 152.972 549.159 146.327 543.864Z" fill="#343434"/>
<path fill-rule="evenodd" clip-rule="evenodd" d="M204.506 227.966C204.618 228.417 204.73 228.867 204.843 229.318C204.895 229.307 205.328 220.422 205.547 219.273C206.291 215.377 207.889 211.689 209.385 208.036C212.555 200.298 217.128 193.134 220.144 185.353C221.136 182.794 223.134 178.69 221.082 176.064C219.042 173.454 213.38 176.756 211.735 178.531C209.156 181.314 207.837 185.275 206.569 188.781C205.185 192.606 203.767 196.411 202.938 200.403C202.043 204.709 201.391 209.227 201.648 213.632C201.937 218.568 203.283 223.197 204.506 227.966ZM211.595 240.277C209.43 242.205 212.83 241.29 212.458 243.09C212.051 245.064 208.15 241.334 207.486 240.597C203.561 236.242 201.459 229.734 199.979 224.17C199.233 221.363 198.31 218.584 197.731 215.734C197.167 212.956 197.345 209.989 197.473 207.169C197.73 201.525 198.891 195.848 200.713 190.511C202.54 185.157 204.771 179.616 208.383 175.185C211.368 171.525 218.077 170.059 221.776 173.392C225.556 176.798 225.174 182.56 223.589 186.891C221.521 192.539 219.096 198.317 216.309 203.645C214.877 206.384 213.969 209.32 212.634 212.104C211.214 215.068 210.108 217.902 209.542 221.155C208.995 224.307 208.398 227.479 208.574 230.694C208.767 234.213 210.154 237.117 211.595 240.277Z" fill="#343434"/>
<path fill-rule="evenodd" clip-rule="evenodd" d="M194.335 469.383C186.839 468.287 179.532 467.656 172.315 465.191C165.189 462.756 158.418 459.434 151.014 457.879C147.32 457.103 143.594 456.493 139.918 455.628C136.429 454.807 132.686 454.448 129.317 453.234C124.827 451.613 116.438 448.624 118.34 442.286C125.943 445.91 134.811 447.455 143.004 449.101C151.643 450.837 160.105 453.599 168.602 455.908C176.786 458.132 184.972 460.411 193.073 462.831C195.2 463.467 197.304 464.195 199.44 464.802C199.701 464.876 201.758 465.161 201.881 465.43C202.176 466.077 201.124 467.044 200.765 467.425C200.2 468.026 198.642 469.59 197.744 469.711C197.274 469.774 197.113 469.44 196.724 469.375C196.405 469.129 196.066 468.916 195.708 468.732C195.25 468.95 194.793 469.167 194.335 469.383Z" fill="#343434"/>
<path fill-rule="evenodd" clip-rule="evenodd" d="M505.516 248.7C501.339 250.477 495.05 253.332 497.859 258.876C499.249 261.621 501.7 262.986 504.035 264.812C506.487 266.731 508.64 268.887 510.31 271.531C517.064 282.234 517.991 295.277 519.042 307.54C524.138 297.322 525.824 285.569 524.34 274.206C523.621 268.696 521.365 262.221 518.589 257.407C517.2 254.999 515.244 253.164 513.105 251.43C512.031 250.558 510.883 249.527 509.574 249.022C508.262 248.517 506.882 248.778 505.516 248.7ZM518.645 315.616C513.973 312.437 515.219 304.05 514.636 299.137C513.94 293.264 513.021 287.237 511.284 281.573C509.465 275.639 506.53 271.719 501.685 267.955C497.353 264.59 493.293 259.329 493.733 253.477C493.911 251.122 495.336 250.192 496.813 248.611C498.626 246.671 498.53 244.831 501.383 243.828C506.474 242.037 510.857 245.654 514.483 248.784C522.936 256.082 527.219 268.523 527.831 279.445C528.182 285.729 528.335 292.352 526.872 298.507C526.155 301.525 524.999 304.385 523.732 307.207C522.362 310.26 521.418 313.617 518.645 315.616Z" fill="#343434"/>
<path fill-rule="evenodd" clip-rule="evenodd" d="M166.268 282.708C160.413 286.948 155.859 292.544 158.139 300.277C160.211 307.305 167.481 311.365 174.398 311.941C181.88 312.566 189.597 309.716 193.843 303.305C198.312 296.555 196.165 288.094 189.565 283.699C182.201 278.793 174.171 280.017 166.268 282.708ZM168.966 277.652C177.157 275.278 186.782 277.503 192.732 283.698C198.867 290.085 200.23 299.561 195.073 306.946C184.65 321.873 159.185 316.539 155.27 298.841C154.276 294.347 155.312 290.044 157.59 286.108C160.106 281.763 164.575 279.637 168.966 277.652Z" fill="#343434"/>
<path fill-rule="evenodd" clip-rule="evenodd" d="M406.693 75.9304C395.53 75.9582 384.367 75.9862 373.205 76.014C374.743 80.3897 376.281 84.765 377.818 89.1409C378.234 90.3251 378.52 92.0638 379.21 93.1043C379.948 94.2144 379.481 94.273 380.961 93.3923C382.853 92.2654 384.627 90.8607 386.437 89.6089C389.692 87.3581 393.379 85.4578 396.422 82.9428C397.975 81.6594 399.643 80.8262 401.309 79.7187C403.138 78.5025 404.791 77.041 406.693 75.9304ZM379.108 98.3293C376.948 93.5952 375.343 88.6853 373.625 83.776C372.08 79.3588 370.387 75.2492 369.924 70.5801C372.285 72.3395 376.285 71.6485 379.046 71.8485C382.851 72.124 386.653 71.8702 390.462 71.9646C394.204 72.057 397.933 72.4216 401.676 72.509C403.574 72.5536 405.473 72.5368 407.37 72.5886C408.558 72.621 411.211 72.3356 412.217 72.9431C415.274 74.7863 409.115 77.9091 408.011 78.6982C404.701 81.0662 401.208 83.1433 397.914 85.5282C394.843 87.7524 391.744 89.9305 388.632 92.0966C385.553 94.2404 382.526 96.7701 379.108 98.3293Z" fill="#343434"/>
<path fill-rule="evenodd" clip-rule="evenodd" d="M147.354 345.641C150.822 343.6 154.2 341.399 157.674 339.378C160.963 337.465 163.844 335.711 166.27 332.693C161.379 333.355 156.51 334.09 151.639 334.894C149.224 335.293 146.798 335.655 144.39 336.097C142.527 336.438 140.961 336.86 139.485 335.326C137.766 333.539 139.992 332.913 141.534 332.863C143.661 332.793 145.819 332.368 147.954 332.143C152.719 331.641 157.459 331.016 162.205 330.37C163.681 330.169 171.856 328.186 170.294 331.935C169.626 333.54 167.31 335.31 166.245 336.729C164.88 338.549 163.081 339.846 161.239 341.163C157.4 343.907 153.171 346.218 149.231 348.876C147.218 350.234 145.206 351.592 143.194 352.95C142.015 353.745 141.514 353.948 140.53 352.674C139.815 351.748 139.658 350.567 139.433 349.456C138.86 346.636 138.359 343.798 137.853 340.965C137.659 339.885 136.157 335.432 136.806 334.574C138.277 332.627 139.457 339.203 139.64 339.99C140.333 342.96 140.914 345.958 141.88 348.851C143.719 347.802 145.55 346.749 147.354 345.641Z" fill="#343434"/>
<path fill-rule="evenodd" clip-rule="evenodd" d="M208.872 343.736C210.425 345.225 209.41 346.18 208.242 347.474C206.726 349.153 205.261 350.863 203.674 352.477C200.334 355.87 196.914 359.166 193.781 362.759C187.806 369.61 181.667 376.372 175.919 383.411C174.491 385.16 173.06 386.907 171.6 388.63C170.09 390.413 168.579 392.942 166.758 394.398C165.17 395.668 164.398 394.472 164.923 392.808C165.6 390.661 167.202 388.559 168.441 386.716C173.54 379.131 179.656 372.06 186.029 365.535C193.394 357.993 200.847 350.58 208.872 343.736Z" fill="#343434"/>
<path fill-rule="evenodd" clip-rule="evenodd" d="M181.468 231.58C178.687 226.168 176.895 220.286 173.939 214.971C169.44 225.145 177.906 233.833 185.586 239.142L181.468 231.58ZM184.599 229.77C185.879 232.449 187.264 235.079 188.228 237.886C189.24 240.833 191.223 241.684 193.892 242.977C193.109 245.131 188.174 243.194 186.781 242.595C183.915 241.36 181.221 239.212 178.805 237.261C173.66 233.105 169.179 228.187 168.636 221.296C168.434 218.741 168.052 215.318 169.583 213.079C171.263 210.621 173.939 211.786 175.828 213.378C180.439 217.263 181.66 224.683 184.599 229.77Z" fill="#343434"/>
<path fill-rule="evenodd" clip-rule="evenodd" d="M390.144 468.094C393.759 466.78 397.32 465.485 400.91 464.115C398.121 459.597 395.332 455.078 392.543 450.559C390.739 451.949 388.934 453.338 387.129 454.726C386.275 455.383 384.839 456.109 384.212 456.972C383.929 457.189 383.647 457.406 383.365 457.623C383.64 458.249 383.917 458.875 384.195 459.5C385.011 461.351 385.797 463.214 386.56 465.088C386.879 465.873 387.126 467.124 387.658 467.804C387.684 468.725 388.041 468.958 388.732 468.503C389.203 468.367 389.673 468.231 390.144 468.094ZM389.323 472.655C385.966 472.537 384.812 468.027 383.605 465.37C382.838 463.68 382.192 461.949 381.467 460.243C380.969 459.069 380.05 457.756 379.937 456.455C379.736 454.14 383.224 452.614 385.068 451.941C386.436 451.442 387.51 450.871 388.824 450.167C389.471 449.82 390.274 449.608 390.839 449.111C390.961 449.004 391.869 447.464 391.809 447.488C394.243 446.489 396.897 452.222 397.718 453.61C399.742 457.031 401.732 460.474 403.688 463.934C404.206 464.85 405.051 465.766 404.396 466.723C403.805 467.585 401.423 468.086 400.51 468.469C396.826 470.017 392.954 471.097 389.323 472.655Z" fill="#343434"/>
<path fill-rule="evenodd" clip-rule="evenodd" d="M462.576 181.193C464.808 181.897 464.719 183.715 465.014 185.733C465.191 186.944 465.082 191.235 466.01 192.019C467.083 192.927 469.775 192.042 471.037 191.907C473.236 191.673 475.444 191.437 477.659 191.51C478.642 191.542 481.95 191.139 482.831 191.635C483.336 191.919 483.601 192.201 483.618 192.856C483.648 194.007 482.831 193.763 481.737 194.012C476.742 195.149 471.665 196.005 466.523 195.943C466.596 199.227 466.875 202.486 467.162 205.759C467.246 206.718 467.823 208.721 466.772 209.362C465.491 210.142 464.643 208.331 464.285 207.309C463.762 205.816 463.806 203.949 463.634 202.388C463.493 201.1 463.723 198.177 463.037 197.095C462.566 196.351 462.108 196.627 461.104 196.707C460.156 196.784 459.209 196.862 458.26 196.935C456.738 197.051 455.222 197.164 453.694 197.176C452.856 197.182 451.234 197.483 450.435 197.067C449.972 196.826 449.03 195.626 449.229 195.084C449.693 193.816 456.507 193.552 457.833 193.335C458.714 193.191 459.575 192.995 460.462 192.928C460.798 192.903 461.336 193.18 461.654 193.054C463.005 192.519 462.646 191.453 462.557 190.175C462.351 187.204 462.203 184.146 462.576 181.193Z" fill="#343434"/>
<path fill-rule="evenodd" clip-rule="evenodd" d="M156.527 381.776C155.034 380.368 161.552 374.871 162.673 373.656C165.41 370.691 168.645 368.178 171.655 365.494C174.615 362.855 177.522 360.142 180.349 357.361C181.223 356.5 187.091 349.373 187.732 349.731C189.853 350.917 176.566 363.742 175.277 365.004C169.289 370.86 162.795 376.222 156.527 381.776Z" fill="#343434"/>
<path fill-rule="evenodd" clip-rule="evenodd" d="M416.148 99.9512C414.22 100.854 411.678 102.679 409.542 102.702C411.744 101.785 413.946 100.868 416.148 99.9512Z" fill="#343434"/>
<path fill-rule="evenodd" clip-rule="evenodd" d="M168.967 277.652L164.653 279.601C165.938 278.612 167.282 277.755 168.967 277.652Z" fill="#343434"/>
<path fill-rule="evenodd" clip-rule="evenodd" d="M392.681 174.203C393.694 173.735 394.707 173.266 395.713 172.8C394.698 173.27 393.689 173.737 392.681 174.203Z" fill="#343434"/>
<path fill-rule="evenodd" clip-rule="evenodd" d="M493.481 160.067C493.97 161.159 494.46 162.25 494.945 163.339C494.455 162.246 493.968 161.156 493.481 160.067Z" fill="#343434"/>
<path fill-rule="evenodd" clip-rule="evenodd" d="M385.069 451.941C384.026 452.511 382.983 453.081 381.941 453.65C382.985 453.08 384.026 452.51 385.069 451.941Z" fill="#343434"/>
<path fill-rule="evenodd" clip-rule="evenodd" d="M296.497 241.694C295.442 242.283 294.388 242.872 293.334 243.46C294.388 242.871 295.443 242.282 296.497 241.694Z" fill="#343434"/>
<path fill-rule="evenodd" clip-rule="evenodd" d="M400.745 170.092C401.52 169.736 402.294 169.382 403.062 169.029C402.286 169.386 401.515 169.739 400.745 170.092Z" fill="#343434"/>
<path fill-rule="evenodd" clip-rule="evenodd" d="M254.86 263.254C253.937 263.781 253.013 264.307 252.09 264.833C253.013 264.307 253.937 263.781 254.86 263.254Z" fill="#343434"/>
<path fill-rule="evenodd" clip-rule="evenodd" d="M265.965 174.942C265.004 175.388 264.044 175.833 263.083 176.278C263.811 175.33 264.835 175.022 265.965 174.942Z" fill="#343434"/>
<path fill-rule="evenodd" clip-rule="evenodd" d="M166.314 422.137C165.493 422.46 165.018 423.148 164.216 422.588C164.692 421.672 165.423 422.144 166.314 422.137Z" fill="#343434"/>
<path fill-rule="evenodd" clip-rule="evenodd" d="M285.522 289.861L282.892 290.72L285.522 289.861Z" fill="#343434"/>
<path fill-rule="evenodd" clip-rule="evenodd" d="M389.324 472.655C389.882 472.415 390.44 472.176 390.991 471.939C390.431 472.179 389.877 472.417 389.324 472.655Z" fill="#343434"/>
<path fill-rule="evenodd" clip-rule="evenodd" d="M382.27 117.31C381.445 117.78 380.619 118.25 379.793 118.72C380.619 118.249 381.445 117.78 382.27 117.31Z" fill="#343434"/>
<path fill-rule="evenodd" clip-rule="evenodd" d="M228.838 503.573C228.012 503.954 227.187 504.335 226.362 504.715C227.188 504.334 228.013 503.954 228.838 503.573Z" fill="#343434"/>
<path fill-rule="evenodd" clip-rule="evenodd" d="M155.659 519.206C154.825 519.588 153.991 519.97 153.158 520.352C153.992 519.97 154.825 519.588 155.659 519.206Z" fill="#343434"/>
<path fill-rule="evenodd" clip-rule="evenodd" d="M286.371 247.147C285.562 247.617 284.752 248.087 283.943 248.557C284.753 248.087 285.562 247.617 286.371 247.147Z" fill="#343434"/>
<path fill-rule="evenodd" clip-rule="evenodd" d="M263.354 259.312C262.477 259.596 261.599 259.88 260.722 260.164C261.622 259.949 262.248 258.891 263.354 259.312Z" fill="#343434"/>
<path fill-rule="evenodd" clip-rule="evenodd" d="M354.172 258.409C354.664 258.114 355.31 257.599 355.884 257.44C355.954 257.778 354.371 258.317 354.172 258.409Z" fill="#343434"/>
<path fill-rule="evenodd" clip-rule="evenodd" d="M331.188 348.095C331.753 347.851 332.317 347.606 332.875 347.363C332.309 347.608 331.749 347.852 331.188 348.095Z" fill="#343434"/>
<path fill-rule="evenodd" clip-rule="evenodd" d="M250.212 304.376C249.431 304.828 248.651 305.28 247.87 305.731C248.651 305.279 249.431 304.828 250.212 304.376Z" fill="#343434"/>
<path fill-rule="evenodd" clip-rule="evenodd" d="M157.484 343.307C157.935 343.116 158.386 342.925 158.831 342.737C158.378 342.928 157.931 343.118 157.484 343.307Z" fill="#343434"/>
<path fill-rule="evenodd" clip-rule="evenodd" d="M279.421 291.796C278.716 292.1 278.011 292.405 277.307 292.71C278.011 292.405 278.716 292.1 279.421 291.796Z" fill="#343434"/>
<path fill-rule="evenodd" clip-rule="evenodd" d="M147.353 345.641C146.687 346.051 146.02 346.46 145.355 346.869C146.022 346.459 146.687 346.05 147.353 345.641Z" fill="#343434"/>
<path fill-rule="evenodd" clip-rule="evenodd" d="M241.493 295.43C241.937 295.248 242.381 295.067 242.821 294.89C242.375 295.073 241.934 295.252 241.493 295.43Z" fill="#343434"/>
<path fill-rule="evenodd" clip-rule="evenodd" d="M308.311 353.778C308.741 353.547 309.17 353.316 309.594 353.087C309.163 353.318 308.737 353.548 308.311 353.778Z" fill="#343434"/>
<path fill-rule="evenodd" clip-rule="evenodd" d="M315.925 280.746C315.172 280.982 314.419 281.218 313.667 281.454C314.419 281.218 315.172 280.982 315.925 280.746Z" fill="#343434"/>
<path fill-rule="evenodd" clip-rule="evenodd" d="M194.336 469.383C194.795 469.165 195.255 468.949 195.708 468.732C195.247 468.95 194.791 469.167 194.336 469.383Z" fill="#343434"/>
<path fill-rule="evenodd" clip-rule="evenodd" d="M130.115 429.123C129.344 429.384 128.574 429.645 127.803 429.907C128.574 429.646 129.344 429.385 130.115 429.123Z" fill="#343434"/>
<path fill-rule="evenodd" clip-rule="evenodd" d="M152.865 520.603C152.179 521.016 151.494 521.431 150.808 521.845C151.494 521.43 152.179 521.016 152.865 520.603Z" fill="#343434"/>
<path fill-rule="evenodd" clip-rule="evenodd" d="M457.857 144.328C458.086 144.981 458.316 145.634 458.542 146.286C458.313 145.632 458.085 144.98 457.857 144.328Z" fill="#343434"/>
<path fill-rule="evenodd" clip-rule="evenodd" d="M232.877 500.973C232.187 501.389 231.498 501.806 230.808 502.221C231.498 501.805 232.188 501.389 232.877 500.973Z" fill="#343434"/>
<path fill-rule="evenodd" clip-rule="evenodd" d="M226.064 504.956C225.563 505.808 224.839 506.173 223.854 505.966C224.591 505.629 225.327 505.293 226.064 504.956Z" fill="#343434"/>
<path fill-rule="evenodd" clip-rule="evenodd" d="M212.375 511.946C211.661 512.272 210.947 512.599 210.233 512.925C210.947 512.599 211.661 512.272 212.375 511.946Z" fill="#343434"/>
<path fill-rule="evenodd" clip-rule="evenodd" d="M184.599 229.77C184.248 229.162 183.897 228.555 183.547 227.95C183.898 228.558 184.248 229.164 184.599 229.77Z" fill="#343434"/>
<path fill-rule="evenodd" clip-rule="evenodd" d="M256.155 179.984C255.477 180.401 254.8 180.817 254.123 181.233C254.8 180.817 255.478 180.401 256.155 179.984Z" fill="#343434"/>
<path fill-rule="evenodd" clip-rule="evenodd" d="M258.546 178.487C257.853 178.902 257.161 179.317 256.469 179.731C257.161 179.317 257.853 178.902 258.546 178.487Z" fill="#343434"/>
<path fill-rule="evenodd" clip-rule="evenodd" d="M183.858 314.854C184.304 314.642 184.75 314.43 185.19 314.221C184.742 314.434 184.3 314.644 183.858 314.854Z" fill="#343434"/>
<path fill-rule="evenodd" clip-rule="evenodd" d="M245.647 278.164C247.85 276.683 250.172 275.465 252.793 274.902L245.647 278.164Z" fill="#343434"/>
<path fill-rule="evenodd" clip-rule="evenodd" d="M296.932 222.317C296.836 220.793 296.737 220.249 297.641 219.025C297.713 220.517 297.942 221.228 296.932 222.317Z" fill="#343434"/>
<path fill-rule="evenodd" clip-rule="evenodd" d="M413.637 324.286C414.301 325.614 414.964 326.942 415.627 328.269C414.963 326.94 414.3 325.613 413.637 324.286Z" fill="#343434"/>
<path fill-rule="evenodd" clip-rule="evenodd" d="M417.18 103.246C416.113 103.762 415.047 104.279 413.985 104.793C415.053 104.276 416.117 103.761 417.18 103.246Z" fill="#343434"/>
<path fill-rule="evenodd" clip-rule="evenodd" d="M367.406 374.357C367.957 375.465 368.508 376.573 369.058 377.681C368.507 376.572 367.957 375.465 367.406 374.357Z" fill="#343434"/>
<path fill-rule="evenodd" clip-rule="evenodd" d="M218.893 398.557C219.985 398.068 221.077 397.579 222.169 397.091C221.077 397.58 219.985 398.068 218.893 398.557Z" fill="#343434"/>
<path fill-rule="evenodd" clip-rule="evenodd" d="M285.065 298.546C284.412 298.852 283.759 299.157 283.113 299.461C283.768 299.156 284.417 298.851 285.065 298.546Z" fill="#343434"/>
<path fill-rule="evenodd" clip-rule="evenodd" d="M266.612 263.755C266.064 263.983 265.516 264.211 264.975 264.438C265.525 264.209 266.068 263.982 266.612 263.755Z" fill="#343434"/>
<path fill-rule="evenodd" clip-rule="evenodd" d="M231.994 392.169C232.808 391.698 233.62 391.226 234.433 390.754C233.62 391.226 232.808 391.698 231.994 392.169Z" fill="#343434"/>
<path fill-rule="evenodd" clip-rule="evenodd" d="M213.622 401.013C214.45 400.62 215.278 400.227 216.106 399.834C215.278 400.227 214.45 400.62 213.622 401.013Z" fill="#343434"/>
<path fill-rule="evenodd" clip-rule="evenodd" d="M222.514 396.931C223.343 396.462 224.172 395.992 225.002 395.523C224.173 395.992 223.343 396.462 222.514 396.931Z" fill="#343434"/>
<path fill-rule="evenodd" clip-rule="evenodd" d="M226.289 396.867C225.859 397.06 225.428 397.253 225.003 397.444C225.436 397.25 225.863 397.058 226.289 396.867Z" fill="#343434"/>
<path fill-rule="evenodd" clip-rule="evenodd" d="M399.574 294.454C399.348 293.791 399.123 293.127 398.899 292.466C399.125 293.13 399.349 293.792 399.574 294.454Z" fill="#343434"/>
<path fill-rule="evenodd" clip-rule="evenodd" d="M241.404 289.152C241.966 288.951 242.529 288.75 243.093 288.55C242.502 288.857 241.911 289.163 241.321 289.47C241.267 289.344 241.295 289.238 241.404 289.152Z" fill="#343434"/>
<path fill-rule="evenodd" clip-rule="evenodd" d="M429.204 332.361C428.906 331.799 428.607 331.237 428.312 330.678C428.61 331.241 428.907 331.801 429.204 332.361Z" fill="#343434"/>
<path fill-rule="evenodd" clip-rule="evenodd" d="M250.119 282.514C249.688 282.721 249.257 282.928 248.831 283.132C249.264 282.924 249.691 282.719 250.119 282.514Z" fill="#343434"/>
<path fill-rule="evenodd" clip-rule="evenodd" d="M442.531 282.825C443.295 282.579 444.058 282.334 444.821 282.088C444.058 282.334 443.295 282.579 442.531 282.825Z" fill="#343434"/>
<path fill-rule="evenodd" clip-rule="evenodd" d="M270.182 303.629C269.739 303.84 269.296 304.049 268.859 304.258C269.304 304.048 269.743 303.838 270.182 303.629Z" fill="#343434"/>
<path fill-rule="evenodd" clip-rule="evenodd" d="M204.506 227.966C205.088 228.003 205.347 229.215 204.843 229.318C204.73 228.867 204.618 228.417 204.506 227.966Z" fill="#343434"/>
<path fill-rule="evenodd" clip-rule="evenodd" d="M505.515 248.7C505.08 248.886 504.645 249.07 504.216 249.253C504.652 249.068 505.084 248.884 505.515 248.7Z" fill="#343434"/>
<path fill-rule="evenodd" clip-rule="evenodd" d="M181.468 231.58C180.98 230.631 180.493 229.682 180.006 228.735C180.494 229.686 180.981 230.632 181.468 231.58Z" fill="#343434"/>
<path fill-rule="evenodd" clip-rule="evenodd" d="M388.025 468.708C388.732 468.503 389.439 468.298 390.145 468.094C389.438 468.299 388.732 468.503 388.025 468.708Z" fill="#343434"/>
<path fill-rule="evenodd" clip-rule="evenodd" d="M269.734 221.002C267.618 222.55 265.335 223.896 263.377 225.646C262.889 226.082 261.517 228.021 260.705 228.046C259.471 228.082 259.484 226.725 259.648 225.929C260.087 223.8 261.766 221.953 263.69 221.099C265.61 220.248 268.201 218.981 269.734 221.002Z" fill="#343434"/>
<path fill-rule="evenodd" clip-rule="evenodd" d="M265.199 228.246C268.594 228.877 270.964 228.87 269.332 224.715C272.293 223.824 273.096 228.893 271.142 230.195C269.015 231.611 266.435 230.011 265.199 228.246Z" fill="#343434"/>
</svg>
